<svg width="476" height="91" viewBox="0 0 476 91" fill="none" xmlns="http://www.w3.org/2000/svg">
<path fill-rule="evenodd" clip-rule="evenodd" d="M86.9969 54.7614C82.8519 74.5985 65.2639 89.4985 44.1959 89.4985C20.0467 89.4985 0.469971 69.9217 0.469971 45.7726C0.469971 21.6234 20.0467 2.04665 44.1959 2.04665C65.1558 2.04665 82.6713 16.7941 86.9321 36.4788H68.2155C64.488 26.8515 55.1392 20.0245 44.1959 20.0245C29.9756 20.0245 18.4479 31.5523 18.4479 45.7725C18.4479 59.9927 29.9756 71.5205 44.1959 71.5205C55.2543 71.5205 64.6845 64.5491 68.3313 54.7614H86.9969Z" fill="#0762C8"/>
<path fill-rule="evenodd" clip-rule="evenodd" d="M162.065 25.3818C162.065 32.3072 156.158 38.7085 145.112 45.0983C156.997 51.444 162.065 58.4532 162.065 66.1633C162.065 82.4025 143.494 91.0063 125.341 91.0063C106.122 91.0063 88.8063 81.1733 88.8063 66.1633C88.8063 59.2379 94.7132 52.8366 105.759 46.4469C93.8747 40.1012 88.8063 33.092 88.8063 25.3818C88.8063 9.14265 107.378 0.538857 125.531 0.538857C144.749 0.538857 162.065 10.3718 162.065 25.3818ZM141.615 24.9996C141.615 29.6684 135.842 33.8129 125.41 38.1941C113.78 34.4218 109.121 30.0406 109.121 24.9996C109.121 17.6241 117.359 13.7165 125.41 13.7165C133.935 13.7165 141.615 18.1824 141.615 24.9996ZM109.121 66.5117C109.121 61.8429 114.894 57.6984 125.326 53.3171C136.956 57.0894 141.615 61.4707 141.615 66.5117C141.615 73.8871 133.378 77.7948 125.326 77.7948C116.802 77.7948 109.121 73.3289 109.121 66.5117Z" fill="#0762C8"/>
<path d="M204.271 67.2726V36.4755H209.47V42.475L208.613 41.9607C209.375 40.0181 210.594 38.5134 212.27 37.4469C213.984 36.3422 215.984 35.7899 218.269 35.7899C220.479 35.7899 222.44 36.2851 224.154 37.2755C225.907 38.2658 227.278 39.6371 228.268 41.3894C229.297 43.1416 229.811 45.1223 229.811 47.3316V67.2726H224.44V49.0458C224.44 47.3316 224.135 45.8842 223.526 44.7033C222.916 43.5225 222.04 42.6083 220.898 41.9607C219.793 41.2751 218.517 40.9323 217.069 40.9323C215.622 40.9323 214.327 41.2751 213.184 41.9607C212.079 42.6083 211.203 43.5415 210.556 44.7605C209.908 45.9413 209.584 47.3697 209.584 49.0458V67.2726H204.271ZM252.728 67.9582C249.756 67.9582 247.109 67.2535 244.785 65.8441C242.462 64.4347 240.633 62.5111 239.3 60.0733C237.967 57.5973 237.3 54.8357 237.3 51.7883C237.3 48.7029 237.948 45.9603 239.243 43.5606C240.576 41.1608 242.367 39.2753 244.614 37.904C246.9 36.4946 249.452 35.7899 252.27 35.7899C254.556 35.7899 256.575 36.2089 258.327 37.0469C260.117 37.8468 261.622 38.9515 262.841 40.3609C264.098 41.7322 265.05 43.313 265.698 45.1033C266.383 46.8555 266.726 48.6839 266.726 50.5885C266.726 51.0075 266.688 51.4836 266.612 52.0169C266.574 52.5121 266.517 52.9882 266.44 53.4453H241.186V48.8743H263.355L260.841 50.9313C261.184 48.9505 260.993 47.1793 260.27 45.6175C259.546 44.0558 258.479 42.8178 257.07 41.9036C255.661 40.9894 254.061 40.5323 252.27 40.5323C250.48 40.5323 248.842 40.9894 247.357 41.9036C245.871 42.8178 244.709 44.1319 243.871 45.8461C243.071 47.5221 242.748 49.5219 242.9 51.8455C242.748 54.0929 243.09 56.0736 243.928 57.7878C244.804 59.4638 246.023 60.7779 247.585 61.7302C249.185 62.6444 250.918 63.1015 252.785 63.1015C254.842 63.1015 256.575 62.6254 257.984 61.6731C259.394 60.7208 260.536 59.5019 261.412 58.0163L265.869 60.3018C265.26 61.7112 264.307 63.0063 263.012 64.1871C261.755 65.3299 260.251 66.2441 258.498 66.9297C256.784 67.6154 254.861 67.9582 252.728 67.9582ZM289.482 79.8428C287.31 79.8428 285.291 79.4999 283.425 78.8143C281.597 78.1286 280.016 77.1764 278.683 75.9574C277.387 74.7766 276.397 73.3862 275.711 71.7864L280.682 69.5009C281.216 70.9484 282.225 72.1673 283.711 73.1577C285.234 74.1862 287.139 74.7004 289.424 74.7004C291.177 74.7004 292.757 74.3576 294.167 73.6719C295.614 73.0244 296.757 72.034 297.595 70.7008C298.433 69.4057 298.852 67.8249 298.852 65.9584V59.0448L299.823 60.0733C298.757 62.1683 297.214 63.7681 295.195 64.8728C293.215 65.9774 291.024 66.5298 288.624 66.5298C285.73 66.5298 283.139 65.8632 280.854 64.53C278.568 63.1587 276.778 61.3112 275.483 58.9876C274.188 56.626 273.54 54.0167 273.54 51.1598C273.54 48.2649 274.188 45.6556 275.483 43.332C276.778 41.0084 278.549 39.18 280.797 37.8468C283.082 36.4755 285.672 35.7899 288.567 35.7899C290.967 35.7899 293.138 36.3422 295.081 37.4469C297.062 38.5134 298.643 39.999 299.823 41.9036L299.023 43.332V36.4755H304.223V65.9584C304.223 68.6248 303.594 71.0055 302.337 73.1006C301.08 75.1956 299.328 76.8335 297.081 78.0144C294.871 79.2333 292.338 79.8428 289.482 79.8428ZM289.082 61.3874C290.91 61.3874 292.548 60.9303 293.995 60.0161C295.481 59.1019 296.662 57.883 297.538 56.3593C298.414 54.7976 298.852 53.0644 298.852 51.1598C298.852 49.2933 298.414 47.5792 297.538 46.0175C296.662 44.4557 295.481 43.2177 293.995 42.3035C292.548 41.3894 290.91 40.9323 289.082 40.9323C287.215 40.9323 285.52 41.3894 283.996 42.3035C282.473 43.2177 281.273 44.4557 280.397 46.0175C279.559 47.5411 279.14 49.2553 279.14 51.1598C279.14 53.0644 279.559 54.7976 280.397 56.3593C281.273 57.883 282.454 59.1019 283.939 60.0161C285.463 60.9303 287.177 61.3874 289.082 61.3874ZM328.231 67.9582C325.26 67.9582 322.574 67.2726 320.175 65.9013C317.775 64.4919 315.87 62.5682 314.461 60.1304C313.051 57.6925 312.347 54.9309 312.347 51.8455C312.347 48.7601 313.032 46.0175 314.404 43.6177C315.813 41.2179 317.718 39.3134 320.117 37.904C322.517 36.4946 325.222 35.7899 328.231 35.7899C331.202 35.7899 333.887 36.4946 336.287 37.904C338.687 39.2753 340.573 41.1608 341.944 43.5606C343.353 45.9603 344.058 48.722 344.058 51.8455C344.058 54.969 343.334 57.7497 341.887 60.1875C340.439 62.5873 338.516 64.4919 336.116 65.9013C333.754 67.2726 331.126 67.9582 328.231 67.9582ZM328.231 62.8158C330.135 62.8158 331.85 62.3397 333.373 61.3874C334.935 60.4351 336.154 59.121 337.03 57.4449C337.944 55.7689 338.401 53.9024 338.401 51.8455C338.401 49.7504 337.944 47.903 337.03 46.3032C336.154 44.6652 334.935 43.3701 333.373 42.4178C331.85 41.4274 330.135 40.9323 328.231 40.9323C326.288 40.9323 324.536 41.4274 322.974 42.4178C321.451 43.3701 320.232 44.6652 319.317 46.3032C318.403 47.903 317.946 49.7504 317.946 51.8455C317.946 53.9024 318.403 55.7689 319.317 57.4449C320.232 59.121 321.451 60.4351 322.974 61.3874C324.536 62.3397 326.288 62.8158 328.231 62.8158ZM325.545 30.7047L330.059 21.677H337.259L330.859 30.7047H325.545ZM366.416 67.9582C363.406 67.9582 360.721 67.2535 358.359 65.8441C356.036 64.4347 354.207 62.5111 352.874 60.0733C351.541 57.6354 350.874 54.8928 350.874 51.8455C350.874 48.7601 351.541 46.0175 352.874 43.6177C354.207 41.2179 356.036 39.3134 358.359 37.904C360.721 36.4946 363.406 35.7899 366.416 35.7899C368.434 35.7899 370.32 36.1518 372.072 36.8755C373.824 37.5992 375.367 38.5706 376.7 39.7895C378.034 41.0084 379.005 42.4369 379.614 44.0748L374.872 46.3603C374.148 44.7605 373.044 43.4653 371.558 42.475C370.072 41.4465 368.358 40.9323 366.416 40.9323C364.549 40.9323 362.854 41.4084 361.33 42.3607C359.845 43.313 358.664 44.6081 357.788 46.246C356.912 47.884 356.474 49.7695 356.474 51.9026C356.474 53.9596 356.912 55.826 357.788 57.5021C358.664 59.14 359.845 60.4351 361.33 61.3874C362.854 62.3397 364.549 62.8158 366.416 62.8158C368.358 62.8158 370.072 62.3207 371.558 61.3303C373.044 60.3018 374.148 58.9496 374.872 57.2735L379.614 59.6733C379.005 61.2731 378.034 62.7016 376.7 63.9586C375.367 65.1775 373.824 66.1489 372.072 66.8726C370.32 67.5963 368.434 67.9582 366.416 67.9582ZM387.701 67.2726V36.4755H393.015V67.2726H387.701ZM387.701 31.5617V24.7053H393.015V31.5617H387.701ZM417.03 67.9582C414.059 67.9582 411.374 67.2726 408.974 65.9013C406.574 64.4919 404.67 62.5682 403.26 60.1304C401.851 57.6925 401.146 54.9309 401.146 51.8455C401.146 48.7601 401.832 46.0175 403.203 43.6177C404.612 41.2179 406.517 39.3134 408.917 37.904C411.317 36.4946 414.021 35.7899 417.03 35.7899C420.001 35.7899 422.687 36.4946 425.087 37.904C427.486 39.2753 429.372 41.1608 430.743 43.5606C432.153 45.9603 432.857 48.722 432.857 51.8455C432.857 54.969 432.134 57.7497 430.686 60.1875C429.239 62.5873 427.315 64.4919 424.915 65.9013C422.554 67.2726 419.925 67.9582 417.03 67.9582ZM417.03 62.8158C418.935 62.8158 420.649 62.3397 422.173 61.3874C423.734 60.4351 424.953 59.121 425.829 57.4449C426.744 55.7689 427.201 53.9024 427.201 51.8455C427.201 49.7504 426.744 47.903 425.829 46.3032C424.953 44.6652 423.734 43.3701 422.173 42.4178C420.649 41.4274 418.935 40.9323 417.03 40.9323C415.088 40.9323 413.335 41.4274 411.774 42.4178C410.25 43.3701 409.031 44.6652 408.117 46.3032C407.203 47.903 406.746 49.7504 406.746 51.8455C406.746 53.9024 407.203 55.7689 408.117 57.4449C409.031 59.121 410.25 60.4351 411.774 61.3874C413.335 62.3397 415.088 62.8158 417.03 62.8158ZM451.958 67.9582C448.873 67.9582 446.187 67.1964 443.902 65.6727C441.616 64.149 439.997 62.0921 439.045 59.5019L443.273 57.4449C444.149 59.2733 445.349 60.7208 446.873 61.7874C448.397 62.8539 450.092 63.3872 451.958 63.3872C453.634 63.3872 455.025 62.9873 456.129 62.1873C457.234 61.3874 457.786 60.3399 457.786 59.0448C457.786 58.1306 457.52 57.4068 456.986 56.8736C456.491 56.3022 455.882 55.8641 455.158 55.5594C454.434 55.2166 453.768 54.969 453.158 54.8166L448.53 53.5025C445.749 52.7025 443.711 51.5598 442.416 50.0742C441.159 48.5887 440.531 46.8555 440.531 44.8747C440.531 43.0463 440.988 41.4655 441.902 40.1323C442.854 38.761 444.13 37.6945 445.73 36.9326C447.368 36.1708 449.197 35.7899 451.215 35.7899C453.92 35.7899 456.339 36.4755 458.472 37.8468C460.643 39.2181 462.186 41.1418 463.1 43.6177L458.758 45.6175C458.072 44.0177 457.043 42.7606 455.672 41.8464C454.301 40.8942 452.758 40.418 451.044 40.418C449.482 40.418 448.244 40.818 447.33 41.6179C446.416 42.3797 445.959 43.3511 445.959 44.5319C445.959 45.408 446.187 46.1317 446.644 46.7031C447.102 47.2364 447.654 47.6554 448.301 47.9601C448.949 48.2268 449.577 48.4553 450.187 48.6458L455.215 50.1314C457.729 50.8551 459.672 51.9788 461.043 53.5025C462.452 55.0261 463.157 56.8545 463.157 58.9876C463.157 60.7018 462.681 62.2445 461.729 63.6158C460.776 64.9871 459.462 66.0536 457.786 66.8155C456.11 67.5773 454.167 67.9582 451.958 67.9582Z" fill="#0762C8"/>
</svg>
