<svg width="682" height="94" viewBox="0 0 682 94" fill="none" xmlns="http://www.w3.org/2000/svg">
<path fill-rule="evenodd" clip-rule="evenodd" d="M375.465 90.5336C396.599 90.5336 413.731 74.3558 413.731 54.3995C413.731 34.4432 396.599 18.2654 375.465 18.2654C354.33 18.2654 337.198 34.4432 337.198 54.3995C337.198 74.3558 354.33 90.5336 375.465 90.5336ZM375.465 76.7323C388.284 76.7323 398.676 66.7336 398.676 54.3995C398.676 42.0654 388.284 32.0666 375.465 32.0666C362.645 32.0666 352.253 42.0654 352.253 54.3995C352.253 66.7336 362.645 76.7323 375.465 76.7323Z" fill="#0762C8"/>
<path fill-rule="evenodd" clip-rule="evenodd" d="M117.758 90.5336C138.892 90.5336 156.025 74.3558 156.025 54.3995C156.025 34.4432 138.892 18.2654 117.758 18.2654C96.6239 18.2654 79.4911 34.4432 79.4911 54.3995C79.4911 74.3558 96.6239 90.5336 117.758 90.5336ZM117.758 76.7323C130.577 76.7323 140.969 66.7336 140.969 54.3995C140.969 42.0654 130.577 32.0666 117.758 32.0666C104.939 32.0666 94.5469 42.0654 94.5469 54.3995C94.5469 66.7336 104.939 76.7323 117.758 76.7323Z" fill="#0762C8"/>
<path d="M131.434 0.323853H118.511L108.85 13.1213H125.035L131.434 0.323853Z" fill="#0762C8"/>
<path fill-rule="evenodd" clip-rule="evenodd" d="M75.8421 62.3039C72.074 78.5214 56.7702 90.6591 38.464 90.6591C17.3297 90.6591 0.197021 74.4813 0.197021 54.525C0.197021 34.5688 17.3297 18.3909 38.464 18.3909C56.9585 18.3909 72.3886 30.7797 75.9547 47.2481H60.4151C57.2783 38.4867 48.6352 32.1921 38.464 32.1921C25.6448 32.1921 15.2529 42.1909 15.2529 54.525C15.2529 66.8591 25.6448 76.8579 38.464 76.8579C48.4399 76.8579 56.9458 70.8027 60.2283 62.3039H75.8421Z" fill="#0762C8"/>
<path d="M291.653 51.3883V62.8057H319.507C313.861 73.0939 308.591 76.356 295.167 76.356C281.742 76.356 272.206 64.3113 272.206 54.1486C272.206 43.9859 280.738 33.0704 297.801 32.5685C311.452 32.167 322.225 39.4273 325.906 43.1076V25.7934C317.374 19.771 306.584 18.2654 297.801 18.2654C287.89 18.2654 256.9 25.166 256.9 54.1486C256.9 83.1311 284.38 91.0569 293.912 90.7845C305.445 90.455 313.911 83.9288 319.507 74.3485V89.7808H330.799V51.3883H291.653Z" fill="#0762C8"/>
<rect x="235.069" y="18.6418" width="15.0559" height="70.5117" fill="#0762C8"/>
<path fill-rule="evenodd" clip-rule="evenodd" d="M186.639 19.0277L163.051 19.0183L163.051 90.0318H186.639V90.0223C210.477 90.0223 228.795 73.8589 228.795 54.525C228.795 35.1912 210.603 19.0277 186.639 19.0277ZM187.171 76.4815H178.358V32.5708L187.171 32.5744C201.989 32.5744 213.237 42.5694 213.237 54.525C213.237 66.4805 201.911 76.4756 187.171 76.4756V76.4815Z" fill="#0762C8"/>
<path fill-rule="evenodd" clip-rule="evenodd" d="M496.739 36.1801C496.739 41.9432 491.824 47.2703 482.632 52.5877C492.522 57.8684 496.739 63.7013 496.739 70.1175C496.739 83.6314 481.285 90.7913 466.178 90.7913C450.185 90.7913 435.775 82.6086 435.775 70.1175C435.775 64.3544 440.691 59.0274 449.883 53.71C439.993 48.4292 435.775 42.5963 435.775 36.1801C435.775 22.6662 451.23 15.5063 466.336 15.5063C482.33 15.5063 496.739 23.6891 496.739 36.1801ZM479.721 35.862C479.721 39.7473 474.917 43.1962 466.236 46.8422C456.558 43.703 452.681 40.057 452.681 35.862C452.681 29.7243 459.536 26.4725 466.236 26.4725C473.33 26.4725 479.721 30.1889 479.721 35.862ZM452.681 70.4075C452.681 66.5222 457.485 63.0733 466.166 59.4273C475.844 62.5665 479.721 66.2125 479.721 70.4075C479.721 76.5451 472.866 79.797 466.166 79.797C459.072 79.797 452.681 76.0806 452.681 70.4075Z" fill="#0762C8"/>
<path d="M538.945 81.2684V50.4714H544.144V56.7565L543.401 55.7851C544.163 53.8425 545.382 52.3569 547.058 51.3284C548.734 50.3 550.62 49.7857 552.715 49.7857C555.115 49.7857 557.267 50.4523 559.171 51.7855C561.114 53.1187 562.447 54.8709 563.171 57.0422L561.685 57.0993C562.485 54.6995 563.838 52.8902 565.742 51.6712C567.647 50.4142 569.761 49.7857 572.084 49.7857C574.218 49.7857 576.141 50.2809 577.855 51.2713C579.607 52.2617 580.998 53.633 582.026 55.3852C583.055 57.1374 583.569 59.1181 583.569 61.3275V81.2684H578.198V63.0416C578.198 61.3275 577.893 59.88 577.284 58.6991C576.674 57.5183 575.836 56.6041 574.77 55.9565C573.741 55.2709 572.522 54.9281 571.113 54.9281C569.742 54.9281 568.504 55.2709 567.399 55.9565C566.333 56.6041 565.476 57.5373 564.828 58.7563C564.218 59.9371 563.914 61.3655 563.914 63.0416V81.2684H558.543V63.0416C558.543 61.3275 558.238 59.88 557.629 58.6991C557.019 57.5183 556.181 56.6041 555.115 55.9565C554.086 55.2709 552.867 54.9281 551.458 54.9281C550.087 54.9281 548.849 55.2709 547.744 55.9565C546.677 56.6041 545.82 57.5373 545.173 58.7563C544.563 59.9371 544.259 61.3655 544.259 63.0416V81.2684H538.945ZM603.286 81.954C600.201 81.954 597.515 81.1922 595.23 79.6685C592.944 78.1449 591.326 76.0879 590.373 73.4977L594.601 71.4408C595.478 73.2691 596.677 74.7166 598.201 75.7832C599.725 76.8498 601.42 77.383 603.286 77.383C604.962 77.383 606.353 76.9831 607.457 76.1832C608.562 75.3832 609.114 74.3357 609.114 73.0406C609.114 72.1264 608.848 71.4027 608.314 70.8694C607.819 70.298 607.21 69.86 606.486 69.5552C605.762 69.2124 605.096 68.9648 604.486 68.8124L599.858 67.4983C597.077 66.6984 595.039 65.5556 593.744 64.07C592.487 62.5845 591.859 60.8513 591.859 58.8705C591.859 57.0422 592.316 55.4614 593.23 54.1281C594.182 52.7569 595.458 51.6903 597.058 50.9285C598.696 50.1666 600.525 49.7857 602.543 49.7857C605.248 49.7857 607.667 50.4714 609.8 51.8427C611.971 53.214 613.514 55.1376 614.428 57.6135L610.086 59.6133C609.4 58.0135 608.371 56.7565 607 55.8423C605.629 54.89 604.086 54.4138 602.372 54.4138C600.81 54.4138 599.572 54.8138 598.658 55.6137C597.744 56.3756 597.287 57.3469 597.287 58.5277C597.287 59.4038 597.515 60.1276 597.973 60.6989C598.43 61.2322 598.982 61.6512 599.629 61.956C600.277 62.2226 600.906 62.4512 601.515 62.6416L606.543 64.1272C609.057 64.8509 611 65.9746 612.371 67.4983C613.78 69.0219 614.485 70.8503 614.485 72.9835C614.485 74.6976 614.009 76.2403 613.057 77.6116C612.104 78.9829 610.79 80.0494 609.114 80.8113C607.438 81.5731 605.496 81.954 603.286 81.954ZM637.268 93.8386C635.097 93.8386 633.078 93.4958 631.212 92.8101C629.383 92.1245 627.802 91.1722 626.469 89.9532C625.174 88.7724 624.184 87.3821 623.498 85.7822L628.469 83.4967C629.002 84.9442 630.012 86.1631 631.497 87.1535C633.021 88.182 634.926 88.6962 637.211 88.6962C638.963 88.6962 640.544 88.3534 641.954 87.6678C643.401 87.0202 644.544 86.0298 645.382 84.6966C646.22 83.4015 646.639 81.8207 646.639 79.9542V73.0406L647.61 74.0691C646.544 76.1641 645.001 77.7639 642.982 78.8686C641.001 79.9733 638.811 80.5256 636.411 80.5256C633.516 80.5256 630.926 79.859 628.641 78.5258C626.355 77.1545 624.565 75.307 623.27 72.9835C621.974 70.6218 621.327 68.0125 621.327 65.1557C621.327 62.2607 621.974 59.6514 623.27 57.3278C624.565 55.0043 626.336 53.1759 628.583 51.8427C630.869 50.4714 633.459 49.7857 636.354 49.7857C638.754 49.7857 640.925 50.338 642.868 51.4427C644.848 52.5093 646.429 53.9948 647.61 55.8994L646.81 57.3278V50.4714H652.01V79.9542C652.01 82.6206 651.381 85.0013 650.124 87.0964C648.867 89.1914 647.115 90.8293 644.868 92.0102C642.658 93.2291 640.125 93.8386 637.268 93.8386ZM636.868 75.3832C638.697 75.3832 640.335 74.9261 641.782 74.0119C643.268 73.0977 644.449 71.8788 645.325 70.3551C646.201 68.7934 646.639 67.0602 646.639 65.1557C646.639 63.2892 646.201 61.575 645.325 60.0133C644.449 58.4515 643.268 57.2136 641.782 56.2994C640.335 55.3852 638.697 54.9281 636.868 54.9281C635.002 54.9281 633.307 55.3852 631.783 56.2994C630.259 57.2136 629.06 58.4515 628.183 60.0133C627.345 61.537 626.926 63.2511 626.926 65.1557C626.926 67.0602 627.345 68.7934 628.183 70.3551C629.06 71.8788 630.24 73.0977 631.726 74.0119C633.25 74.9261 634.964 75.3832 636.868 75.3832ZM661.39 81.2684V50.4714H666.704V81.2684H661.39ZM661.39 45.5576V38.7011H666.704V45.5576H661.39Z" fill="#0762C8"/>
</svg>
