<svg width="668" height="92" viewBox="0 0 668 92" fill="none" xmlns="http://www.w3.org/2000/svg">
<path fill-rule="evenodd" clip-rule="evenodd" d="M375.465 91.0759C396.599 91.0759 413.731 74.8981 413.731 54.9418C413.731 34.9855 396.599 18.8077 375.465 18.8077C354.33 18.8077 337.198 34.9855 337.198 54.9418C337.198 74.8981 354.33 91.0759 375.465 91.0759ZM375.465 77.2746C388.284 77.2746 398.676 67.2759 398.676 54.9418C398.676 42.6077 388.284 32.6089 375.465 32.6089C362.645 32.6089 352.253 42.6077 352.253 54.9418C352.253 67.2759 362.645 77.2746 375.465 77.2746Z" fill="#0762C8"/>
<path fill-rule="evenodd" clip-rule="evenodd" d="M117.758 91.0759C138.892 91.0759 156.025 74.8981 156.025 54.9418C156.025 34.9855 138.892 18.8077 117.758 18.8077C96.6239 18.8077 79.4911 34.9855 79.4911 54.9418C79.4911 74.8981 96.6239 91.0759 117.758 91.0759ZM117.758 77.2746C130.577 77.2746 140.969 67.2759 140.969 54.9418C140.969 42.6077 130.577 32.6089 117.758 32.6089C104.939 32.6089 94.5469 42.6077 94.5469 54.9418C94.5469 67.2759 104.939 77.2746 117.758 77.2746Z" fill="#0762C8"/>
<path d="M131.434 0.86615H118.511L108.85 13.6636H125.035L131.434 0.86615Z" fill="#0762C8"/>
<path fill-rule="evenodd" clip-rule="evenodd" d="M75.8421 62.8462C72.074 79.0637 56.7701 91.2014 38.464 91.2014C17.3297 91.2014 0.197021 75.0235 0.197021 55.0673C0.197021 35.111 17.3297 18.9332 38.464 18.9332C56.9585 18.9332 72.3886 31.322 75.9547 47.7903H60.4151C57.2783 39.029 48.6352 32.7344 38.464 32.7344C25.6448 32.7344 15.2529 42.7332 15.2529 55.0673C15.2529 67.4014 25.6448 77.4002 38.464 77.4002C48.4399 77.4002 56.9458 71.345 60.2283 62.8462H75.8421Z" fill="#0762C8"/>
<path d="M291.653 51.9306V63.348H319.507C313.861 73.6362 308.591 76.8983 295.167 76.8983C281.742 76.8983 272.206 64.8536 272.206 54.6909C272.206 44.5281 280.738 33.6126 297.801 33.1108C311.452 32.7093 322.225 39.9696 325.906 43.6499V26.3356C317.374 20.3133 306.584 18.8077 297.801 18.8077C287.89 18.8077 256.9 25.7083 256.9 54.6909C256.9 83.6734 284.38 91.5991 293.912 91.3268C305.445 90.9973 313.911 84.4711 319.507 74.8908V90.3231H330.799V51.9306H291.653Z" fill="#0762C8"/>
<rect x="235.069" y="19.1841" width="15.0559" height="70.5117" fill="#0762C8"/>
<path fill-rule="evenodd" clip-rule="evenodd" d="M186.639 19.57L163.051 19.5606L163.051 90.5741H186.639V90.5646C210.477 90.5646 228.795 74.4011 228.795 55.0673C228.795 35.7335 210.603 19.57 186.639 19.57ZM187.171 77.0238H178.358V33.1131L187.171 33.1166C201.989 33.1166 213.237 43.1117 213.237 55.0673C213.237 67.0228 201.911 77.0179 187.171 77.0179V77.0238Z" fill="#0762C8"/>
<path fill-rule="evenodd" clip-rule="evenodd" d="M496.739 36.7224C496.739 42.4855 491.824 47.8125 482.632 53.1299C492.522 58.4107 496.739 64.2436 496.739 70.6598C496.739 84.1737 481.285 91.3336 466.178 91.3336C450.185 91.3336 435.775 83.1508 435.775 70.6598C435.775 64.8967 440.691 59.5696 449.883 54.2522C439.993 48.9715 435.775 43.1386 435.775 36.7224C435.775 23.2085 451.23 16.0486 466.336 16.0486C482.33 16.0486 496.739 24.2313 496.739 36.7224ZM479.721 36.4043C479.721 40.2896 474.917 43.7385 466.236 47.3845C456.558 44.2453 452.681 40.5993 452.681 36.4043C452.681 30.2666 459.536 27.0148 466.236 27.0148C473.33 27.0148 479.721 30.7311 479.721 36.4043ZM452.681 70.9497C452.681 67.0644 457.485 63.6155 466.166 59.9695C475.844 63.1087 479.721 66.7547 479.721 70.9498C479.721 77.0874 472.866 80.3393 466.166 80.3393C459.072 80.3393 452.681 76.6229 452.681 70.9497Z" fill="#0762C8"/>
<path d="M553.229 82.4963C550.22 82.4963 547.534 81.7916 545.173 80.3822C542.849 78.9728 541.021 77.0492 539.688 74.6114C538.354 72.1735 537.688 69.4309 537.688 66.3836C537.688 63.2982 538.354 60.5556 539.688 58.1558C541.021 55.7561 542.849 53.8515 545.173 52.4421C547.534 51.0327 550.22 50.328 553.229 50.328C555.248 50.328 557.133 50.6899 558.886 51.4136C560.638 52.1374 562.181 53.1087 563.514 54.3276C564.847 55.5466 565.818 56.975 566.428 58.6129L561.685 60.8984C560.962 59.2986 559.857 58.0035 558.371 57.0131C556.886 55.9846 555.172 55.4704 553.229 55.4704C551.363 55.4704 549.668 55.9465 548.144 56.8988C546.658 57.8511 545.477 59.1462 544.601 60.7841C543.725 62.4221 543.287 64.3076 543.287 66.4407C543.287 68.4977 543.725 70.3642 544.601 72.0402C545.477 73.6781 546.658 74.9732 548.144 75.9255C549.668 76.8778 551.363 77.354 553.229 77.354C555.172 77.354 556.886 76.8588 558.371 75.8684C559.857 74.8399 560.962 73.4877 561.685 71.8116L566.428 74.2114C565.818 75.8113 564.847 77.2397 563.514 78.4967C562.181 79.7156 560.638 80.687 558.886 81.4107C557.133 82.1344 555.248 82.4963 553.229 82.4963ZM574.515 81.8107V38.5577H579.829V81.8107H574.515ZM600.13 82.4963C597.921 82.4963 595.921 81.9821 594.13 80.9536C592.378 79.9251 591.007 78.4967 590.017 76.6683C589.064 74.8018 588.588 72.6687 588.588 70.2689V51.0137H593.902V69.6976C593.902 71.2212 594.207 72.5544 594.816 73.6972C595.464 74.8399 596.34 75.7351 597.444 76.3826C598.587 77.0302 599.882 77.354 601.33 77.354C602.777 77.354 604.053 77.0302 605.158 76.3826C606.301 75.7351 607.177 74.8018 607.786 73.5829C608.434 72.364 608.758 70.9165 608.758 69.2405V51.0137H614.129V81.8107H608.929V75.8113L609.786 76.3255C609.062 78.2682 607.824 79.7918 606.072 80.8965C604.358 81.963 602.377 82.4963 600.13 82.4963ZM639.445 82.4963C636.969 82.4963 634.702 81.944 632.645 80.8393C630.627 79.7347 629.065 78.1729 627.96 76.1541L628.703 75.2399V81.8107H623.504V38.5577H628.817V57.6416L628.017 56.3274C629.16 54.499 630.722 53.0516 632.703 51.985C634.683 50.8803 636.95 50.328 639.502 50.328C642.397 50.328 644.987 51.0327 647.273 52.4421C649.596 53.8515 651.425 55.7751 652.758 58.213C654.091 60.6127 654.758 63.3553 654.758 66.4407C654.758 69.45 654.091 72.1735 652.758 74.6114C651.425 77.0492 649.596 78.9728 647.273 80.3822C644.987 81.7916 642.378 82.4963 639.445 82.4963ZM639.045 77.354C640.988 77.354 642.721 76.8778 644.244 75.9255C645.768 74.9732 646.949 73.6781 647.787 72.0402C648.663 70.3642 649.101 68.4977 649.101 66.4407C649.101 64.3076 648.663 62.4411 647.787 60.8413C646.949 59.2033 645.768 57.9082 644.244 56.9559C642.721 55.9656 640.988 55.4704 639.045 55.4704C637.102 55.4704 635.35 55.9465 633.788 56.8988C632.265 57.8511 631.046 59.1652 630.131 60.8413C629.255 62.4792 628.817 64.3457 628.817 66.4407C628.817 68.4977 629.255 70.3642 630.131 72.0402C631.046 73.6781 632.265 74.9732 633.788 75.9255C635.35 76.8778 637.102 77.354 639.045 77.354Z" fill="#0762C8"/>
</svg>
