<svg width="435" height="91" viewBox="0 0 435 91" fill="none" xmlns="http://www.w3.org/2000/svg">
<path fill-rule="evenodd" clip-rule="evenodd" d="M86.9969 54.2191C82.8519 74.0562 65.2639 88.9561 44.1959 88.9561C20.0467 88.9561 0.469971 69.3794 0.469971 45.2302C0.469971 21.0811 20.0467 1.50433 44.1959 1.50433C65.1559 1.50433 82.6714 16.2518 86.9321 35.9365H68.2155C64.488 26.3092 55.1392 19.4822 44.1959 19.4822C29.9756 19.4822 18.4479 31.0099 18.4479 45.2302C18.4479 59.4504 29.9756 70.9782 44.1959 70.9782C55.2543 70.9782 64.6845 64.0068 68.3313 54.2191H86.9969Z" fill="#00205B"/>
<path fill-rule="evenodd" clip-rule="evenodd" d="M162.065 24.8395C162.065 31.7649 156.158 38.1662 145.112 44.5559C156.997 50.9017 162.065 57.9108 162.065 65.621C162.065 81.8602 143.494 90.4639 125.341 90.4639C106.122 90.4639 88.8063 80.631 88.8063 65.621C88.8063 58.6956 94.7132 52.2943 105.759 45.9045C93.8747 39.5588 88.8063 32.5497 88.8063 24.8395C88.8063 8.60034 107.378 -0.00345612 125.531 -0.00345612C144.749 -0.00345612 162.065 9.82945 162.065 24.8395ZM141.615 24.4573C141.615 29.1261 135.842 33.2705 125.41 37.6518C113.78 33.8795 109.121 29.4983 109.121 24.4573C109.121 17.0818 117.359 13.1742 125.41 13.1742C133.935 13.1742 141.615 17.6401 141.615 24.4573ZM109.121 65.9694C109.121 61.3006 114.894 57.1561 125.326 52.7748C136.956 56.5471 141.615 60.9284 141.615 65.9694C141.615 73.3448 133.378 77.2525 125.326 77.2525C116.802 77.2525 109.121 72.7866 109.121 65.9694Z" fill="#00205B"/>
<path d="M204.271 66.7302V35.9332H209.47V42.2183L208.727 41.247C209.489 39.3043 210.708 37.8188 212.384 36.7903C214.06 35.7618 215.946 35.2476 218.041 35.2476C220.44 35.2476 222.593 35.9142 224.497 37.2474C226.44 38.5806 227.773 40.3328 228.497 42.504L227.011 42.5612C227.811 40.1614 229.163 38.352 231.068 37.1331C232.973 35.8761 235.087 35.2476 237.41 35.2476C239.543 35.2476 241.467 35.7428 243.181 36.7332C244.933 37.7235 246.324 39.0948 247.352 40.847C248.381 42.5993 248.895 44.58 248.895 46.7893V66.7302H243.524V48.5034C243.524 46.7893 243.219 45.3418 242.61 44.161C242 42.9802 241.162 42.066 240.096 41.4184C239.067 40.7328 237.848 40.3899 236.439 40.3899C235.068 40.3899 233.83 40.7328 232.725 41.4184C231.658 42.066 230.801 42.9992 230.154 44.2181C229.544 45.399 229.24 46.8274 229.24 48.5034V66.7302H223.869V48.5034C223.869 46.7893 223.564 45.3418 222.955 44.161C222.345 42.9802 221.507 42.066 220.44 41.4184C219.412 40.7328 218.193 40.3899 216.784 40.3899C215.412 40.3899 214.174 40.7328 213.07 41.4184C212.003 42.066 211.146 42.9992 210.499 44.2181C209.889 45.399 209.584 46.8274 209.584 48.5034V66.7302H204.271ZM271.755 67.4159C268.784 67.4159 266.136 66.7112 263.813 65.3018C261.489 63.8924 259.661 61.9688 258.327 59.5309C256.994 57.055 256.328 54.2934 256.328 51.246C256.328 48.1606 256.975 45.418 258.27 43.0183C259.603 40.6185 261.394 38.733 263.641 37.3617C265.927 35.9523 268.479 35.2476 271.298 35.2476C273.583 35.2476 275.602 35.6666 277.354 36.5046C279.144 37.3045 280.649 38.4092 281.868 39.8186C283.125 41.1899 284.077 42.7707 284.725 44.561C285.411 46.3132 285.753 48.1416 285.753 50.0461C285.753 50.4652 285.715 50.9413 285.639 51.4746C285.601 51.9698 285.544 52.4459 285.468 52.903H260.213V48.332H282.382L279.868 50.389C280.211 48.4082 280.021 46.637 279.297 45.0752C278.573 43.5134 277.507 42.2755 276.097 41.3613C274.688 40.4471 273.088 39.99 271.298 39.99C269.507 39.99 267.869 40.4471 266.384 41.3613C264.898 42.2755 263.736 43.5896 262.898 45.3037C262.098 46.9798 261.775 48.9796 261.927 51.3032C261.775 53.5506 262.118 55.5313 262.956 57.2454C263.832 58.9215 265.051 60.2356 266.612 61.1879C268.212 62.1021 269.945 62.5592 271.812 62.5592C273.869 62.5592 275.602 62.0831 277.011 61.1308C278.421 60.1785 279.563 58.9596 280.44 57.474L284.896 59.7595C284.287 61.1689 283.335 62.464 282.039 63.6448C280.782 64.7876 279.278 65.7018 277.526 66.3874C275.811 67.0731 273.888 67.4159 271.755 67.4159ZM306.337 67.0731C303.328 67.0731 301.005 66.216 299.367 64.5019C297.767 62.7878 296.967 60.369 296.967 57.2454V41.0185H291.368V35.9332H292.51C293.882 35.9332 294.967 35.5142 295.767 34.6762C296.567 33.8382 296.967 32.7335 296.967 31.3622V28.8482H302.281V35.9332H309.194V41.0185H302.281V57.074C302.281 58.1025 302.433 58.9977 302.738 59.7595C303.081 60.5213 303.633 61.1308 304.395 61.5879C305.157 62.0069 306.166 62.2164 307.423 62.2164C307.69 62.2164 308.014 62.1973 308.394 62.1593C308.813 62.1212 309.194 62.0831 309.537 62.045V66.7302C309.042 66.8445 308.49 66.9207 307.88 66.9588C307.271 67.035 306.757 67.0731 306.337 67.0731ZM317.621 66.7302V23.4773H322.935V41.9326L321.964 41.4184C322.725 39.4757 323.944 37.9711 325.62 36.9046C327.335 35.7999 329.334 35.2476 331.62 35.2476C333.829 35.2476 335.791 35.7428 337.505 36.7332C339.257 37.7235 340.629 39.0948 341.619 40.847C342.647 42.5993 343.162 44.58 343.162 46.7893V66.7302H337.791V48.5034C337.791 46.7893 337.467 45.3418 336.819 44.161C336.21 42.9802 335.353 42.066 334.248 41.4184C333.144 40.7328 331.867 40.3899 330.42 40.3899C329.011 40.3899 327.735 40.7328 326.592 41.4184C325.449 42.066 324.554 42.9992 323.906 44.2181C323.259 45.399 322.935 46.8274 322.935 48.5034V66.7302H317.621ZM366.535 67.4159C363.564 67.4159 360.879 66.7302 358.479 65.3589C356.079 63.9496 354.175 62.0259 352.765 59.5881C351.356 57.1502 350.651 54.3886 350.651 51.3032C350.651 48.2178 351.337 45.4752 352.708 43.0754C354.117 40.6756 356.022 38.7711 358.422 37.3617C360.821 35.9523 363.526 35.2476 366.535 35.2476C369.506 35.2476 372.192 35.9523 374.592 37.3617C376.991 38.733 378.877 40.6185 380.248 43.0183C381.658 45.418 382.362 48.1797 382.362 51.3032C382.362 54.4267 381.639 57.2074 380.191 59.6452C378.744 62.045 376.82 63.9496 374.42 65.3589C372.058 66.7302 369.43 67.4159 366.535 67.4159ZM366.535 62.2735C368.44 62.2735 370.154 61.7974 371.678 60.8451C373.239 59.8928 374.458 58.5787 375.334 56.9026C376.249 55.2266 376.706 53.3601 376.706 51.3032C376.706 49.2081 376.249 47.3607 375.334 45.7608C374.458 44.1229 373.239 42.8278 371.678 41.8755C370.154 40.8851 368.44 40.3899 366.535 40.3899C364.593 40.3899 362.84 40.8851 361.279 41.8755C359.755 42.8278 358.536 44.1229 357.622 45.7608C356.708 47.3607 356.251 49.2081 356.251 51.3032C356.251 53.3601 356.708 55.2266 357.622 56.9026C358.536 58.5787 359.755 59.8928 361.279 60.8451C362.84 61.7974 364.593 62.2735 366.535 62.2735ZM404.434 67.4159C401.539 67.4159 398.93 66.7112 396.606 65.3018C394.321 63.8924 392.512 61.9688 391.178 59.5309C389.845 57.0931 389.179 54.3695 389.179 51.3603C389.179 48.2749 389.845 45.5323 391.178 43.1325C392.512 40.6947 394.321 38.7711 396.606 37.3617C398.93 35.9523 401.539 35.2476 404.434 35.2476C406.986 35.2476 409.253 35.7999 411.234 36.9046C413.214 37.9711 414.776 39.4186 415.919 41.247L415.062 42.5612V23.4773H420.433V66.7302H415.233V60.1594L415.919 61.0736C414.852 63.0925 413.29 64.6543 411.234 65.7589C409.215 66.8636 406.948 67.4159 404.434 67.4159ZM404.891 62.2735C406.834 62.2735 408.567 61.7974 410.091 60.8451C411.614 59.8928 412.814 58.5977 413.69 56.9598C414.605 55.2837 415.062 53.4172 415.062 51.3603C415.062 49.2653 414.605 47.3988 413.69 45.7608C412.814 44.0848 411.614 42.7707 410.091 41.8184C408.567 40.8661 406.834 40.3899 404.891 40.3899C402.987 40.3899 401.254 40.8851 399.692 41.8755C398.168 42.8278 396.968 44.1229 396.092 45.7608C395.216 47.3607 394.778 49.2272 394.778 51.3603C394.778 53.4172 395.216 55.2837 396.092 56.9598C396.968 58.5977 398.168 59.8928 399.692 60.8451C401.215 61.7974 402.949 62.2735 404.891 62.2735Z" fill="#00205B"/>
</svg>
