<svg width="497" height="172" viewBox="0 0 497 172" fill="none" xmlns="http://www.w3.org/2000/svg">
<path fill-rule="evenodd" clip-rule="evenodd" d="M375.307 90.5003C396.441 90.5003 413.574 74.3225 413.574 54.3662C413.574 34.4099 396.441 18.2322 375.307 18.2322C354.173 18.2322 337.04 34.4099 337.04 54.3662C337.04 74.3225 354.173 90.5003 375.307 90.5003ZM375.307 76.6991C388.126 76.6991 398.518 66.7003 398.518 54.3662C398.518 42.0321 388.126 32.0334 375.307 32.0334C362.488 32.0334 352.096 42.0321 352.096 54.3662C352.096 66.7003 362.488 76.6991 375.307 76.6991Z" fill="#00205B"/>
<path fill-rule="evenodd" clip-rule="evenodd" d="M117.601 90.5003C138.735 90.5003 155.868 74.3225 155.868 54.3662C155.868 34.4099 138.735 18.2322 117.601 18.2322C96.4664 18.2322 79.3336 34.4099 79.3336 54.3662C79.3336 74.3225 96.4664 90.5003 117.601 90.5003ZM117.601 76.6991C130.42 76.6991 140.812 66.7003 140.812 54.3662C140.812 42.0321 130.42 32.0334 117.601 32.0334C104.781 32.0334 94.3894 42.0321 94.3894 54.3662C94.3894 66.7003 104.781 76.6991 117.601 76.6991Z" fill="#00205B"/>
<path d="M131.276 0.290585H118.353L108.693 13.0881H124.878L131.276 0.290585Z" fill="#00205B"/>
<path fill-rule="evenodd" clip-rule="evenodd" d="M75.6845 62.2706C71.9165 78.4881 56.6126 90.6258 38.3065 90.6258C17.1722 90.6258 0.0394897 74.448 0.0394897 54.4917C0.0394897 34.5355 17.1722 18.3576 38.3065 18.3576C56.801 18.3576 72.2311 30.7464 75.7972 47.2148H60.2575C57.1208 38.4534 48.4776 32.1588 38.3065 32.1588C25.4873 32.1588 15.0954 42.1576 15.0954 54.4917C15.0954 66.8258 25.4873 76.8246 38.3065 76.8246C48.2823 76.8246 56.7883 70.7694 60.0708 62.2706H75.6845Z" fill="#00205B"/>
<path d="M291.496 51.3551V62.7724H319.349C313.703 73.0606 308.434 76.3227 295.009 76.3227C281.584 76.3227 272.049 64.278 272.049 54.1153C272.049 43.9526 280.58 33.0371 297.644 32.5352C311.294 32.1337 322.068 39.394 325.748 43.0743V25.7601C317.216 19.7377 306.426 18.2322 297.644 18.2322C287.732 18.2322 256.742 25.1328 256.742 54.1153C256.742 83.0979 284.223 91.0236 293.754 90.7513C305.287 90.4217 313.753 83.8956 319.349 74.3153V89.7475H330.641V51.3551H291.496Z" fill="#00205B"/>
<rect x="234.911" y="18.6085" width="15.0559" height="70.5117" fill="#00205B"/>
<path fill-rule="evenodd" clip-rule="evenodd" d="M186.481 18.9944L162.894 18.9849L162.894 89.9984H186.481V89.989C210.32 89.989 228.638 73.8255 228.638 54.4917C228.638 35.1579 210.445 18.9944 186.481 18.9944ZM187.014 76.4482H178.2V32.5376L187.014 32.5411C201.831 32.5411 213.08 42.5362 213.08 54.4917C213.08 66.4473 201.753 76.4424 187.014 76.4424V76.4482Z" fill="#00205B"/>
<path fill-rule="evenodd" clip-rule="evenodd" d="M496.582 36.1468C496.582 41.9099 491.666 47.237 482.474 52.5544C492.364 57.8351 496.582 63.668 496.582 70.0842C496.582 83.5981 481.127 90.758 466.021 90.758C450.027 90.758 435.617 82.5753 435.617 70.0842C435.617 64.3211 440.533 58.9941 449.725 53.6767C439.835 48.3959 435.617 42.563 435.617 36.1468C435.617 22.6329 451.072 15.4731 466.179 15.4731C482.172 15.4731 496.582 23.6558 496.582 36.1468ZM479.564 35.8287C479.564 39.714 474.76 43.1629 466.079 46.8089C456.4 43.6697 452.523 40.0237 452.523 35.8287C452.523 29.691 459.378 26.4392 466.079 26.4392C473.172 26.4392 479.564 30.1556 479.564 35.8287ZM452.523 70.3742C452.523 66.4889 457.327 63.04 466.008 59.394C475.687 62.5332 479.564 66.1792 479.564 70.3742C479.564 76.5119 472.709 79.7637 466.008 79.7637C458.915 79.7637 452.523 76.0473 452.523 70.3742Z" fill="#00205B"/>
<path d="M128.424 162.327V131.53H133.624V137.815L132.881 136.843C133.643 134.901 134.862 133.415 136.538 132.387C138.214 131.358 140.1 130.844 142.195 130.844C144.594 130.844 146.747 131.511 148.651 132.844C150.594 134.177 151.927 135.929 152.651 138.1L151.165 138.158C151.965 135.758 153.317 133.948 155.222 132.73C157.126 131.472 159.241 130.844 161.564 130.844C163.697 130.844 165.621 131.339 167.335 132.33C169.087 133.32 170.478 134.691 171.506 136.443C172.534 138.196 173.049 140.176 173.049 142.386V162.327H167.678V144.1C167.678 142.386 167.373 140.938 166.764 139.757C166.154 138.577 165.316 137.662 164.25 137.015C163.221 136.329 162.002 135.986 160.593 135.986C159.222 135.986 157.984 136.329 156.879 137.015C155.812 137.662 154.955 138.596 154.308 139.815C153.698 140.995 153.393 142.424 153.393 144.1V162.327H148.023V144.1C148.023 142.386 147.718 140.938 147.108 139.757C146.499 138.577 145.661 137.662 144.594 137.015C143.566 136.329 142.347 135.986 140.938 135.986C139.566 135.986 138.328 136.329 137.224 137.015C136.157 137.662 135.3 138.596 134.652 139.815C134.043 140.995 133.738 142.424 133.738 144.1V162.327H128.424ZM200.48 163.012C197.508 163.012 194.861 162.308 192.537 160.898C190.214 159.489 188.385 157.565 187.052 155.127C185.719 152.651 185.052 149.89 185.052 146.842C185.052 143.757 185.7 141.014 186.995 138.615C188.328 136.215 190.119 134.329 192.366 132.958C194.652 131.549 197.204 130.844 200.022 130.844C202.308 130.844 204.327 131.263 206.079 132.101C207.869 132.901 209.374 134.006 210.593 135.415C211.85 136.786 212.802 138.367 213.45 140.157C214.135 141.91 214.478 143.738 214.478 145.643C214.478 146.062 214.44 146.538 214.364 147.071C214.326 147.566 214.269 148.042 214.193 148.499H188.938V143.928H211.107L208.593 145.985C208.936 144.005 208.745 142.233 208.022 140.672C207.298 139.11 206.231 137.872 204.822 136.958C203.413 136.043 201.813 135.586 200.022 135.586C198.232 135.586 196.594 136.043 195.109 136.958C193.623 137.872 192.461 139.186 191.623 140.9C190.823 142.576 190.5 144.576 190.652 146.9C190.5 149.147 190.842 151.128 191.68 152.842C192.557 154.518 193.775 155.832 195.337 156.784C196.937 157.699 198.67 158.156 200.537 158.156C202.594 158.156 204.327 157.679 205.736 156.727C207.146 155.775 208.288 154.556 209.164 153.07L213.621 155.356C213.012 156.765 212.059 158.06 210.764 159.241C209.507 160.384 208.003 161.298 206.25 161.984C204.536 162.669 202.613 163.012 200.48 163.012ZM239.633 162.669C236.624 162.669 234.301 161.812 232.663 160.098C231.063 158.384 230.263 155.965 230.263 152.842V136.615H224.663V131.53H225.806C227.177 131.53 228.263 131.111 229.063 130.273C229.863 129.435 230.263 128.33 230.263 126.959V124.445H235.577V131.53H242.49V136.615H235.577V152.67C235.577 153.699 235.729 154.594 236.034 155.356C236.377 156.118 236.929 156.727 237.691 157.184C238.452 157.603 239.462 157.813 240.719 157.813C240.986 157.813 241.309 157.794 241.69 157.756C242.109 157.718 242.49 157.679 242.833 157.641V162.327C242.338 162.441 241.786 162.517 241.176 162.555C240.567 162.631 240.052 162.669 239.633 162.669ZM255.488 162.327V119.074H260.802V137.529L259.83 137.015C260.592 135.072 261.811 133.568 263.487 132.501C265.201 131.396 267.201 130.844 269.487 130.844C271.696 130.844 273.658 131.339 275.372 132.33C277.124 133.32 278.495 134.691 279.486 136.443C280.514 138.196 281.028 140.176 281.028 142.386V162.327H275.658V144.1C275.658 142.386 275.334 140.938 274.686 139.757C274.077 138.577 273.22 137.662 272.115 137.015C271.01 136.329 269.734 135.986 268.287 135.986C266.877 135.986 265.601 136.329 264.459 137.015C263.316 137.662 262.421 138.596 261.773 139.815C261.126 140.995 260.802 142.424 260.802 144.1V162.327H255.488ZM308.973 163.012C306.002 163.012 303.316 162.327 300.917 160.955C298.517 159.546 296.612 157.622 295.203 155.184C293.794 152.747 293.089 149.985 293.089 146.9C293.089 143.814 293.775 141.072 295.146 138.672C296.555 136.272 298.46 134.367 300.86 132.958C303.259 131.549 305.964 130.844 308.973 130.844C311.944 130.844 314.63 131.549 317.029 132.958C319.429 134.329 321.315 136.215 322.686 138.615C324.095 141.014 324.8 143.776 324.8 146.9C324.8 150.023 324.076 152.804 322.629 155.242C321.181 157.641 319.258 159.546 316.858 160.955C314.496 162.327 311.868 163.012 308.973 163.012ZM308.973 157.87C310.878 157.87 312.592 157.394 314.115 156.441C315.677 155.489 316.896 154.175 317.772 152.499C318.686 150.823 319.143 148.956 319.143 146.9C319.143 144.805 318.686 142.957 317.772 141.357C316.896 139.719 315.677 138.424 314.115 137.472C312.592 136.482 310.878 135.986 308.973 135.986C307.03 135.986 305.278 136.482 303.716 137.472C302.193 138.424 300.974 139.719 300.06 141.357C299.145 142.957 298.688 144.805 298.688 146.9C298.688 148.956 299.145 150.823 300.06 152.499C300.974 154.175 302.193 155.489 303.716 156.441C305.278 157.394 307.03 157.87 308.973 157.87ZM351.443 163.012C348.548 163.012 345.939 162.308 343.615 160.898C341.33 159.489 339.52 157.565 338.187 155.127C336.854 152.689 336.187 149.966 336.187 146.957C336.187 143.871 336.854 141.129 338.187 138.729C339.52 136.291 341.33 134.367 343.615 132.958C345.939 131.549 348.548 130.844 351.443 130.844C353.995 130.844 356.262 131.396 358.242 132.501C360.223 133.568 361.785 135.015 362.928 136.843L362.071 138.158V119.074H367.441V162.327H362.242V155.756L362.928 156.67C361.861 158.689 360.299 160.251 358.242 161.355C356.224 162.46 353.957 163.012 351.443 163.012ZM351.9 157.87C353.843 157.87 355.576 157.394 357.1 156.441C358.623 155.489 359.823 154.194 360.699 152.556C361.613 150.88 362.071 149.014 362.071 146.957C362.071 144.862 361.613 142.995 360.699 141.357C359.823 139.681 358.623 138.367 357.1 137.415C355.576 136.462 353.843 135.986 351.9 135.986C349.996 135.986 348.262 136.482 346.701 137.472C345.177 138.424 343.977 139.719 343.101 141.357C342.225 142.957 341.787 144.824 341.787 146.957C341.787 149.014 342.225 150.88 343.101 152.556C343.977 154.194 345.177 155.489 346.701 156.441C348.224 157.394 349.957 157.87 351.9 157.87Z" fill="#00205B"/>
</svg>
