<svg width="770" height="91" viewBox="0 0 770 91" fill="none" xmlns="http://www.w3.org/2000/svg">
<path fill-rule="evenodd" clip-rule="evenodd" d="M375.465 90.6182C396.599 90.6182 413.731 74.4404 413.731 54.4841C413.731 34.5278 396.599 18.35 375.465 18.35C354.33 18.35 337.198 34.5278 337.198 54.4841C337.198 74.4404 354.33 90.6182 375.465 90.6182ZM375.465 76.817C388.284 76.817 398.676 66.8182 398.676 54.4841C398.676 42.15 388.284 32.1512 375.465 32.1512C362.645 32.1512 352.253 42.15 352.253 54.4841C352.253 66.8182 362.645 76.817 375.465 76.817Z" fill="#0762C8"/>
<path fill-rule="evenodd" clip-rule="evenodd" d="M117.758 90.6182C138.892 90.6182 156.025 74.4404 156.025 54.4841C156.025 34.5278 138.892 18.35 117.758 18.35C96.6239 18.35 79.4911 34.5278 79.4911 54.4841C79.4911 74.4404 96.6239 90.6182 117.758 90.6182ZM117.758 76.817C130.577 76.817 140.969 66.8182 140.969 54.4841C140.969 42.15 130.577 32.1512 117.758 32.1512C104.939 32.1512 94.5469 42.15 94.5469 54.4841C94.5469 66.8182 104.939 76.817 117.758 76.817Z" fill="#0762C8"/>
<path d="M131.434 0.408447H118.511L108.85 13.2059H125.035L131.434 0.408447Z" fill="#0762C8"/>
<path fill-rule="evenodd" clip-rule="evenodd" d="M75.842 62.3885C72.074 78.606 56.7701 90.7437 38.464 90.7437C17.3297 90.7437 0.197021 74.5658 0.197021 54.6096C0.197021 34.6533 17.3297 18.4755 38.464 18.4755C56.9586 18.4755 72.3887 30.8643 75.9547 47.3327H60.4151C57.2783 38.5713 48.6352 32.2767 38.464 32.2767C25.6448 32.2767 15.2529 42.2755 15.2529 54.6096C15.2529 66.9437 25.6448 76.9425 38.464 76.9425C48.4398 76.9425 56.9458 70.8873 60.2283 62.3885H75.842Z" fill="#0762C8"/>
<path d="M291.653 51.4729V62.8903H319.507C313.861 73.1785 308.591 76.4406 295.167 76.4406C281.742 76.4406 272.206 64.3959 272.206 54.2332C272.206 44.0705 280.738 33.155 297.801 32.6531C311.452 32.2516 322.225 39.5119 325.906 43.1922V25.878C317.374 19.8556 306.584 18.35 297.801 18.35C287.89 18.35 256.9 25.2506 256.9 54.2332C256.9 83.2157 284.38 91.1415 293.912 90.8691C305.445 90.5396 313.911 84.0134 319.507 74.4331V89.8654H330.799V51.4729H291.653Z" fill="#0762C8"/>
<rect x="235.069" y="18.7264" width="15.0559" height="70.5117" fill="#0762C8"/>
<path fill-rule="evenodd" clip-rule="evenodd" d="M186.639 19.1123L163.051 19.1028L163.051 90.1163L186.639 90.1164V90.1069C210.477 90.1069 228.795 73.9434 228.795 54.6096C228.795 35.2758 210.603 19.1123 186.639 19.1123ZM187.171 76.566H178.358V32.6554L187.171 32.6589C201.989 32.6589 213.237 42.654 213.237 54.6096C213.237 66.5651 201.911 76.5602 187.171 76.5602V76.566Z" fill="#0762C8"/>
<path fill-rule="evenodd" clip-rule="evenodd" d="M496.739 36.2647C496.739 42.0278 491.824 47.3549 482.632 52.6723C492.522 57.953 496.739 63.7859 496.739 70.2021C496.739 83.716 481.285 90.8759 466.178 90.8759C450.185 90.8759 435.775 82.6932 435.775 70.2021C435.775 64.439 440.691 59.112 449.883 53.7946C439.993 48.5138 435.775 42.6809 435.775 36.2647C435.775 22.7508 451.23 15.5909 466.336 15.5909C482.33 15.5909 496.739 23.7737 496.739 36.2647ZM479.721 35.9466C479.721 39.8319 474.917 43.2808 466.236 46.9268C456.558 43.7876 452.681 40.1416 452.681 35.9466C452.681 29.8089 459.536 26.5571 466.236 26.5571C473.33 26.5571 479.721 30.2735 479.721 35.9466ZM452.681 70.4921C452.681 66.6068 457.485 63.1578 466.166 59.5119C475.844 62.6511 479.721 66.2971 479.721 70.4921C479.721 76.6297 472.866 79.8816 466.166 79.8816C459.072 79.8816 452.681 76.1652 452.681 70.4921Z" fill="#0762C8"/>
<path d="M538.945 81.353V50.556H544.144V56.8411L543.401 55.8697C544.163 53.9271 545.382 52.4415 547.058 51.413C548.734 50.3845 550.62 49.8703 552.715 49.8703C555.115 49.8703 557.267 50.5369 559.171 51.8701C561.114 53.2033 562.447 54.9555 563.171 57.1267L561.685 57.1839C562.485 54.7841 563.838 52.9748 565.742 51.7558C567.647 50.4988 569.761 49.8703 572.084 49.8703C574.218 49.8703 576.141 50.3655 577.855 51.3559C579.607 52.3463 580.998 53.7176 582.026 55.4698C583.055 57.222 583.569 59.2027 583.569 61.412V81.353H578.198V63.1262C578.198 61.412 577.893 59.9646 577.284 58.7837C576.674 57.6029 575.836 56.6887 574.77 56.0411C573.741 55.3555 572.522 55.0127 571.113 55.0127C569.742 55.0127 568.504 55.3555 567.399 56.0411C566.333 56.6887 565.476 57.6219 564.828 58.8409C564.218 60.0217 563.914 61.4501 563.914 63.1262V81.353H558.543V63.1262C558.543 61.412 558.238 59.9646 557.629 58.7837C557.019 57.6029 556.181 56.6887 555.115 56.0411C554.086 55.3555 552.867 55.0127 551.458 55.0127C550.087 55.0127 548.849 55.3555 547.744 56.0411C546.677 56.6887 545.82 57.6219 545.173 58.8409C544.563 60.0217 544.259 61.4501 544.259 63.1262V81.353H538.945ZM606.429 82.0386C603.458 82.0386 600.81 81.3339 598.487 79.9245C596.163 78.5151 594.335 76.5915 593.002 74.1537C591.668 71.6777 591.002 68.9161 591.002 65.8688C591.002 62.7833 591.649 60.0407 592.944 57.641C594.278 55.2412 596.068 53.3557 598.315 51.9844C600.601 50.575 603.153 49.8703 605.972 49.8703C608.257 49.8703 610.276 50.2893 612.028 51.1273C613.819 51.9273 615.323 53.0319 616.542 54.4413C617.799 55.8126 618.751 57.3934 619.399 59.1837C620.085 60.9359 620.427 62.7643 620.427 64.6689C620.427 65.0879 620.389 65.564 620.313 66.0973C620.275 66.5925 620.218 67.0686 620.142 67.5257H594.887V62.9548H617.056L614.542 65.0117C614.885 63.0309 614.695 61.2597 613.971 59.6979C613.247 58.1362 612.181 56.8982 610.771 55.984C609.362 55.0698 607.762 54.6127 605.972 54.6127C604.181 54.6127 602.543 55.0698 601.058 55.984C599.572 56.8982 598.411 58.2124 597.573 59.9265C596.773 61.6025 596.449 63.6023 596.601 65.9259C596.449 68.1733 596.792 70.1541 597.63 71.8682C598.506 73.5442 599.725 74.8584 601.286 75.8106C602.886 76.7248 604.619 77.1819 606.486 77.1819C608.543 77.1819 610.276 76.7058 611.685 75.7535C613.095 74.8012 614.238 73.5823 615.114 72.0967L619.57 74.3822C618.961 75.7916 618.009 77.0867 616.714 78.2676C615.457 79.4103 613.952 80.3245 612.2 81.0101C610.486 81.6958 608.562 82.0386 606.429 82.0386ZM641.012 81.6958C638.002 81.6958 635.679 80.8387 634.041 79.1246C632.441 77.4105 631.641 74.9917 631.641 71.8682V55.6412H626.042V50.556H627.184C628.556 50.556 629.641 50.1369 630.441 49.2989C631.241 48.4609 631.641 47.3563 631.641 45.985V43.4709H636.955V50.556H643.868V55.6412H636.955V71.6968C636.955 72.7252 637.107 73.6204 637.412 74.3822C637.755 75.144 638.307 75.7535 639.069 76.2106C639.831 76.6296 640.84 76.8391 642.097 76.8391C642.364 76.8391 642.688 76.8201 643.069 76.782C643.488 76.7439 643.868 76.7058 644.211 76.6677V81.353C643.716 81.4672 643.164 81.5434 642.554 81.5815C641.945 81.6577 641.431 81.6958 641.012 81.6958ZM652.295 81.353V38.1H657.609V56.5554L656.638 56.0411C657.4 54.0985 658.619 52.5939 660.295 51.5273C662.009 50.4226 664.009 49.8703 666.294 49.8703C668.503 49.8703 670.465 50.3655 672.179 51.3559C673.931 52.3463 675.303 53.7176 676.293 55.4698C677.322 57.222 677.836 59.2027 677.836 61.412V81.353H672.465V63.1262C672.465 61.412 672.141 59.9646 671.493 58.7837C670.884 57.6029 670.027 56.6887 668.922 56.0411C667.818 55.3555 666.542 55.0127 665.094 55.0127C663.685 55.0127 662.409 55.3555 661.266 56.0411C660.123 56.6887 659.228 57.6219 658.58 58.8409C657.933 60.0217 657.609 61.4501 657.609 63.1262V81.353H652.295ZM701.209 82.0386C698.238 82.0386 695.553 81.353 693.153 79.9817C690.753 78.5723 688.849 76.6487 687.439 74.2108C686.03 71.7729 685.325 69.0113 685.325 65.9259C685.325 62.8405 686.011 60.0979 687.382 57.6981C688.792 55.2984 690.696 53.3938 693.096 51.9844C695.496 50.575 698.2 49.8703 701.209 49.8703C704.18 49.8703 706.866 50.575 709.266 51.9844C711.665 53.3557 713.551 55.2412 714.922 57.641C716.332 60.0407 717.036 62.8024 717.036 65.9259C717.036 69.0494 716.313 71.8301 714.865 74.2679C713.418 76.6677 711.494 78.5723 709.094 79.9817C706.733 81.353 704.104 82.0386 701.209 82.0386ZM701.209 76.8963C703.114 76.8963 704.828 76.4201 706.352 75.4678C707.913 74.5155 709.132 73.2014 710.009 71.5253C710.923 69.8493 711.38 67.9828 711.38 65.9259C711.38 63.8309 710.923 61.9834 710.009 60.3836C709.132 58.7456 707.913 57.4505 706.352 56.4982C704.828 55.5079 703.114 55.0127 701.209 55.0127C699.267 55.0127 697.514 55.5079 695.953 56.4982C694.429 57.4505 693.21 58.7456 692.296 60.3836C691.382 61.9834 690.925 63.8309 690.925 65.9259C690.925 67.9828 691.382 69.8493 692.296 71.5253C693.21 73.2014 694.429 74.5155 695.953 75.4678C697.514 76.4201 699.267 76.8963 701.209 76.8963ZM739.108 82.0386C736.213 82.0386 733.604 81.3339 731.281 79.9245C728.995 78.5151 727.186 76.5915 725.852 74.1537C724.519 71.7158 723.853 68.9923 723.853 65.983C723.853 62.8976 724.519 60.155 725.852 57.7553C727.186 55.3174 728.995 53.3938 731.281 51.9844C733.604 50.575 736.213 49.8703 739.108 49.8703C741.66 49.8703 743.927 50.4226 745.908 51.5273C747.888 52.5939 749.45 54.0413 750.593 55.8697L749.736 57.1839V38.1H755.107V81.353H749.907V74.7822L750.593 75.6964C749.526 77.7152 747.965 79.277 745.908 80.3816C743.889 81.4863 741.622 82.0386 739.108 82.0386ZM739.565 76.8963C741.508 76.8963 743.241 76.4201 744.765 75.4678C746.289 74.5155 747.488 73.2204 748.365 71.5825C749.279 69.9065 749.736 68.04 749.736 65.983C749.736 63.888 749.279 62.0215 748.365 60.3836C747.488 58.7075 746.289 57.3934 744.765 56.4411C743.241 55.4888 741.508 55.0127 739.565 55.0127C737.661 55.0127 735.928 55.5079 734.366 56.4982C732.842 57.4505 731.642 58.7456 730.766 60.3836C729.89 61.9834 729.452 63.8499 729.452 65.983C729.452 68.04 729.89 69.9065 730.766 71.5825C731.642 73.2204 732.842 74.5155 734.366 75.4678C735.89 76.4201 737.623 76.8963 739.565 76.8963Z" fill="#0762C8"/>
</svg>
