<svg width="497" height="92" viewBox="0 0 497 92" fill="none" xmlns="http://www.w3.org/2000/svg">
<path fill-rule="evenodd" clip-rule="evenodd" d="M375.465 90.8693C396.599 90.8693 413.731 74.6915 413.731 54.7352C413.731 34.7789 396.599 18.6011 375.465 18.6011C354.33 18.6011 337.198 34.7789 337.198 54.7352C337.198 74.6915 354.33 90.8693 375.465 90.8693ZM375.465 77.0681C388.284 77.0681 398.676 67.0693 398.676 54.7352C398.676 42.4011 388.284 32.4023 375.465 32.4023C362.645 32.4023 352.253 42.4011 352.253 54.7352C352.253 67.0693 362.645 77.0681 375.465 77.0681Z" fill="#00205B"/>
<path fill-rule="evenodd" clip-rule="evenodd" d="M117.758 90.8693C138.892 90.8693 156.025 74.6915 156.025 54.7352C156.025 34.7789 138.892 18.6011 117.758 18.6011C96.6239 18.6011 79.4911 34.7789 79.4911 54.7352C79.4911 74.6915 96.6239 90.8693 117.758 90.8693ZM117.758 77.0681C130.577 77.0681 140.969 67.0693 140.969 54.7352C140.969 42.4011 130.577 32.4023 117.758 32.4023C104.939 32.4023 94.5469 42.4011 94.5469 54.7352C94.5469 67.0693 104.939 77.0681 117.758 77.0681Z" fill="#00205B"/>
<path d="M131.434 0.659515H118.511L108.85 13.457H125.035L131.434 0.659515Z" fill="#00205B"/>
<path fill-rule="evenodd" clip-rule="evenodd" d="M75.8421 62.6396C72.074 78.857 56.7702 90.9948 38.464 90.9948C17.3297 90.9948 0.197021 74.8169 0.197021 54.8607C0.197021 34.9044 17.3297 18.7266 38.464 18.7266C56.9585 18.7266 72.3886 31.1154 75.9547 47.5837H60.4151C57.2783 38.8224 48.6352 32.5278 38.464 32.5278C25.6448 32.5278 15.2529 42.5266 15.2529 54.8607C15.2529 67.1948 25.6448 77.1936 38.464 77.1936C48.4399 77.1936 56.9458 71.1384 60.2283 62.6396H75.8421Z" fill="#00205B"/>
<path d="M291.653 51.724V63.1414H319.507C313.861 73.4296 308.591 76.6917 295.167 76.6917C281.742 76.6917 272.206 64.647 272.206 54.4843C272.206 44.3216 280.738 33.4061 297.801 32.9042C311.452 32.5027 322.225 39.763 325.906 43.4433V26.1291C317.374 20.1067 306.584 18.6011 297.801 18.6011C287.89 18.6011 256.9 25.5017 256.9 54.4843C256.9 83.4668 284.38 91.3926 293.912 91.1202C305.445 90.7907 313.911 84.2645 319.507 74.6842V90.1165H330.799V51.724H291.653Z" fill="#00205B"/>
<rect x="235.069" y="18.9775" width="15.0559" height="70.5117" fill="#00205B"/>
<path fill-rule="evenodd" clip-rule="evenodd" d="M186.639 19.3633L163.051 19.3539L163.051 90.3674H186.639V90.358C210.477 90.358 228.795 74.1945 228.795 54.8607C228.795 35.5268 210.603 19.3633 186.639 19.3633ZM187.171 76.8172H178.358V32.9065L187.171 32.91C201.989 32.91 213.237 42.9051 213.237 54.8607C213.237 66.8162 201.911 76.8113 187.171 76.8113V76.8172Z" fill="#00205B"/>
<path fill-rule="evenodd" clip-rule="evenodd" d="M496.739 36.5158C496.739 42.2789 491.824 47.6059 482.631 52.9233C492.521 58.2041 496.739 64.037 496.739 70.4532C496.739 83.9671 481.284 91.127 466.178 91.127C450.185 91.1269 435.775 82.9442 435.775 70.4532C435.775 64.6901 440.691 59.363 449.883 54.0456C439.993 48.7649 435.775 42.932 435.775 36.5158C435.775 23.0019 451.23 15.842 466.336 15.842C482.33 15.842 496.739 24.0247 496.739 36.5158ZM479.721 36.1977C479.721 40.083 474.917 43.5319 466.236 47.1779C456.558 44.0387 452.681 40.3927 452.681 36.1977C452.681 30.06 459.536 26.8082 466.236 26.8082C473.33 26.8082 479.721 30.5245 479.721 36.1977ZM452.681 70.7431C452.681 66.8578 457.485 63.4089 466.166 59.7629C475.844 62.9021 479.721 66.5481 479.721 70.7431C479.721 76.8808 472.866 80.1326 466.166 80.1326C459.072 80.1326 452.681 76.4163 452.681 70.7431Z" fill="#00205B"/>
</svg>
