<svg width="497" height="173" viewBox="0 0 497 173" fill="none" xmlns="http://www.w3.org/2000/svg">
<path fill-rule="evenodd" clip-rule="evenodd" d="M375.307 90.9912C396.441 90.9912 413.574 74.8134 413.574 54.8571C413.574 34.9008 396.441 18.723 375.307 18.723C354.173 18.723 337.04 34.9008 337.04 54.8571C337.04 74.8134 354.173 90.9912 375.307 90.9912ZM375.307 77.19C388.126 77.19 398.518 67.1912 398.518 54.8571C398.518 42.523 388.126 32.5242 375.307 32.5242C362.488 32.5242 352.096 42.523 352.096 54.8571C352.096 67.1912 362.488 77.19 375.307 77.19Z" fill="#0762C8"/>
<path fill-rule="evenodd" clip-rule="evenodd" d="M117.601 90.9912C138.735 90.9912 155.868 74.8134 155.868 54.8571C155.868 34.9008 138.735 18.723 117.601 18.723C96.4664 18.723 79.3336 34.9008 79.3336 54.8571C79.3336 74.8134 96.4664 90.9912 117.601 90.9912ZM117.601 77.19C130.42 77.19 140.812 67.1912 140.812 54.8571C140.812 42.523 130.42 32.5242 117.601 32.5242C104.781 32.5242 94.3894 42.523 94.3894 54.8571C94.3894 67.1912 104.781 77.19 117.601 77.19Z" fill="#0762C8"/>
<path d="M131.276 0.781494H118.353L108.693 13.579H124.878L131.276 0.781494Z" fill="#0762C8"/>
<path fill-rule="evenodd" clip-rule="evenodd" d="M75.6845 62.7614C71.9165 78.9789 56.6126 91.1166 38.3065 91.1166C17.1722 91.1166 0.0394897 74.9388 0.0394897 54.9825C0.0394897 35.0263 17.1722 18.8484 38.3065 18.8484C56.801 18.8484 72.2311 31.2372 75.7972 47.7055H60.2575C57.1208 38.9442 48.4776 32.6497 38.3065 32.6497C25.4873 32.6497 15.0954 42.6484 15.0954 54.9825C15.0954 67.3166 25.4873 77.3154 38.3065 77.3154C48.2823 77.3154 56.7883 71.2602 60.0708 62.7614H75.6845Z" fill="#0762C8"/>
<path d="M291.496 51.8459V63.2633H319.349C313.703 73.5515 308.434 76.8136 295.009 76.8136C281.584 76.8136 272.049 64.7689 272.049 54.6062C272.049 44.4435 280.58 33.528 297.644 33.0261C311.294 32.6246 322.068 39.8849 325.748 43.5652V26.251C317.216 20.2286 306.426 18.723 297.644 18.723C287.732 18.723 256.742 25.6236 256.742 54.6062C256.742 83.5887 284.223 91.5144 293.754 91.2421C305.287 90.9126 313.753 84.3864 319.349 74.8061V90.2384H330.641V51.8459H291.496Z" fill="#0762C8"/>
<rect x="234.911" y="19.0994" width="15.0559" height="70.5117" fill="#0762C8"/>
<path fill-rule="evenodd" clip-rule="evenodd" d="M186.481 19.4852L162.894 19.4757L162.894 90.4893H186.481V90.4798C210.32 90.4798 228.638 74.3163 228.638 54.9825C228.638 35.6487 210.445 19.4852 186.481 19.4852ZM187.014 76.9391H178.2V33.0284L187.014 33.032C201.831 33.032 213.08 43.0271 213.08 54.9826C213.08 66.9382 201.753 76.9333 187.014 76.9333V76.9391Z" fill="#0762C8"/>
<path fill-rule="evenodd" clip-rule="evenodd" d="M496.582 36.6377C496.582 42.4008 491.666 47.7278 482.474 53.0453C492.364 58.326 496.582 64.1589 496.582 70.5751C496.582 84.089 481.127 91.2489 466.021 91.2489C450.027 91.2489 435.617 83.0661 435.617 70.5751C435.617 64.812 440.533 59.4849 449.725 54.1675C439.835 48.8868 435.617 43.0539 435.617 36.6377C435.617 23.1238 451.072 15.9639 466.179 15.9639C482.172 15.9639 496.582 24.1467 496.582 36.6377ZM479.564 36.3196C479.564 40.2049 474.76 43.6538 466.079 47.2998C456.4 44.1606 452.523 40.5146 452.523 36.3196C452.523 30.1819 459.378 26.9301 466.079 26.9301C473.172 26.9301 479.564 30.6465 479.564 36.3196ZM452.523 70.8651C452.523 66.9798 457.327 63.5308 466.008 59.8848C475.687 63.0241 479.564 66.6701 479.564 70.8651C479.564 77.0027 472.709 80.2546 466.008 80.2546C458.915 80.2546 452.523 76.5382 452.523 70.8651Z" fill="#0762C8"/>
<path d="M193.938 163.16C190.928 163.16 188.605 162.303 186.967 160.589C185.367 158.875 184.567 156.456 184.567 153.333V137.106H178.968V132.021H180.11C181.482 132.021 182.567 131.602 183.367 130.764C184.167 129.926 184.567 128.821 184.567 127.45V124.936H189.881V132.021H196.794V137.106H189.881V153.161C189.881 154.19 190.033 155.085 190.338 155.847C190.681 156.609 191.233 157.218 191.995 157.675C192.757 158.094 193.766 158.304 195.023 158.304C195.29 158.304 195.614 158.285 195.995 158.247C196.414 158.208 196.794 158.17 197.137 158.132V162.818C196.642 162.932 196.09 163.008 195.48 163.046C194.871 163.122 194.357 163.16 193.938 163.16ZM223.125 163.503C220.154 163.503 217.507 162.799 215.183 161.389C212.86 159.98 211.031 158.056 209.698 155.618C208.365 153.142 207.698 150.381 207.698 147.333C207.698 144.248 208.346 141.505 209.641 139.106C210.974 136.706 212.764 134.82 215.012 133.449C217.297 132.04 219.849 131.335 222.668 131.335C224.954 131.335 226.973 131.754 228.725 132.592C230.515 133.392 232.02 134.497 233.239 135.906C234.496 137.277 235.448 138.858 236.096 140.648C236.781 142.401 237.124 144.229 237.124 146.133C237.124 146.552 237.086 147.029 237.01 147.562C236.972 148.057 236.914 148.533 236.838 148.99H211.584V144.419H233.753L231.239 146.476C231.582 144.496 231.391 142.724 230.667 141.163C229.944 139.601 228.877 138.363 227.468 137.449C226.058 136.534 224.459 136.077 222.668 136.077C220.878 136.077 219.24 136.534 217.754 137.449C216.269 138.363 215.107 139.677 214.269 141.391C213.469 143.067 213.145 145.067 213.298 147.39C213.145 149.638 213.488 151.619 214.326 153.333C215.202 155.009 216.421 156.323 217.983 157.275C219.583 158.189 221.316 158.647 223.182 158.647C225.239 158.647 226.973 158.17 228.382 157.218C229.791 156.266 230.934 155.047 231.81 153.561L236.267 155.847C235.657 157.256 234.705 158.551 233.41 159.732C232.153 160.875 230.648 161.789 228.896 162.475C227.182 163.16 225.258 163.503 223.125 163.503ZM264.05 163.503C261.041 163.503 258.356 162.799 255.994 161.389C253.67 159.98 251.842 158.056 250.509 155.618C249.176 153.18 248.509 150.438 248.509 147.39C248.509 144.305 249.176 141.562 250.509 139.163C251.842 136.763 253.67 134.858 255.994 133.449C258.356 132.04 261.041 131.335 264.05 131.335C266.069 131.335 267.955 131.697 269.707 132.421C271.459 133.144 273.002 134.116 274.335 135.335C275.668 136.553 276.64 137.982 277.249 139.62L272.507 141.905C271.783 140.305 270.678 139.01 269.193 138.02C267.707 136.992 265.993 136.477 264.05 136.477C262.184 136.477 260.489 136.953 258.965 137.906C257.48 138.858 256.299 140.153 255.423 141.791C254.547 143.429 254.109 145.315 254.109 147.448C254.109 149.505 254.547 151.371 255.423 153.047C256.299 154.685 257.48 155.98 258.965 156.932C260.489 157.885 262.184 158.361 264.05 158.361C265.993 158.361 267.707 157.866 269.193 156.875C270.678 155.847 271.783 154.495 272.507 152.819L277.249 155.218C276.64 156.818 275.668 158.247 274.335 159.504C273.002 160.723 271.459 161.694 269.707 162.418C267.955 163.141 266.069 163.503 264.05 163.503ZM289.907 162.818V119.565H295.221V138.02L294.25 137.506C295.012 135.563 296.23 134.058 297.906 132.992C299.621 131.887 301.62 131.335 303.906 131.335C306.115 131.335 308.077 131.83 309.791 132.82C311.543 133.811 312.915 135.182 313.905 136.934C314.933 138.687 315.448 140.667 315.448 142.877V162.818H310.077V144.591C310.077 142.877 309.753 141.429 309.105 140.248C308.496 139.067 307.639 138.153 306.534 137.506C305.43 136.82 304.153 136.477 302.706 136.477C301.297 136.477 300.021 136.82 298.878 137.506C297.735 138.153 296.84 139.087 296.192 140.305C295.545 141.486 295.221 142.915 295.221 144.591V162.818H289.907Z" fill="#0762C8"/>
</svg>
