<svg width="497" height="173" viewBox="0 0 497 173" fill="none" xmlns="http://www.w3.org/2000/svg">
<path fill-rule="evenodd" clip-rule="evenodd" d="M375.307 90.664C396.441 90.664 413.574 74.4862 413.574 54.5299C413.574 34.5736 396.441 18.3958 375.307 18.3958C354.173 18.3958 337.04 34.5736 337.04 54.5299C337.04 74.4862 354.173 90.664 375.307 90.664ZM375.307 76.8627C388.126 76.8627 398.518 66.864 398.518 54.5299C398.518 42.1957 388.126 32.197 375.307 32.197C362.488 32.197 352.096 42.1957 352.096 54.5299C352.096 66.864 362.488 76.8627 375.307 76.8627Z" fill="#00205B"/>
<path fill-rule="evenodd" clip-rule="evenodd" d="M117.601 90.664C138.735 90.664 155.868 74.4862 155.868 54.5299C155.868 34.5736 138.735 18.3958 117.601 18.3958C96.4664 18.3958 79.3336 34.5736 79.3336 54.5299C79.3336 74.4862 96.4664 90.664 117.601 90.664ZM117.601 76.8627C130.42 76.8627 140.812 66.864 140.812 54.5299C140.812 42.1957 130.42 32.197 117.601 32.197C104.781 32.197 94.3894 42.1957 94.3894 54.5299C94.3894 66.864 104.781 76.8627 117.601 76.8627Z" fill="#00205B"/>
<path d="M131.276 0.454224H118.353L108.693 13.2517H124.878L131.276 0.454224Z" fill="#00205B"/>
<path fill-rule="evenodd" clip-rule="evenodd" d="M75.6845 62.4343C71.9164 78.6517 56.6126 90.7894 38.3065 90.7894C17.1722 90.7894 0.0394897 74.6116 0.0394897 54.6554C0.0394897 34.6991 17.1722 18.5213 38.3065 18.5213C56.801 18.5213 72.2311 30.9101 75.7972 47.3784H60.2576C57.1208 38.6171 48.4777 32.3225 38.3065 32.3225C25.4873 32.3225 15.0954 42.3213 15.0954 54.6554C15.0954 66.9895 25.4873 76.9882 38.3065 76.9882C48.2823 76.9882 56.7883 70.9331 60.0708 62.4343H75.6845Z" fill="#00205B"/>
<path d="M291.496 51.5187V62.9361H319.349C313.703 73.2243 308.434 76.4864 295.009 76.4864C281.584 76.4864 272.049 64.4417 272.049 54.279C272.049 44.1163 280.58 33.2007 297.644 32.6989C311.294 32.2974 322.068 39.5577 325.748 43.238V25.9237C317.216 19.9014 306.426 18.3958 297.644 18.3958C287.732 18.3958 256.742 25.2964 256.742 54.279C256.742 83.2615 284.223 91.1872 293.754 90.9149C305.287 90.5854 313.753 84.0592 319.349 74.4789V89.9112H330.641V51.5187H291.496Z" fill="#00205B"/>
<rect x="234.911" y="18.7722" width="15.0559" height="70.5117" fill="#00205B"/>
<path fill-rule="evenodd" clip-rule="evenodd" d="M186.481 19.1581L162.894 19.1486L162.894 90.1621L186.481 90.1622V90.1527C210.32 90.1527 228.638 73.9892 228.638 54.6554C228.638 35.3216 210.445 19.1581 186.481 19.1581ZM187.014 76.6118H178.2V32.7012L187.014 32.7047C201.831 32.7047 213.08 42.6998 213.08 54.6554C213.08 66.6109 201.753 76.606 187.014 76.606V76.6118Z" fill="#00205B"/>
<path fill-rule="evenodd" clip-rule="evenodd" d="M496.582 36.3105C496.582 42.0736 491.666 47.4006 482.474 52.718C492.364 57.9988 496.582 63.8317 496.582 70.2479C496.582 83.7617 481.127 90.9216 466.021 90.9216C450.027 90.9216 435.617 82.7389 435.617 70.2479C435.617 64.4847 440.533 59.1577 449.725 53.8403C439.835 48.5595 435.617 42.7267 435.617 36.3105C435.617 22.7966 451.072 15.6367 466.179 15.6367C482.172 15.6367 496.582 23.8194 496.582 36.3105ZM479.564 35.9923C479.564 39.8777 474.76 43.3266 466.079 46.9726C456.4 43.8333 452.523 40.1874 452.523 35.9923C452.523 29.8547 459.378 26.6028 466.079 26.6028C473.172 26.6028 479.564 30.3192 479.564 35.9923ZM452.523 70.5378C452.523 66.6525 457.327 63.2036 466.008 59.5576C475.687 62.6968 479.564 66.3428 479.564 70.5378C479.564 76.6755 472.709 79.9273 466.008 79.9273C458.915 79.9273 452.523 76.2109 452.523 70.5378Z" fill="#00205B"/>
<path d="M198.209 163.176C195.2 163.176 192.514 162.471 190.152 161.062C187.829 159.652 186 157.729 184.667 155.291C183.334 152.853 182.667 150.111 182.667 147.063C182.667 143.978 183.334 141.235 184.667 138.835C186 136.436 187.829 134.531 190.152 133.122C192.514 131.712 195.2 131.008 198.209 131.008C200.228 131.008 202.113 131.37 203.865 132.093C205.618 132.817 207.16 133.788 208.494 135.007C209.827 136.226 210.798 137.655 211.408 139.293L206.665 141.578C205.941 139.978 204.837 138.683 203.351 137.693C201.866 136.664 200.151 136.15 198.209 136.15C196.342 136.15 194.647 136.626 193.124 137.578C191.638 138.531 190.457 139.826 189.581 141.464C188.705 143.102 188.267 144.987 188.267 147.12C188.267 149.177 188.705 151.044 189.581 152.72C190.457 154.358 191.638 155.653 193.124 156.605C194.647 157.557 196.342 158.034 198.209 158.034C200.151 158.034 201.866 157.538 203.351 156.548C204.837 155.52 205.941 154.167 206.665 152.491L211.408 154.891C210.798 156.491 209.827 157.919 208.494 159.176C207.16 160.395 205.618 161.367 203.865 162.09C202.113 162.814 200.228 163.176 198.209 163.176ZM224.066 162.49V119.237H229.379V162.49H224.066ZM254.252 163.176C252.042 163.176 250.042 162.662 248.252 161.633C246.5 160.605 245.129 159.176 244.138 157.348C243.186 155.481 242.71 153.348 242.71 150.949V131.693H248.024V150.377C248.024 151.901 248.328 153.234 248.938 154.377C249.585 155.52 250.461 156.415 251.566 157.062C252.709 157.71 254.004 158.034 255.451 158.034C256.899 158.034 258.175 157.71 259.28 157.062C260.422 156.415 261.299 155.481 261.908 154.263C262.556 153.044 262.879 151.596 262.879 149.92V131.693H268.25V162.49H263.051V156.491L263.908 157.005C263.184 158.948 261.946 160.471 260.194 161.576C258.48 162.643 256.499 163.176 254.252 163.176ZM298.138 163.176C295.662 163.176 293.395 162.624 291.338 161.519C289.319 160.414 287.758 158.853 286.653 156.834L287.396 155.92V162.49H282.196V119.237H287.51V138.321L286.71 137.007C287.853 135.179 289.415 133.731 291.395 132.665C293.376 131.56 295.643 131.008 298.195 131.008C301.09 131.008 303.68 131.712 305.965 133.122C308.289 134.531 310.117 136.455 311.451 138.893C312.784 141.292 313.45 144.035 313.45 147.12C313.45 150.13 312.784 152.853 311.451 155.291C310.117 157.729 308.289 159.652 305.965 161.062C303.68 162.471 301.071 163.176 298.138 163.176ZM297.738 158.034C299.68 158.034 301.413 157.557 302.937 156.605C304.461 155.653 305.642 154.358 306.48 152.72C307.356 151.044 307.794 149.177 307.794 147.12C307.794 144.987 307.356 143.121 306.48 141.521C305.642 139.883 304.461 138.588 302.937 137.636C301.413 136.645 299.68 136.15 297.738 136.15C295.795 136.15 294.043 136.626 292.481 137.578C290.957 138.531 289.738 139.845 288.824 141.521C287.948 143.159 287.51 145.025 287.51 147.12C287.51 149.177 287.948 151.044 288.824 152.72C289.738 154.358 290.957 155.653 292.481 156.605C294.043 157.557 295.795 158.034 297.738 158.034Z" fill="#00205B"/>
</svg>
