<svg width="338" height="91" viewBox="0 0 338 91" fill="none" xmlns="http://www.w3.org/2000/svg">
<path fill-rule="evenodd" clip-rule="evenodd" d="M86.9969 54.5922C82.8519 74.4293 65.2639 89.3292 44.1959 89.3292C20.0467 89.3292 0.469971 69.7524 0.469971 45.6033C0.469971 21.4541 20.0467 1.87738 44.1959 1.87738C65.1559 1.87738 82.6714 16.6249 86.9321 36.3096H68.2155C64.488 26.6823 55.1392 19.8552 44.1959 19.8552C29.9756 19.8552 18.4479 31.383 18.4479 45.6032C18.4479 59.8235 29.9756 71.3513 44.1959 71.3513C55.2543 71.3513 64.6845 64.3799 68.3313 54.5922H86.9969Z" fill="#0762C8"/>
<path fill-rule="evenodd" clip-rule="evenodd" d="M162.065 25.2126C162.065 32.138 156.158 38.5393 145.112 44.929C156.997 51.2747 162.065 58.2839 162.065 65.9941C162.065 82.2332 143.494 90.837 125.341 90.837C106.122 90.837 88.8063 81.0041 88.8063 65.994C88.8063 59.0687 94.7132 52.6674 105.759 46.2776C93.8747 39.9319 88.8063 32.9227 88.8063 25.2126C88.8063 8.97342 107.378 0.369629 125.531 0.369629C144.749 0.369629 162.065 10.2025 162.065 25.2126ZM141.615 24.8303C141.615 29.4992 135.842 33.6436 125.41 38.0249C113.78 34.2526 109.121 29.8713 109.121 24.8303C109.121 17.4549 117.359 13.5473 125.41 13.5473C133.935 13.5473 141.615 18.0131 141.615 24.8303ZM109.121 66.3425C109.121 61.6736 114.894 57.5292 125.326 53.1479C136.956 56.9202 141.615 61.3015 141.615 66.3425C141.615 73.7179 133.378 77.6255 125.326 77.6255C116.802 77.6255 109.121 73.1597 109.121 66.3425Z" fill="#0762C8"/>
<path d="M216.784 67.4462C213.774 67.4462 211.451 66.5891 209.813 64.875C208.213 63.1609 207.413 60.742 207.413 57.6185V41.3915H201.814V36.3063H202.956C204.328 36.3063 205.413 35.8873 206.213 35.0493C207.013 34.2113 207.413 33.1066 207.413 31.7353V29.2213H212.727V36.3063H219.641V41.3915H212.727V57.4471C212.727 58.4756 212.879 59.3708 213.184 60.1326C213.527 60.8944 214.079 61.5039 214.841 61.961C215.603 62.38 216.612 62.5895 217.869 62.5895C218.136 62.5895 218.46 62.5704 218.841 62.5323C219.26 62.4943 219.641 62.4562 219.983 62.4181V67.1033C219.488 67.2176 218.936 67.2938 218.326 67.3319C217.717 67.4081 217.203 67.4462 216.784 67.4462ZM241.401 67.789C238.429 67.789 235.782 67.0843 233.458 65.6749C231.135 64.2655 229.306 62.3419 227.973 59.904C226.64 57.4281 225.973 54.6664 225.973 51.6191C225.973 48.5337 226.621 45.7911 227.916 43.3913C229.249 40.9916 231.04 39.1061 233.287 37.7348C235.572 36.3254 238.125 35.6207 240.943 35.6207C243.229 35.6207 245.248 36.0397 247 36.8777C248.79 37.6776 250.295 38.7823 251.514 40.1917C252.771 41.563 253.723 43.1438 254.371 44.9341C255.056 46.6863 255.399 48.5147 255.399 50.4192C255.399 50.8382 255.361 51.3144 255.285 51.8477C255.247 52.3429 255.19 52.819 255.113 53.2761H229.859V48.7051H252.028L249.514 50.7621C249.857 48.7813 249.666 47.01 248.943 45.4483C248.219 43.8865 247.152 42.6486 245.743 41.7344C244.334 40.8202 242.734 40.3631 240.943 40.3631C239.153 40.3631 237.515 40.8202 236.03 41.7344C234.544 42.6486 233.382 43.9627 232.544 45.6768C231.744 47.3529 231.421 49.3527 231.573 51.6763C231.421 53.9237 231.763 55.9044 232.601 57.6185C233.477 59.2946 234.696 60.6087 236.258 61.561C237.858 62.4752 239.591 62.9323 241.458 62.9323C243.515 62.9323 245.248 62.4562 246.657 61.5039C248.067 60.5516 249.209 59.3327 250.085 57.8471L254.542 60.1326C253.933 61.542 252.98 62.8371 251.685 64.0179C250.428 65.1607 248.924 66.0749 247.171 66.7605C245.457 67.4462 243.534 67.789 241.401 67.789ZM277.755 67.789C274.745 67.789 272.06 67.0843 269.698 65.6749C267.375 64.2655 265.546 62.3419 264.213 59.904C262.88 57.4662 262.213 54.7236 262.213 51.6763C262.213 48.5908 262.88 45.8483 264.213 43.4485C265.546 41.0487 267.375 39.1441 269.698 37.7348C272.06 36.3254 274.745 35.6207 277.755 35.6207C279.773 35.6207 281.659 35.9825 283.411 36.7063C285.163 37.43 286.706 38.4014 288.039 39.6203C289.372 40.8392 290.344 42.2676 290.953 43.9056L286.211 46.1911C285.487 44.5912 284.382 43.2961 282.897 42.3057C281.411 41.2773 279.697 40.763 277.755 40.763C275.888 40.763 274.193 41.2392 272.669 42.1915C271.184 43.1438 270.003 44.4389 269.127 46.0768C268.251 47.7147 267.813 49.6003 267.813 51.7334C267.813 53.7903 268.251 55.6568 269.127 57.3329C270.003 58.9708 271.184 60.2659 272.669 61.2182C274.193 62.1705 275.888 62.6466 277.755 62.6466C279.697 62.6466 281.411 62.1514 282.897 61.1611C284.382 60.1326 285.487 58.7803 286.211 57.1043L290.953 59.5041C290.344 61.1039 289.372 62.5323 288.039 63.7894C286.706 65.0083 285.163 65.9796 283.411 66.7034C281.659 67.4271 279.773 67.789 277.755 67.789ZM299.04 67.1033V23.8504H304.354V42.3057L303.383 41.7915C304.145 39.8488 305.364 38.3442 307.04 37.2777C308.754 36.173 310.754 35.6207 313.039 35.6207C315.248 35.6207 317.21 36.1159 318.924 37.1062C320.676 38.0966 322.048 39.4679 323.038 41.2201C324.067 42.9723 324.581 44.9531 324.581 47.1624V67.1033H319.21V48.8765C319.21 47.1624 318.886 45.7149 318.239 44.5341C317.629 43.3533 316.772 42.4391 315.667 41.7915C314.563 41.1059 313.287 40.763 311.839 40.763C310.43 40.763 309.154 41.1059 308.011 41.7915C306.868 42.4391 305.973 43.3723 305.326 44.5912C304.678 45.7721 304.354 47.2005 304.354 48.8765V67.1033H299.04Z" fill="#0762C8"/>
</svg>
