<svg width="347" height="92" viewBox="0 0 347 92" fill="none" xmlns="http://www.w3.org/2000/svg">
<path fill-rule="evenodd" clip-rule="evenodd" d="M86.9969 55.1345C82.8519 74.9716 65.2639 89.8715 44.1959 89.8715C20.0467 89.8715 0.469971 70.2948 0.469971 46.1456C0.469971 21.9965 20.0467 2.41971 44.1959 2.41971C65.1559 2.41971 82.6714 17.1672 86.9321 36.8519H68.2155C64.488 27.2245 55.1392 20.3975 44.1959 20.3975C29.9756 20.3975 18.4479 31.9253 18.4479 46.1455C18.4479 60.3658 29.9756 71.8935 44.1959 71.8935C55.2543 71.8935 64.6845 64.9222 68.3313 55.1345H86.9969Z" fill="white"/>
<path fill-rule="evenodd" clip-rule="evenodd" d="M162.065 25.7549C162.065 32.6802 156.158 39.0815 145.112 45.4713C156.997 51.817 162.065 58.8262 162.065 66.5363C162.065 82.7755 143.494 91.3793 125.341 91.3793C106.122 91.3793 88.8063 81.5464 88.8063 66.5363C88.8063 59.611 94.7132 53.2096 105.759 46.8199C93.8747 40.4742 88.8063 33.465 88.8063 25.7549C88.8063 9.51569 107.378 0.911896 125.531 0.911896C144.749 0.911896 162.065 10.7448 162.065 25.7549ZM141.615 25.3726C141.615 30.0415 135.842 34.1859 125.41 38.5672C113.78 34.7949 109.121 30.4136 109.121 25.3726C109.121 17.9972 117.359 14.0896 125.41 14.0896C133.935 14.0896 141.615 18.5554 141.615 25.3726ZM109.121 66.8848C109.121 62.2159 114.894 58.0715 125.326 53.6902C136.956 57.4625 141.615 61.8438 141.615 66.8848C141.615 74.2602 133.378 78.1678 125.326 78.1678C116.802 78.1678 109.121 73.702 109.121 66.8848Z" fill="white"/>
<path d="M204.271 67.6456V36.8486H209.47V43.1337L208.727 42.1624C209.489 40.2197 210.708 38.7342 212.384 37.7057C214.06 36.6772 215.946 36.163 218.041 36.163C220.44 36.163 222.593 36.8296 224.497 38.1628C226.44 39.496 227.773 41.2482 228.497 43.4194L227.011 43.4765C227.811 41.0768 229.163 39.2674 231.068 38.0485C232.973 36.7915 235.087 36.163 237.41 36.163C239.543 36.163 241.467 36.6582 243.181 37.6485C244.933 38.6389 246.324 40.0102 247.352 41.7624C248.381 43.5146 248.895 45.4954 248.895 47.7047V67.6456H243.524V49.4188C243.524 47.7047 243.219 46.2572 242.61 45.0764C242 43.8956 241.162 42.9814 240.096 42.3338C239.067 41.6482 237.848 41.3053 236.439 41.3053C235.068 41.3053 233.83 41.6482 232.725 42.3338C231.658 42.9814 230.801 43.9146 230.154 45.1335C229.544 46.3144 229.24 47.7428 229.24 49.4188V67.6456H223.869V49.4188C223.869 47.7047 223.564 46.2572 222.955 45.0764C222.345 43.8956 221.507 42.9814 220.44 42.3338C219.412 41.6482 218.193 41.3053 216.784 41.3053C215.412 41.3053 214.174 41.6482 213.07 42.3338C212.003 42.9814 211.146 43.9146 210.499 45.1335C209.889 46.3144 209.584 47.7428 209.584 49.4188V67.6456H204.271ZM268.612 68.3313C265.527 68.3313 262.841 67.5694 260.556 66.0458C258.27 64.5221 256.651 62.4652 255.699 59.875L259.927 57.818C260.803 59.6464 262.003 61.0939 263.527 62.1604C265.051 63.227 266.746 63.7603 268.612 63.7603C270.288 63.7603 271.679 63.3603 272.783 62.5604C273.888 61.7605 274.44 60.713 274.44 59.4179C274.44 58.5037 274.174 57.7799 273.64 57.2466C273.145 56.6753 272.536 56.2372 271.812 55.9325C271.088 55.5897 270.421 55.3421 269.812 55.1897L265.184 53.8755C262.403 53.0756 260.365 51.9329 259.07 50.4473C257.813 48.9617 257.185 47.2286 257.185 45.2478C257.185 43.4194 257.642 41.8386 258.556 40.5054C259.508 39.1341 260.784 38.0675 262.384 37.3057C264.022 36.5439 265.851 36.163 267.869 36.163C270.574 36.163 272.993 36.8486 275.126 38.2199C277.297 39.5912 278.84 41.5148 279.754 43.9908L275.411 45.9906C274.726 44.3907 273.697 43.1337 272.326 42.2195C270.955 41.2672 269.412 40.7911 267.698 40.7911C266.136 40.7911 264.898 41.1911 263.984 41.991C263.07 42.7528 262.613 43.7241 262.613 44.905C262.613 45.7811 262.841 46.5048 263.298 47.0762C263.755 47.6095 264.308 48.0285 264.955 48.3332C265.603 48.5999 266.231 48.8284 266.841 49.0189L271.869 50.5044C274.383 51.2282 276.326 52.3519 277.697 53.8755C279.106 55.3992 279.811 57.2276 279.811 59.3607C279.811 61.0748 279.335 62.6175 278.383 63.9888C277.43 65.3601 276.116 66.4267 274.44 67.1885C272.764 67.9504 270.821 68.3313 268.612 68.3313ZM302.594 80.2158C300.423 80.2158 298.404 79.873 296.538 79.1874C294.709 78.5017 293.128 77.5494 291.795 76.3305C290.5 75.1497 289.51 73.7593 288.824 72.1595L293.795 69.874C294.328 71.3215 295.338 72.5404 296.823 73.5308C298.347 74.5592 300.251 75.0735 302.537 75.0735C304.289 75.0735 305.87 74.7307 307.279 74.045C308.727 73.3975 309.87 72.4071 310.708 71.0739C311.546 69.7788 311.965 68.198 311.965 66.3315V59.4179L312.936 60.4463C311.869 62.5414 310.327 64.1412 308.308 65.2459C306.327 66.3505 304.137 66.9028 301.737 66.9028C298.842 66.9028 296.252 66.2362 293.966 64.903C291.681 63.5317 289.891 61.6843 288.595 59.3607C287.3 56.999 286.653 54.3898 286.653 51.5329C286.653 48.638 287.3 46.0287 288.595 43.7051C289.891 41.3815 291.662 39.5531 293.909 38.2199C296.195 36.8486 298.785 36.163 301.68 36.163C304.08 36.163 306.251 36.7153 308.194 37.82C310.174 38.8865 311.755 40.3721 312.936 42.2767L312.136 43.7051V36.8486H317.336V66.3315C317.336 68.9979 316.707 71.3786 315.45 73.4736C314.193 75.5687 312.441 77.2066 310.193 78.3874C307.984 79.6064 305.451 80.2158 302.594 80.2158ZM302.194 61.7605C304.023 61.7605 305.66 61.3034 307.108 60.3892C308.594 59.475 309.774 58.2561 310.65 56.7324C311.527 55.1707 311.965 53.4375 311.965 51.5329C311.965 49.6664 311.527 47.9523 310.65 46.3906C309.774 44.8288 308.594 43.5908 307.108 42.6766C305.66 41.7624 304.023 41.3053 302.194 41.3053C300.328 41.3053 298.633 41.7624 297.109 42.6766C295.585 43.5908 294.385 44.8288 293.509 46.3906C292.671 47.9142 292.252 49.6283 292.252 51.5329C292.252 53.4375 292.671 55.1707 293.509 56.7324C294.385 58.2561 295.566 59.475 297.052 60.3892C298.575 61.3034 300.29 61.7605 302.194 61.7605ZM326.716 67.6456V36.8486H332.03V67.6456H326.716ZM326.716 31.9348V25.0783H332.03V31.9348H326.716Z" fill="white"/>
</svg>
