<svg width="811" height="95" viewBox="0 0 811 95" fill="none" xmlns="http://www.w3.org/2000/svg">
<path fill-rule="evenodd" clip-rule="evenodd" d="M375.465 91.1605C396.599 91.1605 413.731 74.9827 413.731 55.0264C413.731 35.0701 396.599 18.8923 375.465 18.8923C354.33 18.8923 337.198 35.0701 337.198 55.0264C337.198 74.9827 354.33 91.1605 375.465 91.1605ZM375.465 77.3593C388.284 77.3593 398.676 67.3605 398.676 55.0264C398.676 42.6923 388.284 32.6936 375.465 32.6936C362.645 32.6936 352.253 42.6923 352.253 55.0264C352.253 67.3605 362.645 77.3593 375.465 77.3593Z" fill="white"/>
<path fill-rule="evenodd" clip-rule="evenodd" d="M117.758 91.1605C138.892 91.1605 156.025 74.9827 156.025 55.0264C156.025 35.0701 138.892 18.8923 117.758 18.8923C96.6239 18.8923 79.4911 35.0701 79.4911 55.0264C79.4911 74.9827 96.6239 91.1605 117.758 91.1605ZM117.758 77.3593C130.577 77.3593 140.969 67.3605 140.969 55.0264C140.969 42.6923 130.577 32.6936 117.758 32.6936C104.939 32.6936 94.5469 42.6923 94.5469 55.0264C94.5469 67.3605 104.939 77.3593 117.758 77.3593Z" fill="white"/>
<path d="M131.434 0.950775H118.511L108.85 13.7483H125.035L131.434 0.950775Z" fill="white"/>
<path fill-rule="evenodd" clip-rule="evenodd" d="M75.8421 62.9308C72.074 79.1483 56.7702 91.286 38.464 91.286C17.3297 91.286 0.197021 75.1082 0.197021 55.1519C0.197021 35.1957 17.3297 19.0178 38.464 19.0178C56.9585 19.0178 72.3886 31.4066 75.9547 47.8749H60.4151C57.2783 39.1136 48.6352 32.819 38.464 32.819C25.6448 32.819 15.2529 42.8178 15.2529 55.1519C15.2529 67.486 25.6448 77.4848 38.464 77.4848C48.4399 77.4848 56.9458 71.4296 60.2283 62.9308H75.8421Z" fill="white"/>
<path d="M291.653 52.0153V63.4326H319.507C313.861 73.7208 308.591 76.9829 295.167 76.9829C281.742 76.9829 272.206 64.9382 272.206 54.7755C272.206 44.6128 280.738 33.6973 297.801 33.1954C311.452 32.7939 322.225 40.0542 325.906 43.7345V26.4203C317.374 20.3979 306.584 18.8923 297.801 18.8923C287.89 18.8923 256.9 25.793 256.9 54.7755C256.9 83.758 284.38 91.6838 293.912 91.4114C305.445 91.0819 313.911 84.5557 319.507 74.9755V90.4077H330.799V52.0153H291.653Z" fill="white"/>
<rect x="235.069" y="19.2687" width="15.0559" height="70.5117" fill="white"/>
<path fill-rule="evenodd" clip-rule="evenodd" d="M186.639 19.6545L163.051 19.6451L163.051 90.6586H186.639V90.6492C210.477 90.6492 228.795 74.4857 228.795 55.1518C228.795 35.818 210.603 19.6545 186.639 19.6545ZM187.171 77.1084H178.358V33.1977L187.171 33.2012C201.989 33.2012 213.237 43.1963 213.237 55.1519C213.237 67.1074 201.911 77.1025 187.171 77.1025V77.1084Z" fill="white"/>
<path fill-rule="evenodd" clip-rule="evenodd" d="M496.739 36.807C496.739 42.5701 491.824 47.8972 482.632 53.2146C492.522 58.4953 496.739 64.3282 496.739 70.7444C496.739 84.2583 481.285 91.4182 466.178 91.4182C450.185 91.4182 435.775 83.2355 435.775 70.7444C435.775 64.9813 440.691 59.6543 449.883 54.3369C439.993 49.0561 435.775 43.2232 435.775 36.807C435.775 23.2931 451.23 16.1332 466.336 16.1332C482.33 16.1332 496.739 24.316 496.739 36.807ZM479.721 36.4889C479.721 40.3742 474.917 43.8231 466.236 47.4691C456.558 44.3299 452.681 40.6839 452.681 36.4889C452.681 30.3512 459.536 27.0994 466.236 27.0994C473.33 27.0994 479.721 30.8158 479.721 36.4889ZM452.681 71.0344C452.681 67.1491 457.485 63.7002 466.166 60.0542C475.844 63.1934 479.721 66.8394 479.721 71.0344C479.721 77.172 472.866 80.4239 466.166 80.4239C459.072 80.4239 452.681 76.7075 452.681 71.0344Z" fill="white"/>
<path d="M538.945 81.8953V51.0983H544.144V57.0977L543.287 56.5835C544.049 54.6408 545.268 53.1362 546.944 52.0696C548.658 50.965 550.658 50.4126 552.943 50.4126C555.153 50.4126 557.114 50.9078 558.829 51.8982C560.581 52.8886 561.952 54.2599 562.942 56.0121C563.971 57.7643 564.485 59.7451 564.485 61.9544V81.8953H559.114V63.6685C559.114 61.9544 558.809 60.5069 558.2 59.3261C557.591 58.1452 556.714 57.231 555.572 56.5835C554.467 55.8978 553.191 55.555 551.744 55.555C550.296 55.555 549.001 55.8978 547.858 56.5835C546.754 57.231 545.877 58.1643 545.23 59.3832C544.582 60.564 544.259 61.9925 544.259 63.6685V81.8953H538.945ZM587.402 82.5809C584.431 82.5809 581.783 81.8762 579.46 80.4669C577.136 79.0575 575.308 77.1339 573.974 74.696C572.641 72.22 571.975 69.4584 571.975 66.4111C571.975 63.3257 572.622 60.5831 573.917 58.1833C575.25 55.7835 577.041 53.898 579.288 52.5267C581.574 51.1173 584.126 50.4126 586.945 50.4126C589.23 50.4126 591.249 50.8316 593.001 51.6697C594.791 52.4696 596.296 53.5742 597.515 54.9836C598.772 56.3549 599.724 57.9357 600.372 59.726C601.057 61.4782 601.4 63.3066 601.4 65.2112C601.4 65.6302 601.362 66.1064 601.286 66.6396C601.248 67.1348 601.191 67.611 601.115 68.0681H575.86V63.4971H598.029L595.515 65.554C595.858 63.5733 595.668 61.802 594.944 60.2403C594.22 58.6785 593.153 57.4405 591.744 56.5263C590.335 55.6121 588.735 55.155 586.945 55.155C585.154 55.155 583.516 55.6121 582.031 56.5263C580.545 57.4405 579.383 58.7547 578.545 60.4688C577.745 62.1448 577.422 64.1446 577.574 66.4682C577.422 68.7156 577.764 70.6964 578.603 72.4105C579.479 74.0865 580.698 75.4007 582.259 76.353C583.859 77.2672 585.592 77.7243 587.459 77.7243C589.516 77.7243 591.249 77.2481 592.658 76.2958C594.068 75.3435 595.21 74.1246 596.087 72.6391L600.543 74.9245C599.934 76.3339 598.981 77.629 597.686 78.8099C596.429 79.9526 594.925 80.8668 593.173 81.5525C591.458 82.2381 589.535 82.5809 587.402 82.5809ZM624.156 94.4655C621.984 94.4655 619.966 94.1227 618.099 93.437C616.271 92.7514 614.69 91.7991 613.357 90.5802C612.062 89.3993 611.071 88.009 610.386 86.4091L615.357 84.1236C615.89 85.5711 616.899 86.7901 618.385 87.7804C619.908 88.8089 621.813 89.3231 624.099 89.3231C625.851 89.3231 627.432 88.9803 628.841 88.2947C630.288 87.6471 631.431 86.6567 632.269 85.3235C633.107 84.0284 633.526 82.4476 633.526 80.5811V73.6675L634.498 74.696C633.431 76.791 631.888 78.3909 629.869 79.4955C627.889 80.6002 625.698 81.1525 623.299 81.1525C620.404 81.1525 617.813 80.4859 615.528 79.1527C613.242 77.7814 611.452 75.934 610.157 73.6104C608.862 71.2487 608.214 68.6394 608.214 65.7826C608.214 62.8876 608.862 60.2783 610.157 57.9548C611.452 55.6312 613.223 53.8028 615.471 52.4696C617.756 51.0983 620.347 50.4126 623.241 50.4126C625.641 50.4126 627.812 50.965 629.755 52.0696C631.736 53.1362 633.317 54.6218 634.498 56.5263L633.698 57.9548V51.0983H638.897V80.5811C638.897 83.2475 638.269 85.6283 637.012 87.7233C635.755 89.8183 634.002 91.4563 631.755 92.6371C629.546 93.856 627.013 94.4655 624.156 94.4655ZM623.756 76.0102C625.584 76.0102 627.222 75.5531 628.67 74.6389C630.155 73.7247 631.336 72.5057 632.212 70.9821C633.088 69.4203 633.526 67.6872 633.526 65.7826C633.526 63.9161 633.088 62.202 632.212 60.6402C631.336 59.0785 630.155 57.8405 628.67 56.9263C627.222 56.0121 625.584 55.555 623.756 55.555C621.889 55.555 620.194 56.0121 618.67 56.9263C617.147 57.8405 615.947 59.0785 615.071 60.6402C614.233 62.1639 613.814 63.878 613.814 65.7826C613.814 67.6872 614.233 69.4203 615.071 70.9821C615.947 72.5057 617.128 73.7247 618.613 74.6389C620.137 75.5531 621.851 76.0102 623.756 76.0102ZM662.905 82.5809C659.934 82.5809 657.248 81.8953 654.849 80.524C652.449 79.1146 650.544 77.191 649.135 74.7531C647.726 72.3153 647.021 69.5536 647.021 66.4682C647.021 63.3828 647.707 60.6402 649.078 58.2404C650.487 55.8407 652.392 53.9361 654.792 52.5267C657.191 51.1173 659.896 50.4126 662.905 50.4126C665.876 50.4126 668.562 51.1173 670.961 52.5267C673.361 53.898 675.247 55.7835 676.618 58.1833C678.027 60.5831 678.732 63.3447 678.732 66.4682C678.732 69.5917 678.008 72.3724 676.561 74.8103C675.113 77.21 673.19 79.1146 670.79 80.524C668.428 81.8953 665.8 82.5809 662.905 82.5809ZM662.905 77.4386C664.81 77.4386 666.524 76.9624 668.047 76.0102C669.609 75.0579 670.828 73.7437 671.704 72.0677C672.618 70.3916 673.075 68.5252 673.075 66.4682C673.075 64.3732 672.618 62.5257 671.704 60.9259C670.828 59.288 669.609 57.9929 668.047 57.0406C666.524 56.0502 664.81 55.555 662.905 55.555C660.962 55.555 659.21 56.0502 657.648 57.0406C656.125 57.9929 654.906 59.288 653.992 60.9259C653.077 62.5257 652.62 64.3732 652.62 66.4682C652.62 68.5252 653.077 70.3916 653.992 72.0677C654.906 73.7437 656.125 75.0579 657.648 76.0102C659.21 76.9624 660.962 77.4386 662.905 77.4386ZM660.22 45.3274L664.733 36.2997H671.933L665.533 45.3274H660.22ZM701.09 82.5809C698.08 82.5809 695.395 81.8762 693.033 80.4669C690.71 79.0575 688.881 77.1339 687.548 74.696C686.215 72.2581 685.548 69.5155 685.548 66.4682C685.548 63.3828 686.215 60.6402 687.548 58.2404C688.881 55.8407 690.71 53.9361 693.033 52.5267C695.395 51.1173 698.08 50.4126 701.09 50.4126C703.109 50.4126 704.994 50.7745 706.746 51.4982C708.499 52.222 710.041 53.1933 711.374 54.4122C712.708 55.6312 713.679 57.0596 714.288 58.6975L709.546 60.983C708.822 59.3832 707.718 58.0881 706.232 57.0977C704.747 56.0692 703.032 55.555 701.09 55.555C699.223 55.555 697.528 56.0311 696.005 56.9834C694.519 57.9357 693.338 59.2308 692.462 60.8688C691.586 62.5067 691.148 64.3922 691.148 66.5254C691.148 68.5823 691.586 70.4488 692.462 72.1248C693.338 73.7628 694.519 75.0579 696.005 76.0102C697.528 76.9624 699.223 77.4386 701.09 77.4386C703.032 77.4386 704.747 76.9434 706.232 75.953C707.718 74.9245 708.822 73.5723 709.546 71.8963L714.288 74.296C713.679 75.8959 712.708 77.3243 711.374 78.5813C710.041 79.8003 708.499 80.7716 706.746 81.4953C704.994 82.2191 703.109 82.5809 701.09 82.5809ZM722.376 81.8953V51.0983H727.689V81.8953H722.376ZM722.376 46.1845V39.328H727.689V46.1845H722.376ZM751.704 82.5809C748.733 82.5809 746.048 81.8953 743.648 80.524C741.248 79.1146 739.344 77.191 737.934 74.7531C736.525 72.3153 735.82 69.5536 735.82 66.4682C735.82 63.3828 736.506 60.6402 737.877 58.2404C739.287 55.8407 741.191 53.9361 743.591 52.5267C745.991 51.1173 748.695 50.4126 751.704 50.4126C754.676 50.4126 757.361 51.1173 759.761 52.5267C762.161 53.898 764.046 55.7835 765.417 58.1833C766.827 60.5831 767.531 63.3447 767.531 66.4682C767.531 69.5917 766.808 72.3724 765.36 74.8103C763.913 77.21 761.989 79.1146 759.589 80.524C757.228 81.8953 754.599 82.5809 751.704 82.5809ZM751.704 77.4386C753.609 77.4386 755.323 76.9624 756.847 76.0102C758.409 75.0579 759.627 73.7437 760.504 72.0677C761.418 70.3916 761.875 68.5252 761.875 66.4682C761.875 64.3732 761.418 62.5257 760.504 60.9259C759.627 59.288 758.409 57.9929 756.847 57.0406C755.323 56.0502 753.609 55.555 751.704 55.555C749.762 55.555 748.01 56.0502 746.448 57.0406C744.924 57.9929 743.705 59.288 742.791 60.9259C741.877 62.5257 741.42 64.3732 741.42 66.4682C741.42 68.5252 741.877 70.3916 742.791 72.0677C743.705 73.7437 744.924 75.0579 746.448 76.0102C748.01 76.9624 749.762 77.4386 751.704 77.4386ZM786.632 82.5809C783.547 82.5809 780.861 81.8191 778.576 80.2954C776.29 78.7718 774.672 76.7148 773.719 74.1246L777.947 72.0677C778.824 73.8961 780.023 75.3435 781.547 76.4101C783.071 77.4767 784.766 78.01 786.632 78.01C788.308 78.01 789.699 77.61 790.803 76.8101C791.908 76.0102 792.46 74.9626 792.46 73.6675C792.46 72.7533 792.194 72.0296 791.66 71.4963C791.165 70.9249 790.556 70.4869 789.832 70.1821C789.108 69.8393 788.442 69.5917 787.832 69.4394L783.204 68.1252C780.423 67.3253 778.385 66.1825 777.09 64.697C775.833 63.2114 775.205 61.4782 775.205 59.4975C775.205 57.6691 775.662 56.0883 776.576 54.7551C777.528 53.3838 778.804 52.3172 780.404 51.5554C782.042 50.7936 783.871 50.4126 785.89 50.4126C788.594 50.4126 791.013 51.0983 793.146 52.4696C795.317 53.8409 796.86 55.7645 797.774 58.2404L793.432 60.2403C792.746 58.6404 791.718 57.3834 790.346 56.4692C788.975 55.5169 787.432 55.0408 785.718 55.0408C784.156 55.0408 782.918 55.4407 782.004 56.2406C781.09 57.0025 780.633 57.9738 780.633 59.1546C780.633 60.0307 780.861 60.7545 781.319 61.3259C781.776 61.8591 782.328 62.2782 782.976 62.5829C783.623 62.8495 784.252 63.0781 784.861 63.2685L789.889 64.7541C792.403 65.4778 794.346 66.6015 795.717 68.1252C797.127 69.6489 797.831 71.4773 797.831 73.6104C797.831 75.3245 797.355 76.8672 796.403 78.2385C795.45 79.6098 794.136 80.6764 792.46 81.4382C790.784 82.2 788.842 82.5809 786.632 82.5809Z" fill="white"/>
</svg>
