<svg width="673" height="92" viewBox="0 0 673 92" fill="none" xmlns="http://www.w3.org/2000/svg">
<path fill-rule="evenodd" clip-rule="evenodd" d="M375.465 90.9912C396.599 90.9912 413.731 74.8134 413.731 54.8571C413.731 34.9008 396.599 18.723 375.465 18.723C354.33 18.723 337.198 34.9008 337.198 54.8571C337.198 74.8134 354.33 90.9912 375.465 90.9912ZM375.465 77.19C388.284 77.19 398.676 67.1912 398.676 54.8571C398.676 42.523 388.284 32.5242 375.465 32.5242C362.645 32.5242 352.253 42.523 352.253 54.8571C352.253 67.1912 362.645 77.19 375.465 77.19Z" fill="white"/>
<path fill-rule="evenodd" clip-rule="evenodd" d="M117.758 90.9912C138.892 90.9912 156.025 74.8134 156.025 54.8571C156.025 34.9008 138.892 18.723 117.758 18.723C96.6239 18.723 79.4911 34.9008 79.4911 54.8571C79.4911 74.8134 96.6239 90.9912 117.758 90.9912ZM117.758 77.19C130.577 77.19 140.969 67.1912 140.969 54.8571C140.969 42.523 130.577 32.5242 117.758 32.5242C104.939 32.5242 94.5469 42.523 94.5469 54.8571C94.5469 67.1912 104.939 77.19 117.758 77.19Z" fill="white"/>
<path d="M131.434 0.781494H118.511L108.85 13.579H125.035L131.434 0.781494Z" fill="white"/>
<path fill-rule="evenodd" clip-rule="evenodd" d="M75.8421 62.7614C72.074 78.9789 56.7702 91.1166 38.464 91.1166C17.3297 91.1166 0.197021 74.9388 0.197021 54.9825C0.197021 35.0263 17.3297 18.8484 38.464 18.8484C56.9585 18.8484 72.3886 31.2372 75.9547 47.7055H60.4151C57.2783 38.9442 48.6352 32.6497 38.464 32.6497C25.6448 32.6497 15.2529 42.6484 15.2529 54.9825C15.2529 67.3166 25.6448 77.3154 38.464 77.3154C48.4399 77.3154 56.9458 71.2602 60.2283 62.7614H75.8421Z" fill="white"/>
<path d="M291.653 51.8459V63.2633H319.507C313.861 73.5515 308.591 76.8136 295.167 76.8136C281.742 76.8136 272.206 64.7689 272.206 54.6062C272.206 44.4435 280.738 33.528 297.801 33.0261C311.452 32.6246 322.225 39.8849 325.906 43.5652V26.251C317.374 20.2286 306.584 18.723 297.801 18.723C287.89 18.723 256.9 25.6236 256.9 54.6062C256.9 83.5887 284.38 91.5144 293.912 91.2421C305.445 90.9126 313.911 84.3864 319.507 74.8061V90.2384H330.799V51.8459H291.653Z" fill="white"/>
<rect x="235.069" y="19.0994" width="15.0559" height="70.5117" fill="white"/>
<path fill-rule="evenodd" clip-rule="evenodd" d="M186.639 19.4852L163.051 19.4758L163.051 90.4893H186.639V90.4798C210.477 90.4798 228.795 74.3164 228.795 54.9825C228.795 35.6487 210.603 19.4852 186.639 19.4852ZM187.171 76.9391H178.358V33.0285L187.171 33.032C201.989 33.032 213.237 43.0271 213.237 54.9826C213.237 66.9382 201.911 76.9333 187.171 76.9333V76.9391Z" fill="white"/>
<path fill-rule="evenodd" clip-rule="evenodd" d="M496.739 36.6377C496.739 42.4008 491.824 47.7278 482.632 53.0453C492.522 58.326 496.739 64.1589 496.739 70.5751C496.739 84.089 481.285 91.2489 466.178 91.2489C450.185 91.2489 435.775 83.0661 435.775 70.5751C435.775 64.812 440.691 59.4849 449.883 54.1675C439.993 48.8868 435.775 43.0539 435.775 36.6377C435.775 23.1238 451.23 15.9639 466.336 15.9639C482.33 15.9639 496.739 24.1467 496.739 36.6377ZM479.721 36.3196C479.721 40.2049 474.917 43.6538 466.236 47.2998C456.558 44.1606 452.681 40.5146 452.681 36.3196C452.681 30.1819 459.536 26.9301 466.236 26.9301C473.33 26.9301 479.721 30.6465 479.721 36.3196ZM452.681 70.8651C452.681 66.9798 457.485 63.5308 466.166 59.8848C475.844 63.0241 479.721 66.6701 479.721 70.8651C479.721 77.0027 472.866 80.2546 466.166 80.2546C459.072 80.2546 452.681 76.5382 452.681 70.8651Z" fill="white"/>
<path d="M551.458 82.0688C548.449 82.0688 546.125 81.2117 544.487 79.4976C542.887 77.7835 542.087 75.3647 542.087 72.2412V56.0142H536.488V50.9289H537.631C539.002 50.9289 540.088 50.5099 540.887 49.6719C541.687 48.8339 542.087 47.7293 542.087 46.358V43.8439H547.401V50.9289H554.315V56.0142H547.401V72.0697C547.401 73.0982 547.553 73.9934 547.858 74.7552C548.201 75.517 548.753 76.1265 549.515 76.5836C550.277 77.0026 551.286 77.2121 552.543 77.2121C552.81 77.2121 553.134 77.1931 553.515 77.155C553.934 77.1169 554.315 77.0788 554.658 77.0407V81.726C554.162 81.8402 553.61 81.9164 553.001 81.9545C552.391 82.0307 551.877 82.0688 551.458 82.0688ZM576.075 82.4116C573.103 82.4116 570.456 81.7069 568.133 80.2975C565.809 78.8881 563.981 76.9645 562.647 74.5267C561.314 72.0507 560.648 69.2891 560.648 66.2417C560.648 63.1563 561.295 60.4137 562.59 58.014C563.923 55.6142 565.714 53.7287 567.961 52.3574C570.247 50.948 572.799 50.2433 575.618 50.2433C577.903 50.2433 579.922 50.6623 581.674 51.5003C583.464 52.3002 584.969 53.4049 586.188 54.8143C587.445 56.1856 588.397 57.7664 589.045 59.5567C589.73 61.3089 590.073 63.1373 590.073 65.0419C590.073 65.4609 590.035 65.937 589.959 66.4703C589.921 66.9655 589.864 67.4416 589.788 67.8987H564.533V63.3277H586.702L584.188 65.3847C584.531 63.4039 584.34 61.6327 583.617 60.0709C582.893 58.5092 581.826 57.2712 580.417 56.357C579.008 55.4428 577.408 54.9857 575.618 54.9857C573.827 54.9857 572.189 55.4428 570.704 56.357C569.218 57.2712 568.056 58.5853 567.218 60.2995C566.418 61.9755 566.095 63.9753 566.247 66.2989C566.095 68.5463 566.437 70.527 567.275 72.2412C568.152 73.9172 569.371 75.2313 570.932 76.1836C572.532 77.0978 574.265 77.5549 576.132 77.5549C578.189 77.5549 579.922 77.0788 581.331 76.1265C582.741 75.1742 583.883 73.9553 584.76 72.4697L589.216 74.7552C588.607 76.1646 587.654 77.4597 586.359 78.6405C585.102 79.7833 583.598 80.6975 581.846 81.3831C580.131 82.0688 578.208 82.4116 576.075 82.4116ZM612.429 82.4116C609.419 82.4116 606.734 81.7069 604.372 80.2975C602.049 78.8881 600.22 76.9645 598.887 74.5267C597.554 72.0888 596.887 69.3462 596.887 66.2989C596.887 63.2135 597.554 60.4709 598.887 58.0711C600.22 55.6713 602.049 53.7668 604.372 52.3574C606.734 50.948 609.419 50.2433 612.429 50.2433C614.448 50.2433 616.333 50.6052 618.085 51.3289C619.837 52.0526 621.38 53.024 622.713 54.2429C624.047 55.4618 625.018 56.8903 625.627 58.5282L620.885 60.8137C620.161 59.2139 619.057 57.9187 617.571 56.9284C616.085 55.8999 614.371 55.3857 612.429 55.3857C610.562 55.3857 608.867 55.8618 607.343 56.8141C605.858 57.7664 604.677 59.0615 603.801 60.6994C602.925 62.3374 602.487 64.2229 602.487 66.356C602.487 68.413 602.925 70.2794 603.801 71.9555C604.677 73.5934 605.858 74.8885 607.343 75.8408C608.867 76.7931 610.562 77.2692 612.429 77.2692C614.371 77.2692 616.085 76.7741 617.571 75.7837C619.057 74.7552 620.161 73.403 620.885 71.7269L625.627 74.1267C625.018 75.7265 624.047 77.155 622.713 78.412C621.38 79.6309 619.837 80.6023 618.085 81.326C616.333 82.0497 614.448 82.4116 612.429 82.4116ZM633.715 81.726V38.473H639.028V56.9284L638.057 56.4141C638.819 54.4715 640.038 52.9668 641.714 51.9003C643.428 50.7956 645.428 50.2433 647.713 50.2433C649.923 50.2433 651.884 50.7385 653.598 51.7289C655.351 52.7192 656.722 54.0905 657.712 55.8428C658.741 57.595 659.255 59.5757 659.255 61.785V81.726H653.884V63.4992C653.884 61.785 653.56 60.3376 652.913 59.1567C652.303 57.9759 651.446 57.0617 650.342 56.4141C649.237 55.7285 647.961 55.3857 646.513 55.3857C645.104 55.3857 643.828 55.7285 642.685 56.4141C641.542 57.0617 640.647 57.9949 640 59.2139C639.352 60.3947 639.028 61.8231 639.028 63.4992V81.726H633.715Z" fill="white"/>
</svg>
