<svg width="497" height="176" viewBox="0 0 497 176" fill="none" xmlns="http://www.w3.org/2000/svg">
<path fill-rule="evenodd" clip-rule="evenodd" d="M375.307 90.8276C396.441 90.8276 413.574 74.6498 413.574 54.6935C413.574 34.7372 396.441 18.5594 375.307 18.5594C354.173 18.5594 337.04 34.7372 337.04 54.6935C337.04 74.6498 354.173 90.8276 375.307 90.8276ZM375.307 77.0264C388.126 77.0264 398.518 67.0276 398.518 54.6935C398.518 42.3594 388.126 32.3607 375.307 32.3607C362.488 32.3607 352.096 42.3594 352.096 54.6935C352.096 67.0276 362.488 77.0264 375.307 77.0264Z" fill="white"/>
<path fill-rule="evenodd" clip-rule="evenodd" d="M117.601 90.8276C138.735 90.8276 155.868 74.6498 155.868 54.6935C155.868 34.7372 138.735 18.5594 117.601 18.5594C96.4664 18.5594 79.3336 34.7372 79.3336 54.6935C79.3336 74.6498 96.4664 90.8276 117.601 90.8276ZM117.601 77.0264C130.42 77.0264 140.812 67.0276 140.812 54.6935C140.812 42.3594 130.42 32.3607 117.601 32.3607C104.781 32.3607 94.3894 42.3594 94.3894 54.6935C94.3894 67.0276 104.781 77.0264 117.601 77.0264Z" fill="white"/>
<path d="M131.276 0.61792H118.353L108.693 13.4154H124.878L131.276 0.61792Z" fill="white"/>
<path fill-rule="evenodd" clip-rule="evenodd" d="M75.6845 62.598C71.9164 78.8154 56.6126 90.9531 38.3065 90.9531C17.1722 90.9531 0.0394897 74.7753 0.0394897 54.819C0.0394897 34.8628 17.1722 18.6849 38.3065 18.6849C56.801 18.6849 72.2311 31.0738 75.7972 47.5421H60.2576C57.1208 38.7808 48.4777 32.4861 38.3065 32.4861C25.4873 32.4861 15.0954 42.4849 15.0954 54.819C15.0954 67.1531 25.4873 77.1519 38.3065 77.1519C48.2823 77.1519 56.7883 71.0967 60.0708 62.598H75.6845Z" fill="white"/>
<path d="M291.496 51.6824V63.0997H319.349C313.703 73.3879 308.434 76.65 295.009 76.65C281.584 76.65 272.049 64.6053 272.049 54.4426C272.049 44.2799 280.58 33.3644 297.644 32.8625C311.294 32.461 322.068 39.7213 325.748 43.4016V26.0874C317.216 20.065 306.426 18.5594 297.644 18.5594C287.732 18.5594 256.742 25.4601 256.742 54.4426C256.742 83.4251 284.223 91.3509 293.754 91.0785C305.287 90.749 313.753 84.2228 319.349 74.6426V90.0748H330.641V51.6824H291.496Z" fill="white"/>
<rect x="234.911" y="18.9359" width="15.0559" height="70.5117" fill="white"/>
<path fill-rule="evenodd" clip-rule="evenodd" d="M186.481 19.3217L162.894 19.3123L162.894 90.3258H186.481V90.3163C210.32 90.3163 228.638 74.1528 228.638 54.819C228.638 35.4852 210.445 19.3217 186.481 19.3217ZM187.014 76.7755H178.2V32.8648L187.014 32.8683C201.831 32.8683 213.08 42.8634 213.08 54.819C213.08 66.7745 201.753 76.7696 187.014 76.7696V76.7755Z" fill="white"/>
<path fill-rule="evenodd" clip-rule="evenodd" d="M496.582 36.4741C496.582 42.2372 491.666 47.5643 482.474 52.8817C492.364 58.1624 496.582 63.9953 496.582 70.4115C496.582 83.9254 481.127 91.0853 466.021 91.0853C450.027 91.0853 435.617 82.9026 435.617 70.4115C435.617 64.6484 440.533 59.3214 449.725 54.004C439.835 48.7232 435.617 42.8903 435.617 36.4741C435.617 22.9602 451.072 15.8004 466.179 15.8004C482.172 15.8004 496.582 23.9831 496.582 36.4741ZM479.564 36.156C479.564 40.0413 474.76 43.4902 466.079 47.1362C456.4 43.997 452.523 40.351 452.523 36.156C452.523 30.0183 459.378 26.7665 466.079 26.7665C473.172 26.7665 479.564 30.4829 479.564 36.156ZM452.523 70.7015C452.523 66.8162 457.327 63.3673 466.008 59.7213C475.687 62.8605 479.564 66.5065 479.564 70.7015C479.564 76.8392 472.709 80.091 466.008 80.091C458.915 80.091 452.523 76.3746 452.523 70.7015Z" fill="white"/>
<path d="M177.424 162.654V131.857H182.624V138.142L181.881 137.171C182.643 135.228 183.862 133.743 185.538 132.714C187.214 131.686 189.1 131.171 191.195 131.171C193.594 131.171 195.747 131.838 197.651 133.171C199.594 134.504 200.927 136.257 201.651 138.428L200.165 138.485C200.965 136.085 202.317 134.276 204.222 133.057C206.126 131.8 208.241 131.171 210.564 131.171C212.697 131.171 214.621 131.667 216.335 132.657C218.087 133.647 219.478 135.019 220.506 136.771C221.534 138.523 222.049 140.504 222.049 142.713V162.654H216.678V144.427C216.678 142.713 216.373 141.266 215.764 140.085C215.154 138.904 214.316 137.99 213.25 137.342C212.221 136.657 211.002 136.314 209.593 136.314C208.222 136.314 206.984 136.657 205.879 137.342C204.812 137.99 203.955 138.923 203.308 140.142C202.698 141.323 202.393 142.751 202.393 144.427V162.654H197.023V144.427C197.023 142.713 196.718 141.266 196.108 140.085C195.499 138.904 194.661 137.99 193.594 137.342C192.566 136.657 191.347 136.314 189.938 136.314C188.566 136.314 187.328 136.657 186.224 137.342C185.157 137.99 184.3 138.923 183.652 140.142C183.043 141.323 182.738 142.751 182.738 144.427V162.654H177.424ZM246.337 163.34C243.252 163.34 240.566 162.578 238.281 161.054C235.995 159.53 234.376 157.474 233.424 154.883L237.652 152.826C238.528 154.655 239.728 156.102 241.252 157.169C242.775 158.235 244.471 158.769 246.337 158.769C248.013 158.769 249.403 158.369 250.508 157.569C251.613 156.769 252.165 155.721 252.165 154.426C252.165 153.512 251.898 152.788 251.365 152.255C250.87 151.684 250.26 151.246 249.537 150.941C248.813 150.598 248.146 150.35 247.537 150.198L242.909 148.884C240.128 148.084 238.09 146.941 236.795 145.456C235.538 143.97 234.91 142.237 234.91 140.256C234.91 138.428 235.367 136.847 236.281 135.514C237.233 134.142 238.509 133.076 240.109 132.314C241.747 131.552 243.575 131.171 245.594 131.171C248.299 131.171 250.718 131.857 252.851 133.228C255.022 134.6 256.565 136.523 257.479 138.999L253.136 140.999C252.451 139.399 251.422 138.142 250.051 137.228C248.68 136.276 247.137 135.799 245.423 135.799C243.861 135.799 242.623 136.199 241.709 136.999C240.795 137.761 240.338 138.733 240.338 139.913C240.338 140.789 240.566 141.513 241.023 142.085C241.48 142.618 242.033 143.037 242.68 143.342C243.328 143.608 243.956 143.837 244.566 144.027L249.594 145.513C252.108 146.237 254.051 147.36 255.422 148.884C256.831 150.408 257.536 152.236 257.536 154.369C257.536 156.083 257.06 157.626 256.107 158.997C255.155 160.368 253.841 161.435 252.165 162.197C250.489 162.959 248.546 163.34 246.337 163.34ZM284.89 175.224C282.719 175.224 280.7 174.881 278.833 174.196C277.005 173.51 275.424 172.558 274.091 171.339C272.796 170.158 271.806 168.768 271.12 167.168L276.091 164.882C276.624 166.33 277.634 167.549 279.119 168.539C280.643 169.568 282.547 170.082 284.833 170.082C286.585 170.082 288.166 169.739 289.575 169.053C291.023 168.406 292.165 167.415 293.003 166.082C293.841 164.787 294.26 163.206 294.26 161.34V154.426L295.232 155.455C294.165 157.55 292.623 159.15 290.604 160.254C288.623 161.359 286.433 161.911 284.033 161.911C281.138 161.911 278.548 161.245 276.262 159.911C273.977 158.54 272.186 156.693 270.891 154.369C269.596 152.007 268.949 149.398 268.949 146.541C268.949 143.646 269.596 141.037 270.891 138.713C272.186 136.39 273.958 134.561 276.205 133.228C278.491 131.857 281.081 131.171 283.976 131.171C286.376 131.171 288.547 131.724 290.489 132.828C292.47 133.895 294.051 135.38 295.232 137.285L294.432 138.713V131.857H299.631V161.34C299.631 164.006 299.003 166.387 297.746 168.482C296.489 170.577 294.737 172.215 292.489 173.396C290.28 174.615 287.747 175.224 284.89 175.224ZM284.49 156.769C286.318 156.769 287.956 156.312 289.404 155.398C290.889 154.483 292.07 153.264 292.946 151.741C293.822 150.179 294.26 148.446 294.26 146.541C294.26 144.675 293.822 142.961 292.946 141.399C292.07 139.837 290.889 138.599 289.404 137.685C287.956 136.771 286.318 136.314 284.49 136.314C282.624 136.314 280.928 136.771 279.405 137.685C277.881 138.599 276.681 139.837 275.805 141.399C274.967 142.923 274.548 144.637 274.548 146.541C274.548 148.446 274.967 150.179 275.805 151.741C276.681 153.264 277.862 154.483 279.348 155.398C280.871 156.312 282.585 156.769 284.49 156.769ZM313.583 162.654V131.857H318.897V162.654H313.583ZM313.583 126.943V120.087H318.897V126.943H313.583Z" fill="white"/>
</svg>
