<svg width="333" height="91" viewBox="0 0 333 91" fill="none" xmlns="http://www.w3.org/2000/svg">
<path fill-rule="evenodd" clip-rule="evenodd" d="M86.9969 54.6768C82.8519 74.5139 65.2639 89.4138 44.1959 89.4138C20.0467 89.4138 0.469971 69.8371 0.469971 45.6879C0.469971 21.5388 20.0467 1.96201 44.1959 1.96201C65.1559 1.96201 82.6714 16.7095 86.9321 36.3942H68.2155C64.488 26.7669 55.1392 19.9398 44.1959 19.9398C29.9756 19.9398 18.4479 31.4676 18.4479 45.6879C18.4479 59.9081 29.9756 71.4359 44.1959 71.4359C55.2543 71.4359 64.6845 64.4645 68.3313 54.6768H86.9969Z" fill="white"/>
<path fill-rule="evenodd" clip-rule="evenodd" d="M162.065 25.2972C162.065 32.2225 156.158 38.6239 145.112 45.0136C156.997 51.3593 162.065 58.3685 162.065 66.0786C162.065 82.3178 143.494 90.9216 125.341 90.9216C106.122 90.9216 88.8063 81.0887 88.8063 66.0786C88.8063 59.1533 94.7132 52.752 105.759 46.3622C93.8747 40.0165 88.8063 33.0073 88.8063 25.2972C88.8063 9.05802 107.378 0.454224 125.531 0.454224C144.749 0.454224 162.065 10.2871 162.065 25.2972ZM141.615 24.9149C141.615 29.5838 135.842 33.7282 125.41 38.1095C113.78 34.3372 109.121 29.9559 109.121 24.9149C109.121 17.5395 117.359 13.6319 125.41 13.6319C133.935 13.6319 141.615 18.0977 141.615 24.9149ZM109.121 66.4271C109.121 61.7582 114.894 57.6138 125.326 53.2325C136.956 57.0048 141.615 61.3861 141.615 66.4271C141.615 73.8025 133.378 77.7101 125.326 77.7101C116.802 77.7101 109.121 73.2443 109.121 66.4271Z" fill="white"/>
<path d="M218.555 67.8736C215.546 67.8736 212.86 67.1689 210.499 65.7595C208.175 64.3501 206.347 62.4265 205.013 59.9886C203.68 57.5508 203.014 54.8082 203.014 51.7609C203.014 48.6754 203.68 45.9328 205.013 43.5331C206.347 41.1333 208.175 39.2287 210.499 37.8194C212.86 36.41 215.546 35.7053 218.555 35.7053C220.574 35.7053 222.459 36.0671 224.212 36.7909C225.964 37.5146 227.506 38.486 228.84 39.7049C230.173 40.9238 231.144 42.3522 231.754 43.9902L227.011 46.2757C226.288 44.6758 225.183 43.3807 223.697 42.3903C222.212 41.3619 220.498 40.8476 218.555 40.8476C216.688 40.8476 214.993 41.3238 213.47 42.2761C211.984 43.2283 210.803 44.5235 209.927 46.1614C209.051 47.7993 208.613 49.6849 208.613 51.818C208.613 53.8749 209.051 55.7414 209.927 57.4174C210.803 59.0554 211.984 60.3505 213.47 61.3028C214.993 62.2551 216.688 62.7312 218.555 62.7312C220.498 62.7312 222.212 62.236 223.697 61.2456C225.183 60.2172 226.288 58.8649 227.011 57.1889L231.754 59.5887C231.144 61.1885 230.173 62.6169 228.84 63.874C227.506 65.0929 225.964 66.0642 224.212 66.788C222.459 67.5117 220.574 67.8736 218.555 67.8736ZM239.841 67.1879V23.935H245.155V67.1879H239.841ZM265.456 67.8736C263.246 67.8736 261.247 67.3593 259.456 66.3309C257.704 65.3024 256.333 63.874 255.342 62.0456C254.39 60.1791 253.914 58.046 253.914 55.6462V36.3909H259.228V55.0748C259.228 56.5985 259.533 57.9317 260.142 59.0744C260.79 60.2172 261.666 61.1123 262.77 61.7599C263.913 62.4074 265.208 62.7312 266.656 62.7312C268.103 62.7312 269.379 62.4074 270.484 61.7599C271.627 61.1123 272.503 60.1791 273.112 58.9602C273.76 57.7412 274.083 56.2937 274.083 54.6177V36.3909H279.454V67.1879H274.255V61.1885L275.112 61.7027C274.388 63.6454 273.15 65.1691 271.398 66.2737C269.684 67.3403 267.703 67.8736 265.456 67.8736ZM304.771 67.8736C302.295 67.8736 300.028 67.3212 297.971 66.2166C295.952 65.1119 294.391 63.5502 293.286 61.5313L294.029 60.6171V67.1879H288.829V23.935H294.143V43.0188L293.343 41.7047C294.486 39.8763 296.048 38.4288 298.028 37.3623C300.009 36.2576 302.276 35.7053 304.828 35.7053C307.723 35.7053 310.313 36.41 312.598 37.8194C314.922 39.2287 316.75 41.1524 318.084 43.5902C319.417 45.99 320.083 48.7326 320.083 51.818C320.083 54.8272 319.417 57.5508 318.084 59.9886C316.75 62.4265 314.922 64.3501 312.598 65.7595C310.313 67.1689 307.704 67.8736 304.771 67.8736ZM304.371 62.7312C306.313 62.7312 308.047 62.2551 309.57 61.3028C311.094 60.3505 312.275 59.0554 313.113 57.4174C313.989 55.7414 314.427 53.8749 314.427 51.818C314.427 49.6849 313.989 47.8184 313.113 46.2185C312.275 44.5806 311.094 43.2855 309.57 42.3332C308.047 41.3428 306.313 40.8476 304.371 40.8476C302.428 40.8476 300.676 41.3238 299.114 42.2761C297.59 43.2283 296.371 44.5425 295.457 46.2185C294.581 47.8565 294.143 49.723 294.143 51.818C294.143 53.8749 294.581 55.7414 295.457 57.4174C296.371 59.0554 297.59 60.3505 299.114 61.3028C300.676 62.2551 302.428 62.7312 304.371 62.7312Z" fill="white"/>
</svg>
