<?xml version="1.0" encoding="UTF-8"?>
<!-- Generator: visioncortex VTracer 0.6.12 -->
<svg version="1.1" xmlns="http://www.w3.org/2000/svg" width="5734" height="3200">
<path d="M0 0 C2.672 0.005 5.343 0 8.015 -0.006 C9.766 -0.006 11.518 -0.004 13.269 -0.002 C14.041 -0.004 14.814 -0.006 15.609 -0.009 C20.301 0.011 24.93 0.258 29.607 0.632 C39.9 1.329 50.181 1.254 60.494 1.228 C62.71 1.226 64.926 1.225 67.142 1.224 C71.885 1.22 76.629 1.214 81.373 1.206 C88.884 1.192 96.396 1.186 103.907 1.181 C119.851 1.17 135.794 1.151 151.738 1.13 C168.958 1.108 186.178 1.088 203.398 1.077 C210.854 1.072 218.311 1.062 225.768 1.049 C230.416 1.041 235.065 1.038 239.713 1.036 C241.857 1.034 244 1.03 246.144 1.025 C256.207 1 266.17 1.069 276.206 1.907 C280.607 2.238 284.982 2.233 289.392 2.18 C290.313 2.174 291.234 2.168 292.183 2.161 C294.157 2.148 296.13 2.132 298.104 2.114 C301.259 2.087 304.414 2.069 307.57 2.054 C316.533 2.012 325.496 1.965 334.459 1.884 C380.207 1.481 380.207 1.481 401.335 5.262 C410.384 6.809 419.514 6.27 428.64 5.693 C430.18 5.601 431.719 5.509 433.259 5.418 C433.654 5.395 433.654 5.395 435.656 5.275 C449.622 4.455 463.579 3.9 477.569 3.831 C479.207 3.822 480.845 3.809 482.482 3.79 C490.871 3.702 498.36 3.757 506.175 7.13 C505.845 8.12 505.515 9.11 505.175 10.13 C501.257 11.037 497.536 11.306 493.519 11.412 C492.249 11.449 490.98 11.486 489.671 11.525 C488.339 11.56 488.339 11.56 481.679 11.736 C480.409 11.773 479.14 11.811 477.832 11.849 C477.253 11.864 477.253 11.864 474.326 11.941 C471.508 12.11 468.921 12.495 466.175 13.13 C466.34 13.625 466.34 13.625 467.175 16.13 C478.727 21.906 492.943 21.412 505.582 21.701 C506.537 21.729 507.492 21.758 508.476 21.787 C508.905 21.796 508.905 21.796 511.075 21.843 C513.175 22.13 513.175 22.13 515.175 24.13 C508.673 30.633 492.008 29.138 483.324 29.216 C473.784 29.188 464.284 28.466 454.769 27.841 C442.729 27.083 430.933 26.734 418.925 28.005 C418.125 28.084 417.324 28.163 416.5 28.244 C412.529 28.643 408.577 29.073 404.626 29.64 C392.628 31.284 380.8 31.403 368.708 31.336 C365.285 31.318 361.863 31.316 358.441 31.316 C356.23 31.311 354.019 31.305 351.808 31.298 C350.803 31.297 349.797 31.296 348.761 31.295 C342.987 31.257 337.314 30.93 331.568 30.358 C326.9 29.914 322.236 29.94 317.55 29.943 C316.457 29.942 315.365 29.942 314.239 29.941 C307.078 29.986 300.047 30.43 292.925 31.13 C269.248 33.344 245.197 32.406 221.453 31.865 C220.405 31.841 219.358 31.817 218.279 31.793 C213.247 31.676 208.216 31.547 203.185 31.399 C194.996 31.173 186.908 31.058 178.726 31.595 C166.708 32.383 154.685 32.279 142.646 32.261 C138.579 32.255 134.512 32.261 130.445 32.267 C116.363 32.27 102.334 32.023 88.268 31.357 C82.049 31.066 75.839 30.981 69.613 31.005 C68.607 31.002 67.601 30.998 66.564 30.994 C61.218 31 55.937 31.203 50.607 31.625 C41.697 32.234 32.811 32.297 23.884 32.33 C20.877 32.342 17.87 32.361 14.864 32.383 C6.325 32.444 -2.214 32.498 -10.752 32.532 C-16.009 32.553 -21.265 32.589 -26.521 32.632 C-28.495 32.646 -30.469 32.655 -32.443 32.659 C-51.237 32.693 -69.754 34.44 -88.012 39.068 C-100.579 42.141 -100.579 42.141 -105.86 43.021 C-121.558 45.638 -136.058 51.317 -150.825 57.13 C-151.796 57.508 -152.767 57.886 -153.768 58.275 C-177.663 67.666 -199.91 80.868 -221.825 94.13 C-224.154 95.532 -226.483 96.933 -228.813 98.333 C-240.263 105.237 -251.657 112.198 -262.836 119.533 C-266.457 121.905 -270.12 124.205 -273.791 126.499 C-292.269 138.056 -310.196 150.118 -326.282 164.892 C-331.236 169.253 -336.569 173.142 -341.825 177.13 C-349.304 182.866 -356.645 188.691 -363.586 195.076 C-365.695 197.011 -367.843 198.889 -370.012 200.755 C-372.522 202.934 -374.888 205.181 -377.2 207.568 C-379.904 210.334 -382.765 212.702 -385.825 215.068 C-389.683 218.091 -392.786 221.227 -395.907 224.986 C-399.067 228.519 -402.634 231.594 -406.176 234.736 C-407.927 236.319 -409.635 237.951 -411.293 239.63 C-414.863 243.156 -418.778 246.205 -422.692 249.337 C-425.771 252.082 -428.344 254.967 -431.016 258.093 C-433.93 261.375 -437.153 264.294 -440.387 267.255 C-448.523 274.798 -456.369 282.607 -464.161 290.504 C-468.669 295.054 -473.198 299.469 -478.112 303.582 C-479.994 305.284 -481.584 307.113 -483.2 309.068 C-485.794 312.14 -488.51 314.559 -491.7 317.005 C-496.088 320.4 -499.579 324.102 -503.204 328.283 C-507.03 332.44 -511.171 336.229 -515.333 340.045 C-519.61 343.969 -523.746 348.002 -527.825 352.13 C-528.26 352.565 -528.26 352.565 -530.461 354.763 C-532.053 356.357 -533.638 357.956 -535.219 359.56 C-539.045 363.429 -542.861 367.234 -547.012 370.755 C-549.68 373.029 -551.957 375.375 -554.2 378.068 C-556.824 381.183 -559.585 383.601 -562.825 386.068 C-566.052 388.563 -568.578 390.878 -570.95 394.193 C-574.987 399.767 -580.069 404.205 -585.14 408.814 C-588.71 412.074 -591.849 415.303 -594.825 419.13 C-595.985 420.141 -597.173 421.121 -598.387 422.068 C-603.43 426.338 -607.185 431.56 -611.114 436.826 C-613.782 440.078 -616.579 442.475 -619.825 445.13 C-621.245 446.801 -622.621 448.51 -623.95 450.255 C-628.195 455.575 -632.896 460.046 -637.973 464.564 C-640.418 466.764 -642.727 469.018 -645.012 471.38 C-647.648 474.071 -650.37 476.375 -653.387 478.63 C-656.4 480.898 -658.854 483.168 -661.262 486.068 C-663.781 489.096 -666.374 491.439 -669.512 493.818 C-674.399 497.58 -678.458 501.912 -682.562 506.481 C-685.126 509.325 -687.673 512.017 -690.637 514.443 C-693.154 516.565 -695.002 518.446 -697.075 520.943 C-700.675 525.2 -704.851 528.462 -709.208 531.916 C-711.502 533.857 -713.318 535.741 -715.2 538.068 C-719.07 542.765 -723.858 546.148 -728.739 549.736 C-731.694 552.029 -734.224 554.449 -736.825 557.13 C-738.373 558.583 -739.935 560.021 -741.512 561.443 C-741.896 561.792 -741.896 561.792 -743.836 563.556 C-745.825 565.13 -745.825 565.13 -747.825 565.13 C-748.485 566.45 -749.145 567.77 -749.825 569.13 C-752.145 571.244 -752.145 571.244 -754.95 573.443 C-761.45 578.625 -767.65 584.067 -773.825 589.63 C-780.81 595.924 -787.874 602.037 -795.211 607.919 C-797.903 610.197 -800.351 612.621 -802.825 615.13 C-807.867 619.823 -813.104 624.17 -818.575 628.349 C-821.698 630.822 -824.623 633.496 -827.579 636.166 C-829.747 638.062 -831.97 639.824 -834.262 641.568 C-838.532 644.826 -842.459 648.386 -846.418 652.009 C-848.511 653.854 -850.622 655.508 -852.887 657.13 C-855.954 659.355 -858.556 661.792 -861.2 664.505 C-865.038 668.442 -869.092 671.857 -873.426 675.232 C-875.614 676.964 -877.691 678.762 -879.762 680.63 C-883.542 683.974 -887.548 686.906 -891.653 689.837 C-893.978 691.519 -896.275 693.219 -898.559 694.955 C-905.152 699.966 -911.767 704.847 -918.7 709.38 C-923.821 712.743 -928.653 716.254 -933.383 720.142 C-940.254 725.738 -947.467 730.892 -954.7 736.005 C-959.422 739.355 -963.996 742.821 -968.512 746.443 C-974.733 751.393 -981.203 755.856 -987.796 760.294 C-992.634 763.571 -997.27 766.969 -1001.825 770.63 C-1008.638 776.095 -1015.779 780.977 -1023.016 785.861 C-1026.871 788.466 -1030.667 791.142 -1034.447 793.854 C-1041.33 798.791 -1048.316 803.313 -1055.629 807.599 C-1060.881 810.72 -1065.969 814.091 -1071.075 817.443 C-1080.486 823.617 -1089.958 829.679 -1099.492 835.661 C-1101.912 837.185 -1104.324 838.721 -1106.735 840.259 C-1114.696 845.333 -1122.686 850.258 -1130.918 854.884 C-1139.068 859.518 -1147.013 864.512 -1155.006 869.408 C-1157.592 870.988 -1160.184 872.56 -1162.778 874.126 C-1170.937 879.062 -1178.954 884.144 -1186.864 889.474 C-1193.952 894.246 -1201.134 898.877 -1208.313 903.509 C-1209.933 904.555 -1211.552 905.603 -1213.168 906.654 C-1223.626 913.449 -1234.296 919.731 -1245.205 925.774 C-1252.55 929.844 -1259.831 934.008 -1267.075 938.255 C-1283.612 947.947 -1300.279 957.407 -1316.973 966.826 C-1320.94 969.064 -1324.903 971.31 -1328.864 973.56 C-1338.165 978.842 -1347.475 984.077 -1356.938 989.064 C-1360.753 991.092 -1364.541 993.164 -1368.326 995.245 C-1378.606 1000.893 -1388.965 1006.366 -1399.408 1011.707 C-1406.471 1015.335 -1413.45 1019.101 -1420.411 1022.919 C-1430.834 1028.63 -1441.357 1034.117 -1451.95 1039.505 C-1452.411 1039.741 -1452.411 1039.741 -1454.747 1040.931 C-1471.131 1049.282 -1487.553 1057.558 -1503.992 1065.802 C-1506.541 1067.08 -1509.09 1068.36 -1511.638 1069.641 C-1526.073 1076.895 -1540.555 1083.988 -1555.287 1090.625 C-1562.755 1094.025 -1569.815 1097.868 -1576.825 1102.13 C-1577.728 1102.679 -1578.631 1103.228 -1579.561 1103.793 C-1581.931 1105.243 -1584.285 1106.714 -1586.637 1108.193 C-1587.034 1108.438 -1587.034 1108.438 -1589.042 1109.679 C-1602.102 1117.887 -1602.102 1117.887 -1603.602 1122.544 C-1603.655 1123.274 -1603.708 1124.004 -1603.762 1124.755 C-1604.391 1127.08 -1604.391 1127.08 -1605.825 1129.13 C-1610.994 1131.33 -1616.304 1132.208 -1621.825 1133.13 C-1622.871 1133.353 -1623.918 1133.576 -1624.997 1133.806 C-1631.998 1135.167 -1638.965 1135.331 -1646.075 1135.38 C-1646.998 1135.39 -1647.921 1135.399 -1648.872 1135.409 C-1657.256 1135.37 -1665.141 1134.7 -1671.825 1129.13 C-1676.088 1123.25 -1676.374 1117.145 -1675.825 1110.13 C-1674.428 1104.194 -1672.423 1101.203 -1667.479 1097.643 C-1661.921 1094.476 -1655.67 1092.963 -1649.575 1091.13 C-1633.433 1086.069 -1618.702 1079.203 -1603.825 1071.13 C-1603.316 1070.856 -1603.316 1070.856 -1600.742 1069.467 C-1597.027 1067.458 -1593.314 1065.447 -1589.627 1063.388 C-1583.233 1059.825 -1576.711 1056.546 -1570.157 1053.29 C-1562.638 1049.551 -1555.17 1045.713 -1547.7 1041.88 C-1546.894 1041.467 -1546.088 1041.054 -1545.257 1040.628 C-1534.818 1035.272 -1524.416 1029.863 -1514.174 1024.135 C-1508.579 1021.02 -1502.887 1018.133 -1497.153 1015.283 C-1489.636 1011.546 -1482.163 1007.724 -1474.7 1003.88 C-1473.986 1003.513 -1473.273 1003.145 -1472.537 1002.767 C-1455.386 993.924 -1438.493 984.676 -1421.722 975.132 C-1414.357 970.956 -1406.917 966.932 -1399.45 962.943 C-1389.418 957.58 -1379.587 951.965 -1369.825 946.13 C-1362.291 941.703 -1354.663 937.5 -1346.95 933.396 C-1333.175 926.056 -1319.736 918.256 -1306.35 910.232 C-1300.178 906.553 -1293.967 902.94 -1287.762 899.318 C-1273.058 890.716 -1258.538 881.849 -1244.102 872.806 C-1239.1 869.674 -1234.089 866.556 -1229.075 863.443 C-1228.655 863.182 -1228.655 863.182 -1226.532 861.859 C-1222.034 859.069 -1217.504 856.35 -1212.922 853.697 C-1206.867 850.182 -1200.934 846.49 -1195.012 842.755 C-1187.266 837.891 -1179.492 833.095 -1171.629 828.419 C-1166.977 825.62 -1162.371 822.751 -1157.762 819.88 C-1150.388 815.288 -1142.949 810.828 -1135.45 806.443 C-1127.812 801.97 -1120.382 797.301 -1113.063 792.326 C-1110.181 790.372 -1107.271 788.485 -1104.325 786.63 C-1095.691 781.175 -1087.17 775.518 -1078.825 769.63 C-1070.541 763.786 -1062.087 758.164 -1053.512 752.755 C-1040.015 744.229 -1026.671 735.346 -1013.934 725.716 C-1003.651 717.985 -993.185 710.435 -982.262 703.63 C-973.148 697.89 -964.821 691.165 -956.532 684.31 C-953.019 681.482 -949.379 678.859 -945.715 676.232 C-938.854 671.244 -932.191 665.984 -925.512 660.755 C-922.714 658.568 -919.886 656.427 -917.032 654.314 C-910.438 649.426 -904.003 644.56 -897.961 638.99 C-895.521 636.866 -892.961 635.006 -890.325 633.13 C-885.161 629.45 -880.494 625.41 -875.825 621.13 C-868.721 614.768 -861.377 608.728 -853.7 603.068 C-850.264 600.52 -847.081 597.758 -843.891 594.912 C-841.764 593.078 -839.566 591.385 -837.325 589.693 C-833.477 586.749 -830.16 583.51 -826.793 580.037 C-824.29 577.613 -821.566 575.646 -818.743 573.615 C-816.832 572.136 -815.235 570.57 -813.575 568.818 C-810.578 565.698 -807.328 563.229 -803.825 560.693 C-799.437 557.481 -796.004 554.283 -792.586 550.087 C-789.864 547.063 -786.644 544.743 -783.43 542.263 C-780.705 540.032 -778.281 537.652 -775.825 535.13 C-772.589 531.808 -769.309 528.838 -765.637 526.005 C-761.855 523.068 -758.854 520.013 -755.809 516.337 C-752.391 512.536 -748.515 509.227 -744.692 505.841 C-741.825 503.13 -741.825 503.13 -739.254 500.033 C-737.005 497.346 -734.864 495.41 -732.075 493.318 C-728.558 490.592 -725.404 487.778 -722.325 484.568 C-719.346 481.495 -716.399 479.043 -712.825 476.693 C-708.101 473.546 -704.724 469.837 -701.047 465.544 C-698.28 462.539 -695.215 460.254 -691.938 457.837 C-689.795 456.107 -688.143 454.31 -686.387 452.193 C-683.785 449.06 -681.051 446.617 -677.825 444.13 C-673.988 441.162 -670.951 438.117 -667.868 434.396 C-665.201 431.439 -662.274 428.797 -659.325 426.13 C-655.784 422.924 -652.331 419.74 -649.262 416.068 C-645.509 411.579 -641.165 407.788 -636.825 403.876 C-633.359 400.704 -630.066 397.391 -626.774 394.041 C-624.825 392.13 -624.825 392.13 -621.762 389.693 C-619.064 387.339 -617.131 385.072 -614.95 382.255 C-611.919 378.359 -608.81 375.246 -605.024 372.107 C-602.253 369.616 -599.816 366.9 -597.325 364.13 C-593.687 360.092 -590.013 356.451 -585.852 352.97 C-583.323 350.675 -581.097 348.18 -578.825 345.63 C-575.997 342.458 -573.213 339.477 -569.95 336.755 C-565.089 332.685 -560.974 327.928 -556.754 323.216 C-553.825 320.13 -553.825 320.13 -550.661 317.501 C-548.12 315.377 -546.446 313.512 -544.575 310.818 C-541.29 306.428 -537.552 303.387 -533.215 300.076 C-530.397 297.782 -528.243 295.25 -525.934 292.462 C-523.082 289.31 -519.965 286.492 -516.825 283.63 C-513.095 280.227 -509.443 276.888 -506.2 273.005 C-502.094 268.103 -497.292 263.967 -492.552 259.691 C-483.709 251.699 -475.198 243.624 -467.243 234.74 C-464.584 231.871 -461.778 229.347 -458.786 226.837 C-456.522 224.866 -454.431 222.769 -452.325 220.63 C-449.596 217.865 -446.84 215.218 -443.887 212.693 C-440.743 210.003 -437.842 207.153 -434.95 204.193 C-430.874 200.054 -426.573 196.479 -421.989 192.923 C-419.825 191.13 -419.825 191.13 -417.387 188.193 C-414.183 184.363 -410.48 181.526 -406.543 178.474 C-403.825 176.13 -403.825 176.13 -401.368 173.146 C-398.698 169.981 -395.982 167.808 -392.637 165.38 C-387.395 161.447 -382.837 157.278 -378.29 152.576 C-374.09 148.409 -369.471 144.782 -364.825 141.13 C-364.426 140.816 -364.426 140.816 -362.411 139.224 C-359.018 136.566 -355.596 133.952 -352.137 131.38 C-343.761 125.119 -335.561 118.632 -327.575 111.88 C-322.519 107.636 -317.286 103.83 -311.825 100.13 C-310.261 99.028 -308.698 97.924 -307.137 96.818 C-300.445 92.138 -293.64 87.628 -286.825 83.13 C-286.171 82.697 -285.518 82.264 -284.844 81.817 C-272.759 73.819 -260.369 66.386 -247.825 59.13 C-247.427 58.899 -247.427 58.899 -245.413 57.727 C-235.661 52.071 -225.755 47.138 -215.43 42.619 C-210.042 40.253 -204.727 37.74 -199.407 35.224 C-187.403 29.564 -175.46 24.213 -162.825 20.13 C-162.377 19.985 -162.377 19.985 -160.111 19.25 C-137.765 12.114 -115.197 7.853 -91.825 6.13 C-89.937 5.981 -88.049 5.83 -86.161 5.677 C-83.126 5.433 -80.092 5.189 -77.057 4.952 C-66.352 4.112 -55.657 3.154 -44.963 2.183 C-40.918 1.82 -36.872 1.47 -32.825 1.13 C-32.224 1.08 -32.224 1.08 -29.187 0.823 C-19.453 0.082 -9.756 -0.023 0 0 Z " fill="#061F51" transform="translate(2985.82470703125,1363.86962890625)"/>
<path d="M0 0 C2.672 0.005 5.343 0 8.015 -0.006 C9.766 -0.006 11.518 -0.004 13.269 -0.002 C14.041 -0.004 14.814 -0.006 15.609 -0.009 C20.301 0.011 24.93 0.258 29.607 0.632 C39.9 1.329 50.181 1.254 60.494 1.228 C62.71 1.226 64.926 1.225 67.142 1.224 C71.885 1.22 76.629 1.214 81.373 1.206 C88.884 1.192 96.396 1.186 103.907 1.181 C119.851 1.17 135.794 1.151 151.738 1.13 C168.958 1.108 186.178 1.088 203.398 1.077 C210.854 1.072 218.311 1.062 225.768 1.049 C230.416 1.041 235.065 1.038 239.713 1.036 C241.857 1.034 244 1.03 246.144 1.025 C256.207 1 266.17 1.069 276.206 1.907 C280.607 2.238 284.982 2.233 289.392 2.18 C290.313 2.174 291.234 2.168 292.183 2.161 C294.157 2.148 296.13 2.132 298.104 2.114 C301.259 2.087 304.414 2.069 307.57 2.054 C316.533 2.012 325.496 1.965 334.459 1.884 C380.207 1.481 380.207 1.481 401.335 5.262 C410.384 6.809 419.514 6.27 428.64 5.693 C430.18 5.601 431.719 5.509 433.259 5.418 C433.654 5.395 433.654 5.395 435.656 5.275 C449.622 4.455 463.579 3.9 477.569 3.831 C479.207 3.822 480.845 3.809 482.482 3.79 C490.871 3.702 498.36 3.757 506.175 7.13 C505.845 8.12 505.515 9.11 505.175 10.13 C501.257 11.037 497.536 11.306 493.519 11.412 C492.249 11.449 490.98 11.486 489.671 11.525 C488.339 11.56 488.339 11.56 481.679 11.736 C480.409 11.773 479.14 11.811 477.832 11.849 C476.675 11.879 475.518 11.91 474.326 11.941 C471.508 12.11 468.921 12.495 466.175 13.13 C466.505 14.12 466.835 15.11 467.175 16.13 C478.727 21.906 492.943 21.412 505.582 21.701 C506.537 21.729 507.492 21.758 508.476 21.787 C508.905 21.796 508.905 21.796 511.075 21.843 C513.175 22.13 513.175 22.13 515.175 24.13 C508.673 30.633 492.008 29.138 483.324 29.216 C473.784 29.188 464.284 28.466 454.769 27.841 C442.729 27.083 430.933 26.734 418.925 28.005 C418.125 28.084 417.324 28.163 416.5 28.244 C412.529 28.643 408.577 29.073 404.626 29.64 C392.628 31.284 380.8 31.403 368.708 31.336 C365.285 31.318 361.863 31.316 358.441 31.316 C356.23 31.311 354.019 31.305 351.808 31.298 C350.803 31.297 349.797 31.296 348.761 31.295 C342.987 31.257 337.314 30.93 331.568 30.358 C326.9 29.914 322.236 29.94 317.55 29.943 C316.457 29.942 315.365 29.942 314.239 29.941 C307.078 29.986 300.047 30.43 292.925 31.13 C269.248 33.344 245.197 32.406 221.453 31.865 C220.405 31.841 219.358 31.817 218.279 31.793 C213.247 31.676 208.216 31.547 203.185 31.399 C194.996 31.173 186.908 31.058 178.726 31.595 C166.708 32.383 154.685 32.279 142.646 32.261 C138.579 32.255 134.512 32.261 130.445 32.267 C116.363 32.27 102.334 32.023 88.268 31.357 C82.049 31.066 75.839 30.981 69.613 31.005 C68.607 31.002 67.601 30.998 66.564 30.994 C61.218 31 55.937 31.203 50.607 31.625 C41.697 32.234 32.811 32.297 23.884 32.33 C20.877 32.342 17.87 32.361 14.864 32.383 C6.325 32.444 -2.214 32.498 -10.752 32.532 C-16.009 32.553 -21.265 32.589 -26.521 32.632 C-28.495 32.646 -30.469 32.655 -32.443 32.659 C-51.237 32.693 -69.754 34.44 -88.012 39.068 C-100.579 42.141 -100.579 42.141 -105.86 43.021 C-121.555 45.638 -136.064 51.307 -150.825 57.13 C-151.828 57.524 -152.831 57.918 -153.864 58.324 C-165.283 62.862 -176.065 68.197 -186.721 74.322 C-187.592 74.817 -188.463 75.312 -189.36 75.822 C-190.127 76.267 -190.894 76.713 -191.684 77.172 C-193.825 78.13 -193.825 78.13 -197.825 78.13 C-197.825 75.16 -197.825 72.19 -197.825 69.13 C-196.505 69.13 -195.185 69.13 -193.825 69.13 C-193.845 67.996 -193.866 66.862 -193.887 65.693 C-193.825 62.13 -193.825 62.13 -192.825 61.13 C-190.158 61.089 -187.491 61.088 -184.825 61.13 C-184.845 59.996 -184.866 58.862 -184.887 57.693 C-184.825 54.13 -184.825 54.13 -183.825 53.13 C-181.492 53.089 -179.158 53.088 -176.825 53.13 C-176.825 54.45 -176.825 55.77 -176.825 57.13 C-175.67 56.965 -175.67 56.965 -169.825 56.13 C-169.495 48.21 -169.165 40.29 -168.825 32.13 C-177.7 32.255 -177.7 32.255 -180.492 32.311 C-182.604 32.325 -184.715 32.23 -186.825 32.13 C-187.485 31.47 -188.145 30.81 -188.825 30.13 C-157.435 17.154 -125.743 8.63 -91.825 6.13 C-89.937 5.981 -88.049 5.83 -86.161 5.677 C-83.126 5.433 -80.092 5.189 -77.057 4.952 C-66.352 4.112 -55.657 3.154 -44.963 2.183 C-40.918 1.82 -36.872 1.47 -32.825 1.13 C-32.224 1.08 -32.224 1.08 -29.187 0.823 C-19.453 0.082 -9.756 -0.023 0 0 Z " fill="#05173D" transform="translate(2985.82470703125,1363.86962890625)"/>
<path d="M0 0 C1.097 -0.001 2.193 -0.003 3.323 -0.004 C4.531 -0.001 5.74 0.003 6.985 0.007 C8.253 0.007 9.521 0.006 10.828 0.006 C15.038 0.007 19.247 0.015 23.457 0.023 C26.369 0.024 29.281 0.026 32.192 0.027 C39.084 0.03 45.976 0.038 52.868 0.048 C60.713 0.059 68.558 0.065 76.403 0.07 C92.544 0.08 108.684 0.098 124.824 0.12 C124.824 1.44 124.824 2.76 124.824 4.12 C145.614 4.12 166.404 4.12 187.824 4.12 C187.824 2.8 187.824 1.48 187.824 0.12 C206.964 0.12 226.104 0.12 245.824 0.12 C245.824 1.44 245.824 2.76 245.824 4.12 C266.614 4.12 287.404 4.12 308.824 4.12 C308.824 11.05 308.824 17.98 308.824 25.12 C289.354 25.12 269.884 25.12 249.824 25.12 C249.824 19.51 249.824 13.9 249.824 8.12 C247.184 8.12 244.544 8.12 241.824 8.12 C241.824 6.8 241.824 5.48 241.824 4.12 C226.644 4.12 211.464 4.12 195.824 4.12 C195.824 11.38 195.824 18.64 195.824 26.12 C194.504 26.12 193.184 26.12 191.824 26.12 C191.824 20.18 191.824 14.24 191.824 8.12 C190.504 8.12 189.184 8.12 187.824 8.12 C187.824 13.73 187.824 19.34 187.824 25.12 C167.034 25.12 146.244 25.12 124.824 25.12 C124.824 19.51 124.824 13.9 124.824 8.12 C123.504 8.12 122.184 8.12 120.824 8.12 C120.824 6.8 120.824 5.48 120.824 4.12 C105.644 4.12 90.464 4.12 74.824 4.12 C74.824 11.05 74.824 17.98 74.824 25.12 C73.504 25.12 72.184 25.12 70.824 25.12 C70.824 26.11 70.824 27.1 70.824 28.12 C66.705 28.897 62.824 29.243 58.635 29.234 C57.434 29.234 56.234 29.234 54.996 29.234 C53.715 29.228 52.434 29.223 51.113 29.218 C49.79 29.216 48.467 29.215 47.103 29.214 C42.885 29.208 38.667 29.195 34.449 29.183 C31.586 29.178 28.723 29.173 25.859 29.169 C18.848 29.158 11.836 29.141 4.824 29.12 C4.824 26.48 4.824 23.84 4.824 21.12 C3.174 21.12 1.524 21.12 -0.176 21.12 C-0.176 15.51 -0.176 9.9 -0.176 4.12 C-7.106 4.12 -14.036 4.12 -21.176 4.12 C-20.846 3.46 -20.516 2.8 -20.176 2.12 C-17.305 1.741 -17.305 1.741 -13.738 1.558 C-8.895 1.297 -4.801 -0.005 0 0 Z " fill="#061C49" transform="translate(2963.175811767578,1366.8797454833984)"/>
<path d="M0 0 C15.18 0 30.36 0 46 0 C46 1.32 46 2.64 46 4 C47.32 4 48.64 4 50 4 C50 9.61 50 15.22 50 21 C70.79 21 91.58 21 113 21 C113 15.39 113 9.78 113 4 C114.32 4 115.64 4 117 4 C117 9.94 117 15.88 117 22 C118.32 22 119.64 22 121 22 C121 14.74 121 7.48 121 0 C136.18 0 151.36 0 167 0 C167 1.32 167 2.64 167 4 C169.64 4 172.28 4 175 4 C175 9.61 175 15.22 175 21 C195.79 21 216.58 21 238 21 C238 14.07 238 7.14 238 0 C253.18 0 268.36 0 284 0 C284 7.26 284 14.52 284 22 C281.98 22.049 279.96 22.098 277.879 22.148 C265.318 22.482 252.819 22.823 240.312 24.062 C216.787 26.233 192.866 25.272 169.277 24.734 C168.754 24.722 168.754 24.722 166.104 24.662 C161.072 24.545 156.041 24.416 151.009 24.268 C142.82 24.042 134.733 23.928 126.551 24.465 C114.533 25.253 102.51 25.149 90.471 25.13 C86.404 25.125 82.337 25.13 78.27 25.137 C65.258 25.14 52.288 24.976 39.29 24.356 C30.188 23.93 21.11 23.886 12 23.938 C10.423 23.943 8.846 23.947 7.27 23.951 C3.513 23.963 -0.243 23.979 -4 24 C-4 23.01 -4 22.02 -4 21 C-2.68 21 -1.36 21 0 21 C0 14.07 0 7.14 0 0 Z " fill="#051C4C" transform="translate(3038,1371)"/>
<path d="M0 0 C1.32 0.33 2.64 0.66 4 1 C6.637 7.275 7.747 13.532 8.625 20.25 C8.686 20.676 8.686 20.676 8.992 22.832 C10.836 36.277 11.232 49.724 11.503 63.273 C11.562 66.23 11.627 69.187 11.693 72.145 C11.938 83.432 12.074 94.71 12 106 C11.995 107.115 11.99 108.229 11.985 109.378 C11.845 125.165 10.113 140.222 7.156 155.727 C5.496 164.512 4.806 173.061 4.812 182 C4.813 183.037 4.813 184.073 4.813 185.142 C4.889 195.852 5.82 206.455 6.756 217.118 C11.767 276.386 11.767 276.386 3 295 C2.01 295 1.02 295 0 295 C-5.315 280.209 -4.232 263.737 -4.25 248.188 C-4.252 247.238 -4.255 246.289 -4.257 245.311 C-4.272 229.18 -3.311 213.32 -1.656 197.281 C-0.678 187.401 -0.843 177.749 -1.75 167.875 C-1.834 166.893 -1.917 165.911 -2.003 164.899 C-2.511 159.254 -3.173 153.663 -4.023 148.059 C-6.834 128.783 -7.361 109.845 -7.312 90.375 C-7.31 89.101 -7.307 87.826 -7.305 86.513 C-7.158 43.678 -7.158 43.678 -4.562 23.062 C-4.441 22.006 -4.319 20.95 -4.193 19.861 C-2.38 4.759 -2.38 4.759 0 0 Z " fill="#656D74" transform="translate(1304,1748)"/>
<path d="M0 0 C0.603 0.001 0.603 0.001 3.652 0.009 C7.462 0.02 11.272 0.045 15.082 0.07 C17.682 0.08 20.281 0.089 22.881 0.098 C29.219 0.12 35.557 0.154 41.895 0.195 C41.895 5.805 41.895 11.415 41.895 17.195 C22.755 17.195 3.615 17.195 -16.105 17.195 C-16.105 18.515 -16.105 19.835 -16.105 21.195 C0.395 21.195 16.895 21.195 33.895 21.195 C29.414 25.675 27.947 25.792 21.895 26.195 C21.895 26.855 21.895 27.515 21.895 28.195 C18.559 29.029 16.27 29.313 12.91 29.293 C11.976 29.29 11.041 29.287 10.078 29.283 C9.594 29.279 9.594 29.279 7.145 29.258 C6.161 29.253 5.177 29.249 4.164 29.244 C1.741 29.232 -0.682 29.214 -3.105 29.195 C-3.105 30.185 -3.105 31.175 -3.105 32.195 C-4.59 32.36 -4.59 32.36 -12.105 33.195 C-12.105 33.855 -12.105 34.515 -12.105 35.195 C-13.425 35.525 -14.745 35.855 -16.105 36.195 C-16.435 37.185 -16.765 38.175 -17.105 39.195 C-19.912 40.507 -19.912 40.507 -23.691 41.84 C-25.085 42.345 -26.479 42.851 -27.915 43.372 C-28.66 43.638 -29.405 43.905 -30.173 44.179 C-43.953 49.127 -56.92 54.752 -69.789 61.788 C-70.817 62.351 -71.846 62.913 -72.906 63.492 C-73.795 63.991 -74.683 64.489 -75.599 65.003 C-78.123 66.204 -80.352 66.776 -83.105 67.195 C-83.105 64.225 -83.105 61.255 -83.105 58.195 C-81.785 58.195 -80.465 58.195 -79.105 58.195 C-79.126 57.061 -79.147 55.927 -79.168 54.758 C-79.105 51.195 -79.105 51.195 -78.105 50.195 C-75.439 50.154 -72.772 50.153 -70.105 50.195 C-70.126 49.061 -70.147 47.927 -70.168 46.758 C-70.105 43.195 -70.105 43.195 -69.105 42.195 C-66.772 42.154 -64.438 42.153 -62.105 42.195 C-62.105 43.515 -62.105 44.835 -62.105 46.195 C-60.95 46.03 -60.95 46.03 -55.105 45.195 C-54.775 37.275 -54.445 29.355 -54.105 21.195 C-62.98 21.32 -62.98 21.32 -65.773 21.375 C-67.885 21.39 -69.996 21.295 -72.105 21.195 C-72.765 20.535 -73.425 19.875 -74.105 19.195 C-61.854 14.13 -49.573 9.526 -36.855 5.758 C-36.303 5.593 -36.303 5.593 -33.509 4.76 C-22.21 1.488 -11.776 -0.106 0 0 Z " fill="#051D52" transform="translate(2871.10546875,1374.8046875)"/>
<path d="M0 0 C0 2.64 0 5.28 0 8 C2.64 8 5.28 8 8 8 C8 12.29 8 16.58 8 21 C17.57 21 27.14 21 37 21 C37 19.68 37 18.36 37 17 C38.32 17 39.64 17 41 17 C41 15.68 41 14.36 41 13 C42.65 13 44.3 13 46 13 C46 11.35 46 9.7 46 8 C49.96 8 53.92 8 58 8 C58 6.68 58 5.36 58 4 C60.64 4 63.28 4 66 4 C66 4.99 66 5.98 66 7 C65.189 7.424 64.378 7.848 63.543 8.285 C56.128 12.213 49.001 16.379 42 21 C41.377 21.407 40.754 21.814 40.112 22.234 C38.072 23.568 36.035 24.908 34 26.25 C33.352 26.675 32.705 27.099 32.038 27.536 C29.043 29.526 26.557 31.443 24 34 C23.773 35.464 23.546 36.929 23.312 38.438 C22.574 40.844 22.574 40.844 21 43 C15.833 45.207 10.521 46.078 5 47 C3.953 47.223 2.907 47.446 1.828 47.676 C-5.173 49.037 -12.141 49.2 -19.25 49.25 C-19.712 49.255 -19.712 49.255 -22.047 49.278 C-30.431 49.239 -38.316 48.57 -45 43 C-49.264 37.119 -49.549 31.014 -49 24 C-47.616 18.12 -45.652 15.107 -40.755 11.579 C-35.373 8.495 -29.454 6.687 -23.572 4.793 C-21.3 4.059 -19.04 3.296 -16.779 2.529 C-15.329 2.05 -13.878 1.573 -12.426 1.098 C-11.12 0.67 -9.815 0.242 -8.47 -0.199 C-5.1 -0.977 -3.26 -1.011 0 0 Z " fill="#072051" transform="translate(1359,2450)"/>
<path d="M0 0 C1.04 -0.013 2.081 -0.026 3.153 -0.04 C19.946 -0.058 19.946 -0.058 26.438 3.188 C26.108 4.178 25.778 5.168 25.438 6.188 C21.99 7.049 19.334 7.348 15.824 7.434 C14.741 7.466 13.657 7.499 12.541 7.533 C10.275 7.594 8.01 7.651 5.744 7.705 C-0.007 7.886 -5.081 8.234 -10.562 10.188 C-11.312 12.438 -11.312 12.438 -11.562 15.188 C-9.103 18.498 -6.554 20.233 -2.562 21.188 C1.756 21.057 5.977 20.463 10.219 19.663 C13.403 19.193 16.321 19.119 19.535 19.195 C20.101 19.204 20.101 19.204 22.963 19.246 C25.325 19.29 27.687 19.343 30.049 19.402 C31.179 19.417 32.309 19.431 33.473 19.445 C33.985 19.456 33.985 19.456 36.578 19.512 C39.87 19.138 41.744 18.066 44.438 16.188 C44.108 12.888 43.778 9.588 43.438 6.188 C47.653 4.08 51.191 3.534 55.789 3.082 C56.205 3.04 56.205 3.04 58.309 2.828 C67.521 1.976 76.722 1.85 85.968 1.872 C88.859 1.875 91.749 1.851 94.641 1.826 C96.497 1.824 98.354 1.823 100.211 1.824 C101.066 1.815 101.921 1.806 102.802 1.796 C107.529 1.833 110.646 2.275 114.438 5.188 C114.354 5.912 114.27 6.636 114.184 7.383 C113.323 15.549 113.323 15.549 114.062 19.688 C114.186 20.513 114.31 21.338 114.438 22.188 C111.334 25.291 110.07 25.808 105.828 26.195 C101.108 26.18 96.55 25.107 91.938 24.188 C82.065 22.401 73.434 22.094 63.438 23.188 C61.252 23.348 59.066 23.5 56.879 23.645 C55.696 23.724 54.513 23.803 53.294 23.884 C50.956 24.04 48.617 24.196 46.278 24.35 C39.795 24.818 33.49 25.628 27.09 26.758 C19.939 27.917 12.499 28.15 5.625 25.688 C-0.28 23.585 -6.123 24.052 -12.316 24.277 C-20.486 24.104 -27.148 21.797 -34.438 18.25 C-35.183 17.903 -35.928 17.555 -36.695 17.197 C-40.27 15.49 -42.733 14.017 -45.562 11.188 C-45.75 8.688 -45.75 8.688 -44.562 6.188 C-31.18 -0.504 -14.589 0.105 0 0 Z " fill="#061B44" transform="translate(4418.5625,1366.8125)"/>
<path d="M0 0 C0.498 -0.001 0.498 -0.001 3.017 -0.004 C4.113 -0.001 5.209 0.003 6.339 0.007 C7.49 0.007 8.641 0.006 9.827 0.006 C13.647 0.007 17.467 0.015 21.288 0.023 C23.93 0.024 26.573 0.026 29.216 0.027 C36.183 0.031 43.15 0.041 50.117 0.052 C57.222 0.062 64.327 0.066 71.432 0.071 C85.381 0.082 99.331 0.099 113.28 0.12 C113.28 0.45 113.28 0.78 113.28 1.12 C109.759 1.319 106.239 1.502 102.717 1.683 C101.727 1.739 100.736 1.795 99.715 1.853 C94.415 2.117 89.529 2.114 84.28 1.12 C84.28 2.11 84.28 3.1 84.28 4.12 C81.31 4.12 78.34 4.12 75.28 4.12 C75.28 11.05 75.28 17.98 75.28 25.12 C73.96 25.12 72.64 25.12 71.28 25.12 C71.28 26.11 71.28 27.1 71.28 28.12 C67.161 28.897 63.28 29.243 59.091 29.234 C57.89 29.234 56.689 29.234 55.452 29.234 C54.171 29.228 52.889 29.223 51.569 29.218 C50.246 29.216 48.922 29.215 47.559 29.214 C43.341 29.208 39.123 29.195 34.905 29.183 C32.041 29.178 29.178 29.173 26.315 29.169 C19.303 29.158 12.291 29.141 5.28 29.12 C5.28 26.48 5.28 23.84 5.28 21.12 C3.63 21.12 1.98 21.12 0.28 21.12 C0.28 15.51 0.28 9.9 0.28 4.12 C-6.65 4.12 -13.58 4.12 -20.72 4.12 C-20.39 3.46 -20.06 2.8 -19.72 2.12 C-16.849 1.741 -16.849 1.741 -13.283 1.558 C-8.598 1.306 -4.622 -0.005 0 0 Z " fill="#071A41" transform="translate(2962.720245361328,1366.8797454833984)"/>
<path d="M0 0 C1.373 0.003 2.746 0.006 4.16 0.01 C5.572 0.018 6.983 0.027 8.438 0.035 C9.88 0.04 11.322 0.044 12.809 0.049 C16.352 0.061 19.895 0.077 23.438 0.098 C18.752 3.221 14.012 2.738 8.438 3.098 C15.037 3.428 21.637 3.758 28.438 4.098 C28.438 9.708 28.438 15.318 28.438 21.098 C30.088 21.098 31.738 21.098 33.438 21.098 C33.438 23.738 33.438 26.378 33.438 29.098 C32.528 29.112 31.618 29.127 30.681 29.142 C5.294 29.595 -18.543 31.623 -43.293 37.613 C-49.023 38.994 -54.775 40.176 -60.562 41.285 C-67.035 42.534 -73.304 44.012 -79.562 46.098 C-79.562 45.438 -79.562 44.778 -79.562 44.098 C-78.903 43.933 -78.903 43.933 -75.562 43.098 C-75.562 42.438 -75.562 41.778 -75.562 41.098 C-74.077 40.933 -74.077 40.933 -66.562 40.098 C-66.562 39.108 -66.562 38.118 -66.562 37.098 C-62.438 36.933 -62.438 36.933 -41.562 36.098 C-41.562 35.438 -41.562 34.778 -41.562 34.098 C-40.852 33.893 -40.142 33.688 -39.41 33.477 C-38.491 33.207 -37.572 32.938 -36.625 32.66 C-35.708 32.393 -34.792 32.126 -33.848 31.852 C-31.562 31.098 -31.562 31.098 -30.562 30.098 C-38.648 29.933 -38.648 29.933 -79.562 29.098 C-79.562 27.778 -79.562 26.458 -79.562 25.098 C-60.423 25.098 -41.282 25.098 -21.562 25.098 C-21.562 19.488 -21.562 13.878 -21.562 8.098 C-38.062 8.098 -54.562 8.098 -71.562 8.098 C-71.562 7.768 -71.562 7.438 -71.562 7.098 C-59.039 4.787 -46.636 3.356 -33.938 2.473 C-31.43 2.291 -28.923 2.108 -26.416 1.922 C-24.169 1.757 -21.921 1.598 -19.673 1.439 C-16.945 1.212 -14.221 0.921 -11.506 0.563 C-7.626 0.105 -3.905 -0.016 0 0 Z " fill="#051C4D" transform="translate(2934.5625,1366.90234375)"/>
<path d="M0 0 C1.636 -0.009 3.272 -0.023 4.908 -0.042 C13.297 -0.13 20.786 -0.075 28.602 3.299 C28.272 4.289 27.942 5.279 27.602 6.299 C23.684 7.206 19.963 7.475 15.946 7.58 C14.676 7.617 13.406 7.655 12.098 7.693 C10.766 7.728 10.766 7.728 4.106 7.904 C2.836 7.941 1.566 7.979 0.258 8.017 C-0.899 8.048 -2.056 8.078 -3.248 8.109 C-6.066 8.279 -8.652 8.663 -11.398 9.299 C-11.233 9.794 -11.233 9.794 -10.398 12.299 C1.154 18.074 15.369 17.58 28.008 17.869 C28.964 17.898 29.919 17.926 30.903 17.955 C31.76 17.973 32.618 17.992 33.502 18.011 C35.602 18.299 35.602 18.299 37.602 20.299 C31.1 26.801 14.435 25.306 5.75 25.384 C-3.789 25.356 -13.289 24.634 -22.804 24.009 C-34.657 23.263 -46.358 23.045 -58.211 23.799 C-60.912 23.964 -63.614 24.129 -66.398 24.299 C-66.398 17.369 -66.398 10.439 -66.398 3.299 C-44.409 0.855 -22.119 0.12 0 0 Z " fill="#051C48" transform="translate(3463.3981018066406,1367.7014465332031)"/>
<path d="M0 0 C0.33 0 0.66 0 1 0 C1 97.35 1 194.7 1 295 C-8.036 285.964 -4.236 260.404 -4.25 248.188 C-4.252 247.238 -4.255 246.289 -4.257 245.311 C-4.272 229.18 -3.311 213.32 -1.656 197.281 C-0.678 187.401 -0.843 177.749 -1.75 167.875 C-1.834 166.893 -1.917 165.911 -2.003 164.899 C-2.511 159.254 -3.173 153.663 -4.023 148.059 C-6.834 128.783 -7.361 109.845 -7.312 90.375 C-7.31 89.101 -7.307 87.826 -7.305 86.513 C-7.158 43.678 -7.158 43.678 -4.562 23.062 C-4.441 22.006 -4.319 20.95 -4.193 19.861 C-2.38 4.759 -2.38 4.759 0 0 Z " fill="#C1C4C7" transform="translate(1304,1748)"/>
<path d="M0 0 C1.32 0 2.64 0 4 0 C4 2.97 4 5.94 4 9 C1.36 9 -1.28 9 -4 9 C-4 10.32 -4 11.64 -4 13 C-5.32 13.66 -6.64 14.32 -8 15 C-8.33 15.66 -8.66 16.32 -9 17 C-11.64 17 -14.28 17 -17 17 C-17 19.64 -17 22.28 -17 25 C-19.64 25 -22.28 25 -25 25 C-25 26.32 -25 27.64 -25 29 C-27.97 29 -30.94 29 -34 29 C-34 30.65 -34 32.3 -34 34 C-35.32 34 -36.64 34 -38 34 C-38 36.64 -38 39.28 -38 42 C-40.64 42 -43.28 42 -46 42 C-46 44.64 -46 47.28 -46 50 C-48.64 50 -51.28 50 -54 50 C-54 51.32 -54 52.64 -54 54 C-55.65 54 -57.3 54 -59 54 C-59 55.65 -59 57.3 -59 59 C-60.32 59 -61.64 59 -63 59 C-63 60.32 -63 61.64 -63 63 C-65.64 63 -68.28 63 -71 63 C-71 64.32 -71 65.64 -71 67 C-72.32 67 -73.64 67 -75 67 C-75 69.64 -75 72.28 -75 75 C-76.32 75 -77.64 75 -79 75 C-79 76.32 -79 77.64 -79 79 C-80.114 79.371 -81.227 79.743 -82.375 80.125 C-86 82 -86 82 -87.438 85.188 C-87.623 86.116 -87.809 87.044 -88 88 C-90.64 88 -93.28 88 -96 88 C-96 89.32 -96 90.64 -96 92 C-97.32 92 -98.64 92 -100 92 C-100 93.32 -100 94.64 -100 96 C-101.32 96 -102.64 96 -104 96 C-104 97.32 -104 98.64 -104 100 C-105.65 100 -107.3 100 -109 100 C-109 101.32 -109 102.64 -109 104 C-110.32 104 -111.64 104 -113 104 C-113 105.65 -113 107.3 -113 109 C-114.32 109 -115.64 109 -117 109 C-117 110.32 -117 111.64 -117 113 C-118.32 113 -119.64 113 -121 113 C-121 114.32 -121 115.64 -121 117 C-122.32 117 -123.64 117 -125 117 C-125 118.32 -125 119.64 -125 121 C-126.32 121 -127.64 121 -129 121 C-129 122.32 -129 123.64 -129 125 C-130.65 125 -132.3 125 -134 125 C-134 126.32 -134 127.64 -134 129 C-135.32 129 -136.64 129 -138 129 C-138 130.65 -138 132.3 -138 134 C-139.32 134 -140.64 134 -142 134 C-142 135.32 -142 136.64 -142 138 C-143.32 138 -144.64 138 -146 138 C-146 139.32 -146 140.64 -146 142 C-147.32 142 -148.64 142 -150 142 C-150 143.32 -150 144.64 -150 146 C-151.32 146 -152.64 146 -154 146 C-154 147.32 -154 148.64 -154 150 C-155.65 150 -157.3 150 -159 150 C-159 151.32 -159 152.64 -159 154 C-160.32 154 -161.64 154 -163 154 C-163 155.65 -163 157.3 -163 159 C-164.32 159 -165.64 159 -167 159 C-167 160.32 -167 161.64 -167 163 C-168.32 163 -169.64 163 -171 163 C-171 164.32 -171 165.64 -171 167 C-172.32 167 -173.64 167 -175 167 C-175.312 164.312 -175.312 164.312 -175 161 C-172.844 158.66 -172.844 158.66 -170 156 C-169.065 155.054 -168.131 154.108 -167.168 153.133 C-158.153 144.036 -158.153 144.036 -153.688 140.25 C-151.123 138.069 -148.916 135.827 -146.75 133.25 C-142.489 128.24 -137.604 123.959 -132.727 119.561 C-123.884 111.568 -115.374 103.494 -107.418 94.609 C-104.759 91.74 -101.953 89.217 -98.961 86.707 C-96.697 84.736 -94.606 82.639 -92.5 80.5 C-89.772 77.734 -87.015 75.087 -84.062 72.562 C-80.918 69.872 -78.017 67.022 -75.125 64.062 C-71.049 59.923 -66.749 56.349 -62.164 52.793 C-60 51 -60 51 -57.562 48.062 C-54.358 44.233 -50.655 41.396 -46.719 38.344 C-44 36 -44 36 -41.543 33.016 C-38.874 29.85 -36.157 27.678 -32.812 25.25 C-25.936 20.09 -20.042 14.271 -14.145 8.039 C-10.848 4.826 -8.576 3.653 -4.062 3.625 C-3.392 3.687 -3.392 3.687 0 4 C0 2.68 0 1.36 0 0 Z " fill="#091B41" transform="translate(2626,1504)"/>
<path d="M0 0 C0.605 0.001 0.605 0.001 3.669 0.009 C7.521 0.02 11.372 0.045 15.223 0.07 C17.84 0.08 20.458 0.089 23.076 0.098 C29.479 0.12 35.882 0.154 42.285 0.195 C42.285 5.805 42.285 11.415 42.285 17.195 C23.145 17.195 4.005 17.195 -15.715 17.195 C-15.715 15.875 -15.715 14.555 -15.715 13.195 C-17.035 13.195 -18.355 13.195 -19.715 13.195 C-19.715 9.565 -19.715 5.935 -19.715 2.195 C-13.127 -0.21 -6.911 -0.061 0 0 Z " fill="#AE976B" transform="translate(2870.71484375,1374.8046875)"/>
<path d="M0 0 C19.47 0 38.94 0 59 0 C59 5.61 59 11.22 59 17 C39.53 17 20.06 17 0 17 C0 11.39 0 5.78 0 0 Z " fill="#A48C61" transform="translate(3213,1375)"/>
<path d="M0 0 C19.14 0 38.28 0 58 0 C58 5.61 58 11.22 58 17 C38.86 17 19.72 17 0 17 C0 11.39 0 5.78 0 0 Z " fill="#9E865C" transform="translate(3330,1375)"/>
<path d="M0 0 C19.14 0 38.28 0 58 0 C58 5.61 58 11.22 58 17 C38.86 17 19.72 17 0 17 C0 11.39 0 5.78 0 0 Z " fill="#A88F5E" transform="translate(3093,1375)"/>
<path d="M0 0 C19.14 0 38.28 0 58 0 C58 5.61 58 11.22 58 17 C38.86 17 19.72 17 0 17 C0 11.39 0 5.78 0 0 Z " fill="#A78F60" transform="translate(2972,1375)"/>
<path d="M0 0 C15.18 0 30.36 0 46 0 C46 6.93 46 13.86 46 21 C39.014 22.747 31.565 22.414 24.438 21.5 C9.735 19.843 9.735 19.843 5 23 C3.35 22.67 1.7 22.34 0 22 C0 14.74 0 7.48 0 0 Z " fill="#041E4E" transform="translate(3159,1371)"/>
<path d="M0 0 C0.928 0.082 1.856 0.165 2.812 0.25 C2.812 1.57 2.812 2.89 2.812 4.25 C1.162 4.25 -0.488 4.25 -2.188 4.25 C-2.188 5.57 -2.188 6.89 -2.188 8.25 C-3.508 8.25 -4.827 8.25 -6.188 8.25 C-6.188 11.22 -6.188 14.19 -6.188 17.25 C-8.827 17.25 -11.468 17.25 -14.188 17.25 C-14.188 19.89 -14.188 22.53 -14.188 25.25 C-16.827 25.25 -19.468 25.25 -22.188 25.25 C-22.188 26.57 -22.188 27.89 -22.188 29.25 C-23.838 29.25 -25.488 29.25 -27.188 29.25 C-27.188 30.57 -27.188 31.89 -27.188 33.25 C-28.508 33.25 -29.827 33.25 -31.188 33.25 C-31.188 34.9 -31.188 36.55 -31.188 38.25 C-32.508 38.25 -33.827 38.25 -35.188 38.25 C-35.188 39.57 -35.188 40.89 -35.188 42.25 C-36.508 42.25 -37.827 42.25 -39.188 42.25 C-39.188 43.57 -39.188 44.89 -39.188 46.25 C-40.508 46.25 -41.827 46.25 -43.188 46.25 C-43.188 47.57 -43.188 48.89 -43.188 50.25 C-44.508 50.25 -45.827 50.25 -47.188 50.25 C-47.188 51.57 -47.188 52.89 -47.188 54.25 C-48.838 54.25 -50.488 54.25 -52.188 54.25 C-52.188 55.57 -52.188 56.89 -52.188 58.25 C-53.508 58.25 -54.827 58.25 -56.188 58.25 C-56.188 59.9 -56.188 61.55 -56.188 63.25 C-57.508 63.25 -58.827 63.25 -60.188 63.25 C-60.188 64.57 -60.188 65.89 -60.188 67.25 C-61.508 67.25 -62.827 67.25 -64.188 67.25 C-64.188 68.57 -64.188 69.89 -64.188 71.25 C-65.508 71.25 -66.827 71.25 -68.188 71.25 C-68.188 72.57 -68.188 73.89 -68.188 75.25 C-69.508 75.25 -70.827 75.25 -72.188 75.25 C-72.188 76.57 -72.188 77.89 -72.188 79.25 C-73.838 79.25 -75.488 79.25 -77.188 79.25 C-77.188 80.57 -77.188 81.89 -77.188 83.25 C-78.508 83.25 -79.827 83.25 -81.188 83.25 C-81.188 84.9 -81.188 86.55 -81.188 88.25 C-82.508 88.25 -83.827 88.25 -85.188 88.25 C-85.188 89.57 -85.188 90.89 -85.188 92.25 C-86.508 92.25 -87.827 92.25 -89.188 92.25 C-89.188 93.57 -89.188 94.89 -89.188 96.25 C-90.508 96.25 -91.827 96.25 -93.188 96.25 C-93.188 97.57 -93.188 98.89 -93.188 100.25 C-94.508 100.25 -95.827 100.25 -97.188 100.25 C-97.188 101.57 -97.188 102.89 -97.188 104.25 C-98.838 104.25 -100.488 104.25 -102.188 104.25 C-102.188 105.57 -102.188 106.89 -102.188 108.25 C-103.508 108.25 -104.827 108.25 -106.188 108.25 C-106.188 109.9 -106.188 111.55 -106.188 113.25 C-107.508 113.25 -108.827 113.25 -110.188 113.25 C-110.188 114.57 -110.188 115.89 -110.188 117.25 C-111.508 117.25 -112.827 117.25 -114.188 117.25 C-114.188 118.57 -114.188 119.89 -114.188 121.25 C-116.827 121.25 -119.468 121.25 -122.188 121.25 C-122.188 123.89 -122.188 126.53 -122.188 129.25 C-123.838 129.25 -125.488 129.25 -127.188 129.25 C-127.188 130.57 -127.188 131.89 -127.188 133.25 C-128.508 133.25 -129.827 133.25 -131.188 133.25 C-131.188 134.9 -131.188 136.55 -131.188 138.25 C-132.508 138.25 -133.827 138.25 -135.188 138.25 C-135.188 139.57 -135.188 140.89 -135.188 142.25 C-136.508 142.25 -137.827 142.25 -139.188 142.25 C-139.188 143.57 -139.188 144.89 -139.188 146.25 C-140.508 146.25 -141.827 146.25 -143.188 146.25 C-143.188 144.93 -143.188 143.61 -143.188 142.25 C-142.693 141.92 -142.693 141.92 -140.188 140.25 C-139.94 139.507 -139.693 138.765 -139.438 138 C-137.95 134.727 -135.849 133.123 -133.09 130.895 C-131.192 129.254 -129.663 127.553 -128.062 125.625 C-124.874 121.86 -121.339 118.555 -117.688 115.25 C-114.147 112.043 -110.694 108.86 -107.625 105.188 C-103.872 100.698 -99.528 96.908 -95.188 92.996 C-91.722 89.824 -88.428 86.511 -85.137 83.16 C-83.188 81.25 -83.188 81.25 -80.125 78.812 C-77.427 76.459 -75.494 74.192 -73.312 71.375 C-70.282 67.479 -67.173 64.365 -63.387 61.227 C-60.615 58.736 -58.179 56.02 -55.688 53.25 C-52.049 49.211 -48.376 45.57 -44.215 42.09 C-41.686 39.794 -39.46 37.299 -37.188 34.75 C-34.359 31.578 -31.576 28.597 -28.312 25.875 C-23.452 21.805 -19.337 17.048 -15.117 12.336 C-12.304 9.373 -9.337 6.844 -6.188 4.25 C-5.94 3.868 -5.94 3.868 -4.688 1.938 C-3.188 0.25 -3.188 0.25 0 0 Z " fill="#081A3F" transform="translate(2444.1875,1674.75)"/>
<path d="M0 0 C1.632 -0.009 3.264 -0.022 4.896 -0.041 C13.286 -0.128 20.776 -0.075 28.593 3.3 C28.263 4.29 27.933 5.28 27.593 6.3 C23.675 7.207 19.954 7.476 15.937 7.581 C14.667 7.618 13.397 7.656 12.089 7.694 C10.757 7.729 10.757 7.729 4.097 7.905 C2.827 7.942 1.557 7.98 0.249 8.018 C-0.908 8.049 -2.065 8.079 -3.257 8.11 C-6.075 8.28 -8.662 8.664 -11.407 9.3 C-11.242 9.795 -11.242 9.795 -10.407 12.3 C1.144 18.075 15.36 17.581 27.999 17.87 C28.954 17.899 29.91 17.927 30.894 17.956 C31.751 17.975 32.609 17.993 33.492 18.012 C35.593 18.3 35.593 18.3 37.593 20.3 C31.019 26.874 13.987 25.339 5.218 25.425 C-12.512 25.273 -12.512 25.273 -20.407 23.3 C-20.407 16.7 -20.407 10.1 -20.407 3.3 C-32.617 3.3 -44.827 3.3 -57.407 3.3 C-57.407 2.97 -57.407 2.64 -57.407 2.3 C-38.284 1.12 -19.163 0.095 0 0 Z " fill="#0B1D3E" transform="translate(3463.4071655273438,1367.700439453125)"/>
<path d="M0 0 C1.04 -0.013 2.081 -0.026 3.153 -0.04 C19.946 -0.058 19.946 -0.058 26.438 3.188 C26.108 4.178 25.778 5.168 25.438 6.188 C21.99 7.049 19.334 7.348 15.824 7.434 C14.741 7.466 13.657 7.499 12.541 7.533 C10.275 7.594 8.01 7.651 5.744 7.705 C-0.007 7.886 -5.081 8.234 -10.562 10.188 C-11.25 12.5 -11.25 12.5 -11.562 15.188 C-10.573 16.178 -9.583 17.168 -8.562 18.188 C-8.312 20.812 -8.312 20.812 -8.562 23.188 C-9.562 24.188 -9.562 24.188 -11.801 24.383 C-23.186 24.122 -37.358 19.392 -45.562 11.188 C-45.75 8.688 -45.75 8.688 -44.562 6.188 C-31.18 -0.504 -14.589 0.105 0 0 Z " fill="#051B45" transform="translate(4418.5625,1366.8125)"/>
<path d="M0 0 C1.32 0 2.64 0 4 0 C4 5.94 4 11.88 4 18 C13.305 18 13.305 18 18 16 C21.375 15.77 21.375 15.77 25 15.812 C26.196 15.819 27.392 15.825 28.625 15.832 C32 16 32 16 34.387 16.508 C38.185 17.223 41.964 17.104 45.812 17.062 C48.514 17.042 51.216 17.021 54 17 C54 11.39 54 5.78 54 0 C56.64 0 59.28 0 62 0 C62 5.61 62 11.22 62 17 C81.47 17 100.94 17 121 17 C121 17.99 121 18.98 121 20 C115.684 20.888 110.502 21.146 105.125 21.133 C104.263 21.134 103.402 21.135 102.514 21.137 C99.676 21.138 96.838 21.132 94 21.125 C93.022 21.124 92.044 21.124 91.036 21.123 C79.423 21.116 67.817 21.006 56.207 20.738 C55.686 20.726 55.686 20.726 53.047 20.665 C48.035 20.547 43.025 20.415 38.014 20.268 C29.854 20.043 21.797 19.925 13.645 20.469 C-0.259 21.384 -14.199 21.105 -28.125 21.062 C-31.03 21.057 -33.935 21.053 -36.84 21.049 C-43.893 21.038 -50.947 21.021 -58 21 C-58 19.68 -58 18.36 -58 17 C-38.86 17 -19.72 17 0 17 C0 11.39 0 5.78 0 0 Z " fill="#112140" transform="translate(3151,1375)"/>
<path d="M0 0 C2.64 0 5.28 0 8 0 C8 1.32 8 2.64 8 4 C6.68 4 5.36 4 4 4 C4 5.65 4 7.3 4 9 C5.98 9 7.96 9 10 9 C6.692 13.238 3.178 16.732 -0.938 20.191 C-2.474 21.539 -3.947 22.96 -5.383 24.414 C-8.982 27.971 -12.919 31.048 -16.867 34.207 C-19.946 36.952 -22.519 39.836 -25.191 42.963 C-28.105 46.245 -31.329 49.164 -34.562 52.125 C-42.913 59.862 -50.953 67.889 -58.951 75.989 C-59.403 76.444 -59.403 76.444 -61.688 78.75 C-62.496 79.57 -63.304 80.39 -64.137 81.234 C-66 83 -66 83 -67 83 C-67 80.36 -67 77.72 -67 75 C-65.68 75 -64.36 75 -63 75 C-63 71.04 -63 67.08 -63 63 C-60.03 63 -57.06 63 -54 63 C-54 61.68 -54 60.36 -54 59 C-52.68 59 -51.36 59 -50 59 C-50.021 57.701 -50.041 56.401 -50.062 55.062 C-50 51 -50 51 -49 50 C-47.147 49.928 -45.292 49.916 -43.438 49.938 C-42.426 49.947 -41.414 49.956 -40.371 49.965 C-39.98 49.971 -39.98 49.971 -38 50 C-38 48.68 -38 47.36 -38 46 C-36.35 46 -34.7 46 -33 46 C-33 44.68 -33 43.36 -33 42 C-31.68 42 -30.36 42 -29 42 C-29 40.68 -29 39.36 -29 38 C-27.68 38 -26.36 38 -25 38 C-25 36.68 -25 35.36 -25 34 C-23.68 34 -22.36 34 -21 34 C-21 27.07 -21 20.14 -21 13 C-18.36 13 -15.72 13 -13 13 C-13 14.32 -13 15.64 -13 17 C-10.03 17 -7.06 17 -4 17 C-4 15.68 -4 14.36 -4 13 C-2.68 13 -1.36 13 0 13 C0 8.71 0 4.42 0 0 Z " fill="#0F224A" transform="translate(2580,1579)"/>
<path d="M0 0 C0 0.99 0 1.98 0 3 C-1.32 3 -2.64 3 -4 3 C-4 11.25 -4 19.5 -4 28 C1.28 28 6.56 28 12 28 C12 28.33 12 28.66 12 29 C10.641 29.147 9.283 29.294 7.883 29.445 C-5.239 30.96 -17.896 33.416 -30.73 36.516 C-36.46 37.896 -42.212 39.078 -48 40.188 C-54.473 41.436 -60.742 42.914 -67 45 C-67 44.34 -67 43.68 -67 43 C-66.34 42.835 -66.34 42.835 -63 42 C-63 41.34 -63 40.68 -63 40 C-61.515 39.835 -61.515 39.835 -54 39 C-54 38.01 -54 37.02 -54 36 C-49.875 35.835 -49.875 35.835 -29 35 C-29 34.34 -29 33.68 -29 33 C-28.29 32.795 -27.579 32.59 -26.848 32.379 C-25.929 32.109 -25.009 31.84 -24.062 31.562 C-23.146 31.296 -22.229 31.029 -21.285 30.754 C-19 30 -19 30 -18 29 C-26.085 28.835 -26.085 28.835 -67 28 C-67 26.68 -67 25.36 -67 24 C-47.86 24 -28.72 24 -9 24 C-9 18.39 -9 12.78 -9 7 C-25.5 7 -42 7 -59 7 C-59 6.67 -59 6.34 -59 6 C-46.376 3.672 -33.861 2.228 -21.062 1.312 C-19.339 1.182 -17.616 1.052 -15.893 0.92 C-3.689 0 -3.689 0 0 0 Z " fill="#061840" transform="translate(2922,1368)"/>
<path d="M0 0 C58.332 -0.917 58.332 -0.917 82 5 C82 11.93 82 18.86 82 26 C79.03 26.33 76.06 26.66 73 27 C73 21.06 73 15.12 73 9 C55.18 9 37.36 9 19 9 C19 7.68 19 6.36 19 5 C17.68 5 16.36 5 15 5 C15 3.68 15 2.36 15 1 C10.05 1 5.1 1 0 1 C0 0.67 0 0.34 0 0 Z " fill="#111E39" transform="translate(3315,1366)"/>
<path d="M0 0 C0.66 0 1.32 0 2 0 C2.651 2.04 3.295 4.082 3.938 6.125 C4.297 7.262 4.657 8.399 5.027 9.57 C7.65 18.818 7.001 28.056 6.75 37.562 C6.728 38.438 6.707 39.313 6.684 40.215 C5.823 73.355 5.823 73.355 2 81 C1.34 81 0.68 81 0 81 C-0.48 78.458 -0.959 75.917 -1.438 73.375 C-1.704 71.96 -1.971 70.544 -2.246 69.086 C-2.495 67.738 -2.744 66.389 -3 65 C-3.176 64.127 -3.353 63.254 -3.534 62.354 C-4.143 57.972 -4.182 53.665 -4.203 49.246 C-4.206 48.777 -4.206 48.777 -4.22 46.406 C-4.23 44.425 -4.236 42.444 -4.24 40.463 C-4.25 37.472 -4.281 34.481 -4.312 31.49 C-4.436 8.872 -4.436 8.872 0 0 Z " fill="#626A71" transform="translate(1306,1566)"/>
<path d="M0 0 C0.33 0 0.66 0 1 0 C1.66 5.28 2.32 10.56 3 16 C3.66 15.34 4.32 14.68 5 14 C5 61.85 5 109.7 5 159 C-4.036 149.964 -0.236 124.404 -0.25 112.188 C-0.252 111.238 -0.255 110.289 -0.257 109.311 C-0.272 93.18 0.689 77.32 2.344 61.281 C3.377 50.802 3.048 40.654 2.062 30.188 C1.975 29.203 1.888 28.219 1.799 27.205 C1.435 23.183 1.03 19.199 0.438 15.203 C-0.008 11.945 -0.099 8.848 -0.062 5.562 C-0.053 4.512 -0.044 3.461 -0.035 2.379 C-0.024 1.594 -0.012 0.809 0 0 Z " fill="#BABEC2" transform="translate(1300,1884)"/>
<path d="M0 0 C0.33 0 0.66 0 1 0 C2.037 10.746 2.287 21.487 2.503 32.273 C2.562 35.23 2.627 38.187 2.693 41.145 C2.938 52.432 3.074 63.71 3 75 C2.995 76.115 2.99 77.229 2.985 78.378 C2.826 96.305 0.486 113.428 -3 131 C-3.33 131 -3.66 131 -4 131 C-4 101.63 -4 72.26 -4 42 C-3.01 42 -2.02 42 -1 42 C-0.837 46.889 -0.776 49.553 -3 54 C-2.01 54 -1.02 54 0 54 C0 36.18 0 18.36 0 0 Z " fill="#5E666F" transform="translate(1313,1779)"/>
<path d="M0 0 C1.281 0.009 2.563 0.018 3.883 0.027 C4.87 0.039 5.858 0.051 6.875 0.062 C6.875 1.382 6.875 2.703 6.875 4.062 C26.015 4.062 45.155 4.062 64.875 4.062 C64.875 5.382 64.875 6.703 64.875 8.062 C45.735 8.062 26.595 8.062 6.875 8.062 C6.875 13.672 6.875 19.283 6.875 25.062 C5.555 25.062 4.235 25.062 2.875 25.062 C2.875 23.743 2.875 22.422 2.875 21.062 C1.225 21.062 -0.425 21.062 -2.125 21.062 C-2.125 15.453 -2.125 9.842 -2.125 4.062 C-9.055 4.062 -15.985 4.062 -23.125 4.062 C-22.795 3.402 -22.465 2.743 -22.125 2.062 C-19.254 1.684 -19.254 1.684 -15.688 1.5 C-10.182 1.204 -5.546 -0.05 0 0 Z " fill="#132344" transform="translate(2965.125,1366.9375)"/>
<path d="M0 0 C0 1.32 0 2.64 0 4 C20.79 4 41.58 4 63 4 C63 5.32 63 6.64 63 8 C43.86 8 24.72 8 5 8 C5 13.61 5 19.22 5 25 C3.35 25 1.7 25 0 25 C0 19.39 0 13.78 0 8 C-1.32 8 -2.64 8 -4 8 C-4 6.68 -4 5.36 -4 4 C-16.21 4 -28.42 4 -41 4 C-41 3.01 -41 2.02 -41 1 C-36.417 0.83 -31.833 0.664 -27.25 0.5 C-25.967 0.452 -24.685 0.405 -23.363 0.355 C-15.571 0.079 -7.797 -0.066 0 0 Z " fill="#142649" transform="translate(3088,1367)"/>
<path d="M0 0 C1.65 0 3.3 0 5 0 C5 1.32 5 2.64 5 4 C5.99 4.33 6.98 4.66 8 5 C7.31 5.534 6.621 6.067 5.91 6.617 C0.238 11.115 -4.683 15.723 -9.414 21.188 C-13.226 25.334 -17.359 29.11 -21.509 32.915 C-25.785 36.838 -29.923 40.87 -34 45 C-35.667 46.667 -37.333 48.333 -39 50 C-39.665 50.688 -40.33 51.377 -41.016 52.086 C-41.732 52.821 -42.449 53.555 -43.188 54.312 C-43.862 55.01 -44.536 55.707 -45.23 56.426 C-47 58 -47 58 -49 58 C-49 53.569 -48.543 53.255 -46 50 C-45.67 48.68 -45.34 47.36 -45 46 C-43.68 46 -42.36 46 -41 46 C-41 44.68 -41 43.36 -41 42 C-39.68 42 -38.36 42 -37 42 C-37 40.35 -37 38.7 -37 37 C-34.36 37 -31.72 37 -29 37 C-29 35.68 -29 34.36 -29 33 C-27.68 33 -26.36 33 -25 33 C-25 30.36 -25 27.72 -25 25 C-23.35 25 -21.7 25 -20 25 C-20 23.68 -20 22.36 -20 21 C-18.68 21 -17.36 21 -16 21 C-16 19.68 -16 18.36 -16 17 C-14.68 17 -13.36 17 -12 17 C-12 14.03 -12 11.06 -12 8 C-9.36 8 -6.72 8 -4 8 C-4 6.68 -4 5.36 -4 4 C-2.68 4 -1.36 4 0 4 C0 2.68 0 1.36 0 0 Z " fill="#0C1C44" transform="translate(2492,1671)"/>
<path d="M0 0 C3.96 0 7.92 0 12 0 C11.01 0.66 10.02 1.32 9 2 C8.317 3.66 7.652 5.328 7 7 C3.379 11.943 -0.891 16.043 -5.75 19.75 C-10.619 23.486 -14.654 27.804 -18.738 32.351 C-21.302 35.195 -23.848 37.887 -26.812 40.312 C-29.379 42.476 -31.307 44.454 -33.438 47 C-36.882 51.062 -40.619 53.979 -45 57 C-45.33 57 -45.66 57 -46 57 C-46 54.69 -46 52.38 -46 50 C-44.68 50 -43.36 50 -42 50 C-42 48.35 -42 46.7 -42 45 C-40.68 45 -39.36 45 -38 45 C-38 43.68 -38 42.36 -38 41 C-36.68 41 -35.36 41 -34 41 C-34 39.68 -34 38.36 -34 37 C-32.68 37 -31.36 37 -30 37 C-30 35.68 -30 34.36 -30 33 C-27.03 33 -24.06 33 -21 33 C-21 30.36 -21 27.72 -21 25 C-19.68 25 -18.36 25 -17 25 C-17 23.35 -17 21.7 -17 20 C-15.68 20 -14.36 20 -13 20 C-13 18.68 -13 17.36 -13 16 C-11.68 16 -10.36 16 -9 16 C-9 14.68 -9 13.36 -9 12 C-7.68 12 -6.36 12 -5 12 C-5 10.68 -5 9.36 -5 8 C-3.35 8 -1.7 8 0 8 C0 5.36 0 2.72 0 0 Z " fill="#091B40" transform="translate(2322,1838)"/>
<path d="M0 0 C0 3.63 0 7.26 0 11 C-1.32 11 -2.64 11 -4 11 C-4.165 10.34 -4.165 10.34 -5 7 C-5.66 7.33 -6.32 7.66 -7 8 C-7.33 8.99 -7.66 9.98 -8 11 C-13.61 11 -19.22 11 -25 11 C-25 13.64 -25 16.28 -25 19 C-29.458 19.058 -33.916 19.094 -38.375 19.125 C-39.646 19.142 -40.917 19.159 -42.227 19.176 C-43.438 19.182 -44.65 19.189 -45.898 19.195 C-47.019 19.206 -48.14 19.216 -49.294 19.227 C-52 19 -52 19 -54 17 C-41.604 11.876 -29.18 7.247 -16.312 3.438 C-15.149 3.091 -13.986 2.745 -12.788 2.389 C-4.536 0 -4.536 0 0 0 Z " fill="#061942" transform="translate(2851,1377)"/>
<path d="M0 0 C1.04 -0.013 2.081 -0.026 3.153 -0.04 C19.946 -0.058 19.946 -0.058 26.438 3.188 C26.108 4.178 25.778 5.168 25.438 6.188 C21.99 7.049 19.334 7.348 15.824 7.434 C14.741 7.466 13.657 7.499 12.541 7.533 C10.275 7.594 8.01 7.651 5.744 7.705 C-0.007 7.886 -5.081 8.234 -10.562 10.188 C-11.25 12.5 -11.25 12.5 -11.562 15.188 C-10.573 16.178 -9.583 17.168 -8.562 18.188 C-8.375 20.875 -8.375 20.875 -8.562 23.188 C-10.212 23.517 -11.863 23.848 -13.562 24.188 C-13.562 18.908 -13.562 13.628 -13.562 8.188 C-14.882 8.517 -16.203 8.848 -17.562 9.188 C-17.562 7.537 -17.562 5.888 -17.562 4.188 C-17.955 4.229 -17.955 4.229 -19.941 4.441 C-25.682 4.998 -30.856 5.355 -36.562 4.188 C-36.562 3.858 -36.562 3.527 -36.562 3.188 C-24.38 0.673 -12.413 0.09 0 0 Z " fill="#0A1B3C" transform="translate(4418.5625,1366.8125)"/>
<path d="M0 0 C0.801 0.035 1.601 0.07 2.426 0.105 C3.849 0.167 5.272 0.229 6.738 0.293 C6.738 1.613 6.738 2.933 6.738 4.293 C5.418 4.293 4.098 4.293 2.738 4.293 C3.068 12.543 3.398 20.793 3.738 29.293 C4.728 29.293 5.718 29.293 6.738 29.293 C6.738 30.283 6.738 31.273 6.738 32.293 C11.028 32.623 15.318 32.953 19.738 33.293 C19.738 34.283 19.738 35.273 19.738 36.293 C10.899 36.574 2.854 36.223 -4.262 30.293 C-8.505 24.44 -8.859 18.286 -8.262 11.293 C-7.107 6.556 -5.519 0.715 0 0 Z " fill="#041840" transform="translate(1318.26171875,2462.70703125)"/>
<path d="M0 0 C1.98 0 3.96 0 6 0 C3 2 3 2 1 2 C1.33 2.99 1.66 3.98 2 5 C13.552 10.776 27.767 10.282 40.406 10.571 C41.362 10.599 42.317 10.627 43.301 10.656 C43.73 10.666 43.73 10.666 45.9 10.713 C48 11 48 11 50 13 C43.385 19.615 26.186 18.041 17.375 18.125 C11.535 18.082 5.806 17.619 0 17 C0 11.39 0 5.78 0 0 Z " fill="#605849" transform="translate(3451,1375)"/>
<path d="M0 0 C1.98 0 3.96 0 6 0 C6 5.28 6 10.56 6 16 C5.391 16.066 5.391 16.066 2.309 16.402 C0.685 16.581 -0.939 16.759 -2.562 16.938 C-2.962 16.981 -2.962 16.981 -4.986 17.201 C-8.559 17.595 -12.109 18.016 -15.664 18.551 C-24.294 19.713 -32.427 19.632 -40.668 16.734 C-44.404 15.558 -48.106 15.314 -52 15 C-51.67 13.68 -51.34 12.36 -51 11 C-50.381 11.351 -49.762 11.701 -49.125 12.062 C-43.837 13.649 -38.572 12.485 -33.219 11.475 C-30.035 11.005 -27.116 10.932 -23.902 11.008 C-23.337 11.016 -23.337 11.016 -20.475 11.059 C-18.112 11.103 -15.75 11.155 -13.389 11.215 C-12.259 11.229 -11.129 11.243 -9.965 11.258 C-9.452 11.269 -9.452 11.269 -6.859 11.325 C-3.568 10.951 -1.693 9.879 1 8 C0.835 6.68 0.835 6.68 0 0 Z " fill="#4F4A42" transform="translate(4462,1375)"/>
<path d="M0 0 C2.64 0 5.28 0 8 0 C6.215 3.57 5.434 4.77 2.562 7.188 C1.856 7.787 1.15 8.386 0.422 9.004 C-3.161 11.957 -6.764 14.885 -10.387 17.789 C-13.078 20.066 -15.526 22.49 -18 25 C-23.101 29.747 -28.384 34.177 -33.957 38.359 C-36 40 -36 40 -38.137 42.203 C-40 44 -40 44 -42 44 C-42 42.02 -42 40.04 -42 38 C-40.68 38 -39.36 38 -38 38 C-38 36.68 -38 35.36 -38 34 C-36.68 34 -35.36 34 -34 34 C-34 32.35 -34 30.7 -34 29 C-32.68 29 -31.36 29 -30 29 C-30 27.68 -30 26.36 -30 25 C-28.35 25 -26.7 25 -25 25 C-25 22.36 -25 19.72 -25 17 C-23.866 16.711 -22.731 16.422 -21.562 16.125 C-20.387 15.754 -19.211 15.382 -18 15 C-17.67 14.34 -17.34 13.68 -17 13 C-14.36 13 -11.72 13 -9 13 C-9 11.68 -9 10.36 -9 9 C-7.68 9 -6.36 9 -5 9 C-5 7.35 -5 5.7 -5 4 C-3.35 4 -1.7 4 0 4 C0 2.68 0 1.36 0 0 Z " fill="#081A40" transform="translate(2201,1954)"/>
<path d="M0 0 C0.66 0 1.32 0 2 0 C2 1.32 2 2.64 2 4 C2.66 4.33 3.32 4.66 4 5 C3.527 5.412 3.054 5.825 2.566 6.25 C1.905 6.828 1.244 7.405 0.562 8 C-0.161 8.63 -0.884 9.261 -1.629 9.91 C-3.253 11.342 -4.865 12.788 -6.465 14.246 C-7.26 14.969 -8.056 15.692 -8.875 16.438 C-9.245 16.777 -9.245 16.777 -11.117 18.496 C-13 20 -13 20 -15 20 C-15.66 21.32 -16.32 22.64 -17 24 C-19.426 26.219 -19.426 26.219 -22.312 28.5 C-23.257 29.253 -24.202 30.006 -25.176 30.781 C-26.108 31.513 -27.04 32.246 -28 33 C-28.88 33.753 -29.761 34.506 -30.668 35.281 C-33 37 -33 37 -36 37 C-36 34.36 -36 31.72 -36 29 C-33.03 29 -30.06 29 -27 29 C-27 27.35 -27 25.7 -27 24 C-25.68 24 -24.36 24 -23 24 C-23.012 23.218 -23.023 22.435 -23.035 21.629 C-23.044 20.617 -23.053 19.605 -23.062 18.562 C-23.074 17.553 -23.086 16.544 -23.098 15.504 C-23 13 -23 13 -22 12 C-20.147 11.928 -18.292 11.916 -16.438 11.938 C-15.426 11.947 -14.414 11.956 -13.371 11.965 C-12.98 11.971 -12.98 11.971 -11 12 C-11 10.68 -11 9.36 -11 8 C-9.68 8 -8.36 8 -7 8 C-7 6.68 -7 5.36 -7 4 C-5.35 4 -3.7 4 -2 4 C-1.34 2.68 -0.68 1.36 0 0 Z " fill="#0A1C43" transform="translate(2253,1909)"/>
<path d="M0 0 C18.15 0 36.3 0 55 0 C55 4.29 55 8.58 55 13 C53.35 13 51.7 13 50 13 C50 10.03 50 7.06 50 4 C35.15 4 20.3 4 5 4 C5 6.97 5 9.94 5 13 C3.35 13 1.7 13 0 13 C0 8.71 0 4.42 0 0 Z " fill="#9C8B6D" transform="translate(3213,1375)"/>
<path d="M0 0 C19.14 0 38.28 0 58 0 C58 4.29 58 8.58 58 13 C56.68 13 55.36 13 54 13 C54 10.03 54 7.06 54 4 C37.5 4 21 4 4 4 C4 6.97 4 9.94 4 13 C2.68 13 1.36 13 0 13 C0 8.71 0 4.42 0 0 Z " fill="#9D8F73" transform="translate(2972,1375)"/>
<path d="M0 0 C19.14 0 38.28 0 58 0 C58 4.29 58 8.58 58 13 C56.68 13 55.36 13 54 13 C54 10.03 54 7.06 54 4 C37.5 4 21 4 4 4 C4 6.97 4 9.94 4 13 C2.68 13 1.36 13 0 13 C0 8.71 0 4.42 0 0 Z " fill="#9D8C6C" transform="translate(3093,1375)"/>
<path d="M0 0 C1.32 0 2.64 0 4 0 C4 5.61 4 11.22 4 17 C-15.47 17 -34.94 17 -55 17 C-55 15.68 -55 14.36 -55 13 C-36.85 13 -18.7 13 0 13 C0 8.71 0 4.42 0 0 Z " fill="#6A6051" transform="translate(3268,1375)"/>
<path d="M0 0 C17.82 0 35.64 0 54 0 C54 4.29 54 8.58 54 13 C52.68 13 51.36 13 50 13 C50 10.03 50 7.06 50 4 C34.82 4 19.64 4 4 4 C4 6.97 4 9.94 4 13 C2.68 13 1.36 13 0 13 C0 8.71 0 4.42 0 0 Z " fill="#978568" transform="translate(3334,1375)"/>
<path d="M0 0 C0 0.66 0 1.32 0 2 C-1.65 2 -3.3 2 -5 2 C-5 2.66 -5 3.32 -5 4 C8.86 4 22.72 4 37 4 C37 5.32 37 6.64 37 8 C20.5 8 4 8 -13 8 C-13 9.65 -13 11.3 -13 13 C-14.32 13 -15.64 13 -17 13 C-17 9.37 -17 5.74 -17 2 C-11.183 -0.023 -6.069 -0.22 0 0 Z " fill="#AF9055" transform="translate(2868,1375)"/>
<path d="M0 0 C0 2.64 0 5.28 0 8 C-4.29 8 -8.58 8 -13 8 C-13 10.97 -13 13.94 -13 17 C-16.96 17 -20.92 17 -25 17 C-25 18.32 -25 19.64 -25 21 C-27.97 21 -30.94 21 -34 21 C-34 22.32 -34 23.64 -34 25 C-35.625 25.054 -37.25 25.093 -38.875 25.125 C-39.78 25.148 -40.685 25.171 -41.617 25.195 C-44 25 -44 25 -46 23 C-45.225 22.588 -44.45 22.175 -43.652 21.75 C-40.058 19.835 -36.467 17.918 -32.875 16 C-31.593 15.316 -30.311 14.632 -28.99 13.927 C-21.378 9.853 -13.85 5.703 -6.469 1.223 C-4 0 -4 0 0 0 Z " fill="#071A42" transform="translate(1555,2346)"/>
<path d="M0 0 C1.32 0 2.64 0 4 0 C4 4.29 4 8.58 4 13 C21.82 13 39.64 13 58 13 C58 14.32 58 15.64 58 17 C38.86 17 19.72 17 0 17 C0 11.39 0 5.78 0 0 Z " fill="#655E53" transform="translate(3330,1375)"/>
<path d="M0 0 C1.32 0 2.64 0 4 0 C4 5.61 4 11.22 4 17 C-15.14 17 -34.28 17 -54 17 C-54 15.68 -54 14.36 -54 13 C-36.18 13 -18.36 13 0 13 C0 8.71 0 4.42 0 0 Z " fill="#625C52" transform="translate(2909,1375)"/>
<path d="M0 0 C0 1.32 0 2.64 0 4 C-1.32 4 -2.64 4 -4 4 C-4 5.32 -4 6.64 -4 8 C-4.464 8.144 -4.464 8.144 -6.812 8.875 C-10 10 -10 10 -13 12 C-14.32 12 -15.64 12 -17 12 C-17 13.65 -17 15.3 -17 17 C-20.96 17 -24.92 17 -29 17 C-29 18.32 -29 19.64 -29 21 C-31.97 21 -34.94 21 -38 21 C-38 22.32 -38 23.64 -38 25 C-39.32 25 -40.64 25 -42 25 C-42 26.32 -42 27.64 -42 29 C-43.32 29 -44.64 29 -46 29 C-46 26.69 -46 24.38 -46 22 C-34.809 15.679 -23.541 9.659 -12 4 C-11.308 3.632 -10.616 3.265 -9.903 2.886 C-6.28 0.979 -4.168 0 0 0 Z " fill="#081A41" transform="translate(1509,2371)"/>
<path d="M0 0 C2.31 0 4.62 0 7 0 C6.402 0.639 5.804 1.279 5.188 1.938 C2.985 5.022 2.816 6.028 2.25 9.562 C1.539 11.914 1.539 11.914 0 14 C-5.17 16.198 -10.477 17.089 -16 18 C-17.198 18.223 -18.395 18.446 -19.629 18.676 C-25.821 19.75 -31.722 20.213 -38 20 C-38 19.01 -38 18.02 -38 17 C-33.71 17 -29.42 17 -25 17 C-25 15.68 -25 14.36 -25 13 C-22.36 13 -19.72 13 -17 13 C-17 11.68 -17 10.36 -17 9 C-14.36 9 -11.72 9 -9 9 C-9 7.35 -9 5.7 -9 4 C-6.03 4 -3.06 4 0 4 C0 2.68 0 1.36 0 0 Z " fill="#5E677B" transform="translate(1380,2479)"/>
<path d="M0 0 C4.95 0 9.9 0 15 0 C15 1.65 15 3.3 15 5 C13.136 6.821 13.136 6.821 10.547 8.48 C9.617 9.087 8.688 9.693 7.73 10.318 C6.747 10.935 5.763 11.552 4.75 12.188 C3.782 12.816 2.814 13.444 1.816 14.092 C-2.066 16.595 -5.864 18.932 -10 21 C-10 19.68 -10 18.36 -10 17 C-9.01 16.01 -8.02 15.02 -7 14 C-7.99 13.67 -8.98 13.34 -10 13 C-10 10.03 -10 7.06 -10 4 C-7.03 4 -4.06 4 -1 4 C-0.67 2.68 -0.34 1.36 0 0 Z " fill="#182B52" transform="translate(1781,2250)"/>
<path d="M0 0 C0.33 0.99 0.66 1.98 1 3 C3.97 3 6.94 3 10 3 C10 4.32 10 5.64 10 7 C7.03 7 4.06 7 1 7 C1 9.64 1 12.28 1 15 C-1.64 15 -4.28 15 -7 15 C-7 16.32 -7 17.64 -7 19 C-11.29 19 -15.58 19 -20 19 C-20 20.65 -20 22.3 -20 24 C-22.64 24 -25.28 24 -28 24 C-24.943 20.739 -21.702 17.933 -18.188 15.188 C-14.059 11.944 -10.409 8.465 -6.762 4.699 C-4.703 2.714 -2.556 1.278 0 0 Z " fill="#12254B" transform="translate(2166,1939)"/>
<path d="M0 0 C0.33 0 0.66 0 1 0 C5.116 16.309 4.336 32.866 4.188 49.562 C4.172 52.52 4.159 55.478 4.146 58.436 C4.114 65.624 4.064 72.812 4 80 C3.01 80 2.02 80 1 80 C1.33 78.02 1.33 78.02 3 68 C2.01 68 1.02 68 0 68 C0 45.56 0 23.12 0 0 Z " fill="#5E656E" transform="translate(1309,1753)"/>
<path d="M0 0 C21.78 0 43.56 0 66 0 C66 0.99 66 1.98 66 3 C61.881 3.777 58 4.122 53.811 4.114 C52.61 4.113 51.409 4.113 50.172 4.113 C48.891 4.108 47.609 4.103 46.289 4.098 C45.627 4.097 45.627 4.097 42.279 4.093 C38.061 4.088 33.843 4.075 29.625 4.062 C26.762 4.057 23.898 4.053 21.035 4.049 C14.023 4.038 7.012 4.021 0 4 C0 2.68 0 1.36 0 0 Z " fill="#0B1732" transform="translate(2968,1392)"/>
<path d="M0 0 C0.165 0.66 0.165 0.66 1 4 C-0.32 4 -1.64 4 -3 4 C-3 6.97 -3 9.94 -3 13 C-4.32 13 -5.64 13 -7 13 C-7 14.32 -7 15.64 -7 17 C-7.99 17.33 -8.98 17.66 -10 18 C-10.33 18.99 -10.66 19.98 -11 21 C-16.61 21 -22.22 21 -28 21 C-28 22.32 -28 23.64 -28 25 C-30.64 25 -33.28 25 -36 25 C-32.816 21.526 -29.364 19.177 -25.375 16.688 C-20.237 13.441 -15.22 10.093 -10.266 6.574 C-6.921 4.25 -3.474 2.123 0 0 Z " fill="#1C2D50" transform="translate(1920,2125)"/>
<path d="M0 0 C1.32 0 2.64 0 4 0 C4 1.32 4 2.64 4 4 C4.66 4.33 5.32 4.66 6 5 C-0.063 10.374 -6.459 15.223 -13 20 C-14.163 20.851 -15.325 21.702 -16.523 22.578 C-17.671 23.398 -18.818 24.218 -20 25.062 C-20.526 25.44 -20.526 25.44 -23.188 27.348 C-26 29 -26 29 -30 29 C-30 26.36 -30 23.72 -30 21 C-27.03 21 -24.06 21 -21 21 C-21 19.68 -21 18.36 -21 17 C-20.051 16.814 -19.102 16.629 -18.125 16.438 C-15 15 -15 15 -13.625 11.375 C-13.419 10.261 -13.213 9.148 -13 8 C-10.36 8 -7.72 8 -5 8 C-5 6.68 -5 5.36 -5 4 C-3.35 4 -1.7 4 0 4 C0 2.68 0 1.36 0 0 Z " fill="#0B1C43" transform="translate(2051,2075)"/>
<path d="M0 0 C1.134 0.021 2.269 0.041 3.438 0.062 C3.438 1.383 3.438 2.702 3.438 4.062 C6.408 4.062 9.378 4.062 12.438 4.062 C8.106 8.896 3.102 12.014 -2.375 15.375 C-2.817 15.65 -2.817 15.65 -5.053 17.041 C-7.219 18.388 -9.389 19.728 -11.562 21.062 C-11.892 19.742 -12.223 18.423 -12.562 17.062 C-15.533 17.062 -18.503 17.062 -21.562 17.062 C-21.562 15.742 -21.562 14.423 -21.562 13.062 C-17.273 13.062 -12.983 13.062 -8.562 13.062 C-8.562 11.412 -8.562 9.762 -8.562 8.062 C-7.243 8.062 -5.922 8.062 -4.562 8.062 C-4.573 7.495 -4.573 7.495 -4.625 4.625 C-4.545 0.08 -4.545 0.08 0 0 Z " fill="#1E3055" transform="translate(1942.5625,2149.9375)"/>
<path d="M0 0 C1.32 0 2.64 0 4 0 C4 5.61 4 11.22 4 17 C23.14 17 42.28 17 62 17 C61.67 17.66 61.34 18.32 61 19 C53.619 20.061 46.312 20.134 38.867 20.098 C37.749 20.096 36.631 20.095 35.48 20.093 C31.945 20.088 28.41 20.075 24.875 20.062 C22.464 20.057 20.052 20.053 17.641 20.049 C11.76 20.038 5.88 20.021 0 20 C0 13.4 0 6.8 0 0 Z " fill="#0A1732" transform="translate(3326,1375)"/>
<path d="M0 0 C3.96 0 7.92 0 12 0 C12 1.32 12 2.64 12 4 C10.68 4 9.36 4 8 4 C8 5.32 8 6.64 8 8 C3.734 10.176 -0.539 12.339 -4.812 14.5 C-6.027 15.12 -7.242 15.74 -8.494 16.379 C-9.658 16.965 -10.821 17.552 -12.02 18.156 C-13.093 18.701 -14.167 19.246 -15.273 19.807 C-18 21 -18 21 -21 21 C-21 18.36 -21 15.72 -21 13 C-19.68 13 -18.36 13 -17 13 C-17 11.68 -17 10.36 -17 9 C-11.39 9 -5.78 9 0 9 C0 6.03 0 3.06 0 0 Z " fill="#091B43" transform="translate(1509,2404)"/>
<path d="M0 0 C19.47 0 38.94 0 59 0 C59 1.32 59 2.64 59 4 C39.53 4 20.06 4 0 4 C0 2.68 0 1.36 0 0 Z " fill="#303542" transform="translate(3213,1371)"/>
<path d="M0 0 C20.79 0 41.58 0 63 0 C63 0.99 63 1.98 63 3 C57.238 3.989 51.683 4.146 45.859 4.133 C44.897 4.134 43.934 4.135 42.942 4.136 C40.911 4.136 38.881 4.135 36.85 4.13 C33.774 4.125 30.697 4.13 27.621 4.137 C25.638 4.136 23.655 4.135 21.672 4.133 C20.766 4.135 19.861 4.137 18.928 4.139 C12.573 4.116 6.319 3.666 0 3 C0 2.01 0 1.02 0 0 Z " fill="#0A1631" transform="translate(3209,1392)"/>
<path d="M0 0 C2.97 0 5.94 0 9 0 C4.484 9.032 -5.408 14.977 -13.312 20.934 C-16 23 -16 23 -18 25 C-19.667 25.667 -21.333 26.333 -23 27 C-23.66 27.66 -24.32 28.32 -25 29 C-26.32 29 -27.64 29 -29 29 C-29 27.68 -29 26.36 -29 25 C-27.68 25 -26.36 25 -25 25 C-25.021 23.866 -25.041 22.731 -25.062 21.562 C-25 18 -25 18 -24 17 C-21.334 16.959 -18.666 16.958 -16 17 C-16 15.68 -16 14.36 -16 13 C-12.7 13 -9.4 13 -6 13 C-5.34 10.03 -4.68 7.06 -4 4 C-2.68 4 -1.36 4 0 4 C0 2.68 0 1.36 0 0 Z " fill="#081A41" transform="translate(2146,2000)"/>
<path d="M0 0 C7.92 0 15.84 0 24 0 C20.69 2.207 17.521 3.438 13.805 4.863 C12.352 5.426 10.898 5.989 9.445 6.553 C7.169 7.43 4.892 8.306 2.613 9.178 C-11.742 14.685 -11.742 14.685 -17.305 17.918 C-21 20 -21 20 -25 20 C-25 18.68 -25 17.36 -25 16 C-23.68 16 -22.36 16 -21 16 C-21 14.68 -21 13.36 -21 12 C-18.36 12 -15.72 12 -13 12 C-13 10.68 -13 9.36 -13 8 C-8.71 8 -4.42 8 0 8 C0 5.36 0 2.72 0 0 Z " fill="#051740" transform="translate(2830,1413)"/>
<path d="M0 0 C2.64 0 5.28 0 8 0 C4.074 3.196 0.03 6.21 -4.062 9.188 C-10.025 13.536 -15.933 17.948 -21.805 22.418 C-24 24 -24 24 -25 24 C-25 18.72 -25 13.44 -25 8 C-19.72 8 -14.44 8 -9 8 C-9 6.68 -9 5.36 -9 4 C-6.03 4 -3.06 4 0 4 C0 2.68 0 1.36 0 0 Z " fill="#19294D" transform="translate(2005,2113)"/>
<path d="M0 0 C19.14 0 38.28 0 58 0 C58 1.32 58 2.64 58 4 C38.86 4 19.72 4 0 4 C0 2.68 0 1.36 0 0 Z " fill="#0B1830" transform="translate(3093,1392)"/>
<path d="M0 0 C19.14 0 38.28 0 58 0 C58 1.32 58 2.64 58 4 C38.86 4 19.72 4 0 4 C0 2.68 0 1.36 0 0 Z " fill="#736956" transform="translate(3093,1388)"/>
<path d="M0 0 C19.14 0 38.28 0 58 0 C58 1.32 58 2.64 58 4 C38.86 4 19.72 4 0 4 C0 2.68 0 1.36 0 0 Z " fill="#736A58" transform="translate(2972,1388)"/>
<path d="M0 0 C19.14 0 38.28 0 58 0 C58 1.32 58 2.64 58 4 C38.86 4 19.72 4 0 4 C0 2.68 0 1.36 0 0 Z " fill="#2E3441" transform="translate(3093,1371)"/>
<path d="M0 0 C19.14 0 38.28 0 58 0 C58 1.32 58 2.64 58 4 C38.86 4 19.72 4 0 4 C0 2.68 0 1.36 0 0 Z " fill="#29303F" transform="translate(2972,1371)"/>
<path d="M0 0 C9 1 9 1 11 3 C10.941 5.391 10.941 5.391 10.562 8.25 C10.164 11.671 10.014 14.079 10.625 17.5 C10.749 18.325 10.873 19.15 11 20 C8 23 8 23 0 24 C0 16.08 0 8.16 0 0 Z " fill="#222A3C" transform="translate(4522,1369)"/>
<path d="M0 0 C1.32 0 2.64 0 4 0 C4.438 2.562 4.438 2.562 4 6 C2.484 7.935 0.802 9.498 -1.016 11.152 C-2.971 12.973 -4.618 14.876 -6.312 16.938 C-9.73 20.92 -13.607 24.055 -17.766 27.238 C-20 29 -20 29 -23 32 C-23.66 32 -24.32 32 -25 32 C-25 29.69 -25 27.38 -25 25 C-23.68 25 -22.36 25 -21 25 C-21 23.68 -21 22.36 -21 21 C-19.35 21 -17.7 21 -16 21 C-16 19.68 -16 18.36 -16 17 C-14.68 17 -13.36 17 -12 17 C-12 15.68 -12 14.36 -12 13 C-10.68 13 -9.36 13 -8 13 C-8 10.03 -8 7.06 -8 4 C-5.36 4 -2.72 4 0 4 C0 2.68 0 1.36 0 0 Z " fill="#051740" transform="translate(2438,1725)"/>
<path d="M0 0 C0.042 2.333 0.041 4.667 0 7 C-1.611 8.611 -3.528 8.158 -5.75 8.25 C-9.691 8.6 -10.815 8.856 -14.062 11.375 C-16 14 -16 14 -17 17 C-22.61 17 -28.22 17 -34 17 C-34 16.01 -34 15.02 -34 14 C-33.162 13.611 -32.325 13.223 -31.461 12.823 C-27.682 11.069 -23.904 9.316 -20.125 7.562 C-18.806 6.951 -17.488 6.339 -16.129 5.709 C-14.872 5.126 -13.615 4.542 -12.32 3.941 C-11.158 3.402 -9.995 2.863 -8.797 2.307 C-3.86 0 -3.86 0 0 0 Z " fill="#051842" transform="translate(2797,1396)"/>
<path d="M0 0 C17.82 0 35.64 0 54 0 C54 1.32 54 2.64 54 4 C36.18 4 18.36 4 0 4 C0 2.68 0 1.36 0 0 Z " fill="#0A1838" transform="translate(2855,1392)"/>
<path d="M0 0 C17.82 0 35.64 0 54 0 C54 1.32 54 2.64 54 4 C36.18 4 18.36 4 0 4 C0 2.68 0 1.36 0 0 Z " fill="#2C303B" transform="translate(3334,1371)"/>
<path d="M0 0 C0.33 0 0.66 0 1 0 C2.037 10.746 2.287 21.487 2.503 32.273 C2.562 35.23 2.627 38.187 2.693 41.145 C3.04 57.15 3.183 73.123 2.562 89.125 C2.523 90.277 2.484 91.43 2.443 92.617 C2.236 98.143 1.942 103.539 1 109 C0.67 109 0.34 109 0 109 C0 73.03 0 37.06 0 0 Z " fill="#848B92" transform="translate(1313,1779)"/>
<path d="M0 0 C2.64 0 5.28 0 8 0 C8 4.29 8 8.58 8 13 C10.64 13 13.28 13 16 13 C16 14.32 16 15.64 16 17 C13.36 17 10.72 17 8 17 C8 18.32 8 19.64 8 21 C5.36 21 2.72 21 0 21 C0 14.07 0 7.14 0 0 Z " fill="#021C4C" transform="translate(1584,2350)"/>
<path d="M0 0 C0.165 0.66 0.165 0.66 1 4 C-0.32 4 -1.64 4 -3 4 C-3 5.65 -3 7.3 -3 9 C-4.32 9 -5.64 9 -7 9 C-7 10.32 -7 11.64 -7 13 C-8.65 13 -10.3 13 -12 13 C-12 14.32 -12 15.64 -12 17 C-13.32 17 -14.64 17 -16 17 C-16 18.32 -16 19.64 -16 21 C-17.32 21 -18.64 21 -20 21 C-20 22.32 -20 23.64 -20 25 C-21.32 25 -22.64 25 -24 25 C-24 26.32 -24 27.64 -24 29 C-25.32 29 -26.64 29 -28 29 C-28.66 30.32 -29.32 31.64 -30 33 C-31.011 33.825 -32.021 34.65 -33.062 35.5 C-36 38 -36 38 -37 42 C-38.32 42 -39.64 42 -41 42 C-41 43.32 -41 44.64 -41 46 C-41.784 46.289 -42.568 46.578 -43.375 46.875 C-46 48 -46 48 -48 50 C-49.32 49.67 -50.64 49.34 -52 49 C-47.517 44.322 -43.011 39.9 -37.875 35.938 C-34.075 32.977 -31.048 29.905 -27.984 26.207 C-24.567 22.406 -20.69 19.097 -16.867 15.711 C-14 13 -14 13 -11.434 9.906 C-9.173 7.206 -6.997 5.222 -4.188 3.125 C-3.397 2.529 -2.607 1.934 -1.793 1.32 C-1.201 0.885 -0.61 0.449 0 0 Z " fill="#334059" transform="translate(2258,1854)"/>
<path d="M0 0 C0.165 0.66 0.165 0.66 1 4 C-0.32 4 -1.64 4 -3 4 C-3 5.65 -3 7.3 -3 9 C-4.65 9 -6.3 9 -8 9 C-8 10.32 -8 11.64 -8 13 C-9.32 13 -10.64 13 -12 13 C-12 15.64 -12 18.28 -12 21 C-18.6 21 -25.2 21 -32 21 C-28.84 18.472 -26.011 16.272 -22.637 14.16 C-21.832 13.654 -21.027 13.148 -20.197 12.627 C-19.369 12.111 -18.541 11.594 -17.688 11.062 C-16.871 10.55 -16.054 10.038 -15.213 9.51 C-12.811 8.003 -10.406 6.501 -8 5 C-6.465 4.04 -4.93 3.081 -3.395 2.121 C-2.274 1.421 -1.154 0.721 0 0 Z " fill="#213152" transform="translate(1754,2229)"/>
<path d="M0 0 C3.96 0 7.92 0 12 0 C12 1.32 12 2.64 12 4 C7.055 6.426 2.107 8.847 -2.844 11.263 C-4.528 12.086 -6.212 12.911 -7.896 13.737 C-10.311 14.922 -12.73 16.102 -15.148 17.281 C-15.904 17.653 -16.659 18.025 -17.437 18.408 C-22.772 21 -22.772 21 -25 21 C-25 19.68 -25 18.36 -25 17 C-23.68 17 -22.36 17 -21 17 C-21 15.68 -21 14.36 -21 13 C-18.36 13 -15.72 13 -13 13 C-13 11.68 -13 10.36 -13 9 C-10.36 9 -7.72 9 -5 9 C-5 7.68 -5 6.36 -5 5 C-3.35 5 -1.7 5 0 5 C0 3.35 0 1.7 0 0 Z " fill="#07183E" transform="translate(1455,2433)"/>
<path d="M0 0 C15.18 0 30.36 0 46 0 C46 1.32 46 2.64 46 4 C30.82 4 15.64 4 0 4 C0 2.68 0 1.36 0 0 Z " fill="#9D8050" transform="translate(3338,1379)"/>
<path d="M0 0 C4.886 9.771 4.181 19.971 3.833 30.593 C3.751 33.164 3.688 35.735 3.629 38.307 C3.361 48.333 2.578 58.082 1 68 C0.67 68 0.34 68 0 68 C0 45.56 0 23.12 0 0 Z " fill="#5B626B" transform="translate(1309,1571)"/>
<path d="M0 0 C14.85 0 29.7 0 45 0 C45 1.32 45 2.64 45 4 C30.15 4 15.3 4 0 4 C0 2.68 0 1.36 0 0 Z " fill="#A18553" transform="translate(3218,1379)"/>
<path d="M0 0 C0.33 0 0.66 0 1 0 C4.819 58.837 4.819 58.837 1 84 C0.67 84 0.34 84 0 84 C0 56.28 0 28.56 0 0 Z " fill="#5B616B" transform="translate(1309,1952)"/>
<path d="M0 0 C1.98 0 3.96 0 6 0 C3 2 3 2 1 2 C1.33 2.99 1.66 3.98 2 5 C13.552 10.776 27.767 10.282 40.406 10.571 C41.362 10.599 42.317 10.627 43.301 10.656 C43.73 10.666 43.73 10.666 45.9 10.713 C48 11 48 11 50 13 C33.5 13 17 13 0 13 C0 8.71 0 4.42 0 0 Z " fill="#907C58" transform="translate(3451,1375)"/>
<path d="M0 0 C2.97 0 5.94 0 9 0 C9 0.66 9 1.32 9 2 C10.32 2.33 11.64 2.66 13 3 C4.893 9.075 -3.133 15.055 -12 20 C-12 17.69 -12 15.38 -12 13 C-10.68 13 -9.36 13 -8 13 C-8 11.68 -8 10.36 -8 9 C-6.68 9 -5.36 9 -4 9 C-4 7.68 -4 6.36 -4 5 C-3.01 4.67 -2.02 4.34 -1 4 C-0.67 2.68 -0.34 1.36 0 0 Z " fill="#0D1E43" transform="translate(2071,2058)"/>
<path d="M0 0 C7.59 0 15.18 0 23 0 C20.224 2.776 18.418 4.552 15.25 6.508 C14.559 6.937 13.868 7.366 13.156 7.809 C12.445 8.243 11.733 8.677 11 9.125 C10.288 9.567 9.577 10.009 8.844 10.465 C5.613 12.46 2.399 14.301 -1 16 C-1 14.68 -1 13.36 -1 12 C0.32 12 1.64 12 3 12 C3 9.36 3 6.72 3 4 C1.68 4 0.36 4 -1 4 C-0.67 2.68 -0.34 1.36 0 0 Z " fill="#293A5D" transform="translate(1906,2171)"/>
<path d="M0 0 C0.33 1.32 0.66 2.64 1 4 C-0.32 4 -1.64 4 -3 4 C-3 5.32 -3 6.64 -3 8 C-0.36 8 2.28 8 5 8 C5 9.32 5 10.64 5 12 C3.68 12 2.36 12 1 12 C1 13.32 1 14.64 1 16 C-2.96 16 -6.92 16 -11 16 C-11 14.68 -11 13.36 -11 12 C-13.31 12 -15.62 12 -18 12 C-14.746 8.746 -11.246 6.616 -7.312 4.312 C-6.611 3.897 -5.909 3.481 -5.186 3.053 C-3.459 2.031 -1.73 1.015 0 0 Z " fill="#10254F" transform="translate(1691,2267)"/>
<path d="M0 0 C0.33 1.32 0.66 2.64 1 4 C-0.32 4 -1.64 4 -3 4 C-3 5.32 -3 6.64 -3 8 C-4.32 8 -5.64 8 -7 8 C-7.66 9.32 -8.32 10.64 -9 12 C-11.625 13.75 -11.625 13.75 -14 15 C-13.01 15.33 -12.02 15.66 -11 16 C-11 17.65 -11 19.3 -11 21 C-12.65 21 -14.3 21 -16 21 C-16 22.32 -16 23.64 -16 25 C-20.95 25 -25.9 25 -31 25 C-27.092 21.092 -23.733 18.271 -19.25 15.188 C-14.126 11.616 -9.339 7.857 -4.77 3.594 C-3 2 -3 2 0 0 Z " fill="#1F2F50" transform="translate(2037,2042)"/>
<path d="M0 0 C0.33 0 0.66 0 1 0 C1 10.23 1 20.46 1 31 C-2.788 29.737 -3.22 28.479 -5 25 C-6.984 17.066 -6.499 10.387 -3 3 C-2.01 2.01 -1.02 1.02 0 0 Z " fill="#2D3C55" transform="translate(1316,2463)"/>
<path d="M0 0 C2.64 0 5.28 0 8 0 C8 0.99 8 1.98 8 3 C7.189 3.424 6.378 3.848 5.543 4.285 C-1.074 7.79 -7.407 11.445 -13.562 15.715 C-16.286 17.151 -17.967 17.265 -21 17 C-21 15.68 -21 14.36 -21 13 C-19.68 13 -18.36 13 -17 13 C-17 11.68 -17 10.36 -17 9 C-15.35 9 -13.7 9 -12 9 C-12 7.35 -12 5.7 -12 4 C-8.04 4 -4.08 4 0 4 C0 2.68 0 1.36 0 0 Z " fill="#08193E" transform="translate(1417,2454)"/>
<path d="M0 0 C13.53 0 27.06 0 41 0 C40.67 0.99 40.34 1.98 40 3 C35.585 4.095 31.394 4.114 26.855 4.098 C26.086 4.096 25.316 4.095 24.523 4.093 C22.078 4.088 19.633 4.075 17.188 4.062 C15.524 4.057 13.861 4.053 12.197 4.049 C8.131 4.038 4.066 4.021 0 4 C0 2.68 0 1.36 0 0 Z " fill="#282C37" transform="translate(3451,1371)"/>
<path d="M0 0 C0.33 1.32 0.66 2.64 1 4 C-0.32 4 -1.64 4 -3 4 C-3 8.29 -3 12.58 -3 17 C-5.97 17 -8.94 17 -12 17 C-12 18.32 -12 19.64 -12 21 C-14.64 21 -17.28 21 -20 21 C-20 19.68 -20 18.36 -20 17 C-18.68 17 -17.36 17 -16 17 C-15.921 16.247 -15.843 15.494 -15.762 14.719 C-14.812 11.329 -13.649 10.514 -10.812 8.5 C-10.006 7.911 -9.199 7.322 -8.367 6.715 C-7.586 6.149 -6.805 5.583 -6 5 C-3.973 3.363 -1.989 1.683 0 0 Z " fill="#13254C" transform="translate(2054,2029)"/>
<path d="M0 0 C0 2.64 0 5.28 0 8 C-4.29 8 -8.58 8 -13 8 C-13 9.32 -13 10.64 -13 12 C-14.32 12 -15.64 12 -17 12 C-17 13.65 -17 15.3 -17 17 C-19.64 17 -22.28 17 -25 17 C-25 16.34 -25 15.68 -25 15 C-26.32 15.33 -27.64 15.66 -29 16 C-29 15.34 -29 14.68 -29 14 C-24.545 11.66 -20.086 9.329 -15.625 7 C-14.354 6.332 -13.083 5.665 -11.773 4.977 C-10.562 4.345 -9.35 3.713 -8.102 3.062 C-7.541 2.769 -7.541 2.769 -4.706 1.285 C-2 0 -2 0 0 0 Z " fill="#071A40" transform="translate(1459,2396)"/>
<path d="M0 0 C0.33 0 0.66 0 1 0 C1 21.78 1 43.56 1 66 C0.67 66 0.34 66 0 66 C-2.396 55.674 -2.306 45.378 -2.261 34.845 C-2.25 31.874 -2.261 28.904 -2.273 25.934 C-2.272 24.016 -2.27 22.098 -2.266 20.18 C-2.27 19.306 -2.274 18.433 -2.278 17.534 C-2.232 11.458 -1.336 5.929 0 0 Z " fill="#B8BDC0" transform="translate(1304,1571)"/>
<path d="M0 0 C0.602 -0.002 0.602 -0.002 3.651 -0.01 C4.297 -0.009 4.297 -0.009 7.568 -0.003 C8.236 -0.004 8.236 -0.004 11.614 -0.006 C14.435 -0.007 17.256 -0.005 20.077 -0.001 C24.396 0.004 28.714 -0.001 33.033 -0.007 C35.774 -0.007 38.515 -0.005 41.256 -0.003 C42.549 -0.005 43.841 -0.007 45.173 -0.01 C46.378 -0.006 47.583 -0.003 48.824 0 C49.353 0 49.353 0 52.029 0.002 C54.764 0.123 57.25 0.512 59.912 1.129 C59.912 1.459 59.912 1.789 59.912 2.129 C54.563 2.275 49.215 2.417 43.866 2.557 C42.056 2.604 40.245 2.653 38.435 2.702 C28.803 2.965 19.174 3.176 9.537 3.192 C8.773 3.194 8.009 3.196 7.222 3.199 C1.082 3.19 -4.988 2.811 -11.088 2.129 C-11.088 1.799 -11.088 1.469 -11.088 1.129 C-7.33 0.257 -3.854 0.003 0 0 Z " fill="#61666F" transform="translate(1754.087890625,2492.87060546875)"/>
<path d="M0 0 C0 1.32 0 2.64 0 4 C-15.18 4 -30.36 4 -46 4 C-46 3.67 -46 3.34 -46 3 C-30.662 -0.409 -15.649 -0.326 0 0 Z " fill="#31333B" transform="translate(2909,1371)"/>
<path d="M0 0 C2.64 0 5.28 0 8 0 C8 2.64 8 5.28 8 8 C5.36 8 2.72 8 0 8 C0 9.32 0 10.64 0 12 C-4.29 12 -8.58 12 -13 12 C-13 10.68 -13 9.36 -13 8 C-11.35 8 -9.7 8 -8 8 C-8 6.68 -8 5.36 -8 4 C-5.36 4 -2.72 4 0 4 C0 2.68 0 1.36 0 0 Z " fill="#041945" transform="translate(1784,2213)"/>
<path d="M0 0 C12.21 0 24.42 0 37 0 C37 1.32 37 2.64 37 4 C24.79 4 12.58 4 0 4 C0 2.68 0 1.36 0 0 Z " fill="#A58850" transform="translate(3097,1379)"/>
<path d="M0 0 C12.21 0 24.42 0 37 0 C37 1.32 37 2.64 37 4 C24.79 4 12.58 4 0 4 C0 2.68 0 1.36 0 0 Z " fill="#A48953" transform="translate(2976,1379)"/>
<path d="M0 0 C2.64 0 5.28 0 8 0 C4.734 2.723 1.5 4.979 -2.23 7.016 C-3.198 7.544 -4.165 8.073 -5.162 8.617 C-6.16 9.156 -7.159 9.695 -8.188 10.25 C-9.197 10.804 -10.207 11.359 -11.248 11.93 C-18.742 16 -18.742 16 -21 16 C-21 14.68 -21 13.36 -21 12 C-19.35 12 -17.7 12 -16 12 C-16 10.68 -16 9.36 -16 8 C-17.65 8 -19.3 8 -21 8 C-21 6.68 -21 5.36 -21 4 C-14.07 4 -7.14 4 0 4 C0 2.68 0 1.36 0 0 Z " fill="#313F5F" transform="translate(1646,2338)"/>
<path d="M0 0 C4.95 0 9.9 0 15 0 C11.825 3.175 9.611 5.027 5.867 7.234 C4.897 7.808 3.926 8.382 2.926 8.973 C1.919 9.559 0.912 10.146 -0.125 10.75 C-1.139 11.352 -2.154 11.954 -3.199 12.574 C-10.736 17 -10.736 17 -13 17 C-13 15.35 -13 13.7 -13 12 C-11.68 12 -10.36 12 -9 12 C-9 10.68 -9 9.36 -9 8 C-6.03 8 -3.06 8 0 8 C0 5.36 0 2.72 0 0 Z " fill="#4C5972" transform="translate(1755,2271)"/>
<path d="M0 0 C7.92 0 15.84 0 24 0 C20.32 2.944 16.713 5.633 12.812 8.25 C11.767 8.956 10.722 9.663 9.645 10.391 C7 12 7 12 5 12 C5 9.36 5 6.72 5 4 C3.35 4 1.7 4 0 4 C0 2.68 0 1.36 0 0 Z " fill="#243558" transform="translate(2717,1471)"/>
<path d="M0 0 C0 1.65 0 3.3 0 5 C-1.32 5 -2.64 5 -4 5 C-4 8.96 -4 12.92 -4 17 C-6.97 17 -9.94 17 -13 17 C-13 15.68 -13 14.36 -13 13 C-15.31 13 -17.62 13 -20 13 C-16.102 9.757 -12.019 6.983 -7.75 4.25 C-6.507 3.451 -5.265 2.652 -3.984 1.828 C-1 0 -1 0 0 0 Z " fill="#253759" transform="translate(1830,2183)"/>
<path d="M0 0 C0 0.66 0 1.32 0 2 C-1.65 2 -3.3 2 -5 2 C-5 2.66 -5 3.32 -5 4 C-3.35 4 -1.7 4 0 4 C0 5.32 0 6.64 0 8 C-4.29 8 -8.58 8 -13 8 C-13 9.65 -13 11.3 -13 13 C-14.32 13 -15.64 13 -17 13 C-17 9.37 -17 5.74 -17 2 C-11.183 -0.023 -6.069 -0.22 0 0 Z " fill="#8F7D60" transform="translate(2868,1375)"/>
<path d="M0 0 C0.33 1.32 0.66 2.64 1 4 C3.97 4 6.94 4 10 4 C10 5.65 10 7.3 10 9 C3.07 9 -3.86 9 -11 9 C-11 10.32 -11 11.64 -11 13 C-13.64 13 -16.28 13 -19 13 C-15.616 9.197 -11.607 6.779 -7.25 4.25 C-6.553 3.839 -5.855 3.428 -5.137 3.004 C-3.428 1.997 -1.714 0.998 0 0 Z " fill="#253759" transform="translate(1795,2204)"/>
<path d="M0 0 C1.32 0 2.64 0 4 0 C4 5.61 4 11.22 4 17 C-2.93 17 -9.86 17 -17 17 C-17 15.68 -17 14.36 -17 13 C-11.39 13 -5.78 13 0 13 C0 8.71 0 4.42 0 0 Z " fill="#64625C" transform="translate(3268,1375)"/>
<path d="M0 0 C2.64 0 5.28 0 8 0 C8 5.61 8 11.22 8 17 C5.36 17 2.72 17 0 17 C0 11.39 0 5.78 0 0 Z " fill="#18243C" transform="translate(3030,1375)"/>
<path d="M0 0 C2.31 0 4.62 0 7 0 C6.381 0.66 5.763 1.32 5.125 2 C2.598 5.567 1.865 8.748 1 13 C-3.62 13 -8.24 13 -13 13 C-13 11.68 -13 10.36 -13 9 C-11.68 9 -10.36 9 -9 9 C-9 7.35 -9 5.7 -9 4 C-6.03 4 -3.06 4 0 4 C0 2.68 0 1.36 0 0 Z " fill="#9EA5B2" transform="translate(1380,2479)"/>
<path d="M0 0 C0 1.65 0 3.3 0 5 C2.64 5 5.28 5 8 5 C8 6.32 8 7.64 8 9 C5.36 9 2.72 9 0 9 C0 10.32 0 11.64 0 13 C-2.97 13 -5.94 13 -9 13 C-9 11.68 -9 10.36 -9 9 C-7.68 9 -6.36 9 -5 9 C-5 7.68 -5 6.36 -5 5 C-7.31 5 -9.62 5 -12 5 C-8.309 1.309 -5.227 0 0 0 Z " fill="#122751" transform="translate(1330,2458)"/>
<path d="M0 0 C1.667 0 3.333 0 5 0 C5 2 5 2 3.637 3.41 C2.993 3.955 2.35 4.501 1.688 5.062 C1.325 5.371 1.325 5.371 -0.512 6.934 C-4.137 9.944 -7.778 12.936 -11.434 15.91 C-14.308 18.251 -17.158 20.619 -20 23 C-20 20.69 -20 18.38 -20 16 C-18.68 16 -17.36 16 -16 16 C-16 15.34 -16 14.68 -16 14 C-15.01 13.34 -14.02 12.68 -13 12 C-12.312 9.375 -12.312 9.375 -12 7 C-10.35 7 -8.7 7 -7 7 C-7 5.68 -7 4.36 -7 3 C-6.515 2.845 -6.515 2.845 -4.062 2.062 C-1 1 -1 1 0 0 Z " fill="#0E1E42" transform="translate(2629,1547)"/>
<path d="M0 0 C2.31 0 4.62 0 7 0 C4.743 4.42 2.068 6.743 -1.938 9.625 C-2.978 10.38 -4.018 11.136 -5.09 11.914 C-5.57 12.258 -5.57 12.258 -8 14 C-8.728 14.581 -9.457 15.163 -10.207 15.762 C-12.556 17.384 -14.21 17.233 -17 17 C-17 15.68 -17 14.36 -17 13 C-15.68 13 -14.36 13 -13 13 C-13 11.68 -13 10.36 -13 9 C-11.35 9 -9.7 9 -8 9 C-8 7.35 -8 5.7 -8 4 C-5.36 4 -2.72 4 0 4 C0 2.68 0 1.36 0 0 Z " fill="#06173D" transform="translate(2680,1504)"/>
<path d="M0 0 C2.64 0 5.28 0 8 0 C6.936 4.255 6.587 4.695 3.375 7.25 C-0.313 10.31 -3.348 13.58 -6.359 17.301 C-8 19 -8 19 -12 21 C-12 16.569 -11.543 16.255 -9 13 C-8.67 11.68 -8.34 10.36 -8 9 C-6.68 9 -5.36 9 -4 9 C-4 7.68 -4 6.36 -4 5 C-2.68 5 -1.36 5 0 5 C0 3.35 0 1.7 0 0 Z " fill="#06173C" transform="translate(2455,1708)"/>
<path d="M0 0 C0 2.64 0 5.28 0 8 C-2.64 8 -5.28 8 -8 8 C-8 9.65 -8 11.3 -8 13 C-9.624 13.081 -11.25 13.139 -12.875 13.188 C-13.327 13.205 -13.327 13.205 -15.617 13.293 C-16.01 13.245 -16.01 13.245 -18 13 C-18.66 12.01 -19.32 11.02 -20 10 C-17.423 8.322 -14.84 6.658 -12.25 5 C-11.52 4.523 -10.791 4.046 -10.039 3.555 C-6.372 1.221 -4.435 0 0 0 Z " fill="#071941" transform="translate(2738,1425)"/>
<path d="M0 0 C0 0.99 0 1.98 0 3 C-1.65 3 -3.3 3 -5 3 C-5.66 4.32 -6.32 5.64 -7 7 C-10.3 7 -13.6 7 -17 7 C-17 8.65 -17 10.3 -17 12 C-19.64 12 -22.28 12 -25 12 C-25 10.02 -25 8.04 -25 6 C-21.589 4.795 -18.171 3.614 -14.75 2.438 C-14.266 2.266 -14.266 2.266 -11.816 1.4 C-10.882 1.081 -9.947 0.762 -8.984 0.434 C-8.126 0.135 -7.267 -0.163 -6.382 -0.471 C-4 -1 -4 -1 0 0 Z " fill="#071940" transform="translate(1355,2451)"/>
<path d="M0 0 C1.32 0 2.64 0 4 0 C3.009 3.963 2.691 4.685 -0.062 7.312 C-0.688 7.912 -1.313 8.511 -1.957 9.129 C-4.665 11.609 -7.414 14.034 -10.203 16.422 C-11.864 17.88 -13.437 19.437 -15 21 C-15.66 21 -16.32 21 -17 21 C-17 18.36 -17 15.72 -17 13 C-15.35 13 -13.7 13 -12 13 C-12 11.68 -12 10.36 -12 9 C-10.68 9 -9.36 9 -8 9 C-8 7.68 -8 6.36 -8 5 C-7.051 4.732 -6.102 4.464 -5.125 4.188 C-2 3 -2 3 0 0 Z " fill="#05153D" transform="translate(2409,1758)"/>
<path d="M0 0 C0 5.28 0 10.56 0 16 C-2.97 16 -5.94 16 -9 16 C-9 14.68 -9 13.36 -9 12 C-10.32 11.67 -11.64 11.34 -13 11 C-11.566 9.539 -10.127 8.081 -8.688 6.625 C-7.887 5.813 -7.086 5.001 -6.262 4.164 C-1.91 0 -1.91 0 0 0 Z " fill="#1A2D53" transform="translate(2272,1842)"/>
<path d="M0 0 C2.97 0 5.94 0 9 0 C9 2.64 9 5.28 9 8 C7.59 8.844 6.171 9.675 4.75 10.5 C3.961 10.964 3.172 11.428 2.359 11.906 C0 13 0 13 -4 13 C-4 10.03 -4 7.06 -4 4 C-2.68 4 -1.36 4 0 4 C0 2.68 0 1.36 0 0 Z " fill="#071B44" transform="translate(2792,1429)"/>
<path d="M0 0 C10.89 0 21.78 0 33 0 C27.86 3.427 24.132 4.248 17.949 4.195 C17.281 4.192 17.281 4.192 13.896 4.176 C12.508 4.159 11.119 4.142 9.688 4.125 C8.279 4.116 6.871 4.107 5.42 4.098 C1.946 4.074 -1.527 4.041 -5 4 C-5 3.34 -5 2.68 -5 2 C-3.35 2 -1.7 2 0 2 C0 1.34 0 0.68 0 0 Z " fill="#A5906A" transform="translate(2868,1375)"/>
<path d="M0 0 C4.98 -0.05 9.961 -0.086 14.941 -0.11 C16.633 -0.12 18.324 -0.133 20.016 -0.151 C22.458 -0.175 24.901 -0.187 27.344 -0.195 C28.81 -0.206 30.276 -0.216 31.787 -0.227 C36.187 0.01 39.782 0.795 44 2 C44 2.33 44 2.66 44 3 C29.48 3 14.96 3 0 3 C0 2.01 0 1.02 0 0 Z " fill="#071637" transform="translate(3447,1368)"/>
<path d="M0 0 C2.64 0 5.28 0 8 0 C8 1.32 8 2.64 8 4 C6.68 4 5.36 4 4 4 C4 5.32 4 6.64 4 8 C1.36 8 -1.28 8 -4 8 C-4 9.32 -4 10.64 -4 12 C-6.97 12 -9.94 12 -13 12 C-13 10.68 -13 9.36 -13 8 C-11.68 8 -10.36 8 -9 8 C-9 6.68 -9 5.36 -9 4 C-6.03 4 -3.06 4 0 4 C0 2.68 0 1.36 0 0 Z " fill="#021A47" transform="translate(1930,2121)"/>
<path d="M0 0 C1.32 0 2.64 0 4 0 C4 2.64 4 5.28 4 8 C2.68 8 1.36 8 0 8 C0 9.32 0 10.64 0 12 C-1.65 12 -3.3 12 -5 12 C-5 13.32 -5 14.64 -5 16 C-7.64 16 -10.28 16 -13 16 C-13 14.68 -13 13.36 -13 12 C-11.68 12 -10.36 12 -9 12 C-9 10.68 -9 9.36 -9 8 C-7.68 8 -6.36 8 -5 8 C-5 6.68 -5 5.36 -5 4 C-3.35 4 -1.7 4 0 4 C0 2.68 0 1.36 0 0 Z " fill="#031845" transform="translate(2251,1863)"/>
<path d="M0 0 C1.98 0 3.96 0 6 0 C6 4.29 6 8.58 6 13 C-7.86 13 -21.72 13 -36 13 C-36 12.67 -36 12.34 -36 12 C-31.889 11.214 -28.083 10.909 -23.902 11.008 C-23.337 11.016 -23.337 11.016 -20.475 11.059 C-18.112 11.103 -15.75 11.155 -13.389 11.215 C-12.259 11.229 -11.129 11.243 -9.965 11.258 C-8.94 11.28 -7.915 11.302 -6.859 11.325 C-3.568 10.951 -1.693 9.879 1 8 C0.835 6.68 0.835 6.68 0 0 Z " fill="#8E7E61" transform="translate(4462,1375)"/>
<path d="M0 0 C6.6 0 13.2 0 20 0 C16.796 2.563 14.015 4.718 10.574 6.797 C10.176 7.039 10.176 7.039 8.162 8.262 C7.345 8.753 6.529 9.244 5.688 9.75 C4.852 10.257 4.016 10.763 3.154 11.285 C1.105 12.527 -0.947 13.764 -3 15 C-3.33 14.01 -3.66 13.02 -4 12 C-2.68 12 -1.36 12 0 12 C0 10.68 0 9.36 0 8 C1.65 8 3.3 8 5 8 C5 6.68 5 5.36 5 4 C3.35 4 1.7 4 0 4 C0 2.68 0 1.36 0 0 Z " fill="#334161" transform="translate(1871,2196)"/>
<path d="M0 0 C25.032 -0.422 25.032 -0.422 33 2 C33.66 2.66 34.32 3.32 35 4 C23.45 4 11.9 4 0 4 C0 2.68 0 1.36 0 0 Z " fill="#071633" transform="translate(4410,1367)"/>
<path d="M0 0 C1.32 0 2.64 0 4 0 C4 1.32 4 2.64 4 4 C2.68 4 1.36 4 0 4 C0 5.32 0 6.64 0 8 C-2.97 8 -5.94 8 -9 8 C-9 10.97 -9 13.94 -9 17 C-11.64 17 -14.28 17 -17 17 C-17 15.68 -17 14.36 -17 13 C-15.68 13 -14.36 13 -13 13 C-13.103 12.072 -13.206 11.144 -13.312 10.188 C-13 7 -13 7 -10.875 5.25 C-7.96 3.983 -5.013 3.004 -2 2 C-1.34 1.34 -0.68 0.68 0 0 Z " fill="#051841" transform="translate(2697,1450)"/>
<path d="M0 0 C0.901 0.009 1.802 0.018 2.73 0.027 C3.418 0.039 4.105 0.051 4.812 0.062 C4.812 1.382 4.812 2.703 4.812 4.062 C3.493 4.062 2.172 4.062 0.812 4.062 C0.812 9.342 0.812 14.622 0.812 20.062 C-0.507 20.062 -1.828 20.062 -3.188 20.062 C-3.188 14.783 -3.188 9.503 -3.188 4.062 C-5.167 4.062 -7.148 4.062 -9.188 4.062 C-8.858 3.072 -8.528 2.082 -8.188 1.062 C-5.173 0.058 -3.146 -0.041 0 0 Z " fill="#142139" transform="translate(4471.1875,1370.9375)"/>
<path d="M0 0 C0.33 1.32 0.66 2.64 1 4 C-0.65 4 -2.3 4 -4 4 C-4 5.32 -4 6.64 -4 8 C-6.906 9.257 -8.796 10 -12 10 C-12 10.66 -12 11.32 -12 12 C-15.96 12 -19.92 12 -24 12 C-21.451 9.451 -19.968 8.292 -16.875 6.738 C-16.086 6.342 -15.297 5.946 -14.484 5.537 C-13.665 5.133 -12.845 4.729 -12 4.312 C-11.18 3.897 -10.36 3.481 -9.516 3.053 C-8.727 2.66 -7.938 2.268 -7.125 1.863 C-6.765 1.684 -6.765 1.684 -4.945 0.779 C-3 0 -3 0 0 0 Z " fill="#031741" transform="translate(1379,2438)"/>
<path d="M0 0 C0 1.65 0 3.3 0 5 C-1.32 5 -2.64 5 -4 5 C-4 6.32 -4 7.64 -4 9 C-2.68 9 -1.36 9 0 9 C0 10.32 0 11.64 0 13 C-5.94 13 -11.88 13 -18 13 C-14.844 9.844 -11.964 7.39 -8.375 4.812 C-7.413 4.118 -6.452 3.423 -5.461 2.707 C-1.558 0 -1.558 0 0 0 Z " fill="#16294B" transform="translate(2684,1458)"/>
<path d="M0 0 C0 3.96 0 7.92 0 12 C-4.95 12 -9.9 12 -15 12 C-10.492 5.238 -10.492 5.238 -5.812 2.625 C-4.932 2.122 -4.052 1.62 -3.145 1.102 C-1 0 -1 0 0 0 Z " fill="#0C1E45" transform="translate(1625,2305)"/>
<path d="M0 0 C0.33 0.99 0.66 1.98 1 3 C-0.32 3 -1.64 3 -3 3 C-3 7.29 -3 11.58 -3 16 C-4.32 16 -5.64 16 -7 16 C-7 14.68 -7 13.36 -7 12 C-10.96 12 -14.92 12 -19 12 C-15.138 8.721 -11.103 6.226 -6.688 3.75 C-5.433 3.044 -4.179 2.337 -2.887 1.609 C-1.934 1.078 -0.981 0.547 0 0 Z " fill="#1C2C50" transform="translate(1712,2255)"/>
<path d="M0 0 C1.381 0.012 2.761 0.023 4.184 0.035 C4.875 0.04 4.875 0.04 8.375 0.062 C9.446 0.074 10.517 0.086 11.621 0.098 C10.961 1.418 10.301 2.738 9.621 4.098 C8.961 4.098 8.301 4.098 7.621 4.098 C7.621 5.418 7.621 6.738 7.621 8.098 C3.661 8.098 -0.299 8.098 -4.379 8.098 C-4.421 5.765 -4.42 3.431 -4.379 1.098 C-3.379 0.098 -3.379 0.098 0 0 Z " fill="#051B46" transform="translate(1763.37890625,2262.90234375)"/>
<path d="M0 0 C2.97 0 5.94 0 9 0 C5.392 6.396 -0.879 13.626 -8 16 C-8 13.69 -8 11.38 -8 9 C-6.68 9 -5.36 9 -4 9 C-4 7.35 -4 5.7 -4 4 C-2.68 4 -1.36 4 0 4 C0 2.68 0 1.36 0 0 Z " fill="#152548" transform="translate(2284,1879)"/>
<path d="M0 0 C0.33 0 0.66 0 1 0 C1.125 2.375 1.125 2.375 1 5 C0.34 5.66 -0.32 6.32 -1 7 C-0.01 7.66 0.98 8.32 2 9 C1.67 11.31 1.34 13.62 1 16 C-1.64 16 -4.28 16 -7 16 C-7 14.68 -7 13.36 -7 12 C-5.68 12 -4.36 12 -3 12 C-3 10.68 -3 9.36 -3 8 C-4.32 8 -5.64 8 -7 8 C-7.66 9.32 -8.32 10.64 -9 12 C-9.66 12.33 -9.66 12.33 -13 14 C-13.33 14.66 -13.66 15.32 -14 16 C-14.99 15.67 -15.98 15.34 -17 15 C-12.537 10.347 -7.964 6.271 -2.82 2.383 C-1 1 -1 1 0 0 Z " fill="#1C2E53" transform="translate(2116,1980)"/>
<path d="M0 0 C0 1.32 0 2.64 0 4 C-1.65 4 -3.3 4 -5 4 C-5 5.65 -5 7.3 -5 9 C-8.96 9 -12.92 9 -17 9 C-16 4 -16 4 -13 1.688 C-8.172 -0.349 -5.179 -0.319 0 0 Z " fill="#071B43" transform="translate(1680,2279)"/>
<path d="M0 0 C0 1.65 0 3.3 0 5 C-1.32 5 -2.64 5 -4 5 C-4 6.32 -4 7.64 -4 9 C-5.32 9 -6.64 9 -8 9 C-8 10.32 -8 11.64 -8 13 C-10.64 13 -13.28 13 -16 13 C-16 14.32 -16 15.64 -16 17 C-18.97 17 -21.94 17 -25 17 C-21.901 13.615 -18.626 11.399 -14.688 9.062 C-10.95 6.814 -7.274 4.571 -3.75 2 C-1 0 -1 0 0 0 Z " fill="#293854" transform="translate(1946,2108)"/>
<path d="M0 0 C2.64 0 5.28 0 8 0 C8 1.32 8 2.64 8 4 C10.64 4 13.28 4 16 4 C13.104 6.296 10.183 8.043 6.875 9.688 C6.441 9.906 6.441 9.906 4.242 11.012 C2 12 2 12 0 12 C0 8.04 0 4.08 0 0 Z " fill="#15274D" transform="translate(1538,2388)"/>
<path d="M0 0 C0 2.64 0 5.28 0 8 C-3.96 8 -7.92 8 -12 8 C-12 9.65 -12 11.3 -12 13 C-13.65 13 -15.3 13 -17 13 C-17 12.34 -17 11.68 -17 11 C-18.32 11.33 -19.64 11.66 -21 12 C-21 11.34 -21 10.68 -21 10 C-18.067 8.326 -15.129 6.66 -12.188 5 C-11.354 4.523 -10.521 4.046 -9.662 3.555 C-8.86 3.104 -8.057 2.652 -7.23 2.188 C-6.492 1.769 -5.754 1.35 -4.993 0.918 C-3 0 -3 0 0 0 Z " fill="#081A3F" transform="translate(1592,2325)"/>
<path d="M0 0 C1.32 0 2.64 0 4 0 C4 2.64 4 5.28 4 8 C1.36 8 -1.28 8 -4 8 C-4 9.65 -4 11.3 -4 13 C-6.64 13 -9.28 13 -12 13 C-12 11.35 -12 9.7 -12 8 C-10.68 8 -9.36 8 -8 8 C-8 6.68 -8 5.36 -8 4 C-5.36 4 -2.72 4 0 4 C0 2.68 0 1.36 0 0 Z " fill="#041742" transform="translate(1763,2225)"/>
<path d="M0 0 C1.32 0 2.64 0 4 0 C4.33 0.66 4.66 1.32 5 2 C5.99 1.67 6.98 1.34 8 1 C6.873 4.381 5.946 5.108 3.25 7.312 C0.502 9.611 -1.418 11.548 -3.625 14.438 C-6 17 -6 17 -9.312 17.375 C-10.199 17.251 -11.086 17.128 -12 17 C-12 15.68 -12 14.36 -12 13 C-10.68 13 -9.36 13 -8 13 C-8 11.68 -8 10.36 -8 9 C-7.216 8.711 -6.432 8.422 -5.625 8.125 C-3 7 -3 7 -1 5 C-0.375 2.375 -0.375 2.375 0 0 Z " fill="#05173D" transform="translate(2384,1779)"/>
<path d="M0 0 C0.33 0.99 0.66 1.98 1 3 C0.01 3.99 -0.98 4.98 -2 6 C-1.01 6.33 -0.02 6.66 1 7 C1 8.32 1 9.64 1 11 C-1.64 11 -4.28 11 -7 11 C-7 12.32 -7 13.64 -7 15 C-8.32 15 -9.64 15 -11 15 C-11 16.32 -11 17.64 -11 19 C-13.64 19 -16.28 19 -19 19 C-12.667 12.667 -6.333 6.333 0 0 Z " fill="#102144" transform="translate(2537,1581)"/>
<path d="M0 0 C11.55 0 23.1 0 35 0 C34.67 0.66 34.34 1.32 34 2 C30.169 2.958 26.98 3.2 23.047 3.316 C22.377 3.337 22.377 3.337 18.984 3.443 C18.286 3.463 18.286 3.463 14.75 3.562 C14.044 3.584 14.044 3.584 10.469 3.693 C6.979 3.799 3.49 3.902 0 4 C0 2.68 0 1.36 0 0 Z " fill="#2C3038" transform="translate(4410,1371)"/>
<path d="M0 0 C0 2.64 0 5.28 0 8 C-1.114 8.103 -2.227 8.206 -3.375 8.312 C-4.571 8.539 -5.767 8.766 -7 9 C-7.33 9.495 -7.33 9.495 -9 12 C-10.32 12 -11.64 12 -13 12 C-13.5 8.812 -13.5 8.812 -13 5 C-9.397 1.459 -5.13 -0.802 0 0 Z " fill="#061A43" transform="translate(1609,2317)"/>
<path d="M0 0 C2.64 0 5.28 0 8 0 C4.646 2.798 1.291 5.105 -2.52 7.234 C-3.541 7.808 -4.563 8.382 -5.615 8.973 C-6.67 9.559 -7.725 10.146 -8.812 10.75 C-9.887 11.352 -10.961 11.954 -12.068 12.574 C-14.71 14.054 -17.354 15.529 -20 17 C-20.33 15.68 -20.66 14.36 -21 13 C-19.68 13 -18.36 13 -17 13 C-17 11.35 -17 9.7 -17 8 C-14.03 8 -11.06 8 -8 8 C-8 6.68 -8 5.36 -8 4 C-5.36 4 -2.72 4 0 4 C0 2.68 0 1.36 0 0 Z " fill="#5A647B" transform="translate(1713,2300)"/>
<path d="M0 0 C0.33 0 0.66 0 1 0 C1 2.97 1 5.94 1 9 C-4.61 9 -10.22 9 -16 9 C-16 10.32 -16 11.64 -16 13 C-17.65 13 -19.3 13 -21 13 C-14.021 4.276 -14.021 4.276 -9.855 3.707 C-9.058 3.639 -8.26 3.57 -7.438 3.5 C-3 3 -3 3 0 0 Z " fill="#15274E" transform="translate(2212,1904)"/>
<path d="M0 0 C0 2.31 0 4.62 0 7 C-1.32 7 -2.64 7 -4 7 C-4 8.32 -4 9.64 -4 11 C-4.416 11.019 -4.416 11.019 -6.52 11.113 C-7.063 11.146 -7.063 11.146 -9.812 11.312 C-10.352 11.342 -10.352 11.342 -13.082 11.488 C-16 12 -16 12 -19 15 C-20.32 14.67 -21.64 14.34 -23 14 C-19.547 11.659 -16.087 9.329 -12.625 7 C-11.64 6.332 -10.655 5.665 -9.641 4.977 C-8.7 4.345 -7.759 3.713 -6.789 3.062 C-5.92 2.476 -5.05 1.889 -4.155 1.285 C-2 0 -2 0 0 0 Z " fill="#112144" transform="translate(2713,1439)"/>
</svg>
