<?xml version="1.0" encoding="UTF-8"?>
<!-- Generator: visioncortex VTracer 0.6.12 -->
<svg version="1.1" xmlns="http://www.w3.org/2000/svg" width="5734" height="3200">
<path d="M0 0 C1.949 -0.028 3.898 -0.056 5.848 -0.083 C6.273 -0.094 6.273 -0.094 8.426 -0.154 C15.299 -0.217 21.728 0.825 27.098 5.445 C28.41 8.132 28.41 8.132 27.973 10.757 C27.124 12.59 26.266 14.418 25.359 16.222 C21.882 23.392 19.688 30.667 17.642 38.344 C15.398 46.646 12.426 54.247 8.43 61.867 C5.066 68.473 3.103 75.269 1.098 82.382 C-1.808 92.254 -5.015 100.436 -10.457 109.167 C-13.719 114.77 -15.355 121.047 -17.12 127.247 C-19.441 135.291 -22.526 142.587 -27.652 149.257 C-31.947 155.506 -33.013 162.832 -34.59 170.132 C-37.109 181.714 -40.269 190.043 -47.09 199.656 C-50.304 204.828 -51.325 210.377 -52.652 216.257 C-55.193 226.649 -58.91 235.205 -64.302 244.403 C-70.245 254.662 -73.577 265.247 -74.59 277.132 C-73.33 281.578 -72.256 283.594 -68.652 286.507 C-64.127 288.908 -60.351 289.258 -55.328 289.262 C-54.059 289.265 -52.79 289.268 -51.483 289.271 C-50.113 289.269 -48.743 289.267 -47.332 289.265 C-45.919 289.266 -44.505 289.267 -43.049 289.268 C-40.055 289.269 -37.061 289.267 -34.066 289.263 C-30.254 289.257 -26.441 289.26 -22.629 289.266 C-18.967 289.271 -15.306 289.268 -11.645 289.265 C-10.966 289.266 -10.966 289.266 -7.53 289.271 C-0.469 289.254 6.397 288.955 13.41 288.132 C15.825 288.004 18.242 287.915 20.66 287.882 C21.8 287.857 22.939 287.831 24.113 287.804 C27.865 288.178 30.215 289.157 33.41 291.132 C37.47 297.572 37.557 303.808 37.544 311.235 C37.546 312.154 37.548 313.073 37.551 314.019 C37.557 317.099 37.556 320.179 37.555 323.259 C37.558 325.467 37.562 327.674 37.566 329.882 C37.574 335.88 37.577 341.878 37.577 347.876 C37.578 352.881 37.582 357.886 37.586 362.891 C37.594 374.698 37.596 386.504 37.595 398.31 C37.595 410.495 37.605 422.68 37.621 434.865 C37.634 445.323 37.64 455.781 37.639 466.239 C37.639 472.486 37.642 478.734 37.652 484.982 C37.662 490.856 37.662 496.73 37.655 502.605 C37.654 504.762 37.656 506.918 37.662 509.075 C37.67 512.018 37.665 514.96 37.657 517.903 C37.663 518.757 37.668 519.612 37.673 520.492 C37.64 526.13 37.133 530.746 33.785 535.382 C28 539.645 20.63 539.422 13.732 539.386 C12.788 539.389 11.843 539.393 10.87 539.396 C7.721 539.404 4.573 539.397 1.424 539.391 C-0.84 539.394 -3.104 539.397 -5.368 539.402 C-11.507 539.411 -17.645 539.407 -23.783 539.401 C-30.211 539.396 -36.639 539.401 -43.067 539.404 C-53.86 539.407 -64.654 539.403 -75.448 539.393 C-87.922 539.382 -100.396 539.386 -112.87 539.397 C-123.585 539.406 -134.301 539.407 -145.016 539.402 C-151.413 539.399 -157.811 539.398 -164.208 539.405 C-170.223 539.411 -176.238 539.407 -182.253 539.395 C-184.458 539.392 -186.664 539.393 -188.87 539.398 C-191.884 539.403 -194.898 539.396 -197.912 539.386 C-198.782 539.391 -199.652 539.395 -200.549 539.4 C-208.149 539.351 -214.883 538.666 -220.59 533.132 C-224.796 524.72 -222.526 511.406 -222.152 502.253 C-221.5 483.602 -221.504 464.953 -221.527 446.292 C-221.529 444.749 -221.53 443.206 -221.532 441.663 C-221.544 430.507 -221.566 419.351 -221.59 408.195 C-221.612 397.771 -221.633 387.346 -221.643 376.922 C-221.649 371.743 -221.662 366.564 -221.677 361.385 C-221.703 347.901 -221.606 334.429 -221.211 320.95 C-221.18 319.763 -221.15 318.577 -221.118 317.354 C-220.721 305.598 -219.719 294.328 -214.902 283.507 C-214.173 281.79 -213.448 280.072 -212.727 278.351 C-212.365 277.489 -212.003 276.626 -211.63 275.738 C-210.287 272.374 -209.16 268.959 -208.036 265.518 C-205.263 257.039 -201.834 249.606 -197.288 241.936 C-194.074 236.379 -191.884 230.792 -189.902 224.695 C-187.4 217.005 -184.308 210.742 -179.59 204.132 C-175.677 198.375 -173.418 193.134 -171.402 186.507 C-168.694 178.141 -165.207 172.202 -159.82 165.226 C-155.979 159.898 -154.433 154.212 -152.719 147.949 C-150.762 141.057 -148.319 135.665 -144.32 129.722 C-139.882 123.08 -137.31 116.445 -135.215 108.757 C-132.812 99.975 -128.992 92.703 -123.566 85.414 C-121.04 81.22 -119.888 76.995 -118.527 72.32 C-116.268 64.988 -113.583 59.03 -109.09 52.82 C-103.663 45.272 -101.209 37.592 -99.047 28.592 C-96.992 20.308 -93.775 12.373 -86.152 7.757 C-85.768 7.525 -85.768 7.525 -83.824 6.347 C-76.752 2.502 -70.565 1.049 -62.566 0.927 C-61.397 0.907 -60.227 0.887 -59.021 0.867 C-57.765 0.85 -56.509 0.833 -55.215 0.816 C-53.899 0.795 -52.584 0.774 -51.229 0.753 C-48.438 0.71 -45.647 0.669 -42.856 0.63 C-38.661 0.571 -34.465 0.506 -30.27 0.439 C-23.596 0.335 -16.923 0.253 -10.25 0.179 C-6.832 0.135 -3.417 0.07 0 0 Z " fill="#96CFE2" transform="translate(1393.58984375,627.86767578125)"/>
<path d="M0 0 C2.25 2.375 2.25 2.375 3.5 5.438 C3.047 12.568 -1.241 18.159 -5.184 23.949 C-9.052 30.126 -10.983 37.126 -13.268 44 C-16.021 52.011 -19.652 58.723 -24.335 65.755 C-28.586 72.381 -30.556 78.911 -32.5 86.5 C-35.014 95.698 -37.889 103.247 -43.306 111.075 C-48.33 118.412 -49.848 126.096 -51.656 134.676 C-54.455 147.692 -59.065 155.61 -67.578 165.695 C-70.082 168.784 -72.208 172.005 -74.266 175.402 C-78.362 180.846 -83.716 182.692 -89.91 184.934 C-95.267 187.653 -97.255 192.194 -99.75 197.438 C-104.831 207.063 -112.221 215.799 -122.75 219.375 C-123.802 219.189 -124.854 219.004 -125.938 218.812 C-126.402 218.74 -126.402 218.74 -128.75 218.375 C-130.812 220 -130.812 220 -132.75 222.375 C-134.417 224.042 -136.083 225.708 -137.75 227.375 C-140.062 226.875 -140.062 226.875 -142.75 225.375 C-143.786 222.722 -144.787 220.055 -145.75 217.375 C-150.178 215.161 -151.892 214.738 -156.75 215.375 C-162.589 218.367 -167.48 221.746 -169.707 228.109 C-169.989 229.105 -170.272 230.1 -170.562 231.125 C-172.423 236.95 -174.642 240.839 -178.75 245.375 C-182.874 246.406 -183.734 246.322 -187.5 244.938 C-188.299 244.65 -189.098 244.363 -189.922 244.066 C-190.525 243.838 -191.128 243.61 -191.75 243.375 C-194.839 246.464 -195.72 248.373 -197.25 252.375 C-198.78 256.377 -199.661 258.286 -202.75 261.375 C-205.375 261.188 -205.375 261.188 -207.75 260.375 C-209.632 256.611 -209.265 252.474 -208.75 248.375 C-207.043 243.643 -204.734 239.584 -201.562 235.688 C-197.017 229.888 -197.325 222.175 -196.875 215.125 C-196.073 204.686 -194.493 196.595 -188.812 187.688 C-184.67 181.11 -182.897 173.786 -180.75 166.375 C-178.468 158.63 -176.079 151.613 -171.875 144.688 C-168.511 139.132 -166.395 133.765 -164.438 127.625 C-162.18 120.626 -159.41 114.708 -155.375 108.562 C-150.404 100.978 -147.093 93.251 -143.958 84.758 C-141.848 79.071 -139.527 73.825 -136.625 68.5 C-133.08 61.747 -131.109 54.992 -129.188 47.625 C-126.837 38.615 -124.196 31.041 -118.75 23.375 C-116.205 19.405 -113.765 15.485 -111.812 11.188 C-109.074 6.125 -106.107 3.378 -100.812 1.125 C-94.231 -0.487 -87.624 -0.873 -80.875 -1.125 C-79.849 -1.164 -78.823 -1.203 -77.767 -1.244 C-66.448 -1.644 -55.125 -1.919 -43.802 -2.175 C-41.618 -2.224 -39.433 -2.276 -37.249 -2.33 C-7.074 -3.065 -7.074 -3.065 0 0 Z " fill="#3D687F" transform="translate(1799.75,631.625)"/>
<path d="M0 0 C1.949 -0.028 3.898 -0.056 5.848 -0.083 C6.273 -0.094 6.273 -0.094 8.426 -0.154 C15.299 -0.217 21.728 0.825 27.098 5.445 C28.41 8.132 28.41 8.132 27.973 10.757 C27.124 12.59 26.266 14.418 25.359 16.222 C21.882 23.392 19.688 30.667 17.642 38.344 C15.398 46.646 12.426 54.247 8.43 61.867 C5.066 68.473 3.103 75.269 1.098 82.382 C-1.808 92.254 -5.015 100.436 -10.457 109.167 C-13.719 114.77 -15.355 121.047 -17.12 127.247 C-19.441 135.291 -22.526 142.587 -27.652 149.257 C-31.947 155.506 -33.013 162.832 -34.59 170.132 C-37.109 181.714 -40.269 190.043 -47.09 199.656 C-50.304 204.828 -51.325 210.377 -52.652 216.257 C-55.193 226.649 -58.91 235.205 -64.302 244.403 C-70.245 254.662 -73.577 265.247 -74.59 277.132 C-73.33 281.578 -72.256 283.594 -68.652 286.507 C-64.127 288.908 -60.351 289.258 -55.328 289.262 C-54.059 289.265 -52.79 289.268 -51.483 289.271 C-50.113 289.269 -48.743 289.267 -47.332 289.265 C-45.919 289.266 -44.505 289.267 -43.049 289.268 C-40.055 289.269 -37.061 289.267 -34.066 289.263 C-30.254 289.257 -26.441 289.26 -22.629 289.266 C-18.967 289.271 -15.306 289.268 -11.645 289.265 C-10.966 289.266 -10.966 289.266 -7.53 289.271 C-0.469 289.254 6.397 288.955 13.41 288.132 C15.825 288.004 18.242 287.915 20.66 287.882 C21.8 287.857 22.939 287.831 24.113 287.804 C27.865 288.178 30.215 289.157 33.41 291.132 C37.47 297.572 37.557 303.808 37.544 311.235 C37.546 312.154 37.548 313.073 37.551 314.019 C37.557 317.099 37.556 320.179 37.555 323.259 C37.558 325.467 37.562 327.674 37.566 329.882 C37.574 335.88 37.577 341.878 37.577 347.876 C37.578 352.881 37.582 357.886 37.586 362.891 C37.594 374.698 37.596 386.504 37.595 398.31 C37.595 410.495 37.605 422.68 37.621 434.865 C37.634 445.323 37.64 455.781 37.639 466.239 C37.639 472.486 37.642 478.734 37.652 484.982 C37.662 490.856 37.662 496.73 37.655 502.605 C37.654 504.762 37.656 506.918 37.662 509.075 C37.67 512.018 37.665 514.96 37.657 517.903 C37.663 518.757 37.668 519.612 37.673 520.492 C37.64 526.13 37.133 530.746 33.785 535.382 C28 539.645 20.63 539.422 13.732 539.386 C12.788 539.389 11.843 539.393 10.87 539.396 C7.721 539.404 4.573 539.397 1.424 539.391 C-0.84 539.394 -3.104 539.397 -5.368 539.402 C-11.507 539.411 -17.645 539.407 -23.783 539.401 C-30.211 539.396 -36.639 539.401 -43.067 539.404 C-53.86 539.407 -64.654 539.403 -75.448 539.393 C-87.922 539.382 -100.396 539.386 -112.87 539.397 C-123.585 539.406 -134.301 539.407 -145.016 539.402 C-151.413 539.399 -157.811 539.398 -164.208 539.405 C-170.223 539.411 -176.238 539.407 -182.253 539.395 C-184.458 539.392 -186.664 539.393 -188.87 539.398 C-191.884 539.403 -194.898 539.396 -197.912 539.386 C-198.782 539.391 -199.652 539.395 -200.549 539.4 C-208.149 539.351 -214.883 538.666 -220.59 533.132 C-224.796 524.72 -222.526 511.406 -222.152 502.253 C-221.5 483.602 -221.504 464.953 -221.527 446.292 C-221.529 444.749 -221.53 443.206 -221.532 441.663 C-221.544 430.507 -221.566 419.351 -221.59 408.195 C-221.612 397.771 -221.633 387.346 -221.643 376.922 C-221.649 371.743 -221.662 366.564 -221.677 361.385 C-221.703 347.901 -221.606 334.429 -221.211 320.95 C-221.18 319.763 -221.15 318.577 -221.118 317.354 C-220.721 305.598 -219.719 294.328 -214.902 283.507 C-214.173 281.79 -213.448 280.072 -212.727 278.351 C-212.365 277.489 -212.003 276.626 -211.63 275.738 C-210.287 272.374 -209.16 268.959 -208.036 265.518 C-205.263 257.039 -201.834 249.606 -197.288 241.936 C-194.074 236.379 -191.884 230.792 -189.902 224.695 C-187.4 217.005 -184.308 210.742 -179.59 204.132 C-175.677 198.375 -173.418 193.134 -171.402 186.507 C-168.694 178.141 -165.207 172.202 -159.82 165.226 C-155.979 159.898 -154.433 154.212 -152.719 147.949 C-150.762 141.057 -148.319 135.665 -144.32 129.722 C-139.882 123.08 -137.31 116.445 -135.215 108.757 C-132.812 99.975 -128.992 92.703 -123.566 85.414 C-121.04 81.22 -119.888 76.995 -118.527 72.32 C-116.268 64.988 -113.583 59.03 -109.09 52.82 C-103.663 45.272 -101.209 37.592 -99.047 28.592 C-96.992 20.308 -93.775 12.373 -86.152 7.757 C-85.768 7.525 -85.768 7.525 -83.824 6.347 C-76.752 2.502 -70.565 1.049 -62.566 0.927 C-61.397 0.907 -60.227 0.887 -59.021 0.867 C-57.765 0.85 -56.509 0.833 -55.215 0.816 C-53.899 0.795 -52.584 0.774 -51.229 0.753 C-48.438 0.71 -45.647 0.669 -42.856 0.63 C-38.661 0.571 -34.465 0.506 -30.27 0.439 C-23.596 0.335 -16.923 0.253 -10.25 0.179 C-6.832 0.135 -3.417 0.07 0 0 Z M-78.59 8.132 C-81.365 9.292 -84.155 10.133 -87.031 11.007 C-89.934 12.284 -91.013 13.414 -92.59 16.132 C-92.59 16.792 -92.59 17.452 -92.59 18.132 C-91.93 18.132 -91.27 18.132 -90.59 18.132 C-91.225 18.616 -91.861 19.099 -92.516 19.597 C-95.346 23.057 -95.459 26.394 -95.777 30.695 C-95.851 31.494 -95.924 32.293 -96 33.116 C-96.211 35.454 -96.401 37.793 -96.59 40.132 C-96.797 42.341 -97.005 44.549 -97.215 46.757 C-97.277 47.479 -97.277 47.479 -97.59 51.132 C-98.25 51.132 -98.91 51.132 -99.59 51.132 C-99.59 51.792 -99.59 52.452 -99.59 53.132 C-99.961 53.256 -99.961 53.256 -101.84 53.882 C-104.82 55.237 -106.489 56.642 -108.59 59.132 C-108.59 59.792 -108.59 60.452 -108.59 61.132 C-109.25 61.132 -109.91 61.132 -110.59 61.132 C-110.879 62.432 -111.167 63.731 -111.465 65.07 C-111.65 65.74 -111.65 65.74 -112.59 69.132 C-112.92 69.297 -112.92 69.297 -114.59 70.132 C-115.066 73.336 -115.433 76.474 -115.715 79.695 C-115.758 80.146 -115.758 80.146 -115.977 82.427 C-116.189 84.661 -116.391 86.897 -116.59 89.132 C-117.25 89.132 -117.91 89.132 -118.59 89.132 C-118.59 90.122 -118.59 91.112 -118.59 92.132 C-119.91 92.462 -121.23 92.792 -122.59 93.132 C-124.84 95.195 -124.84 95.195 -126.59 97.132 C-126.92 96.472 -127.25 95.812 -127.59 95.132 C-127.92 97.772 -128.25 100.412 -128.59 103.132 C-129.58 103.132 -130.57 103.132 -131.59 103.132 C-131.699 104.064 -131.809 104.996 -131.922 105.957 C-134.979 130.536 -134.979 130.536 -142.59 137.132 C-142.59 138.452 -142.59 139.772 -142.59 141.132 C-143.25 141.132 -143.91 141.132 -144.59 141.132 C-144.66 141.792 -144.73 142.452 -144.802 143.133 C-145.131 146.155 -145.485 149.175 -145.84 152.195 C-145.949 153.233 -146.059 154.272 -146.172 155.341 C-146.931 161.632 -148.147 165.827 -151.59 171.132 C-151.84 174.07 -151.84 174.07 -151.59 176.132 C-153.57 176.462 -155.55 176.792 -157.59 177.132 C-157.92 178.452 -158.25 179.772 -158.59 181.132 C-159.91 181.462 -161.23 181.792 -162.59 182.132 C-165.216 189.025 -164.771 195.88 -164.59 203.132 C-165.25 203.462 -165.25 203.462 -168.59 205.132 C-169.609 206.788 -170.608 208.455 -171.59 210.132 C-172.891 211.173 -174.228 212.171 -175.59 213.132 C-179.811 217.152 -182.661 219.989 -183.336 225.878 C-183.451 226.798 -183.567 227.718 -183.686 228.666 C-183.913 230.597 -184.137 232.53 -184.357 234.462 C-184.474 235.383 -184.591 236.304 -184.711 237.253 C-184.808 238.093 -184.905 238.933 -185.006 239.798 C-185.683 242.504 -186.851 243.981 -188.59 246.132 C-188.879 246.978 -189.167 247.824 -189.465 248.695 C-190.899 251.802 -192.69 252.454 -195.59 254.132 C-195.59 255.122 -195.59 256.112 -195.59 257.132 C-196.25 257.132 -196.91 257.132 -197.59 257.132 C-199.441 261.201 -200.136 265.023 -200.715 269.445 C-200.799 270.072 -200.799 270.072 -201.223 273.246 C-201.344 274.198 -201.465 275.151 -201.59 276.132 C-202.25 276.132 -202.91 276.132 -203.59 276.132 C-203.867 277.149 -204.144 278.166 -204.43 279.214 C-205.504 282.843 -206.781 286.295 -208.152 289.82 C-211.984 300.482 -211.753 310.917 -211.59 322.132 C-212.25 322.132 -212.91 322.132 -213.59 322.132 C-213.613 336.215 -213.631 350.299 -213.642 364.382 C-213.647 370.922 -213.654 377.463 -213.665 384.004 C-213.676 390.325 -213.682 396.647 -213.685 402.969 C-213.687 405.371 -213.69 407.773 -213.696 410.175 C-213.745 432.947 -213.745 432.947 -212.818 444.234 C-212.473 448.619 -212.441 452.986 -212.465 457.382 C-212.467 458.323 -212.469 459.263 -212.471 460.232 C-212.523 469.328 -212.81 478.416 -213.09 487.507 C-213.416 498.173 -213.714 508.836 -213.777 519.507 C-213.79 520.522 -213.803 521.537 -213.816 522.583 C-213.823 527.25 -213.734 530.878 -211.59 535.132 C-211.59 535.792 -211.59 536.452 -211.59 537.132 C-201.305 538.023 -191.093 538.28 -180.773 538.265 C-179.094 538.266 -177.415 538.268 -175.735 538.269 C-171.133 538.272 -166.532 538.268 -161.93 538.261 C-159.013 538.257 -156.097 538.255 -153.18 538.253 C-115.547 538.221 -77.915 538.036 -40.283 537.799 C-34.969 537.766 -29.655 537.737 -24.341 537.711 C-17.127 537.675 -9.913 537.628 -2.699 537.574 C-0.009 537.556 2.68 537.541 5.369 537.529 C9.058 537.512 12.746 537.483 16.434 537.451 C17.526 537.449 18.618 537.447 19.744 537.445 C20.732 537.433 21.721 537.422 22.74 537.411 C23.599 537.405 24.458 537.4 25.344 537.394 C27.41 537.132 27.41 537.132 29.41 535.132 C29.535 532.507 29.535 532.507 29.41 530.132 C30.07 530.132 30.73 530.132 31.41 530.132 C31.504 499.431 31.574 468.729 31.617 438.028 C31.638 423.773 31.666 409.519 31.712 395.264 C31.752 382.843 31.778 370.422 31.787 358 C31.792 351.421 31.804 344.841 31.833 338.261 C31.86 332.073 31.869 325.884 31.863 319.695 C31.864 317.42 31.872 315.145 31.887 312.87 C31.907 309.77 31.902 306.672 31.891 303.573 C31.897 303.12 31.897 303.12 31.926 300.826 C31.89 297.065 31.799 294.674 29.573 291.57 C26.509 289.533 24.312 289.683 20.652 289.754 C19.271 289.771 17.891 289.788 16.468 289.806 C14.955 289.845 13.443 289.885 11.93 289.925 C10.359 289.953 8.788 289.978 7.216 290.003 C3.061 290.071 -1.093 290.165 -5.247 290.263 C-9.377 290.356 -13.508 290.423 -17.639 290.494 C-35.298 290.808 -52.945 291.322 -70.59 292.132 C-70.59 291.472 -70.59 290.812 -70.59 290.132 C-71.58 290.132 -72.57 290.132 -73.59 290.132 C-74.25 288.812 -74.91 287.492 -75.59 286.132 C-76.91 285.802 -78.23 285.472 -79.59 285.132 C-79.59 279.852 -79.59 274.572 -79.59 269.132 C-78.93 269.132 -78.27 269.132 -77.59 269.132 C-76.916 266.405 -76.251 263.676 -75.59 260.945 C-75.399 260.176 -75.208 259.407 -75.012 258.615 C-74.077 254.724 -73.333 251.142 -73.59 247.132 C-72.93 247.132 -72.27 247.132 -71.59 247.132 C-71.252 246.133 -70.914 245.134 -70.566 244.105 C-70.12 242.815 -69.674 241.524 -69.215 240.195 C-68.994 239.551 -68.994 239.551 -67.879 236.292 C-66.59 233.132 -66.59 233.132 -64.59 232.132 C-64.59 231.472 -64.59 230.812 -64.59 230.132 C-63.93 230.132 -63.27 230.132 -62.59 230.132 C-59.59 224.382 -59.59 224.382 -59.59 222.132 C-58.93 222.132 -58.27 222.132 -57.59 222.132 C-57.408 220.758 -57.226 219.384 -57.039 217.968 C-56.786 216.148 -56.532 214.328 -56.277 212.507 C-56.159 211.604 -56.041 210.7 -55.92 209.769 C-54.963 203.046 -53.409 197.754 -48.652 192.695 C-39.813 182.65 -39.324 171.353 -38.467 158.548 C-38.067 153.602 -37.569 150.265 -34.59 146.132 C-34.59 145.472 -34.59 144.812 -34.59 144.132 C-33.682 144.009 -32.775 143.885 -31.84 143.757 C-27.466 141.57 -26.841 139.169 -25.27 134.687 C-24.488 131.749 -24.271 129.158 -24.59 126.132 C-23.93 126.132 -23.27 126.132 -22.59 126.132 C-21.93 119.202 -21.27 112.272 -20.59 105.132 C-19.93 105.132 -19.27 105.132 -18.59 105.132 C-18.59 103.812 -18.59 102.492 -18.59 101.132 C-16.94 101.132 -15.29 101.132 -13.59 101.132 C-12.406 98.954 -11.243 96.764 -10.09 94.57 C-9.44 93.352 -8.79 92.133 -8.121 90.878 C-6.522 86.967 -6.289 84.31 -6.59 80.132 C-5.93 80.132 -5.27 80.132 -4.59 80.132 C-4.396 78.83 -4.203 77.528 -4.004 76.187 C-3.741 74.46 -3.478 72.734 -3.215 71.007 C-3.089 70.151 -2.962 69.295 -2.832 68.414 C-2.122 63.801 -1.245 59.522 0.41 55.132 C1.07 55.132 1.73 55.132 2.41 55.132 C2.41 53.812 2.41 52.492 2.41 51.132 C3.07 51.132 3.73 51.132 4.41 51.132 C4.493 50.39 4.575 49.647 4.66 48.882 C5.568 45.552 6.995 44.548 9.41 42.132 C12.953 34.652 13.664 28.612 14.031 20.406 C14.156 19.326 14.281 18.245 14.41 17.132 C15.07 16.802 15.73 16.472 16.41 16.132 C16.41 13.822 16.41 11.512 16.41 9.132 C13.77 8.142 11.13 7.152 8.41 6.132 C9.895 5.967 9.895 5.967 17.41 5.132 C17.41 4.802 17.41 4.472 17.41 4.132 C7.975 3.083 -1.374 2.986 -10.859 3 C-12.511 2.999 -14.162 2.998 -15.814 2.997 C-19.254 2.995 -22.694 2.997 -26.134 3.002 C-30.533 3.008 -34.932 3.004 -39.331 2.998 C-42.732 2.995 -46.134 2.996 -49.535 2.999 C-51.157 2.999 -52.78 2.998 -54.402 2.996 C-56.667 2.993 -58.933 2.998 -61.198 3.003 C-61.841 3.003 -61.841 3.003 -65.095 3.005 C-71.349 3.233 -74.264 3.609 -78.59 8.132 Z " fill="#8CBCCE" transform="translate(1393.58984375,627.86767578125)"/>
<path d="M0 0 C0.165 0.66 0.165 0.66 1 4 C-0.398 6 -0.398 6 -2.375 8 C-5.237 10.919 -5.964 11.855 -7 16 C-7.66 16 -8.32 16 -9 16 C-8.959 17.196 -8.918 18.393 -8.875 19.625 C-8.905 29.144 -9.701 37.967 -15 46 C-15.75 48.938 -15.75 48.938 -16 51 C-17.98 51.33 -19.96 51.66 -22 52 C-22.33 53.32 -22.66 54.64 -23 56 C-23.99 56.33 -24.98 56.66 -26 57 C-28.406 62.748 -28.277 68.656 -28.363 74.793 C-29.171 78.864 -30.665 79.701 -34 82 C-34.309 82.846 -34.619 83.691 -34.938 84.562 C-36.433 87.993 -38.713 88.356 -42 90 C-46.433 95.142 -46.894 100.127 -47.562 106.625 C-47.761 108.493 -47.97 110.361 -48.191 112.227 C-48.276 113.047 -48.36 113.868 -48.448 114.713 C-49.098 117.404 -50.275 118.865 -52 121 C-52.144 121.423 -52.144 121.423 -52.875 123.562 C-54.313 126.679 -56.068 127.346 -59 129 C-59.33 129.99 -59.66 130.98 -60 132 C-60.66 132 -61.32 132 -62 132 C-62.121 132.701 -62.242 133.403 -62.367 134.125 C-63.373 139.82 -64.523 145.409 -66 151 C-66.66 151 -67.32 151 -68 151 C-67.918 151.804 -67.835 152.609 -67.75 153.438 C-68.032 157.454 -69.181 160.082 -70.93 163.656 C-73.102 168.414 -74.257 172.842 -74.633 178.055 C-74.717 179.163 -74.8 180.272 -74.887 181.414 C-74.965 182.556 -75.044 183.698 -75.125 184.875 C-75.211 186.04 -75.298 187.206 -75.387 188.406 C-75.598 191.27 -75.802 194.135 -76 197 C-76.66 197 -77.32 197 -78 197 C-77.892 211.083 -77.779 225.166 -77.661 239.249 C-77.606 245.79 -77.552 252.331 -77.503 258.871 C-77.455 265.193 -77.402 271.515 -77.347 277.837 C-77.327 280.239 -77.308 282.641 -77.291 285.042 C-77.127 307.824 -77.127 307.824 -76.221 319.102 C-75.887 323.487 -75.851 327.854 -75.875 332.25 C-75.877 333.191 -75.879 334.131 -75.881 335.1 C-75.933 344.196 -76.22 353.284 -76.5 362.375 C-76.826 373.041 -77.124 383.704 -77.188 394.375 C-77.2 395.39 -77.213 396.405 -77.227 397.451 C-77.238 405.842 -77.238 405.842 -75 410 C-76 411 -76 411 -78.812 411.375 C-82 411 -82 411 -84.151 408.875 C-89.535 400.503 -86.954 386.707 -86.562 377.121 C-85.911 358.47 -85.915 339.821 -85.938 321.16 C-85.939 319.617 -85.941 318.074 -85.942 316.53 C-85.954 305.374 -85.976 294.218 -86 283.062 C-86.022 272.638 -86.043 262.214 -86.053 251.79 C-86.059 246.611 -86.073 241.432 -86.088 236.252 C-86.113 222.769 -86.016 209.296 -85.621 195.818 C-85.59 194.631 -85.56 193.444 -85.528 192.221 C-85.131 180.465 -84.129 169.195 -79.312 158.375 C-78.583 156.658 -77.858 154.939 -77.137 153.219 C-76.775 152.356 -76.413 151.494 -76.041 150.605 C-74.697 147.242 -73.57 143.826 -72.446 140.385 C-69.656 131.856 -66.198 124.344 -61.644 116.617 C-57.301 109.119 -54.568 101.248 -52 93 C-50.68 93 -49.36 93 -48 93 C-47.979 92.092 -47.959 91.185 -47.938 90.25 C-47 87 -47 87 -43.75 85 C-43.131 84.67 -43.131 84.67 -40 83 C-33.535 77.122 -32.316 68.881 -31.5 60.5 C-31 57.003 -30.527 55.426 -28 53 C-27.34 53 -26.68 53 -26 53 C-25.34 51.68 -24.68 50.36 -24 49 C-23.393 48.332 -22.786 47.665 -22.16 46.977 C-14.165 38.014 -13.973 27.478 -13 16 C-12.01 15.67 -11.02 15.34 -10 15 C-9.67 13.02 -9.34 11.04 -9 9 C-7.68 9 -6.36 9 -5 9 C-4.918 8.258 -4.835 7.515 -4.75 6.75 C-3.86 3.488 -2.515 2.19 0 0 Z " fill="#8EC2D5" transform="translate(1258,753)"/>
<path d="M0 0 C2.25 2.375 2.25 2.375 3.5 5.438 C3.047 12.568 -1.241 18.159 -5.184 23.949 C-9.052 30.126 -10.983 37.126 -13.268 44 C-16.021 52.011 -19.652 58.723 -24.335 65.755 C-28.586 72.381 -30.556 78.911 -32.5 86.5 C-35.014 95.698 -37.889 103.247 -43.306 111.075 C-48.33 118.412 -49.848 126.096 -51.656 134.676 C-54.455 147.692 -59.065 155.61 -67.578 165.695 C-69.573 168.156 -71.302 170.643 -73 173.312 C-75.184 176.698 -77.302 179.172 -80.75 181.375 C-81.41 181.375 -82.07 181.375 -82.75 181.375 C-82.75 179.725 -82.75 178.075 -82.75 176.375 C-81.76 176.045 -80.77 175.715 -79.75 175.375 C-78.398 173.414 -78.398 173.414 -77.125 171 C-76.7 170.209 -76.274 169.417 -75.836 168.602 C-74.75 166.375 -74.75 166.375 -73.75 163.375 C-72.616 162.467 -71.481 161.56 -70.312 160.625 C-66.621 157.625 -65.842 155.016 -64.75 150.375 C-63.76 150.045 -62.77 149.715 -61.75 149.375 C-61.42 148.055 -61.09 146.735 -60.75 145.375 C-60.09 144.055 -59.43 142.735 -58.75 141.375 C-58.368 138.469 -58.061 135.604 -57.812 132.688 C-56.257 116.882 -56.257 116.882 -50.75 111.375 C-48.416 108.166 -46.738 105.343 -45.312 101.625 C-43.75 98.375 -43.75 98.375 -41.062 96.938 C-40.299 96.752 -39.536 96.566 -38.75 96.375 C-38.773 95.734 -38.796 95.094 -38.82 94.434 C-38.934 88.992 -38.518 84.582 -36.75 79.375 C-36.564 78.725 -36.564 78.725 -35.625 75.438 C-35.336 74.427 -35.048 73.416 -34.75 72.375 C-34.09 72.375 -33.43 72.375 -32.75 72.375 C-32.709 71.571 -32.668 70.766 -32.625 69.938 C-31.602 65.773 -29.825 63.168 -27.375 59.699 C-25.807 57.456 -24.399 55.164 -23 52.812 C-22.629 52.245 -22.629 52.245 -20.75 49.375 C-20.09 49.375 -19.43 49.375 -18.75 49.375 C-18.629 48.662 -18.508 47.949 -18.383 47.215 C-17.248 40.728 -15.902 34.51 -13.625 28.312 C-12.75 25.375 -12.75 25.375 -12.875 22.375 C-12.709 18.392 -11.223 16.429 -8.75 13.375 C-8.09 13.375 -7.43 13.375 -6.75 13.375 C-4.947 9.768 -4.284 7.291 -3.75 3.375 C-14.921 3.329 -26.091 3.293 -37.262 3.271 C-42.45 3.261 -47.637 3.247 -52.825 3.224 C-57.837 3.202 -62.849 3.19 -67.861 3.185 C-69.768 3.182 -71.674 3.174 -73.581 3.164 C-100.025 3.019 -100.025 3.019 -105.75 8.375 C-105.892 9.437 -106.034 10.499 -106.18 11.594 C-107.416 19.789 -112.284 26.978 -117.938 32.875 C-123.698 39.582 -124.151 48.674 -125.283 57.152 C-125.75 59.375 -125.75 59.375 -127.75 63.375 C-128.063 64.971 -128.332 66.577 -128.562 68.188 C-129.525 73.431 -131.527 76.185 -134.75 80.375 C-135.812 83.188 -135.812 83.188 -136.75 86.375 C-137.404 88.047 -138.072 89.713 -138.75 91.375 C-140.22 95.005 -141.57 98.638 -142.75 102.375 C-143.41 102.375 -144.07 102.375 -144.75 102.375 C-144.853 103.138 -144.956 103.901 -145.062 104.688 C-145.75 107.375 -145.75 107.375 -148.75 110.375 C-149.74 110.705 -150.73 111.035 -151.75 111.375 C-153.438 114.438 -153.438 114.438 -154.75 117.375 C-155.41 117.375 -156.07 117.375 -156.75 117.375 C-156.853 118.674 -156.956 119.974 -157.062 121.312 C-157.519 125.49 -158.571 129.099 -159.988 133.039 C-161.066 136.345 -161.693 139.697 -162.32 143.113 C-162.72 145.217 -163.231 147.298 -163.75 149.375 C-165.07 149.705 -166.39 150.035 -167.75 150.375 C-169.087 153.401 -169.72 156.167 -170.188 159.438 C-170.75 162.375 -170.75 162.375 -172.242 164.477 C-174.311 168.453 -174.316 172.3 -174.438 176.688 C-174.455 177.105 -174.455 177.105 -174.541 179.221 C-174.623 181.272 -174.688 183.323 -174.75 185.375 C-176.07 185.375 -177.39 185.375 -178.75 185.375 C-178.75 186.695 -178.75 188.015 -178.75 189.375 C-179.637 189.602 -180.524 189.829 -181.438 190.062 C-185.928 191.842 -188.614 193.993 -190.727 198.422 C-192.611 203.529 -192.926 207.909 -192.75 213.375 C-193.042 215.714 -193.363 218.05 -193.75 220.375 C-194.74 220.045 -195.73 219.715 -196.75 219.375 C-196.45 207.408 -195.347 197.842 -188.812 187.688 C-184.67 181.11 -182.897 173.786 -180.75 166.375 C-178.468 158.63 -176.079 151.613 -171.875 144.688 C-168.511 139.132 -166.395 133.765 -164.438 127.625 C-162.18 120.626 -159.41 114.708 -155.375 108.562 C-150.404 100.978 -147.093 93.251 -143.958 84.758 C-141.848 79.071 -139.527 73.825 -136.625 68.5 C-133.08 61.747 -131.109 54.992 -129.188 47.625 C-126.837 38.615 -124.196 31.041 -118.75 23.375 C-116.205 19.405 -113.765 15.485 -111.812 11.188 C-109.074 6.125 -106.107 3.378 -100.812 1.125 C-94.231 -0.487 -87.624 -0.873 -80.875 -1.125 C-80.362 -1.145 -80.362 -1.145 -77.767 -1.244 C-66.448 -1.644 -55.125 -1.919 -43.802 -2.175 C-41.618 -2.224 -39.433 -2.276 -37.249 -2.33 C-7.074 -3.065 -7.074 -3.065 0 0 Z " fill="#3A6278" transform="translate(1799.75,631.625)"/>
<path d="M0 0 C0.33 0 0.66 0 1 0 C1 3.96 1 7.92 1 12 C0.01 12 -0.98 12 -2 12 C-2 15.3 -2 18.6 -2 22 C-2.99 22.33 -3.98 22.66 -5 23 C-5.66 24.32 -6.32 25.64 -7 27 C-7.33 27.66 -7.66 28.32 -8 29 C-8.99 29 -9.98 29 -11 29 C-11.124 29.763 -11.247 30.526 -11.375 31.312 C-12 34 -12 34 -14 37 C-14.437 38.714 -14.808 40.447 -15.125 42.188 C-15.293 43.089 -15.46 43.99 -15.633 44.918 C-15.754 45.605 -15.875 46.292 -16 47 C-16.33 47 -16.66 47 -17 47 C-17.075 47.886 -17.15 48.771 -17.227 49.684 C-18.205 58.898 -20.375 66.695 -23.66 75.32 C-30.348 93.687 -27.206 117.184 -27.303 136.484 C-27.326 140.72 -27.353 144.957 -27.379 149.194 C-27.423 156.328 -27.464 163.462 -27.503 170.597 C-27.542 177.823 -27.583 185.049 -27.628 192.274 C-27.633 193.158 -27.639 194.042 -27.644 194.953 C-27.655 196.732 -27.666 198.51 -27.677 200.289 C-27.776 216.42 -27.863 232.551 -27.936 248.682 C-27.973 256.845 -28.018 265.008 -28.075 273.171 C-28.103 277.346 -28.122 281.52 -28.139 285.695 C-28.148 287.507 -28.16 289.319 -28.176 291.13 C-28.247 299.317 -28.306 307.075 -26 315 C-30 315 -30 315 -31.705 313.395 C-36.315 304.868 -33.946 291.518 -33.562 282.121 C-32.911 263.47 -32.915 244.821 -32.938 226.16 C-32.939 224.617 -32.941 223.074 -32.942 221.53 C-32.954 210.374 -32.976 199.218 -33 188.062 C-33.022 177.638 -33.043 167.214 -33.053 156.79 C-33.059 151.611 -33.073 146.432 -33.088 141.252 C-33.113 127.769 -33.016 114.296 -32.621 100.818 C-32.59 99.631 -32.56 98.444 -32.528 97.221 C-32.131 85.465 -31.129 74.195 -26.312 63.375 C-25.583 61.658 -24.858 59.939 -24.137 58.219 C-23.775 57.356 -23.413 56.494 -23.041 55.605 C-21.697 52.242 -20.57 48.826 -19.446 45.384 C-16.64 36.807 -13.15 29.25 -8.573 21.477 C-4.598 14.616 -2.143 7.647 0 0 Z " fill="#87B7CA" transform="translate(1205,848)"/>
<path d="M0 0 C0.33 0 0.66 0 1 0 C1 2.97 1 5.94 1 9 C0.278 9.165 -0.444 9.33 -1.188 9.5 C-6.073 12.105 -8.183 16.71 -9.98 21.75 C-10.708 24.156 -11.386 26.563 -12 29 C-10.02 29 -8.04 29 -6 29 C-6.33 37.25 -6.66 45.5 -7 54 C-8.32 54 -9.64 54 -11 54 C-11 52.68 -11 51.36 -11 50 C-11.66 50.165 -11.66 50.165 -15 51 C-14.979 52.423 -14.959 53.846 -14.938 55.312 C-14.894 58.301 -15.039 60.118 -16 63 C-17.155 63.165 -17.155 63.165 -23 64 C-23.33 64.99 -23.66 65.98 -24 67 C-24.846 67.825 -25.691 68.65 -26.562 69.5 C-29 72 -29 72 -29 75 C-29.457 76.576 -29.961 78.138 -30.5 79.688 C-30.778 80.496 -31.057 81.304 -31.344 82.137 C-31.56 82.752 -31.777 83.366 -32 84 C-30.68 84 -29.36 84 -28 84 C-28 85.32 -28 86.64 -28 88 C-29.155 87.959 -30.31 87.918 -31.5 87.875 C-35.917 88.395 -37.668 90.375 -40.438 93.75 C-43.045 97.159 -44.454 99.725 -45 104 C-43.68 104 -42.36 104 -41 104 C-39.875 109.625 -39.875 109.625 -41 113 C-39.02 113 -37.04 113 -35 113 C-35.33 115.64 -35.66 118.28 -36 121 C-40.363 122.091 -44.518 122.076 -49 122 C-49.33 119.03 -49.66 116.06 -50 113 C-49.34 113 -48.68 113 -48 113 C-48.035 112.203 -48.07 111.407 -48.105 110.586 C-48.382 99.781 -48.382 99.781 -45 95 C-43.355 93.312 -41.687 91.646 -40 90 C-35.577 84.84 -34.145 80.461 -32.676 73.855 C-31.845 70.343 -30.538 67.261 -29 64 C-28.691 63.27 -28.381 62.541 -28.062 61.789 C-26.538 58.205 -25.089 55.124 -22.812 51.938 C-20.547 48.266 -20.459 45.26 -20 41 C-19.515 39.942 -19.031 38.883 -18.531 37.793 C-17.103 34.256 -16.608 31.316 -16.279 27.542 C-15.527 19.579 -14.198 15.178 -7.938 9.688 C-6.874 8.887 -5.811 8.086 -4.715 7.262 C-1.903 4.919 -0.988 3.467 0 0 Z " fill="#416E86" transform="translate(1691,654)"/>
<path d="M0 0 C4.285 4.285 4.23 11.134 4.267 16.894 C4.263 17.742 4.259 18.59 4.254 19.464 C4.257 20.385 4.26 21.306 4.263 22.256 C4.271 25.326 4.265 28.397 4.259 31.467 C4.262 33.675 4.265 35.884 4.269 38.092 C4.279 44.077 4.275 50.062 4.269 56.048 C4.264 62.314 4.268 68.579 4.271 74.845 C4.275 85.365 4.27 95.885 4.261 106.404 C4.25 118.567 4.253 130.73 4.264 142.893 C4.273 153.338 4.275 163.783 4.27 174.228 C4.266 180.466 4.266 186.704 4.273 192.941 C4.278 198.803 4.274 204.665 4.263 210.527 C4.26 212.679 4.261 214.831 4.265 216.983 C4.271 219.919 4.264 222.855 4.254 225.79 C4.258 226.643 4.263 227.495 4.267 228.374 C4.232 233.817 3.43 238.139 1 243 C0.01 242.67 -0.98 242.34 -2 242 C-1.67 241.67 -1.34 241.34 -1 241 C-0.89 237.903 -0.845 234.828 -0.842 231.73 C-0.837 230.745 -0.832 229.76 -0.827 228.746 C-0.811 225.418 -0.803 222.091 -0.795 218.763 C-0.785 216.389 -0.775 214.014 -0.765 211.64 C-0.738 205.171 -0.717 198.702 -0.697 192.234 C-0.675 185.482 -0.647 178.73 -0.621 171.978 C-0.571 159.182 -0.526 146.387 -0.483 133.591 C-0.433 119.028 -0.378 104.464 -0.323 89.901 C-0.209 59.934 -0.102 29.967 0 0 Z " fill="#7FADBE" transform="translate(1427,920)"/>
<path d="M0 0 C1.466 -0.003 2.931 -0.006 4.441 -0.01 C6.032 -0.008 7.623 -0.006 9.214 -0.003 C10.861 -0.004 12.507 -0.005 14.154 -0.006 C17.603 -0.008 21.052 -0.006 24.5 -0.001 C28.894 0.005 33.287 0.001 37.68 -0.005 C41.081 -0.008 44.483 -0.007 47.885 -0.004 C49.503 -0.004 51.121 -0.005 52.739 -0.007 C61.432 -0.017 69.966 0.168 78.609 1.129 C78.609 1.459 78.609 1.789 78.609 2.129 C75.144 2.294 75.144 2.294 57.609 3.129 C57.609 3.459 57.609 3.789 57.609 4.129 C49.908 4.299 42.208 4.459 34.507 4.612 C31.893 4.665 29.28 4.72 26.666 4.778 C-1.202 5.39 -1.202 5.39 -13.391 4.129 C-13.391 4.789 -13.391 5.449 -13.391 6.129 C-14.629 6.645 -15.866 7.161 -17.141 7.692 C-21.636 9.911 -23.18 12.625 -25.391 17.129 C-26.381 18.119 -27.371 19.109 -28.391 20.129 C-29.051 20.129 -29.711 20.129 -30.391 20.129 C-30.365 20.861 -30.339 21.592 -30.312 22.345 C-30.208 25.669 -30.143 28.992 -30.079 32.317 C-30.037 33.467 -29.995 34.618 -29.952 35.803 C-29.827 44.397 -29.827 44.397 -32.817 48.278 C-33.667 48.889 -34.516 49.5 -35.391 50.129 C-36.41 51.785 -37.409 53.452 -38.391 55.129 C-39.258 56.14 -40.124 57.151 -41.016 58.192 C-43.391 61.129 -43.391 61.129 -44.391 65.129 C-44.886 65.459 -44.886 65.459 -47.391 67.129 C-47.903 69.336 -47.903 69.336 -48.079 71.942 C-48.145 72.794 -48.21 73.646 -48.278 74.524 C-48.388 77.063 -48.414 79.588 -48.391 82.129 C-49.381 82.129 -50.371 82.129 -51.391 82.129 C-51.721 83.449 -52.051 84.769 -52.391 86.129 C-54.058 87.796 -55.725 89.463 -57.391 91.129 C-57.886 92.181 -58.381 93.233 -58.891 94.317 C-60.391 97.129 -60.391 97.129 -62.954 98.004 C-63.758 98.376 -64.563 98.747 -65.391 99.129 C-66.704 103.254 -66.704 103.254 -67.391 107.129 C-68.051 107.129 -68.711 107.129 -69.391 107.129 C-69.44 107.793 -69.489 108.457 -69.54 109.141 C-70.282 117.911 -70.282 117.911 -72.391 122.129 C-73.391 118.129 -73.391 118.129 -72.391 115.129 C-72.008 112.571 -71.658 110.008 -71.329 107.442 C-71.152 106.077 -70.976 104.712 -70.794 103.305 C-70.661 102.257 -70.528 101.209 -70.391 100.129 C-69.401 100.129 -68.411 100.129 -67.391 100.129 C-67.061 97.489 -66.731 94.849 -66.391 92.129 C-66.061 92.789 -65.731 93.449 -65.391 94.129 C-64.628 93.304 -63.865 92.479 -63.079 91.629 C-60.391 89.129 -60.391 89.129 -57.391 89.129 C-57.391 88.139 -57.391 87.149 -57.391 86.129 C-56.731 86.129 -56.071 86.129 -55.391 86.129 C-55.27 84.769 -55.149 83.409 -55.024 82.008 C-54.855 80.236 -54.686 78.464 -54.516 76.692 C-54.438 75.794 -54.359 74.896 -54.278 73.971 C-54.054 71.683 -53.73 69.404 -53.391 67.129 C-53.061 66.964 -53.061 66.964 -51.391 66.129 C-50.658 63.48 -49.988 60.813 -49.391 58.129 C-48.731 58.129 -48.071 58.129 -47.391 58.129 C-46.731 56.809 -46.071 55.489 -45.391 54.129 C-40.947 50.129 -40.947 50.129 -38.391 50.129 C-38.391 49.469 -38.391 48.809 -38.391 48.129 C-37.731 48.129 -37.071 48.129 -36.391 48.129 C-35.23 39.346 -34.178 30.664 -33.93 21.801 C-33.261 18.484 -31.946 17.267 -29.391 15.129 C-30.051 15.129 -30.711 15.129 -31.391 15.129 C-30.829 12.817 -30.829 12.817 -29.391 10.129 C-26.266 8.567 -26.266 8.567 -22.391 7.129 C-14.63 3.606 -14.63 3.606 -13.391 1.129 C-8.926 0.07 -4.573 0.003 0 0 Z " fill="#93C6D9" transform="translate(1332.391357421875,630.87060546875)"/>
<path d="M0 0 C0.33 0 0.66 0 1 0 C3.023 7.935 0.448 13.772 -3 21 C-4.103 22.826 -5.228 24.639 -6.375 26.438 C-10.326 32.87 -12.35 39.702 -14.427 46.908 C-16.804 55.012 -19.891 62.395 -25.062 69.125 C-29.357 75.374 -30.424 82.699 -32 90 C-34.519 101.581 -37.679 109.91 -44.5 119.523 C-47.714 124.696 -48.735 130.245 -50.062 136.125 C-52.603 146.516 -56.321 155.072 -61.712 164.271 C-68.225 175.513 -73.951 189.885 -71 203 C-71.66 202.67 -72.32 202.34 -73 202 C-73 201.34 -73 200.68 -73 200 C-73.66 200 -74.32 200 -75 200 C-75.285 192.309 -73.859 185.436 -72 178 C-71.34 178 -70.68 178 -70 178 C-69.943 177.651 -69.943 177.651 -69.656 175.887 C-68.925 172.668 -67.797 169.846 -66.5 166.812 C-66.057 165.767 -65.613 164.722 -65.156 163.645 C-64.472 162.081 -63.763 160.527 -63 159 C-62.34 159 -61.68 159 -61 159 C-60.835 158.34 -60.835 158.34 -60 155 C-59.34 155 -58.68 155 -58 155 C-58 153.68 -58 152.36 -58 151 C-57.34 151 -56.68 151 -56 151 C-55.951 149.912 -55.902 148.824 -55.852 147.703 C-54.493 121.008 -54.493 121.008 -45.488 110.773 C-40.657 105.017 -39.107 99.236 -38 92 C-37.01 92 -36.02 92 -35 92 C-34.89 90.77 -34.781 89.54 -34.668 88.273 C-34.508 86.641 -34.348 85.008 -34.188 83.375 C-34.117 82.567 -34.047 81.759 -33.975 80.926 C-33.234 73.639 -30.914 68.528 -26 63 C-25.01 62.34 -24.02 61.68 -23 61 C-22.34 59.68 -21.68 58.36 -21 57 C-20.34 57 -19.68 57 -19 57 C-18.902 55.779 -18.804 54.559 -18.703 53.301 C-16.865 32.352 -16.865 32.352 -13 25 C-11.68 24.67 -10.36 24.34 -9 24 C-5.921 20.092 -5.056 15.795 -4 11 C-3.34 11 -2.68 11 -2 11 C-1.856 9.742 -1.711 8.484 -1.562 7.188 C-1 3 -1 3 0 0 Z " fill="#82B1C2" transform="translate(1391,708)"/>
<path d="M0 0 C1.143 4.572 0.531 8.038 -0.312 12.562 C-0.443 13.33 -0.574 14.098 -0.709 14.889 C-1.359 18.49 -1.947 20.921 -4 24 C-4.66 24 -5.32 24 -6 24 C-6.165 24.495 -6.165 24.495 -7 27 C-7.66 27 -8.32 27 -9 27 C-9.124 27.908 -9.247 28.815 -9.375 29.75 C-10.04 33.209 -11.435 35.869 -13 39 C-13.99 39 -14.98 39 -16 39 C-16.037 39.978 -16.075 40.957 -16.113 41.965 C-16.49 49.478 -16.895 56.1 -20 63 C-22.125 64.812 -22.125 64.812 -24 66 C-24.165 66.66 -24.165 66.66 -25 70 C-26.32 70 -27.64 70 -29 70 C-29.062 70.485 -29.062 70.485 -29.375 72.938 C-29.581 73.948 -29.787 74.959 -30 76 C-30.33 76.165 -30.33 76.165 -32 77 C-32.36 78.943 -32.36 78.943 -32.535 81.488 C-33.731 94.994 -36.006 103.023 -45.852 112.848 C-50.864 118.07 -51.105 123.126 -52 130 C-53.307 137.699 -55.922 141.6 -61.941 146.602 C-64 148 -64 148 -66 148 C-66.66 149.98 -67.32 151.96 -68 154 C-69.32 153.67 -70.64 153.34 -72 153 C-71.128 151.519 -70.252 150.04 -69.375 148.562 C-68.888 147.739 -68.4 146.915 -67.898 146.066 C-66.839 144.355 -65.754 142.656 -64.582 141.02 C-60.573 135.363 -58.342 129.889 -56.25 123.312 C-53.317 114.629 -49.829 108.277 -44.195 101.023 C-40.357 95.737 -38.833 90.044 -37.129 83.816 C-35.173 76.925 -32.729 71.532 -28.73 65.59 C-24.293 58.948 -21.72 52.312 -19.625 44.625 C-17.217 35.827 -13.364 28.592 -7.988 21.254 C-5.513 17.204 -4.16 13.135 -2.75 8.625 C-2.482 7.794 -2.214 6.962 -1.938 6.105 C-1.283 4.073 -0.641 2.037 0 0 Z " fill="#86B3C3" transform="translate(1278,692)"/>
<path d="M0 0 C0.99 0 1.98 0 3 0 C3 0.66 3 1.32 3 2 C2.01 2.99 1.02 3.98 0 5 C-1.168 7.918 -1.168 7.918 -2.188 11.188 C-2.532 12.274 -2.876 13.361 -3.23 14.48 C-3.484 15.312 -3.738 16.143 -4 17 C-4.66 17 -5.32 17 -6 17 C-6.103 18.403 -6.206 19.805 -6.312 21.25 C-6.905 27.335 -8.392 33.114 -10 39 C-10.66 39 -11.32 39 -12 39 C-12 44.28 -12 49.56 -12 55 C-10.35 55.66 -8.7 56.32 -7 57 C-6.67 57.99 -6.34 58.98 -6 60 C-5.01 60 -4.02 60 -3 60 C-3 60.66 -3 61.32 -3 62 C-1.637 61.934 -0.274 61.869 1.131 61.801 C19.934 60.947 38.738 60.692 57.557 60.468 C61.795 60.417 66.033 60.361 70.271 60.307 C78.514 60.201 86.757 60.099 95 60 C95 60.33 95 60.66 95 61 C94.085 61.026 93.17 61.052 92.227 61.078 C91.632 61.106 91.632 61.106 88.625 61.25 C87.442 61.296 86.258 61.343 85.039 61.391 C84.036 61.592 83.033 61.793 82 62 C81.34 63.32 80.68 64.64 80 66 C76.4 67.8 72.015 66.779 68.062 66.562 C58.449 66.094 48.865 65.964 39.242 66 C38.678 66.002 38.678 66.002 35.825 66.011 C30.087 66.034 24.349 66.072 18.612 66.125 C16.448 66.137 14.285 66.149 12.121 66.16 C11.134 66.174 10.148 66.187 9.131 66.201 C3.106 66.223 -2.165 65.518 -8 64 C-8 63.01 -8 62.02 -8 61 C-8.99 60.67 -9.98 60.34 -11 60 C-11.99 59.01 -12.98 58.02 -14 57 C-14 56.34 -14 55.68 -14 55 C-14.66 55 -15.32 55 -16 55 C-16.326 48.545 -16.07 43.232 -13.797 37.164 C-11.233 30.202 -10.695 23.266 -10.344 15.918 C-10 13 -10 13 -8 9 C-6.68 9 -5.36 9 -4 9 C-3.67 7.02 -3.34 5.04 -3 3 C-2.01 2.67 -1.02 2.34 0 2 C0 1.34 0 0.68 0 0 Z " fill="#90C6D8" transform="translate(1326,858)"/>
<path d="M0 0 C1.642 3.284 0.266 6.656 -0.438 10.125 C-0.585 10.879 -0.733 11.633 -0.885 12.41 C-1.251 14.275 -1.625 16.137 -2 18 C-2.99 18.33 -3.98 18.66 -5 19 C-5.625 21.031 -5.625 21.031 -6 23.5 C-6.375 25.969 -6.375 25.969 -7 28 C-7.99 28.33 -8.98 28.66 -10 29 C-10.33 34.61 -10.66 40.22 -11 46 C-11.66 45.34 -12.32 44.68 -13 44 C-13.66 46.64 -14.32 49.28 -15 52 C-15.66 52 -16.32 52 -17 52 C-17.062 52.619 -17.062 52.619 -17.375 55.75 C-18.019 60.132 -18.836 62.836 -22 66 C-23.32 66 -24.64 66 -26 66 C-27.868 74.006 -29.222 82.057 -30.5 90.176 C-30.665 91.17 -30.83 92.164 -31 93.188 C-31.144 94.089 -31.289 94.99 -31.438 95.918 C-31.623 96.605 -31.809 97.292 -32 98 C-32.33 98.165 -32.33 98.165 -34 99 C-34.433 99.743 -34.866 100.485 -35.312 101.25 C-37 104 -37 104 -39.5 106.438 C-44.611 111.676 -45.67 117.399 -46.688 124.375 C-46.817 125.206 -46.947 126.038 -47.08 126.895 C-47.396 128.928 -47.699 130.964 -48 133 C-48.66 133 -49.32 133 -50 133 C-50.543 111.775 -50.543 111.775 -45 105 C-44.187 104.725 -43.373 104.451 -42.535 104.168 C-40 103 -40 103 -38.672 100.828 C-38.52 100.403 -38.52 100.403 -37.75 98.25 C-37.59 97.805 -37.59 97.805 -36.781 95.555 C-35.914 92.719 -35.311 89.951 -35 87 C-34.34 87 -33.68 87 -33 87 C-32.939 85.735 -32.879 84.471 -32.816 83.168 C-32.732 81.508 -32.647 79.848 -32.562 78.188 C-32.523 77.354 -32.484 76.521 -32.443 75.662 C-32.265 72.253 -32.085 69.255 -31 66 C-30.34 66 -29.68 66 -29 66 C-29 64.68 -29 63.36 -29 62 C-27.35 62 -25.7 62 -24 62 C-23.67 60.68 -23.34 59.36 -23 58 C-22.197 56.38 -21.361 54.777 -20.5 53.188 C-18.4 49.102 -17.303 45.639 -17 41 C-16.34 41 -15.68 41 -15 41 C-15.041 39.907 -15.082 38.814 -15.125 37.688 C-15.111 30.065 -13.934 22.616 -10 16 C-9.34 16 -8.68 16 -8 16 C-8 14.68 -8 13.36 -8 12 C-7.34 12 -6.68 12 -6 12 C-6.082 11.258 -6.165 10.515 -6.25 9.75 C-5.925 6.173 -4.637 5.326 -2 3 C-1.34 2.01 -0.68 1.02 0 0 Z " fill="#8CC0D2" transform="translate(1404,667)"/>
<path d="M0 0 C0.33 0 0.66 0 1 0 C1 77.22 1 154.44 1 234 C-2.169 230.831 -1.309 226.822 -1.319 222.562 C-1.329 221.575 -1.339 220.588 -1.349 219.571 C-1.38 216.262 -1.397 212.954 -1.414 209.645 C-1.433 207.306 -1.453 204.967 -1.473 202.628 C-1.525 196.33 -1.565 190.031 -1.601 183.732 C-1.633 178.517 -1.671 173.303 -1.709 168.088 C-1.933 137.283 -2.095 106.478 -2.122 75.672 C-2.125 73.289 -2.129 70.907 -2.133 68.524 C-2.157 53.149 -2.047 37.79 -1.555 22.422 C-1.516 21.198 -1.477 19.974 -1.437 18.712 C-1.211 12.426 -0.793 6.241 0 0 Z " fill="#92BBCC" transform="translate(1174,926)"/>
<path d="M0 0 C0.66 0 1.32 0 2 0 C-0.006 8.622 -2.681 17.239 -7 25 C-7.66 25.33 -7.66 25.33 -11 27 C-11.33 28.32 -11.66 29.64 -12 31 C-12.743 32.196 -13.485 33.393 -14.25 34.625 C-18.388 41.779 -19.986 50.053 -22 58 C-22.66 58 -23.32 58 -24 58 C-23.897 58.825 -23.794 59.65 -23.688 60.5 C-24.131 65.464 -26.086 67.976 -29 72 C-29.66 72 -30.32 72 -31 72 C-31 74.31 -31 76.62 -31 79 C-31.33 79 -31.66 79 -32 79 C-32.33 83.95 -32.66 88.9 -33 94 C-33.495 94.165 -33.495 94.165 -36 95 C-35.959 95.928 -35.918 96.856 -35.875 97.812 C-36 101 -36 101 -38 104 C-37.34 104 -36.68 104 -36 104 C-36 105.32 -36 106.64 -36 108 C-36.887 108.227 -37.774 108.454 -38.688 108.688 C-43.178 110.467 -45.864 112.618 -47.977 117.047 C-49.861 122.154 -50.176 126.534 -50 132 C-50.292 134.339 -50.613 136.675 -51 139 C-51.99 138.67 -52.98 138.34 -54 138 C-53.7 126.033 -52.597 116.467 -46.062 106.312 C-41.92 99.735 -40.147 92.411 -38 85 C-35.718 77.255 -33.329 70.238 -29.125 63.312 C-25.761 57.757 -23.645 52.39 -21.688 46.25 C-19.116 38.27 -15.646 31.69 -11.072 24.689 C-6.102 16.94 -3.001 8.666 0 0 Z " fill="#375D72" transform="translate(1657,713)"/>
<path d="M0 0 C0.948 3.792 0.992 6.037 0.66 9.859 C0.613 10.417 0.613 10.417 0.377 13.238 C0.273 14.397 0.169 15.556 0.062 16.75 C-0.037 17.924 -0.137 19.099 -0.24 20.309 C-0.488 23.206 -0.741 26.103 -1 29 C-1.66 29 -2.32 29 -3 29 C-2.892 43.083 -2.779 57.166 -2.661 71.249 C-2.606 77.79 -2.552 84.331 -2.503 90.871 C-2.455 97.193 -2.402 103.515 -2.347 109.837 C-2.327 112.239 -2.308 114.641 -2.291 117.042 C-2.127 139.824 -2.127 139.824 -1.221 151.102 C-0.887 155.487 -0.851 159.854 -0.875 164.25 C-0.877 165.191 -0.879 166.131 -0.881 167.1 C-0.933 176.196 -1.22 185.284 -1.5 194.375 C-1.826 205.041 -2.124 215.704 -2.188 226.375 C-2.2 227.39 -2.213 228.405 -2.227 229.451 C-2.238 237.842 -2.238 237.842 0 242 C-1.65 242.33 -3.3 242.66 -5 243 C-4.67 242.67 -4.67 242.67 -3 241 C-3.459 239.054 -3.928 237.109 -4.468 235.184 C-5.271 231.886 -5.249 228.709 -5.247 225.324 C-5.25 224.594 -5.252 223.865 -5.255 223.113 C-5.26 220.69 -5.252 218.268 -5.243 215.845 C-5.244 214.098 -5.246 212.351 -5.249 210.603 C-5.254 205.866 -5.246 201.13 -5.236 196.393 C-5.227 191.404 -5.229 186.416 -5.229 181.427 C-5.228 173.028 -5.219 164.629 -5.206 156.231 C-5.19 146.596 -5.185 136.961 -5.186 127.327 C-5.186 116.996 -5.179 106.665 -5.17 96.335 C-5.168 93.399 -5.167 90.463 -5.167 87.527 C-5.162 69.875 -5.151 52.228 -4.583 34.583 C-4.549 33.46 -4.514 32.337 -4.479 31.179 C-3.576 7.151 -3.576 7.151 0 0 Z " fill="#90C6DA" transform="translate(1183,921)"/>
<path d="M0 0 C1.948 -0.028 3.896 -0.056 5.845 -0.082 C6.269 -0.094 6.269 -0.094 8.418 -0.152 C15.283 -0.213 21.71 0.836 27.071 5.449 C28.384 8.137 28.384 8.137 27.946 10.762 C27.098 12.594 26.24 14.423 25.333 16.227 C21.39 24.357 19.084 32.754 16.716 41.441 C15.799 44.774 14.783 47.968 13.384 51.137 C13.054 51.137 12.724 51.137 12.384 51.137 C12.071 43.211 12.263 36.28 14.649 28.691 C15.75 24.861 16.059 21.101 16.384 17.137 C17.704 16.807 19.024 16.477 20.384 16.137 C20.054 14.157 20.054 14.157 18.384 4.137 C12.961 3.38 7.71 2.993 2.224 2.931 C1.452 2.921 0.68 2.912 -0.115 2.901 C-2.636 2.87 -5.157 2.845 -7.679 2.82 C-9.438 2.8 -11.198 2.779 -12.958 2.757 C-17.568 2.702 -22.177 2.653 -26.787 2.604 C-31.5 2.554 -36.212 2.498 -40.925 2.443 C-50.155 2.336 -59.386 2.235 -68.616 2.137 C-68.616 1.807 -68.616 1.477 -68.616 1.137 C-60.189 0.992 -51.762 0.85 -43.335 0.709 C-40.479 0.662 -37.622 0.613 -34.765 0.564 C-26.616 0.424 -18.468 0.298 -10.319 0.191 C-6.879 0.141 -3.44 0.072 0 0 Z " fill="#86B2C3" transform="translate(1393.6162109375,627.86328125)"/>
<path d="M0 0 C0.33 0 0.66 0 1 0 C1 3.96 1 7.92 1 12 C0.01 12 -0.98 12 -2 12 C-2 15.3 -2 18.6 -2 22 C-2.99 22.33 -3.98 22.66 -5 23 C-5.66 24.32 -6.32 25.64 -7 27 C-7.33 27.66 -7.66 28.32 -8 29 C-8.99 29 -9.98 29 -11 29 C-11.124 29.763 -11.247 30.526 -11.375 31.312 C-12 34 -12 34 -14 37 C-14.437 38.714 -14.808 40.447 -15.125 42.188 C-15.209 42.638 -15.209 42.638 -15.633 44.918 C-15.754 45.605 -15.875 46.292 -16 47 C-16.33 47 -16.66 47 -17 47 C-17.098 47.857 -17.196 48.714 -17.297 49.598 C-18.174 56.307 -19.182 61.274 -23 67 C-23.703 68.652 -24.387 70.313 -25 72 C-25.66 72 -26.32 72 -27 72 C-27.66 90.15 -28.32 108.3 -29 127 C-29.33 127 -29.66 127 -30 127 C-30.206 119.676 -30.344 112.353 -30.439 105.027 C-30.479 102.545 -30.534 100.062 -30.604 97.58 C-31.036 81.831 -29.997 69.458 -23.014 55.236 C-21.201 51.238 -19.95 47.054 -18.625 42.875 C-16.039 35.201 -12.677 28.447 -8.573 21.477 C-4.598 14.616 -2.143 7.647 0 0 Z " fill="#84B1C2" transform="translate(1205,848)"/>
<path d="M0 0 C0.33 0 0.66 0 1 0 C1.33 19.14 1.66 38.28 2 58 C2.33 54.37 2.66 50.74 3 47 C3.33 47 3.66 47 4 47 C4.05 53.299 4.086 59.598 4.11 65.896 C4.12 68.038 4.134 70.18 4.151 72.321 C4.175 75.404 4.187 78.487 4.195 81.57 C4.206 82.524 4.216 83.477 4.227 84.459 C4.228 90.224 3.615 94.771 1 100 C0.01 99.67 -0.98 99.34 -2 99 C-1.835 98.835 -1.835 98.835 -1 98 C-0.875 94.957 -0.814 91.935 -0.795 88.89 C-0.785 87.934 -0.775 86.978 -0.765 85.993 C-0.733 82.817 -0.708 79.641 -0.684 76.465 C-0.663 74.269 -0.642 72.073 -0.621 69.878 C-0.565 64.086 -0.516 58.294 -0.468 52.502 C-0.418 46.597 -0.362 40.692 -0.307 34.787 C-0.199 23.191 -0.098 11.596 0 0 Z " fill="#85B3C3" transform="translate(1427,1063)"/>
<path d="M0 0 C-0.99 0 -1.98 0 -3 0 C-3.33 0.99 -3.66 1.98 -4 3 C-13.319 3.046 -22.637 3.082 -31.956 3.104 C-36.283 3.114 -40.61 3.128 -44.937 3.151 C-49.112 3.173 -53.288 3.185 -57.463 3.19 C-59.057 3.193 -60.65 3.201 -62.243 3.211 C-64.474 3.226 -66.705 3.227 -68.937 3.227 C-70.207 3.231 -71.477 3.236 -72.786 3.241 C-76 3 -76 3 -80 1 C-65.152 0.064 -50.308 -0.304 -35.433 -0.558 C-31.517 -0.626 -27.601 -0.703 -23.686 -0.781 C-21.188 -0.826 -18.689 -0.87 -16.191 -0.914 C-15.025 -0.938 -13.858 -0.962 -12.656 -0.986 C-11.577 -1.003 -10.497 -1.02 -9.385 -1.038 C-8.439 -1.055 -7.492 -1.072 -6.517 -1.089 C-4 -1 -4 -1 0 0 Z " fill="#8DBED0" transform="translate(1409,919)"/>
<path d="M0 0 C2.25 2.375 2.25 2.375 3.5 5.438 C3.047 12.577 -1.254 18.17 -5.191 23.973 C-8.403 29.099 -10.177 34.658 -12.062 40.375 C-12.422 41.436 -12.781 42.497 -13.15 43.59 C-14.026 46.182 -14.892 48.777 -15.75 51.375 C-16.08 51.375 -16.41 51.375 -16.75 51.375 C-16.42 47.415 -16.09 43.455 -15.75 39.375 C-15.09 39.375 -14.43 39.375 -13.75 39.375 C-13.626 37.952 -13.503 36.529 -13.375 35.062 C-13.071 31.569 -12.774 30.41 -10.75 27.375 C-10.09 27.375 -9.43 27.375 -8.75 27.375 C-8.461 26.612 -8.172 25.849 -7.875 25.062 C-6.75 22.375 -6.75 22.375 -4.75 19.375 C-4.037 16.72 -3.365 14.054 -2.75 11.375 C-2.09 11.375 -1.43 11.375 -0.75 11.375 C-0.42 9.065 -0.09 6.755 0.25 4.375 C-1.07 3.715 -2.39 3.055 -3.75 2.375 C-3.75 1.715 -3.75 1.055 -3.75 0.375 C-24.21 0.045 -44.67 -0.285 -65.75 -0.625 C-65.75 -0.955 -65.75 -1.285 -65.75 -1.625 C-59.01 -1.794 -52.27 -1.954 -45.529 -2.107 C-43.241 -2.16 -40.953 -2.215 -38.666 -2.273 C-7.076 -3.066 -7.076 -3.066 0 0 Z " fill="#385E73" transform="translate(1799.75,631.625)"/>
<path d="M0 0 C-4.625 3 -4.625 3 -8 3 C-8 3.66 -8 4.32 -8 5 C-8.66 5.33 -8.66 5.33 -12 7 C-13.75 9.625 -13.75 9.625 -15 12 C-14.34 12 -13.68 12 -13 12 C-13.66 13.65 -14.32 15.3 -15 17 C-15.99 16.67 -16.98 16.34 -18 16 C-18.33 19.3 -18.66 22.6 -19 26 C-19.66 26 -20.32 26 -21 26 C-20.983 26.362 -20.983 26.362 -20.895 28.195 C-20.734 33.94 -20.765 38.013 -24 43 C-24.66 43 -25.32 43 -26 43 C-26.33 44.65 -26.66 46.3 -27 48 C-27.66 48 -28.32 48 -29 48 C-29.66 49.32 -30.32 50.64 -31 52 C-32.636 54.025 -34.298 56.03 -36 58 C-36.165 57.505 -36.165 57.505 -37 55 C-35.88 53.279 -34.744 51.567 -33.532 49.91 C-27.218 41.265 -23.951 32.849 -21.459 22.464 C-19.354 13.991 -16.036 6.22 -8.375 1.375 C-7.64 0.888 -6.905 0.4 -6.148 -0.102 C-4 -1 -4 -1 0 0 Z " fill="#84AFC0" transform="translate(1316,634)"/>
<path d="M0 0 C1.072 0.639 2.145 1.279 3.25 1.938 C8.112 4.612 11.824 5.126 17.262 5.129 C18.531 5.133 19.8 5.136 21.107 5.139 C22.477 5.137 23.847 5.135 25.258 5.133 C26.671 5.134 28.085 5.135 29.541 5.136 C32.535 5.136 35.529 5.135 38.523 5.13 C42.336 5.125 46.149 5.128 49.961 5.134 C53.623 5.138 57.284 5.135 60.945 5.133 C61.624 5.134 61.624 5.134 65.059 5.139 C72.122 5.122 78.985 4.81 86 4 C88.541 3.939 91.083 3.913 93.625 3.938 C94.834 3.947 96.043 3.956 97.289 3.965 C98.184 3.976 99.078 3.988 100 4 C100 4.33 100 4.66 100 5 C85.285 7.441 70.564 7.441 55.688 7.625 C53.175 7.663 50.663 7.702 48.15 7.742 C42.182 7.834 36.214 7.905 30.246 7.964 C27.191 7.998 24.136 8.044 21.081 8.093 C19.352 8.112 17.623 8.131 15.895 8.148 C14.425 8.168 12.955 8.188 11.441 8.208 C8 8 8 8 5 6 C3.345 5.615 1.678 5.272 0 5 C0 3.35 0 1.7 0 0 Z " fill="#82ADBE" transform="translate(1321,912)"/>
<path d="M0 0 C0.33 0.66 0.66 1.32 1 2 C-0.113 4.527 -1.285 6.934 -2.562 9.375 C-2.931 10.1 -3.299 10.826 -3.679 11.573 C-5.303 14.764 -6.959 17.926 -8.695 21.059 C-11.957 27.079 -14.123 33.111 -15.938 39.688 C-16.161 40.472 -16.385 41.256 -16.616 42.064 C-18.076 47.728 -17.927 52.226 -17 58 C-17.66 57.67 -18.32 57.34 -19 57 C-19 56.34 -19 55.68 -19 55 C-19.66 55 -20.32 55 -21 55 C-21.285 47.309 -19.859 40.436 -18 33 C-17.34 33 -16.68 33 -16 33 C-15.887 32.303 -15.773 31.605 -15.656 30.887 C-14.925 27.668 -13.797 24.846 -12.5 21.812 C-12.057 20.767 -11.613 19.722 -11.156 18.645 C-10.472 17.081 -9.763 15.527 -9 14 C-8.34 14 -7.68 14 -7 14 C-6.67 12.68 -6.34 11.36 -6 10 C-5.34 10 -4.68 10 -4 10 C-4 8.68 -4 7.36 -4 6 C-3.34 6 -2.68 6 -2 6 C-1.856 5.196 -1.711 4.391 -1.562 3.562 C-1 1 -1 1 0 0 Z " fill="#7CABBC" transform="translate(1337,853)"/>
<path d="M0 0 C1.282 5.126 0.407 8.354 -2.074 13.02 C-4.075 16.32 -6.193 19.229 -8.688 22.188 C-12.297 26.578 -13.27 30.756 -14.125 36.312 C-14.293 37.381 -14.46 38.45 -14.633 39.551 C-14.754 40.359 -14.875 41.167 -15 42 C-15.33 42 -15.66 42 -16 42 C-16.081 39.291 -16.141 36.585 -16.188 33.875 C-16.213 33.114 -16.238 32.354 -16.264 31.57 C-16.328 26.572 -15.685 23.225 -13 19 C-8.684 15 -8.684 15 -6 15 C-5.67 13.68 -5.34 12.36 -5 11 C-4.34 10.01 -3.68 9.02 -3 8 C-2.34 8 -1.68 8 -1 8 C-0.67 5.36 -0.34 2.72 0 0 Z " fill="#8FC8DA" transform="translate(1352,800)"/>
<path d="M0 0 C2 3 2 3 1.797 5.359 C0.924 8.252 -0.286 10.608 -1.75 13.25 C-5.672 20.829 -7.803 28.795 -10 37 C-10.33 37 -10.66 37 -11 37 C-11.109 34.291 -11.188 31.586 -11.25 28.875 C-11.284 28.114 -11.317 27.354 -11.352 26.57 C-11.446 21.09 -10.325 18.282 -7 14 C-5.75 10.625 -5.75 10.625 -5 8 C-4.34 8.33 -3.68 8.66 -3 9 C-2.01 6.03 -1.02 3.06 0 0 Z " fill="#88B2C3" transform="translate(1404,676)"/>
<path d="M0 0 C0 4.276 -2.395 6.812 -5 10 C-5.695 10.617 -6.39 11.235 -7.105 11.871 C-9.449 14.505 -9.664 16.153 -10.062 19.625 C-12.367 35.898 -12.367 35.898 -19 41 C-19.66 41 -20.32 41 -21 41 C-21 40.34 -21 39.68 -21 39 C-20.34 39 -19.68 39 -19 39 C-19.082 38.299 -19.165 37.597 -19.25 36.875 C-19 34 -19 34 -17.125 31.25 C-14.443 27.148 -13.873 23.799 -13 19 C-12.34 19 -11.68 19 -11 19 C-11.062 17.969 -11.124 16.938 -11.188 15.875 C-10.989 11.765 -10.055 9.511 -8 6 C-7.01 6 -6.02 6 -5 6 C-4.67 5.01 -4.34 4.02 -4 3 C-1.938 1.312 -1.938 1.312 0 0 Z " fill="#88BACC" transform="translate(1237,796)"/>
<path d="M0 0 C0.33 0 0.66 0 1 0 C1.536 10.463 0.86 17.437 -5.125 26.062 C-5.744 26.702 -6.362 27.341 -7 28 C-7.66 28 -8.32 28 -9 28 C-9.33 29.32 -9.66 30.64 -10 32 C-10.99 32 -11.98 32 -13 32 C-13 28.269 -11.999 27.411 -9.75 24.5 C-4.374 17.049 -2.009 8.871 0 0 Z " fill="#80AFC0" transform="translate(1242,771)"/>
</svg>
