<?xml version="1.0" encoding="UTF-8"?>
<!-- Generator: visioncortex VTracer 0.6.12 -->
<svg version="1.1" xmlns="http://www.w3.org/2000/svg" width="5734" height="3200">
<path d="M0 0 C-0.125 2.25 -0.125 2.25 -1 5 C-7.321 10.145 -13.392 11.452 -21.367 11.332 C-25.473 10.814 -28.128 8.872 -31 6 C-31.041 4.334 -31.043 2.666 -31 1 C-20.772 -4.601 -10.632 -4.116 0 0 Z " fill="#9AA5B1" transform="translate(5149,3183)"/>
<path d="M0 0 C2.229 -0.027 4.458 -0.046 6.688 -0.062 C7.929 -0.074 9.17 -0.086 10.449 -0.098 C13.462 -0.015 16.083 0.292 19 1 C19 2.32 19 3.64 19 5 C13.087 9.055 6.858 8.275 0 8 C0 5.36 0 2.72 0 0 Z " fill="#E6E8E8" transform="translate(5127,3182)"/>
<path d="M0 0 C0 2.64 0 5.28 0 8 C-4.95 8 -9.9 8 -15 8 C-14 4 -14 4 -11.812 2.312 C-7.868 0.472 -4.325 0 0 0 Z " fill="#E1E0DB" transform="translate(5734,3192)"/>
</svg>
