<?xml version="1.0" encoding="UTF-8"?>
<!-- Generator: visioncortex VTracer 0.6.12 -->
<svg version="1.1" xmlns="http://www.w3.org/2000/svg" width="5734" height="3200">
<path d="M0 0 C8.584 -0.985 13.329 1.718 20 7 C30.364 15.978 34.544 23.398 36 37 C36.251 44.055 35.809 51.037 35.188 58.062 C35.117 58.991 35.047 59.92 34.975 60.877 C34.316 68.384 33.431 76.592 27.562 81.938 C27.274 82.21 27.274 82.21 25.816 83.59 C21.833 86.683 18.874 87.222 14 87 C12.747 83.242 13.862 81.79 15.275 78.253 C16.504 74.434 16.397 70.589 16.312 66.625 C16.307 66.179 16.307 66.179 16.278 63.924 C16.131 56.399 15.743 48.885 15.25 41.375 C15.189 40.31 15.127 39.245 15.064 38.147 C14.085 25.177 9.664 16.266 1.062 6.75 C0.382 5.842 -0.299 4.935 -1 4 C-0.67 2.68 -0.34 1.36 0 0 Z " fill="#ECF0F2" transform="translate(1506,523)"/>
<path d="M0 0 C8.584 -0.985 13.329 1.718 20 7 C30.364 15.978 34.544 23.398 36 37 C36.26 44.103 35.779 51.117 35.125 58.188 C35.046 59.133 34.968 60.079 34.887 61.053 C34.415 66.256 33.643 71.007 32 76 C31 72 31 72 32 68 C33.399 53.281 34.048 38.528 31 24 C30.833 23.167 30.833 23.167 30 19 C29.34 19 28.68 19 28 19 C26.32 17.011 24.655 15.01 23 13 C20.121 10.47 18.875 9.969 15 9 C14.67 8.34 14.34 7.68 14 7 C12.68 6.67 11.36 6.34 10 6 C10.33 8.97 10.66 11.94 11 15 C12.32 15 13.64 15 15 15 C15 14.01 15 13.02 15 12 C19.75 12.75 19.75 12.75 22 15 C20.35 15 18.7 15 17 15 C17 17.64 17 20.28 17 23 C17.66 23 18.32 23 19 23 C19 26.96 19 30.92 19 35 C20.65 35 22.3 35 24 35 C24 43.25 24 51.5 24 60 C22.35 60 20.7 60 19 60 C19 64.29 19 68.58 19 73 C18.34 73 17.68 73 17 73 C16.93 71.725 16.86 70.449 16.788 69.135 C16.522 64.358 16.233 59.582 15.938 54.805 C15.814 52.747 15.696 50.688 15.583 48.629 C14.65 31.586 12.769 19.702 1.062 6.75 C0.382 5.842 -0.299 4.935 -1 4 C-0.67 2.68 -0.34 1.36 0 0 Z " fill="#CACED0" transform="translate(1506,523)"/>
<path d="M0 0 C0.66 0 1.32 0 2 0 C8.38 15.258 6.457 32.857 5 49 C4.912 49.984 4.825 50.967 4.734 51.98 C3.941 57.68 2.091 60.74 -2.148 64.625 C-6.195 67.63 -9.11 68.222 -14 68 C-15.26 64.221 -14.481 62.966 -13.062 59.312 C-12.682 58.319 -12.302 57.325 -11.91 56.301 C-11.61 55.542 -11.309 54.782 -11 54 C-10.34 54 -9.68 54 -9 54 C-9 49.71 -9 45.42 -9 41 C-7.35 41 -5.7 41 -4 41 C-3.67 43.31 -3.34 45.62 -3 48 C-2.34 48 -1.68 48 -1 48 C1.03 43.941 0.482 38.782 0.719 34.309 C1 31 1 31 2 30 C2.442 20.036 2.429 9.718 0 0 Z " fill="#D9DCDE" transform="translate(1534,542)"/>
<path d="M0 0 C1.32 0 2.64 0 4 0 C4 2.64 4 5.28 4 8 C5.32 8 6.64 8 8 8 C8 10.64 8 13.28 8 16 C9.65 16 11.3 16 13 16 C13 24.25 13 32.5 13 41 C11.35 41 9.7 41 8 41 C8 45.29 8 49.58 8 54 C7.34 54 6.68 54 6 54 C5.925 52.719 5.85 51.439 5.772 50.12 C5.488 45.329 5.188 40.54 4.883 35.75 C4.754 33.685 4.629 31.619 4.508 29.553 C4.333 26.569 4.142 23.585 3.949 20.602 C3.899 19.691 3.849 18.78 3.797 17.841 C3.37 11.561 2.042 5.95 0 0 Z " fill="#0E1822" transform="translate(1517,542)"/>
<path d="M0 0 C1.65 0 3.3 0 5 0 C5 2.97 5 5.94 5 9 C3.68 9 2.36 9 1 9 C1.33 11.64 1.66 14.28 2 17 C8.625 17.125 8.625 17.125 12 16 C9.506 20.987 6.097 24.452 1 27 C-1 27.04 -3 27.043 -5 27 C-6.26 23.221 -5.481 21.966 -4.062 18.312 C-3.682 17.319 -3.302 16.325 -2.91 15.301 C-2.61 14.542 -2.309 13.782 -2 13 C-1.34 13 -0.68 13 0 13 C0 8.71 0 4.42 0 0 Z " fill="#C2C7CA" transform="translate(1525,583)"/>
<path d="M0 0 C0.825 0.165 0.825 0.165 5 1 C5 1.66 5 2.32 5 3 C5.371 3.052 5.371 3.052 7.25 3.312 C10.197 4.049 11.784 4.948 14 7 C14 7.66 14 8.32 14 9 C15.32 9.66 16.64 10.32 18 11 C17.67 11.66 17.34 12.32 17 13 C14.36 12.34 11.72 11.68 9 11 C9.144 11.675 9.289 12.351 9.438 13.047 C9.623 13.939 9.809 14.831 10 15.75 C10.186 16.632 10.371 17.513 10.562 18.422 C11 21 11 21 11 25 C11.99 25 12.98 25 14 25 C14 26.32 14 27.64 14 29 C12.35 29 10.7 29 9 29 C9 25.04 9 21.08 9 17 C8.34 17 7.68 17 7 17 C7 14.36 7 11.72 7 9 C7.99 8.67 8.98 8.34 10 8 C9.175 7.67 9.175 7.67 5 6 C5 6.99 5 7.98 5 9 C3.68 9 2.36 9 1 9 C0.67 6.03 0.34 3.06 0 0 Z " fill="#DEE1E2" transform="translate(1516,529)"/>
<path d="M0 0 C1.65 0 3.3 0 5 0 C5 8.25 5 16.5 5 25 C3.35 25 1.7 25 0 25 C0 16.75 0 8.5 0 0 Z " fill="#4F565E" transform="translate(1525,558)"/>
<path d="M0 0 C0.33 0 0.66 0 1 0 C1.38 26.615 1.38 26.615 -1 38 C-4.228 40.152 -5.284 40.201 -9 40 C-9 37.36 -9 34.72 -9 32 C-8.34 32 -7.68 32 -7 32 C-6.67 31.34 -6.34 30.68 -6 30 C-5.34 30 -4.68 30 -4 30 C-1.97 25.941 -2.518 20.782 -2.281 16.309 C-2 13 -2 13 -1 12 C-0.766 9.984 -0.587 7.962 -0.438 5.938 C-0.354 4.833 -0.27 3.728 -0.184 2.59 C-0.123 1.735 -0.062 0.881 0 0 Z " fill="#E1E4E7" transform="translate(1537,560)"/>
<path d="M0 0 C5.5 4.651 5.412 10.149 6 17 C6.133 21.008 6.13 24.992 6 29 C4.68 29 3.36 29 2 29 C2 23.39 2 17.78 2 12 C1.01 12 0.02 12 -1 12 C-1.027 10.188 -1.046 8.375 -1.062 6.562 C-1.074 5.553 -1.086 4.544 -1.098 3.504 C-1 1 -1 1 0 0 Z " fill="#F3F8FA" transform="translate(1528,542)"/>
</svg>
