<svg width="497" height="175" viewBox="0 0 497 175" fill="none" xmlns="http://www.w3.org/2000/svg">
<path fill-rule="evenodd" clip-rule="evenodd" d="M375.307 90.3367C396.441 90.3367 413.574 74.1589 413.574 54.2026C413.574 34.2463 396.441 18.0685 375.307 18.0685C354.173 18.0685 337.04 34.2463 337.04 54.2026C337.04 74.1589 354.173 90.3367 375.307 90.3367ZM375.307 76.5355C388.126 76.5355 398.518 66.5367 398.518 54.2026C398.518 41.8685 388.126 31.8697 375.307 31.8697C362.488 31.8697 352.096 41.8685 352.096 54.2026C352.096 66.5367 362.488 76.5355 375.307 76.5355Z" fill="black"/>
<path fill-rule="evenodd" clip-rule="evenodd" d="M117.601 90.3367C138.735 90.3367 155.868 74.1589 155.868 54.2026C155.868 34.2463 138.735 18.0685 117.601 18.0685C96.4664 18.0685 79.3336 34.2463 79.3336 54.2026C79.3336 74.1589 96.4664 90.3367 117.601 90.3367ZM117.601 76.5355C130.42 76.5355 140.812 66.5367 140.812 54.2026C140.812 41.8685 130.42 31.8697 117.601 31.8697C104.781 31.8697 94.3894 41.8685 94.3894 54.2026C94.3894 66.5367 104.781 76.5355 117.601 76.5355Z" fill="black"/>
<path d="M131.276 0.126923H118.353L108.693 12.9244H124.878L131.276 0.126923Z" fill="black"/>
<path fill-rule="evenodd" clip-rule="evenodd" d="M75.6845 62.107C71.9164 78.3244 56.6126 90.4621 38.3065 90.4621C17.1722 90.4621 0.0394897 74.2843 0.0394897 54.3281C0.0394897 34.3718 17.1722 18.194 38.3065 18.194C56.801 18.194 72.2311 30.5828 75.7972 47.0511H60.2576C57.1208 38.2898 48.4776 31.9952 38.3065 31.9952C25.4873 31.9952 15.0954 41.994 15.0954 54.3281C15.0954 66.6622 25.4873 76.6609 38.3065 76.6609C48.2823 76.6609 56.7883 70.6058 60.0708 62.107H75.6845Z" fill="black"/>
<path d="M291.496 51.1914V62.6088H319.349C313.703 72.897 308.434 76.1591 295.009 76.1591C281.584 76.1591 272.049 64.1144 272.049 53.9517C272.049 43.789 280.58 32.8734 297.644 32.3716C311.294 31.9701 322.068 39.2304 325.748 42.9107V25.5964C317.216 19.5741 306.426 18.0685 297.644 18.0685C287.732 18.0685 256.742 24.9691 256.742 53.9517C256.742 82.9342 284.223 90.8599 293.754 90.5876C305.287 90.2581 313.753 83.7319 319.349 74.1516V89.5839H330.641V51.1914H291.496Z" fill="black"/>
<rect x="234.911" y="18.4449" width="15.0559" height="70.5117" fill="black"/>
<path fill-rule="evenodd" clip-rule="evenodd" d="M186.481 18.8307L162.894 18.8213L162.894 89.8348H186.481V89.8254C210.32 89.8254 228.638 73.6619 228.638 54.328C228.638 34.9942 210.445 18.8307 186.481 18.8307ZM187.014 76.2845H178.2V32.3739L187.014 32.3774C201.831 32.3774 213.08 42.3725 213.08 54.3281C213.08 66.2836 201.753 76.2787 187.014 76.2787V76.2845Z" fill="black"/>
<path fill-rule="evenodd" clip-rule="evenodd" d="M496.582 35.9832C496.582 41.7463 491.666 47.0733 482.474 52.3907C492.364 57.6715 496.582 63.5044 496.582 69.9206C496.582 83.4345 481.127 90.5943 466.021 90.5943C450.027 90.5943 435.617 82.4116 435.617 69.9206C435.617 64.1575 440.533 58.8304 449.725 53.513C439.835 48.2323 435.617 42.3994 435.617 35.9832C435.617 22.4693 451.072 15.3094 466.179 15.3094C482.172 15.3094 496.582 23.4921 496.582 35.9832ZM479.564 35.6651C479.564 39.5504 474.76 42.9993 466.079 46.6453C456.4 43.5061 452.523 39.8601 452.523 35.6651C452.523 29.5274 459.378 26.2756 466.079 26.2756C473.172 26.2756 479.564 29.9919 479.564 35.6651ZM452.523 70.2105C452.523 66.3252 457.327 62.8763 466.008 59.2303C475.687 62.3695 479.564 66.0155 479.564 70.2105C479.564 76.3482 472.709 79.6 466.008 79.6C458.915 79.6 452.523 75.8837 452.523 70.2105Z" fill="black"/>
<path d="M103.424 162.163V131.366H108.624V137.365L107.767 136.851C108.529 134.908 109.748 133.404 111.424 132.337C113.138 131.233 115.138 130.68 117.423 130.68C119.632 130.68 121.594 131.176 123.308 132.166C125.06 133.156 126.432 134.528 127.422 136.28C128.451 138.032 128.965 140.013 128.965 142.222V162.163H123.594V143.936C123.594 142.222 123.289 140.775 122.68 139.594C122.07 138.413 121.194 137.499 120.051 136.851C118.947 136.166 117.671 135.823 116.223 135.823C114.776 135.823 113.481 136.166 112.338 136.851C111.233 137.499 110.357 138.432 109.71 139.651C109.062 140.832 108.738 142.26 108.738 143.936V162.163H103.424ZM156.452 162.849C153.481 162.849 150.834 162.144 148.51 160.735C146.187 159.325 144.358 157.402 143.025 154.964C141.692 152.488 141.025 149.726 141.025 146.679C141.025 143.593 141.673 140.851 142.968 138.451C144.301 136.051 146.091 134.166 148.339 132.794C150.624 131.385 153.177 130.68 155.995 130.68C158.281 130.68 160.3 131.099 162.052 131.937C163.842 132.737 165.347 133.842 166.566 135.251C167.823 136.623 168.775 138.203 169.423 139.994C170.108 141.746 170.451 143.574 170.451 145.479C170.451 145.898 170.413 146.374 170.337 146.907C170.299 147.403 170.242 147.879 170.165 148.336H144.911V143.765H167.08L164.566 145.822C164.909 143.841 164.718 142.07 163.995 140.508C163.271 138.946 162.204 137.708 160.795 136.794C159.385 135.88 157.786 135.423 155.995 135.423C154.205 135.423 152.567 135.88 151.081 136.794C149.596 137.708 148.434 139.022 147.596 140.737C146.796 142.413 146.472 144.412 146.625 146.736C146.472 148.983 146.815 150.964 147.653 152.678C148.529 154.354 149.748 155.668 151.31 156.621C152.91 157.535 154.643 157.992 156.51 157.992C158.566 157.992 160.3 157.516 161.709 156.564C163.118 155.611 164.261 154.392 165.137 152.907L169.594 155.192C168.984 156.602 168.032 157.897 166.737 159.078C165.48 160.22 163.975 161.135 162.223 161.82C160.509 162.506 158.586 162.849 156.452 162.849ZM197.777 174.733C195.606 174.733 193.587 174.39 191.721 173.705C189.892 173.019 188.312 172.067 186.978 170.848C185.683 169.667 184.693 168.277 184.007 166.677L188.978 164.391C189.512 165.839 190.521 167.058 192.007 168.048C193.53 169.077 195.435 169.591 197.72 169.591C199.472 169.591 201.053 169.248 202.463 168.562C203.91 167.915 205.053 166.924 205.891 165.591C206.729 164.296 207.148 162.715 207.148 160.849V153.935L208.119 154.964C207.053 157.059 205.51 158.659 203.491 159.763C201.51 160.868 199.32 161.42 196.92 161.42C194.025 161.42 191.435 160.754 189.15 159.42C186.864 158.049 185.074 156.202 183.779 153.878C182.484 151.516 181.836 148.907 181.836 146.05C181.836 143.155 182.484 140.546 183.779 138.222C185.074 135.899 186.845 134.07 189.093 132.737C191.378 131.366 193.968 130.68 196.863 130.68C199.263 130.68 201.434 131.233 203.377 132.337C205.358 133.404 206.938 134.889 208.119 136.794L207.319 138.222V131.366H212.519V160.849C212.519 163.515 211.89 165.896 210.633 167.991C209.376 170.086 207.624 171.724 205.377 172.905C203.167 174.124 200.634 174.733 197.777 174.733ZM197.377 156.278C199.206 156.278 200.844 155.821 202.291 154.907C203.777 153.992 204.958 152.773 205.834 151.25C206.71 149.688 207.148 147.955 207.148 146.05C207.148 144.184 206.71 142.47 205.834 140.908C204.958 139.346 203.777 138.108 202.291 137.194C200.844 136.28 199.206 135.823 197.377 135.823C195.511 135.823 193.816 136.28 192.292 137.194C190.769 138.108 189.569 139.346 188.693 140.908C187.855 142.432 187.436 144.146 187.436 146.05C187.436 147.955 187.855 149.688 188.693 151.25C189.569 152.773 190.749 153.992 192.235 154.907C193.759 155.821 195.473 156.278 197.377 156.278ZM241.098 162.849C238.127 162.849 235.441 162.163 233.041 160.792C230.642 159.382 228.737 157.459 227.328 155.021C225.918 152.583 225.214 149.821 225.214 146.736C225.214 143.651 225.899 140.908 227.27 138.508C228.68 136.108 230.584 134.204 232.984 132.794C235.384 131.385 238.088 130.68 241.098 130.68C244.069 130.68 246.754 131.385 249.154 132.794C251.554 134.166 253.439 136.051 254.811 138.451C256.22 140.851 256.925 143.612 256.925 146.736C256.925 149.859 256.201 152.64 254.754 155.078C253.306 157.478 251.382 159.382 248.983 160.792C246.621 162.163 243.993 162.849 241.098 162.849ZM241.098 157.706C243.002 157.706 244.716 157.23 246.24 156.278C247.802 155.326 249.021 154.011 249.897 152.335C250.811 150.659 251.268 148.793 251.268 146.736C251.268 144.641 250.811 142.793 249.897 141.194C249.021 139.556 247.802 138.261 246.24 137.308C244.716 136.318 243.002 135.823 241.098 135.823C239.155 135.823 237.403 136.318 235.841 137.308C234.317 138.261 233.099 139.556 232.184 141.194C231.27 142.793 230.813 144.641 230.813 146.736C230.813 148.793 231.27 150.659 232.184 152.335C233.099 154.011 234.317 155.326 235.841 156.278C237.403 157.23 239.155 157.706 241.098 157.706ZM238.412 125.595L242.926 116.567H250.125L243.726 125.595H238.412ZM283.853 162.849C280.844 162.849 278.159 162.144 275.797 160.735C273.473 159.325 271.645 157.402 270.312 154.964C268.979 152.526 268.312 149.783 268.312 146.736C268.312 143.651 268.979 140.908 270.312 138.508C271.645 136.108 273.473 134.204 275.797 132.794C278.159 131.385 280.844 130.68 283.853 130.68C285.872 130.68 287.758 131.042 289.51 131.766C291.262 132.49 292.805 133.461 294.138 134.68C295.471 135.899 296.443 137.327 297.052 138.965L292.31 141.251C291.586 139.651 290.481 138.356 288.996 137.365C287.51 136.337 285.796 135.823 283.853 135.823C281.987 135.823 280.292 136.299 278.768 137.251C277.283 138.203 276.102 139.499 275.226 141.136C274.35 142.774 273.912 144.66 273.912 146.793C273.912 148.85 274.35 150.716 275.226 152.393C276.102 154.03 277.283 155.326 278.768 156.278C280.292 157.23 281.987 157.706 283.853 157.706C285.796 157.706 287.51 157.211 288.996 156.221C290.481 155.192 291.586 153.84 292.31 152.164L297.052 154.564C296.443 156.164 295.471 157.592 294.138 158.849C292.805 160.068 291.262 161.039 289.51 161.763C287.758 162.487 285.872 162.849 283.853 162.849ZM309.71 162.163V131.366H315.024V162.163H309.71ZM309.71 126.452V119.596H315.024V126.452H309.71ZM343.61 162.849C340.639 162.849 337.953 162.163 335.554 160.792C333.154 159.382 331.249 157.459 329.84 155.021C328.431 152.583 327.726 149.821 327.726 146.736C327.726 143.651 328.412 140.908 329.783 138.508C331.192 136.108 333.097 134.204 335.497 132.794C337.896 131.385 340.601 130.68 343.61 130.68C346.581 130.68 349.267 131.385 351.666 132.794C354.066 134.166 355.952 136.051 357.323 138.451C358.732 140.851 359.437 143.612 359.437 146.736C359.437 149.859 358.713 152.64 357.266 155.078C355.818 157.478 353.895 159.382 351.495 160.792C349.133 162.163 346.505 162.849 343.61 162.849ZM343.61 157.706C345.515 157.706 347.229 157.23 348.752 156.278C350.314 155.326 351.533 154.011 352.409 152.335C353.323 150.659 353.781 148.793 353.781 146.736C353.781 144.641 353.323 142.793 352.409 141.194C351.533 139.556 350.314 138.261 348.752 137.308C347.229 136.318 345.515 135.823 343.61 135.823C341.667 135.823 339.915 136.318 338.353 137.308C336.83 138.261 335.611 139.556 334.697 141.194C333.782 142.793 333.325 144.641 333.325 146.736C333.325 148.793 333.782 150.659 334.697 152.335C335.611 154.011 336.83 155.326 338.353 156.278C339.915 157.23 341.667 157.706 343.61 157.706ZM383.109 162.849C380.024 162.849 377.338 162.087 375.053 160.563C372.767 159.039 371.148 156.983 370.196 154.392L374.424 152.335C375.3 154.164 376.5 155.611 378.024 156.678C379.547 157.744 381.242 158.278 383.109 158.278C384.785 158.278 386.175 157.878 387.28 157.078C388.385 156.278 388.937 155.23 388.937 153.935C388.937 153.021 388.67 152.297 388.137 151.764C387.642 151.193 387.032 150.755 386.309 150.45C385.585 150.107 384.918 149.859 384.309 149.707L379.681 148.393C376.9 147.593 374.862 146.45 373.567 144.965C372.31 143.479 371.681 141.746 371.681 139.765C371.681 137.937 372.139 136.356 373.053 135.023C374.005 133.651 375.281 132.585 376.881 131.823C378.519 131.061 380.347 130.68 382.366 130.68C385.071 130.68 387.489 131.366 389.623 132.737C391.794 134.109 393.337 136.032 394.251 138.508L389.908 140.508C389.223 138.908 388.194 137.651 386.823 136.737C385.452 135.785 383.909 135.308 382.195 135.308C380.633 135.308 379.395 135.708 378.481 136.508C377.567 137.27 377.11 138.242 377.11 139.422C377.11 140.298 377.338 141.022 377.795 141.594C378.252 142.127 378.805 142.546 379.452 142.851C380.1 143.117 380.728 143.346 381.338 143.536L386.366 145.022C388.88 145.746 390.822 146.869 392.194 148.393C393.603 149.917 394.308 151.745 394.308 153.878C394.308 155.592 393.832 157.135 392.879 158.506C391.927 159.878 390.613 160.944 388.937 161.706C387.261 162.468 385.318 162.849 383.109 162.849Z" fill="black"/>
</svg>
