<svg width="516" height="509" viewBox="0 0 516 509" fill="none" xmlns="http://www.w3.org/2000/svg">
<g clip-path="url(#clip0_2001_1464)">
<path d="M240.94 406.5C178.26 408.94 114.89 413.11 53.94 428.66C41.57 432.09 -6.55 445.31 6.15 463.87C32.12 495.29 166.41 505.36 209.48 507.59C219.96 508.13 230.46 508.57 240.95 508.93C198.92 509.17 156.85 507.08 115.11 501.86C84.85 497.83 33.19 489.98 8.86 472.13C-2.9 463.31 -2.97 452.15 8.86 443.29C52.89 411.84 184.8 405.94 240.95 406.5H240.94Z" fill="#0C0C0C"/>
<path d="M273.94 508.94C336.88 506.55 400.5 502.4 461.7 486.83C474.1 483.4 522.5 470.15 509.71 451.54C483.56 420.03 348.79 410.01 305.53 407.81C295 407.28 284.47 406.84 273.94 406.49C295.03 406.31 316.12 406.88 337.2 407.92C384.54 410.95 432.47 415.2 477.96 429.43C489.84 433.59 505.01 438.94 512.96 449.23C519.28 457.79 514.6 466.58 506.98 472.18C462.69 503.7 330.34 509.54 273.94 508.95V508.94Z" fill="#0C0C0C"/>
<path d="M240.94 355.69C178.26 358.13 114.89 362.3 53.94 377.85C41.57 381.28 -6.55 394.5 6.15 413.06C32.12 444.48 166.41 454.55 209.48 456.78C219.96 457.32 230.46 457.76 240.95 458.12C198.92 458.36 156.85 456.27 115.11 451.06C84.85 447.03 33.19 439.18 8.86 421.33C-2.9 412.51 -2.97 401.35 8.86 392.49C52.89 361.04 184.8 355.14 240.95 355.7L240.94 355.69Z" fill="#0C0C0C"/>
<path d="M273.94 458.13C336.88 455.74 400.5 451.59 461.7 436.02C474.1 432.59 522.5 419.34 509.71 400.73C483.56 369.22 348.79 359.2 305.53 357C295 356.47 284.47 356.03 273.94 355.68C295.03 355.5 316.12 356.07 337.2 357.11C384.54 360.14 432.47 364.39 477.96 378.62C489.84 382.78 505.01 388.13 512.96 398.42C519.28 406.98 514.6 415.77 506.98 421.37C462.69 452.89 330.34 458.73 273.94 458.14V458.13Z" fill="#0C0C0C"/>
<path d="M240.94 304.89C178.26 307.33 114.89 311.5 53.94 327.05C41.57 330.48 -6.55 343.7 6.15 362.26C32.12 393.68 166.41 403.75 209.48 405.98C219.96 406.52 230.46 406.96 240.95 407.32C198.92 407.56 156.85 405.47 115.11 400.26C84.85 396.23 33.19 388.38 8.86 370.53C-2.9 361.71 -2.97 350.55 8.86 341.69C52.89 310.24 184.8 304.34 240.95 304.9L240.94 304.89Z" fill="#0C0C0C"/>
<path d="M273.94 407.33C336.88 404.94 400.5 400.79 461.7 385.22C474.1 381.79 522.5 368.54 509.71 349.93C483.56 318.42 348.79 308.4 305.53 306.2C295 305.67 284.47 305.23 273.94 304.88C295.03 304.7 316.12 305.27 337.2 306.31C384.54 309.34 432.47 313.59 477.96 327.82C489.84 331.98 505.01 337.33 512.96 347.62C519.28 356.18 514.6 364.97 506.98 370.57C462.69 402.09 330.34 407.93 273.94 407.34V407.33Z" fill="#0C0C0C"/>
<path d="M240.94 254.08C178.26 256.52 114.89 260.69 53.94 276.24C41.57 279.67 -6.55 292.89 6.15 311.45C32.12 342.87 166.41 352.94 209.48 355.17C219.96 355.71 230.46 356.15 240.95 356.51C198.92 356.75 156.85 354.66 115.11 349.45C84.85 345.42 33.19 337.57 8.86 319.72C-2.9 310.9 -2.97 299.74 8.86 290.88C52.89 259.43 184.8 253.53 240.95 254.09L240.94 254.08Z" fill="#0C0C0C"/>
<path d="M273.94 356.52C336.88 354.13 400.5 349.98 461.7 334.41C474.1 330.98 522.5 317.73 509.71 299.12C483.56 267.61 348.79 257.59 305.53 255.39C295 254.86 284.47 254.42 273.94 254.07C295.03 253.89 316.12 254.46 337.2 255.5C384.54 258.53 432.47 262.78 477.96 277.01C489.84 281.17 505.01 286.52 512.96 296.81C519.28 305.37 514.6 314.16 506.98 319.76C462.69 351.28 330.34 357.12 273.94 356.53V356.52Z" fill="#0C0C0C"/>
<path d="M240.94 203.27C178.26 205.71 114.89 209.88 53.94 225.43C41.57 228.86 -6.55 242.08 6.15 260.64C32.12 292.06 166.41 302.13 209.48 304.36C219.96 304.9 230.46 305.34 240.95 305.7C198.92 305.94 156.85 303.85 115.11 298.63C84.85 294.6 33.19 286.75 8.86 268.9C-2.9 260.08 -2.97 248.92 8.86 240.06C52.89 208.61 184.8 202.71 240.95 203.27H240.94Z" fill="#0C0C0C"/>
<path d="M273.94 305.71C336.88 303.32 400.5 299.17 461.7 283.6C474.1 280.17 522.5 266.92 509.71 248.31C483.56 216.8 348.79 206.78 305.53 204.58C295 204.05 284.47 203.61 273.94 203.26C295.03 203.08 316.12 203.65 337.2 204.69C384.54 207.72 432.47 211.97 477.96 226.2C489.84 230.36 505.01 235.71 512.96 246C519.28 254.56 514.6 263.35 506.98 268.95C462.69 300.47 330.34 306.31 273.94 305.72V305.71Z" fill="#0C0C0C"/>
<path d="M240.94 152.47C178.26 154.91 114.89 159.08 53.94 174.63C41.57 178.06 -6.55 191.28 6.15 209.84C32.12 241.26 166.41 251.33 209.48 253.56C219.96 254.1 230.46 254.54 240.95 254.9C198.92 255.14 156.85 253.05 115.11 247.84C84.85 243.81 33.19 235.96 8.86 218.11C-2.9 209.29 -2.97 198.13 8.86 189.27C52.89 157.82 184.8 151.92 240.95 152.48L240.94 152.47Z" fill="#0C0C0C"/>
<path d="M273.94 254.91C336.88 252.52 400.5 248.37 461.7 232.8C474.1 229.37 522.5 216.12 509.71 197.51C483.56 166 348.79 155.98 305.53 153.78C295 153.25 284.47 152.81 273.94 152.46C295.03 152.28 316.12 152.85 337.2 153.89C384.54 156.92 432.47 161.17 477.96 175.4C489.84 179.56 505.01 184.91 512.96 195.2C519.28 203.76 514.6 212.55 506.98 218.15C462.69 249.67 330.34 255.51 273.94 254.92V254.91Z" fill="#0C0C0C"/>
<path d="M240.94 101.66C178.26 104.1 114.89 108.27 53.94 123.82C41.57 127.25 -6.55 140.47 6.15 159.03C32.12 190.45 166.41 200.52 209.48 202.75C219.96 203.29 230.46 203.73 240.95 204.09C198.92 204.33 156.85 202.24 115.11 197.03C84.85 193 33.19 185.15 8.86 167.3C-2.9 158.48 -2.97 147.32 8.86 138.46C52.89 107.01 184.8 101.11 240.95 101.67L240.94 101.66Z" fill="#0C0C0C"/>
<path d="M273.94 204.1C336.88 201.71 400.5 197.56 461.7 181.99C474.1 178.56 522.5 165.31 509.71 146.7C483.56 115.19 348.79 105.17 305.53 102.97C295 102.44 284.47 102 273.94 101.65C295.03 101.47 316.12 102.04 337.2 103.08C384.54 106.11 432.47 110.36 477.96 124.59C489.84 128.75 505.01 134.1 512.96 144.39C519.28 152.95 514.6 161.74 506.98 167.34C462.69 198.86 330.34 204.7 273.94 204.11V204.1Z" fill="#0C0C0C"/>
<path d="M240.94 50.8501C178.26 53.2901 114.89 57.4601 53.94 73.0101C41.57 76.4401 -6.55 89.6601 6.15 108.22C32.12 139.64 166.41 149.71 209.48 151.94C219.96 152.48 230.46 152.92 240.95 153.28C198.92 153.52 156.85 151.43 115.11 146.21C84.85 142.18 33.19 134.33 8.86 116.48C-2.9 107.66 -2.97 96.5001 8.86 87.6401C52.89 56.1901 184.8 50.2901 240.95 50.8501H240.94Z" fill="#0C0C0C"/>
<path d="M273.94 153.29C336.88 150.9 400.5 146.75 461.7 131.18C474.1 127.75 522.5 114.5 509.71 95.89C483.56 64.38 348.79 54.36 305.53 52.16C295 51.63 284.47 51.19 273.94 50.84C295.03 50.66 316.12 51.23 337.2 52.27C384.54 55.3 432.47 59.55 477.96 73.78C489.84 77.94 505.01 83.29 512.96 93.58C519.28 102.14 514.6 110.93 506.98 116.53C462.69 148.05 330.34 153.89 273.94 153.3V153.29Z" fill="#0C0C0C"/>
<path d="M240.94 0.0500008C178.26 2.49 114.89 6.66 53.94 22.21C41.57 25.64 -6.55 38.86 6.15 57.42C32.12 88.84 166.41 98.91 209.48 101.14C219.96 101.68 230.46 102.12 240.95 102.48C198.92 102.72 156.85 100.63 115.11 95.42C84.85 91.39 33.19 83.54 8.86 65.69C-2.9 56.87 -2.97 45.71 8.86 36.85C52.88 5.39 184.79 -0.509999 240.94 0.0500008Z" fill="#0C0C0C"/>
<path d="M273.94 102.49C336.88 100.1 400.5 95.95 461.7 80.38C474.1 76.95 522.5 63.7 509.71 45.09C483.56 13.58 348.8 3.55997 305.53 1.34997C295 0.819971 284.47 0.379971 273.94 0.0299712C295.03 -0.150029 316.12 0.419971 337.2 1.45997C384.54 4.48997 432.47 8.73997 477.96 22.97C489.84 27.13 505.01 32.48 512.96 42.77C519.28 51.33 514.6 60.12 506.98 65.72C462.69 97.24 330.34 103.08 273.94 102.49Z" fill="#0C0C0C"/>
</g>
<defs>
<clipPath id="clip0_2001_1464">
<rect width="515.91" height="508.98" fill="white"/>
</clipPath>
</defs>
</svg>
