<svg width="510" height="510" viewBox="0 0 510 510" fill="none" xmlns="http://www.w3.org/2000/svg">
<g clip-path="url(#clip0_2001_1465)">
<path d="M47.62 510.01C32.47 510.01 20.53 505.93 12.3 497.7C-8.64 476.76 -2.72 431.78 28.96 371.04C60.29 310.96 113.12 242.3 177.71 177.71C242.31 113.13 310.97 60.3 371.04 28.97C431.78 -2.71 476.77 -8.62 497.7 12.31C518.64 33.25 512.72 78.23 481.04 138.97C449.71 199.05 396.88 267.71 332.29 332.3C267.7 396.89 199.04 449.72 138.96 481.05C102.09 500.28 71.02 510.02 47.62 510.02V510.01ZM462.52 4C458.04 4 453.22 4.38 448.09 5.13C427.12 8.22 401.83 17.43 372.9 32.52C313.17 63.67 244.86 116.24 180.55 180.55C116.24 244.86 63.67 313.17 32.52 372.9C17.43 401.83 8.22 427.13 5.13 448.09C2 469.37 5.37 485.11 15.14 494.88C24.91 504.65 40.65 508.02 61.93 504.89C82.9 501.8 108.19 492.59 137.12 477.5C196.84 446.35 265.16 393.77 329.47 329.47C393.78 265.16 446.35 196.85 477.5 137.12C492.59 108.19 501.8 82.89 504.89 61.93C508.02 40.65 504.65 24.91 494.88 15.14C487.47 7.73 476.62 4 462.52 4Z" fill="#00205B"/>
<path d="M50.19 483.09C33.27 483.09 20.39 478.49 12.22 469.23C-6.29 448.25 1.92 406.22 35.34 350.87C68.37 296.16 122.14 234.64 186.73 177.64C251.33 120.64 319.06 74.95 377.46 48.99C436.54 22.73 479.27 19.81 497.78 40.79C516.29 61.77 508.08 103.8 474.66 159.15C441.63 213.86 387.86 275.38 323.27 332.38C258.67 389.38 190.94 435.06 132.54 461.03C99.53 475.71 71.62 483.09 50.19 483.09ZM188.06 179.13L189.38 180.63C125.08 237.37 71.59 298.56 38.76 352.93C22.87 379.26 12.71 402.51 8.57 422.05C4.38 441.85 6.61 456.83 15.21 466.58C23.81 476.32 38.39 480.4 58.56 478.71C78.46 477.04 102.8 469.86 130.9 457.37C188.94 431.57 256.31 386.12 320.61 329.38C384.91 272.64 438.4 211.45 471.23 157.08C487.12 130.75 497.28 107.5 501.41 87.96C505.6 68.16 503.37 53.18 494.77 43.43C486.17 33.69 471.59 29.61 451.42 31.3C431.52 32.97 407.18 40.15 379.08 52.64C321.04 78.44 253.67 123.89 189.37 180.63L188.05 179.13H188.06Z" fill="#00205B"/>
<path d="M53.87 456.57C34.43 456.57 20.21 451.29 12.14 440.74C-3.93 419.72 6.58 380.64 41.74 330.68C76.47 281.34 131.17 226.96 195.78 177.55C260.39 128.15 327.2 89.6 383.92 69.01C441.34 48.17 481.82 48.26 497.89 69.28C513.96 90.3 503.45 129.38 468.29 179.34C433.56 228.68 378.86 283.06 314.25 332.47C249.64 381.87 182.83 420.42 126.11 441.01C97.53 451.38 73.14 456.57 53.88 456.57H53.87ZM198.2 180.72C133.91 229.89 79.5 283.96 45 332.97C28.3 356.7 17.2 377.92 12.02 396.03C6.77 414.36 7.88 428.58 15.31 438.3C22.74 448.01 36.17 452.82 55.24 452.55C74.08 452.3 97.46 447.15 124.74 437.24C181.08 416.79 247.52 378.45 311.81 329.28C376.1 280.11 430.51 226.04 465.01 177.03C481.71 153.3 492.81 132.08 497.99 113.97C503.24 95.64 502.13 81.42 494.7 71.7C487.27 61.99 473.83 57.2 454.77 57.45C435.93 57.7 412.55 62.85 385.27 72.76C328.93 93.21 262.49 131.55 198.2 180.72Z" fill="#00205B"/>
<path d="M59.35 430.64C36.19 430.64 19.97 424.46 12.05 412.22C-1.58 391.16 11.24 355.03 48.14 310.48C84.57 266.51 140.21 219.27 204.83 177.46C269.45 135.65 335.34 104.25 390.38 89.04C446.14 73.63 484.35 76.74 497.98 97.8C511.61 118.86 498.79 154.99 461.89 199.54C425.46 243.51 369.82 290.75 305.2 332.56C240.58 374.37 174.69 405.77 119.65 420.98C96.31 427.43 76.03 430.64 59.36 430.64H59.35ZM207 180.81C142.72 222.41 87.39 269.36 51.22 313.03C16.04 355.5 2.99 390.86 15.4 410.05C27.82 429.24 65.42 431.82 118.57 417.13C173.22 402.03 238.73 370.8 303.01 329.21C367.29 287.61 422.62 240.66 458.79 196.99C493.97 154.52 507.02 119.16 494.61 99.97C482.19 80.78 444.59 78.2 391.44 92.89C336.79 107.99 271.28 139.22 207 180.81Z" fill="#00205B"/>
<path d="M67.9 405.61C38.99 405.61 19.62 398.18 11.95 383.68C0.779999 362.58 15.91 329.41 54.56 290.28C92.68 251.68 149.27 211.58 213.9 177.37C278.52 143.16 343.5 118.9 396.85 109.07C450.94 99.1 486.88 105.23 498.05 126.34C509.22 147.44 494.09 180.61 455.44 219.74C417.32 258.34 360.73 298.44 296.1 332.65C231.48 366.86 166.5 391.12 113.15 400.95C96.22 404.07 81.07 405.61 67.9 405.61ZM215.78 180.9C151.51 214.93 95.27 254.77 57.42 293.09C20.64 330.33 5.36 362.66 15.5 381.81C25.64 400.96 60.97 406.5 112.44 397.02C165.4 387.26 229.97 363.14 294.25 329.12C358.52 295.09 414.76 255.25 452.61 216.93C489.39 179.69 504.67 147.36 494.53 128.21C484.39 109.06 449.06 103.52 397.59 113C344.63 122.76 280.06 146.88 215.78 180.9Z" fill="#00205B"/>
<path d="M82.01 382.03C43.7 382.03 19.12 372.74 11.87 355.12C3.16 333.98 20.62 303.77 61.02 270.07C100.84 236.85 158.37 203.89 223 177.28C287.63 150.67 351.68 133.56 403.35 129.11C455.77 124.59 489.43 133.75 498.13 154.89C506.84 176.03 489.38 206.24 448.98 239.94C409.16 273.16 351.63 306.12 287 332.73C222.37 359.34 158.32 376.45 106.65 380.9C97.9 381.65 89.68 382.03 82.01 382.03ZM224.52 180.98C160.25 207.44 103.1 240.17 63.58 273.14C25.2 305.16 7.7 334.48 15.57 353.59C23.44 372.7 56.51 381.2 106.31 376.91C157.59 372.49 221.22 355.49 285.48 329.02C349.75 302.56 406.9 269.83 446.42 236.86C484.8 204.84 502.3 175.52 494.43 156.41C486.56 137.3 453.49 128.8 403.69 133.09C352.41 137.51 288.78 154.51 224.52 180.98Z" fill="#00205B"/>
<path d="M106.64 360.89C104.45 360.89 102.28 360.87 100.14 360.83C49.41 359.89 18.04 347.7 11.81 326.53C5.58 305.36 25.36 278.13 67.51 249.87C109.03 222.03 167.5 196.22 232.14 177.21C296.78 158.2 359.89 148.23 409.89 149.17C460.62 150.11 491.99 162.3 498.22 183.47C504.45 204.64 484.67 231.87 442.52 260.13C401 287.97 342.53 313.78 277.89 332.79C216.02 350.99 155.54 360.89 106.64 360.89ZM233.25 181.05C168.99 199.95 110.91 225.57 69.72 253.2C29.74 280.01 10.02 306.33 15.63 325.41C21.24 344.49 52.06 355.94 100.2 356.84C149.78 357.76 212.49 347.86 276.75 328.96C341.01 310.06 399.09 284.44 440.28 256.81C480.26 230 499.98 203.68 494.37 184.6C488.76 165.52 457.94 154.07 409.8 153.17C360.2 152.25 297.51 162.15 233.25 181.05Z" fill="#00205B"/>
<path d="M148.87 344.05C129.07 344.05 110.49 342.96 93.6 340.75C44.56 334.34 15.49 319.13 11.75 297.94C8.01 276.74 30.12 252.51 74 229.7C117.22 207.24 176.62 188.58 241.27 177.17C305.91 165.76 368.11 162.96 416.41 169.27C465.45 175.68 494.52 190.89 498.26 212.08C502 233.28 479.89 257.51 436.01 280.32C392.79 302.78 333.39 321.44 268.74 332.85C226.7 340.27 185.69 344.05 148.87 344.05ZM241.97 181.1C177.72 192.44 118.72 210.95 75.85 233.24C34.26 254.86 12.33 278.18 15.69 297.24C19.05 316.29 47.64 330.71 94.12 336.78C142.03 343.04 203.79 340.25 268.05 328.91C332.3 317.57 391.3 299.06 434.17 276.77C475.76 255.15 497.69 231.83 494.33 212.77C490.97 193.72 462.38 179.3 415.9 173.23C368 166.97 306.23 169.77 241.97 181.1Z" fill="#00205B"/>
<path d="M214.53 334.22C166.83 334.22 122.67 329.57 87.06 320.64C39.73 308.76 12.97 290.54 11.72 269.32C10.47 248.11 34.91 226.87 80.52 209.53C125.43 192.45 185.77 180.95 250.42 177.14C315.07 173.34 376.34 177.69 422.95 189.38C470.28 201.26 497.04 219.48 498.29 240.7C499.54 261.91 475.1 283.15 429.49 300.49C384.58 317.57 324.24 329.07 259.59 332.88C244.34 333.78 229.26 334.22 214.53 334.22ZM250.66 181.13C186.41 184.91 126.49 196.32 81.95 213.26C38.74 229.69 14.6 250.04 15.72 269.08C16.84 288.12 43.2 305.5 88.04 316.75C134.26 328.35 195.1 332.66 259.36 328.88C323.61 325.1 383.53 313.69 428.07 296.75C471.28 280.32 495.42 259.97 494.3 240.93C493.18 221.89 466.82 204.51 421.98 193.26C375.76 181.66 314.92 177.35 250.66 181.13Z" fill="#00205B"/>
<path d="M295.48 334.22C280.75 334.22 265.68 333.78 250.42 332.88C185.77 329.08 125.43 317.58 80.52 300.49C34.91 283.14 10.47 261.91 11.72 240.7C12.97 219.49 39.72 201.26 87.06 189.38C133.67 177.68 194.94 173.34 259.59 177.14C324.24 180.94 384.58 192.44 429.49 209.53C475.1 226.88 499.54 248.11 498.29 269.32C497.04 290.53 470.29 308.76 422.95 320.64C387.34 329.58 343.17 334.22 295.48 334.22ZM214.5 179.79C167.15 179.79 123.33 184.4 88.03 193.25C43.19 204.5 16.83 221.88 15.71 240.92C14.59 259.96 38.73 280.31 81.94 296.74C126.48 313.68 186.4 325.09 250.65 328.87C314.9 332.65 375.74 328.34 421.97 316.74C466.81 305.49 493.17 288.11 494.29 269.07C495.41 250.03 471.27 229.68 428.06 213.25C383.52 196.31 323.6 184.9 259.35 181.12C244.16 180.23 229.16 179.79 214.5 179.79Z" fill="#00205B"/>
<path d="M361.14 344.05C324.32 344.05 283.31 340.27 241.27 332.85C176.63 321.44 117.22 302.79 74 280.32C30.12 257.51 8.01 233.28 11.75 212.08C15.49 190.88 44.56 175.68 93.6 169.27C141.9 162.95 204.1 165.76 268.74 177.17C333.38 188.58 392.79 207.23 436.01 229.7C479.89 252.51 502 276.74 498.26 297.94C494.52 319.14 465.45 334.34 416.41 340.75C399.52 342.96 380.93 344.05 361.14 344.05ZM148.88 169.96C129.26 169.96 110.84 171.04 94.11 173.23C47.63 179.31 19.04 193.72 15.68 212.77C12.32 231.82 34.24 255.15 75.84 276.77C118.71 299.05 177.7 317.57 241.96 328.91C306.21 340.25 367.98 343.04 415.89 336.78C462.37 330.7 490.96 316.29 494.32 297.24C497.68 278.19 475.76 254.86 434.16 233.24C391.29 210.96 332.3 192.44 268.04 181.1C226.22 173.72 185.45 169.96 148.88 169.96Z" fill="#00205B"/>
<path d="M403.37 360.89C354.47 360.89 293.99 350.99 232.12 332.79C167.48 313.78 109.01 287.97 67.49 260.13C25.35 231.87 5.57 204.64 11.79 183.47C18.02 162.3 49.39 150.11 100.12 149.17C150.11 148.24 213.23 158.2 277.87 177.21C342.51 196.22 400.98 222.03 442.5 249.87C484.64 278.13 504.42 305.36 498.2 326.53C491.97 347.7 460.6 359.89 409.87 360.83C407.73 360.87 405.56 360.89 403.37 360.89ZM106.65 153.11C104.48 153.11 102.34 153.13 100.21 153.17C52.08 154.07 21.25 165.52 15.64 184.6C10.03 203.68 29.74 230 69.73 256.81C110.92 284.43 169 310.06 233.26 328.96C297.52 347.86 360.22 357.77 409.81 356.84C457.94 355.94 488.77 344.49 494.38 325.41C499.99 306.33 480.28 280.01 440.29 253.2C399.1 225.58 341.02 199.95 276.76 181.05C215.25 162.96 155.17 153.11 106.65 153.11Z" fill="#00205B"/>
<path d="M428 382.03C420.32 382.03 412.1 381.66 403.36 380.9C351.69 376.45 287.64 359.34 223.01 332.73C158.38 306.12 100.85 273.16 61.03 239.94C20.62 206.24 3.17 176.03 11.87 154.89C20.57 133.75 54.24 124.59 106.65 129.11C158.32 133.56 222.37 150.67 287 177.28C351.63 203.89 409.16 236.85 448.98 270.07C489.38 303.77 506.83 333.98 498.13 355.12C490.88 372.73 466.3 382.03 427.99 382.03H428ZM82.38 132.01C45.98 132.01 22.1 140.56 15.57 156.42C7.7 175.53 25.2 204.85 63.58 236.87C103.1 269.84 160.26 302.57 224.52 329.03C288.79 355.49 352.42 372.5 403.69 376.92C453.49 381.21 486.56 372.71 494.43 353.6C502.3 334.49 484.8 305.17 446.42 273.15C406.9 240.18 349.74 207.45 285.48 180.99C221.21 154.53 157.58 137.52 106.31 133.1C97.84 132.37 89.84 132.01 82.38 132.01Z" fill="#00205B"/>
<path d="M442.11 405.61C428.94 405.61 413.79 404.07 396.86 400.95C343.51 391.12 278.53 366.86 213.91 332.65C149.29 298.44 92.7 258.34 54.57 219.74C15.92 180.6 0.779999 147.43 11.95 126.33C23.12 105.23 59.06 99.09 113.15 109.06C166.5 118.89 231.48 143.15 296.1 177.36C360.72 211.57 417.31 251.67 455.44 290.27C494.09 329.4 509.22 362.57 498.05 383.67C490.38 398.17 471 405.6 442.1 405.6L442.11 405.61ZM68.22 108.46C40.9 108.46 22.38 115.19 15.49 128.2C5.35 147.35 20.63 179.69 57.41 216.92C95.26 255.24 151.5 295.08 215.77 329.11C280.04 363.14 344.61 387.25 397.58 397.01C449.05 406.49 484.39 400.95 494.52 381.8C504.66 362.65 489.38 330.31 452.6 293.08C414.75 254.76 358.51 214.92 294.24 180.89C229.97 146.86 165.4 122.75 112.43 112.99C95.94 109.95 81.1 108.45 68.22 108.45V108.46Z" fill="#00205B"/>
<path d="M450.66 430.64C433.98 430.64 413.71 427.44 390.37 420.98C335.33 405.77 269.44 374.37 204.82 332.56C140.2 290.75 84.56 243.51 48.13 199.54C11.23 154.99 -1.59 118.85 12.04 97.79C25.67 76.73 63.88 73.62 119.64 89.03C174.68 104.24 240.57 135.64 305.19 177.45C369.81 219.26 425.45 266.5 461.88 310.47C498.78 355.02 511.6 391.15 497.97 412.21C490.05 424.45 473.82 430.63 450.67 430.63L450.66 430.64ZM59.53 83.46C37.8 83.46 22.49 89 15.4 99.96C2.98 119.15 16.04 154.51 51.22 196.98C87.39 240.65 142.72 287.6 207 329.2C271.28 370.79 336.79 402.02 391.44 417.12C444.59 431.81 482.2 429.23 494.61 410.04C507.03 390.85 493.97 355.49 458.79 313.02C422.62 269.35 367.29 222.4 303.01 180.8C238.73 139.21 173.22 107.98 118.57 92.88C95.78 86.58 75.84 83.46 59.53 83.46Z" fill="#00205B"/>
<path d="M456.14 456.57C436.87 456.57 412.49 451.38 383.91 441.01C327.19 420.42 260.38 381.88 195.77 332.47C131.16 283.06 76.46 228.68 41.73 179.34C6.57 129.38 -3.94 90.3 12.13 69.28C28.2 48.26 68.68 48.16 126.1 69.01C182.82 89.6 249.63 128.14 314.24 177.55C378.85 226.96 433.55 281.34 468.28 330.68C503.44 380.63 513.95 419.72 497.88 440.74C489.81 451.3 475.58 456.57 456.15 456.57H456.14ZM53.79 57.45C35.49 57.45 22.55 62.24 15.31 71.71C7.88 81.42 6.78 95.64 12.02 113.98C17.2 132.09 28.3 153.31 45 177.04C79.5 226.06 133.91 280.13 198.2 329.29C262.49 378.45 328.93 416.79 385.27 437.25C412.55 447.15 435.93 452.3 454.77 452.56C473.83 452.82 487.27 448.02 494.7 438.31C502.13 428.6 503.23 414.38 497.99 396.04C492.81 377.93 481.71 356.71 465.01 332.98C430.51 283.96 376.1 229.89 311.81 180.73C247.52 131.57 181.08 93.23 124.74 72.77C97.46 62.87 74.08 57.72 55.24 57.46C54.75 57.46 54.27 57.46 53.79 57.46V57.45Z" fill="#00205B"/>
<path d="M459.82 483.09C438.39 483.09 410.49 475.71 377.47 461.03C319.07 435.07 251.34 389.38 186.74 332.38C122.14 275.38 68.38 213.86 35.35 159.15C1.92 103.8 -6.29 61.76 12.22 40.78C30.73 19.8 73.46 22.72 132.54 48.98C190.94 74.94 258.67 120.63 323.27 177.63C387.87 234.63 441.63 296.15 474.66 350.86C508.08 406.21 516.29 448.25 497.78 469.22C489.62 478.47 476.73 483.08 459.81 483.08L459.82 483.09ZM50.06 30.93C34.25 30.93 22.56 35.12 15.22 43.43C6.62 53.17 4.39 68.15 8.58 87.96C12.71 107.5 22.87 130.76 38.77 157.08C71.6 211.45 125.09 272.64 189.39 329.38C253.69 386.12 321.06 431.57 379.1 457.37C407.2 469.86 431.54 477.04 451.44 478.71C471.61 480.4 486.2 476.32 494.79 466.58C503.39 456.84 505.62 441.86 501.43 422.05C497.3 402.51 487.14 379.25 471.25 352.93C438.42 298.56 384.93 237.37 320.63 180.63C256.33 123.89 188.96 78.44 130.92 52.64C102.82 40.15 78.48 32.97 58.58 31.3C55.62 31.05 52.78 30.93 50.06 30.93Z" fill="#00205B"/>
<path d="M462.39 510.01C438.99 510.01 407.92 500.27 371.05 481.04C310.97 449.71 242.31 396.88 177.72 332.29C113.13 267.7 60.3 199.05 28.97 138.97C-2.71 78.22 -8.63 33.24 12.31 12.31C33.24 -8.63 78.22 -2.71 138.97 28.97C199.05 60.3 267.71 113.13 332.3 177.72C396.89 242.31 449.72 310.97 481.05 371.05C512.73 431.79 518.65 476.77 497.71 497.71C489.48 505.94 477.54 510.02 462.39 510.02V510.01ZM47.49 4C33.39 4 22.55 7.73 15.13 15.14C5.36 24.91 2 40.65 5.13 61.92C8.22 82.89 17.43 108.18 32.52 137.11C63.67 196.84 116.24 265.15 180.55 329.46C244.86 393.77 313.17 446.34 372.9 477.49C401.83 492.58 427.13 501.79 448.09 504.88C469.37 508.01 485.11 504.64 494.88 494.87C504.65 485.1 508.02 469.36 504.89 448.08C501.8 427.11 492.59 401.82 477.5 372.89C446.35 313.16 393.78 244.85 329.47 180.54C265.15 116.24 196.84 63.67 137.12 32.52C108.19 17.43 82.89 8.22 61.93 5.13C56.8 4.37 51.98 4 47.5 4H47.49Z" fill="#00205B"/>
</g>
<defs>
<clipPath id="clip0_2001_1465">
<rect width="510.01" height="510.01" fill="white"/>
</clipPath>
</defs>
</svg>
