<svg width="515" height="481" viewBox="0 0 515 481" fill="none" xmlns="http://www.w3.org/2000/svg">
<g clip-path="url(#clip0_2001_1461)">
<path d="M257.5 344.1C189.01 344.1 124.59 333.6 76.1 314.53C27.03 295.22 0 269.32 0 241.6C0 213.88 27.03 187.98 76.1 168.67C124.58 149.6 189.01 139.1 257.5 139.1C325.99 139.1 390.41 149.6 438.9 168.67C487.98 187.97 515 213.87 515 241.6C515 269.33 487.97 295.22 438.9 314.53C390.42 333.6 325.99 344.1 257.5 344.1ZM257.5 143.1C189.5 143.1 125.6 153.5 77.57 172.4C30.13 191.05 4 215.63 4 241.6C4 267.57 30.13 292.14 77.57 310.8C125.6 329.69 189.5 340.1 257.5 340.1C325.5 340.1 389.4 329.7 437.43 310.8C484.87 292.14 511 267.56 511 241.6C511 215.64 484.87 191.06 437.43 172.4C389.4 153.51 325.5 143.1 257.5 143.1Z" fill="#00205B"/>
<path d="M217.57 342.85C181.83 342.85 147.74 339.79 117.22 333.76C74.78 325.38 42.07 311.87 22.64 294.71C10.38 283.89 3.82003 271.95 3.13003 259.24C1.66003 232.26 26.99 205.19 74.46 183.03C121.35 161.13 184.43 146.47 252.09 141.74C304.21 138.1 354.61 140.69 397.85 149.23C440.29 157.61 473 171.11 492.43 188.28C504.69 199.1 511.25 211.04 511.94 223.75C513.41 250.73 488.08 277.8 440.62 299.96C393.73 321.86 330.65 336.52 262.99 341.25C247.66 342.32 232.47 342.85 217.58 342.85H217.57ZM297.5 144.14C282.69 144.14 267.6 144.67 252.36 145.73C185.18 150.42 122.6 164.96 76.14 186.65C30.26 208.08 5.74003 233.78 7.11003 259.02C7.74003 270.63 13.85 281.62 25.27 291.71C44.17 308.4 76.23 321.59 117.98 329.83C160.88 338.3 210.91 340.87 262.69 337.25C329.87 332.56 392.45 318.02 438.91 296.33C484.79 274.9 509.3 249.2 507.93 223.96C507.3 212.35 501.19 201.36 489.77 191.27C470.87 174.58 438.81 161.39 397.06 153.15C366.8 147.17 332.97 144.14 297.5 144.14Z" fill="#00205B"/>
<path d="M180.75 344.78C160.51 344.78 141.09 343.67 122.86 341.43C80.15 336.19 46.98 325.22 26.93 309.68C14.56 300.09 7.59998 289.06 6.23998 276.89C3.30998 250.65 26.94 222.42 72.78 197.4C118.07 172.68 179.82 153.86 246.64 144.41C298.4 137.09 348.74 136.03 392.23 141.37C434.94 146.61 468.11 157.58 488.16 173.12C500.53 182.71 507.49 193.74 508.85 205.91C511.78 232.15 488.15 260.38 442.31 285.4C397.02 310.12 335.27 328.94 268.45 338.39C238.39 342.64 208.79 344.78 180.75 344.78ZM333.85 142.1C306.33 142.1 277.06 144.14 247.22 148.36C180.86 157.75 119.59 176.41 74.71 200.9C30.38 225.1 7.47998 251.93 10.22 276.45C11.46 287.51 17.9 297.63 29.38 306.53C57.88 328.63 114.34 340.7 181.25 340.7C208.77 340.7 238.04 338.66 267.88 334.44C334.24 325.05 395.51 306.39 440.39 281.9C484.71 257.71 507.62 230.88 504.87 206.36C503.63 195.3 497.19 185.18 485.71 176.28C457.21 154.18 400.75 142.11 333.84 142.11L333.85 142.1Z" fill="#00205B"/>
<path d="M149.23 349.68C142.16 349.68 135.23 349.52 128.45 349.19C85.44 347.12 51.8 338.66 31.15 324.71C18.71 316.31 11.39 306.16 9.39002 294.54C4.99002 269.04 26.92 239.65 71.15 211.77C114.84 184.23 175.25 161.25 241.24 147.07C292.65 136.02 342.96 131.29 386.72 133.4C429.73 135.47 463.37 143.93 484.02 157.88C496.46 166.28 503.78 176.43 505.78 188.05C510.18 213.55 488.25 242.94 444.02 270.82C400.33 298.36 339.92 321.34 273.93 335.52C230.48 344.86 187.82 349.68 149.23 349.68ZM366.12 136.99C328.38 136.99 285.74 141.6 242.07 150.98C176.52 165.06 116.58 187.85 73.27 215.15C30.5 242.11 9.21002 270.06 13.32 293.86C15.13 304.36 21.88 313.63 33.38 321.4C74.84 349.41 171.17 353.51 273.09 331.61C338.64 317.53 398.58 294.74 441.89 267.44C484.66 240.48 505.94 212.53 501.84 188.73C500.03 178.23 493.28 168.96 481.78 161.2C458.09 145.19 416.46 136.99 366.13 136.99H366.12Z" fill="#00205B"/>
<path d="M123.79 357.19C85.3 357.19 54.84 351.24 35.27 339.83C22.8 332.56 15.14 323.27 12.52 312.2C6.64997 287.45 26.88 256.89 69.49 226.15C111.58 195.79 170.65 168.65 235.81 149.75C286.89 134.93 337.17 126.49 381.23 125.35C424.54 124.23 458.68 130.18 479.94 142.57C492.41 149.84 500.07 159.14 502.69 170.2C508.56 194.95 488.33 225.51 445.72 256.25C403.63 286.61 344.56 313.75 279.4 332.65C228.32 347.47 178.04 355.91 133.98 357.05C130.52 357.14 127.12 357.18 123.78 357.18L123.79 357.19ZM391.58 129.24C346.86 129.24 292.59 137.44 236.93 153.59C172.2 172.37 113.57 199.29 71.84 229.39C30.63 259.12 10.95 288.2 16.42 311.27C18.78 321.22 25.8 329.67 37.29 336.36C80.01 361.26 176.86 358.22 278.29 328.79C343.02 310.01 401.65 283.09 443.38 252.99C484.59 223.26 504.27 194.18 498.8 171.11C496.44 161.15 489.41 152.71 477.93 146.02C458.65 134.78 428.35 129.24 391.58 129.24Z" fill="#00205B"/>
<path d="M104.93 366.77C77.83 366.77 55.23 362.94 39.34 355.05C26.85 348.85 18.89 340.38 15.67 329.87C8.31997 305.86 26.86 274.14 67.85 240.55C108.34 207.37 166.07 176.08 230.39 152.45C332.31 115.01 430.99 104.85 475.93 127.17C488.42 133.37 496.38 141.84 499.6 152.35C506.95 176.36 488.41 208.08 447.42 241.67C406.93 274.85 349.2 306.14 284.88 329.77C219 353.97 154.47 366.77 104.94 366.77H104.93ZM410.31 119.35C361.39 119.35 297.34 132.1 231.78 156.19C167.87 179.67 110.55 210.72 70.4 243.63C30.74 276.13 12.67 306.34 19.51 328.69C22.39 338.11 29.66 345.77 41.13 351.46C56.56 359.12 78.56 362.84 104.97 362.84C153.89 362.84 217.94 350.09 283.5 326C347.41 302.52 404.73 271.47 444.88 238.56C484.54 206.06 502.61 175.85 495.77 153.5C492.89 144.08 485.62 136.42 474.15 130.73C458.72 123.07 436.71 119.35 410.31 119.35Z" fill="#00205B"/>
<path d="M91.68 378.12C72.35 378.12 55.92 375.6 43.36 370.38C30.86 365.18 22.61 357.49 18.83 347.53C10.01 324.27 26.84 291.39 66.21 254.94C105.1 218.94 161.49 183.5 224.98 155.15C326.4 109.86 425.65 92.38 471.96 111.65C484.46 116.85 492.71 124.54 496.49 134.5C505.31 157.76 488.48 190.65 449.11 227.09C410.22 263.09 353.83 298.53 290.34 326.88C216.42 359.89 143.64 378.13 91.68 378.13V378.12ZM423.48 107.81C372.27 107.81 300.11 125.97 226.62 158.79C163.52 186.97 107.52 222.15 68.94 257.87C30.84 293.14 14.38 324.48 22.58 346.11C25.95 355 33.46 361.93 44.9 366.69C90.26 385.56 188.24 368.09 288.71 323.23C351.81 295.05 407.81 259.87 446.39 224.15C484.49 188.88 500.95 157.54 492.75 135.91C489.38 127.02 481.87 120.09 470.43 115.33C458.25 110.26 442.28 107.82 423.48 107.82V107.81Z" fill="#00205B"/>
<path d="M82.66 390.74C69.01 390.74 57.1 389.14 47.35 385.82C34.84 381.56 26.32 374.62 22 365.18C11.71 342.67 26.83 308.62 64.59 269.32C101.88 230.5 156.93 190.91 219.58 157.84C320.45 104.6 420.29 79.74 468.02 95.99C480.53 100.25 489.05 107.19 493.37 116.63C503.66 139.14 488.54 173.19 450.78 212.49C413.49 251.31 358.44 290.9 295.79 323.97C215.51 366.34 135.88 390.74 82.65 390.74H82.66ZM432.47 95C380.1 95 301.21 119.27 221.45 161.37C159.17 194.25 104.48 233.57 67.48 272.09C30.94 310.13 16.08 342.6 25.64 363.52C29.48 371.92 37.22 378.15 48.64 382.03C95.39 397.95 193.97 373.19 293.93 320.43C356.21 287.55 410.9 248.23 447.9 209.71C484.44 171.67 499.3 139.2 489.74 118.28C485.9 109.88 478.16 103.65 466.74 99.77C457.29 96.55 445.73 95 432.47 95Z" fill="#00205B"/>
<path d="M76.7 404.32C67.21 404.32 58.7 403.36 51.34 401.37C38.81 397.99 30.01 391.76 25.18 382.83C13.41 361.07 26.83 325.87 62.97 283.71C98.67 242.07 152.37 198.33 214.19 160.54C314.46 99.24 414.88 66.97 464.1 80.22C476.63 83.6 485.43 89.83 490.26 98.76C502.03 120.52 488.61 155.72 452.47 197.88C416.77 239.52 363.07 283.26 301.25 321.05C215.99 373.17 130.61 404.31 76.7 404.31V404.32ZM439 81.33C417.76 81.33 390.85 86.28 360.58 95.91C315.56 110.23 265.66 133.76 216.27 163.95C154.8 201.53 101.44 244.98 66 286.31C31.52 326.53 17.92 361.02 28.69 380.93C32.98 388.86 40.94 394.43 52.37 397.51C75.18 403.65 111.57 399.46 154.84 385.69C199.86 371.37 249.76 347.84 299.15 317.65C360.62 280.07 413.98 236.62 449.42 195.29C483.9 155.07 497.5 120.58 486.73 100.67C482.44 92.74 474.48 87.17 463.05 84.09C456.2 82.24 448.12 81.33 439 81.33Z" fill="#00205B"/>
<path d="M72.91 418.65C66.53 418.65 60.66 418.12 55.33 417.04C42.76 414.5 33.69 408.92 28.36 400.48C15.11 379.47 26.83 343.11 61.36 298.1C95.46 253.64 147.82 205.75 208.8 163.24C308.39 93.81 409.41 54.07 460.15 64.35C472.72 66.9 481.79 72.47 487.12 80.91C500.37 101.92 488.65 138.28 454.12 183.29C420.02 227.74 367.66 275.64 306.68 318.15C217.54 380.29 127.26 418.65 72.91 418.65ZM442.91 66.79C420.11 66.79 389.78 73.83 355.29 87.28C309.95 104.97 260.08 132.38 211.09 166.53C150.44 208.81 98.39 256.4 64.53 300.54C31.58 343.49 19.63 379.14 31.74 398.35C36.46 405.83 44.66 410.81 56.12 413.13C79.62 417.89 116.58 411.14 160.19 394.13C205.53 376.44 255.4 349.03 304.39 314.88C365.04 272.6 417.09 225.01 450.95 180.87C483.9 137.92 495.85 102.27 483.74 83.06C479.02 75.58 470.82 70.61 459.36 68.28C454.45 67.28 448.94 66.79 442.91 66.79Z" fill="#00205B"/>
<path d="M70.66 433.55C66.67 433.55 62.9 433.31 59.35 432.81C46.71 431.05 37.36 426.11 31.56 418.12C16.84 397.87 26.85 360.35 59.76 312.49C92.26 265.22 143.29 213.18 203.43 165.95C302.27 88.34 403.85 41.1 456.19 48.38C468.83 50.14 478.18 55.08 483.98 63.07C498.7 83.32 488.69 120.84 455.78 168.7C423.28 215.97 372.25 268.01 312.11 315.24C219.98 387.58 125.46 433.55 70.67 433.55H70.66ZM445.18 51.67C421.22 51.67 387.97 61.01 349.93 78.58C304.27 99.67 254.46 130.97 205.89 169.11C146.05 216.09 95.32 267.82 63.04 314.77C31.63 360.46 21.33 397.27 34.78 415.78C39.92 422.85 48.37 427.25 59.89 428.86C63.14 429.31 66.63 429.54 70.34 429.54C94.3 429.54 127.55 420.2 165.59 402.63C211.25 381.54 261.06 350.24 309.63 312.1C369.47 265.12 420.2 213.39 452.48 166.44C483.89 120.75 494.19 83.94 480.74 65.43C475.6 58.36 467.15 53.96 455.63 52.35C452.38 51.9 448.89 51.67 445.18 51.67Z" fill="#00205B"/>
<path d="M69.5 448.9C67.4 448.9 65.37 448.82 63.4 448.67C50.66 447.66 41.02 443.32 34.75 435.77C18.56 416.27 26.87 377.61 58.16 326.9C89.07 276.81 138.75 220.62 198.06 168.68C246.4 126.35 296.39 90.94 342.62 66.3C388.18 42.01 426.07 30.27 452.18 32.34C464.92 33.35 474.56 37.69 480.83 45.24C497.03 64.74 488.71 103.4 457.42 154.11C426.51 204.2 376.83 260.39 317.52 312.33C269.18 354.66 219.19 390.07 172.96 414.71C130.83 437.17 95.26 448.9 69.49 448.9H69.5ZM446.29 36.11C421.38 36.11 385.58 47.93 344.51 69.82C298.54 94.32 248.81 129.55 200.7 171.68C141.68 223.37 92.27 279.24 61.56 328.99C31.68 377.41 23.03 415.4 37.82 433.21C43.38 439.9 52.09 443.76 63.71 444.68C88.7 446.67 126.83 434.77 171.08 411.18C217.05 386.68 266.78 351.45 314.89 309.32C373.91 257.63 423.32 201.76 454.03 152.01C483.91 103.59 492.56 65.6 477.77 47.79C472.21 41.1 463.5 37.24 451.88 36.32C450.08 36.18 448.22 36.11 446.29 36.11Z" fill="#00205B"/>
<path d="M69.16 464.61C68.6 464.61 68.05 464.61 67.5 464.59C54.63 464.3 44.69 460.53 37.96 453.39C20.29 434.65 26.9 394.84 56.58 341.28C85.89 288.38 134.24 228.04 192.72 171.38C240.56 125.03 290.43 85.68 336.95 57.59C382.79 29.91 421.25 15.59 448.17 16.2C461.04 16.49 470.98 20.26 477.71 27.4C495.38 46.14 488.77 85.95 459.09 139.51C429.78 192.41 381.43 252.75 322.95 309.41C275.11 355.76 225.24 395.11 178.72 423.2C133.81 450.32 95.99 464.61 69.16 464.61ZM446.55 20.19C420.78 20.19 382.69 34.64 339 61.02C292.74 88.96 243.11 128.11 195.49 174.25C137.29 230.64 89.19 290.65 60.07 343.22C31.73 394.38 24.73 433.54 40.86 450.65C46.83 456.98 55.82 460.33 67.58 460.59C93.36 461.22 132.09 446.68 176.64 419.78C222.9 391.84 272.53 352.69 320.15 306.55C378.35 250.16 426.45 190.15 455.57 137.58C483.91 86.42 490.91 47.26 474.78 30.15C468.81 23.82 459.82 20.47 448.06 20.21C447.56 20.2 447.06 20.19 446.55 20.19Z" fill="#00205B"/>
<path d="M69.48 480.6C57.54 480.6 47.98 477.43 41.16 471.01C22.02 453.03 26.93 412.07 54.99 355.66C82.7 299.94 129.72 235.46 187.36 174.08C245.01 112.7 306.42 61.75 360.29 30.6C414.83 -0.920021 455.41 -8.39002 474.55 9.58998C493.69 27.57 488.78 68.53 460.72 124.94C433 180.66 385.99 245.14 328.35 306.52C270.7 367.9 209.29 418.85 155.42 450C120.34 470.28 91.03 480.61 69.49 480.61L69.48 480.6ZM446.31 3.97998C441.3 3.97998 435.78 4.57998 429.78 5.78998C410.93 9.56998 388.22 19.09 362.3 34.08C308.76 65.04 247.66 115.74 190.28 176.84C132.89 237.94 86.12 302.08 58.57 357.46C45.23 384.27 37.15 407.53 34.56 426.58C31.94 445.85 35.08 459.82 43.9 468.11C52.72 476.4 66.86 478.66 85.93 474.83C104.78 471.05 127.49 461.53 153.41 446.54C206.95 415.58 268.05 364.88 325.43 303.78C382.82 242.68 429.59 178.54 457.13 123.16C470.47 96.35 478.55 73.09 481.14 54.04C483.76 34.77 480.62 20.8 471.8 12.51C465.76 6.82998 457.21 3.97998 446.3 3.97998H446.31Z" fill="#00205B"/>
</g>
<defs>
<clipPath id="clip0_2001_1461">
<rect width="515" height="480.6" fill="white"/>
</clipPath>
</defs>
</svg>
