<svg width="1134" height="514" viewBox="0 0 1134 514" fill="none" xmlns="http://www.w3.org/2000/svg">
<g clip-path="url(#clip0_2001_1463)">
<path d="M1058.73 75.27C1010.19 26.73 945.65 0 877 0C820.48 0 766.93 17.98 722.02 51.98C677.62 18.26 623.72 0 567 0C510.28 0 456.93 17.98 412.02 51.98C367.62 18.26 313.72 0 257 0C188.35 0 123.81 26.73 75.27 75.27C26.73 123.81 0 188.35 0 257C0 325.65 26.73 390.19 75.27 438.73C123.81 487.27 188.35 514 257 514C313.53 514 367.08 496.02 411.98 462.02C456.38 495.74 510.28 514 567 514C623.72 514 677.08 496.02 721.98 462.02C766.38 495.74 820.28 514 877 514C945.65 514 1010.19 487.27 1058.73 438.73C1107.27 390.19 1134 325.65 1134 257C1134 188.35 1107.27 123.81 1058.73 75.27ZM567 4C634.58 4 698.11 30.32 745.9 78.1C793.69 125.89 820 189.42 820 257C820 288.43 845.57 314 877 314C908.43 314 934 288.43 934 257C934 225.57 908.43 200 877 200C852.27 200 831.18 215.83 823.3 237.89C821.79 217.18 817.81 196.96 811.53 177.56C829.94 162.36 853.12 153.99 876.99 153.99C933.78 153.99 979.99 200.2 979.99 256.99C979.99 313.78 933.78 359.99 876.99 359.99C820.2 359.99 773.99 313.78 773.99 256.99C773.99 142.85 681.13 49.99 566.99 49.99C524.73 49.99 484.13 62.68 449.45 86.69C445.99 82.8 442.43 78.98 438.71 75.26C431.27 67.82 423.45 60.9 415.3 54.5C459.32 21.45 511.71 3.99 566.99 3.99L567 4ZM480.9 130.61C506.36 113.21 536.08 104 567 104C651.36 104 720 172.64 720 257C720 341.36 790.43 414 877 414C963.57 414 1034 343.57 1034 257C1034 170.43 963.57 100 877 100C845.37 100 814.95 109.38 788.88 127.13C781.16 113.98 772.23 101.47 762.13 89.72C796.05 66.35 835.72 54 877.01 54C988.94 54 1080.01 145.07 1080.01 257C1080.01 368.93 988.94 460 877.01 460C765.08 460 674.01 368.93 674.01 257C674.01 198 626.01 150 567.01 150C542.72 150 519.12 158.34 500.19 173.51C495.1 158.65 488.67 144.3 480.91 130.61H480.9ZM790.9 130.61C816.36 113.21 846.08 104 877 104C961.36 104 1030 172.64 1030 257C1030 341.36 961.36 410 877 410C792.64 410 724 341.36 724 257C724 172.64 653.57 100 567 100C535.37 100 504.95 109.38 478.88 127.13C471.16 113.98 462.23 101.47 452.13 89.72C486.05 66.35 525.72 54 567.01 54C678.94 54 770.01 145.07 770.01 257C770.01 316 818.01 364 877.01 364C936.01 364 984.01 316 984.01 257C984.01 198 936.01 150 877.01 150C852.72 150 829.12 158.34 810.19 173.51C805.1 158.65 798.67 144.3 790.91 130.61H790.9ZM824 257C824 227.78 847.78 204 877 204C906.22 204 930 227.78 930 257C930 286.22 906.22 310 877 310C847.78 310 824 286.22 824 257ZM257 510C189.42 510 125.89 483.68 78.1 435.9C30.32 388.11 4 324.58 4 257C4 189.42 30.32 125.89 78.1 78.1C125.89 30.32 189.42 4 257 4C324.58 4 388.11 30.32 435.9 78.1C483.69 125.89 510 189.42 510 257C510 288.43 535.57 314 567 314C591.73 314 612.82 298.17 620.7 276.11C622.21 296.82 626.19 317.04 632.47 336.44C614.06 351.64 590.88 360.01 567.01 360.01C510.22 360.01 464.01 313.8 464.01 257.01C464.01 142.87 371.15 50.01 257.01 50.01C142.87 50.01 50 142.86 50 257C50 371.14 142.86 464 257 464C299.26 464 339.86 451.31 374.54 427.3C378 431.19 381.56 435.01 385.28 438.72C392.72 446.16 400.54 453.08 408.69 459.48C364.67 492.53 312.28 509.99 257 509.99V510ZM514 257C514 227.78 537.78 204 567 204C596.22 204 620 227.78 620 257C620 286.22 596.22 310 567 310C537.78 310 514 286.22 514 257ZM343.1 383.39C317.64 400.79 287.92 410 257 410C172.64 410 104 341.36 104 257C104 172.64 172.64 104 257 104C341.36 104 410 172.64 410 257C410 341.36 480.43 414 567 414C598.63 414 629.05 404.62 655.12 386.87C662.84 400.02 671.77 412.54 681.87 424.28C647.95 447.65 608.28 460 566.99 460C455.06 460 363.99 368.93 363.99 257C363.99 198 315.99 150 256.99 150C197.99 150 149.99 198 149.99 257C149.99 316 197.99 364 256.99 364C281.28 364 304.88 355.66 323.81 340.49C328.9 355.35 335.33 369.7 343.09 383.39H343.1ZM567 410C482.64 410 414 341.36 414 257C414 172.64 343.57 100 257 100C170.43 100 100 170.43 100 257C100 343.57 170.43 414 257 414C288.63 414 319.05 404.62 345.12 386.87C352.84 400.02 361.77 412.54 371.87 424.28C337.95 447.65 298.28 460 256.99 460C145.06 460 53.99 368.93 53.99 257C53.99 145.07 145.07 54 257 54C368.93 54 460 145.07 460 257C460 316 508 364 567 364C591.29 364 614.89 355.66 633.82 340.49C638.91 355.35 645.34 369.7 653.1 383.39C627.64 400.79 597.92 410 567 410ZM567 510C499.42 510 435.89 483.68 388.1 435.9C340.31 388.11 314 324.58 314 256.94C313.97 225.54 288.41 200 257 200C225.59 200 200 225.57 200 257C200 288.43 225.57 314 257 314C281.73 314 302.82 298.17 310.7 276.11C312.21 296.82 316.19 317.04 322.47 336.44C304.06 351.64 280.88 360.01 257.01 360.01C200.22 360.01 154.01 313.8 154.01 257.01C154.01 200.22 200.22 154.01 257.01 154.01C313.8 154.01 360.01 200.22 360.01 257.01C360.01 371.15 452.87 464.01 567.01 464.01C609.27 464.01 649.87 451.32 684.55 427.31C688.01 431.2 691.57 435.02 695.29 438.73C702.73 446.17 710.55 453.09 718.7 459.49C674.68 492.54 622.29 510 567.01 510H567ZM310 257C310 286.22 286.22 310 257 310C227.78 310 204 286.22 204 257C204 227.78 227.78 204 257 204C286.22 204 310 227.78 310 257ZM1055.9 435.9C1008.11 483.69 944.58 510 877 510C809.42 510 745.89 483.68 698.1 435.9C650.31 388.11 624 324.58 624 256.94C623.97 225.54 598.41 200 567 200C542.27 200 521.18 215.83 513.3 237.89C511.79 217.18 507.81 196.96 501.53 177.56C519.94 162.36 543.12 153.99 566.99 153.99C623.78 153.99 669.99 200.2 669.99 256.99C669.99 371.13 762.85 463.99 876.99 463.99C991.13 463.99 1083.99 371.13 1083.99 256.99C1083.99 142.85 991.13 49.99 876.99 49.99C834.73 49.99 794.13 62.68 759.45 86.69C755.99 82.8 752.43 78.98 748.71 75.26C741.27 67.82 733.45 60.9 725.3 54.5C769.32 21.45 821.71 3.99 876.99 3.99C944.57 3.99 1008.1 30.31 1055.89 78.09C1103.68 125.88 1129.99 189.41 1129.99 256.99C1129.99 324.57 1103.67 388.1 1055.89 435.89L1055.9 435.9Z" fill="#00205B"/>
</g>
<defs>
<clipPath id="clip0_2001_1463">
<rect width="1134" height="514" fill="white"/>
</clipPath>
</defs>
</svg>
