<svg width="515" height="515" viewBox="0 0 515 515" fill="none" xmlns="http://www.w3.org/2000/svg">
<g clip-path="url(#clip0_2001_1462)">
<path d="M147.391 147.394C180.652 114.133 180.652 60.2067 147.391 26.9457C114.13 -6.31524 60.2037 -6.31524 26.9427 26.9457C-6.31823 60.2067 -6.31823 114.133 26.9427 147.394C60.2037 180.655 114.13 180.655 147.391 147.394Z" fill="#FEFEFB"/>
<path d="M488.061 487.398C521.322 454.137 521.322 400.21 488.061 366.949C454.8 333.688 400.873 333.688 367.612 366.949C334.351 400.21 334.351 454.137 367.612 487.398C400.873 520.659 454.8 520.659 488.061 487.398Z" fill="#FEFEFB"/>
<path d="M257.5 174.33C209.44 174.33 170.33 135.23 170.33 87.16C170.33 39.09 209.44 0 257.5 0C305.56 0 344.67 39.1 344.67 87.17C344.67 135.24 305.57 174.34 257.5 174.34V174.33ZM257.5 4C211.64 4 174.33 41.31 174.33 87.17C174.33 133.03 211.64 170.34 257.5 170.34C303.36 170.34 340.67 133.03 340.67 87.17C340.67 41.31 303.36 4 257.5 4Z" fill="#FEFEFB"/>
<path d="M427.83 174.33C379.77 174.33 340.66 135.23 340.66 87.16C340.66 39.09 379.77 0 427.83 0C475.89 0 515 39.1 515 87.17C515 135.24 475.9 174.34 427.83 174.34V174.33ZM427.83 4C381.97 4 344.66 41.31 344.66 87.17C344.66 133.03 381.97 170.34 427.83 170.34C473.69 170.34 511 133.03 511 87.17C511 41.31 473.69 4 427.83 4Z" fill="#FEFEFB"/>
<path d="M87.17 344.33C39.11 344.33 0 305.23 0 257.16C0 209.09 39.1 169.99 87.17 169.99C135.24 169.99 174.34 209.09 174.34 257.16C174.34 305.23 135.24 344.33 87.17 344.33ZM87.17 174C41.31 174 4 211.31 4 257.17C4 303.03 41.31 340.34 87.17 340.34C133.03 340.34 170.34 303.03 170.34 257.17C170.34 211.31 133.03 174 87.17 174Z" fill="#FEFEFB"/>
<path d="M257.5 344.33C209.44 344.33 170.33 305.23 170.33 257.16C170.33 209.09 209.43 169.99 257.5 169.99C305.57 169.99 344.67 209.09 344.67 257.16C344.67 305.23 305.57 344.33 257.5 344.33ZM257.5 174C211.64 174 174.33 211.31 174.33 257.17C174.33 303.03 211.64 340.34 257.5 340.34C303.36 340.34 340.67 303.03 340.67 257.17C340.67 211.31 303.36 174 257.5 174Z" fill="#FEFEFB"/>
<path d="M427.83 344.33C379.77 344.33 340.66 305.23 340.66 257.16C340.66 209.09 379.76 169.99 427.83 169.99C475.9 169.99 515 209.09 515 257.16C515 305.23 475.9 344.33 427.83 344.33ZM427.83 174C381.97 174 344.66 211.31 344.66 257.17C344.66 303.03 381.97 340.34 427.83 340.34C473.69 340.34 511 303.03 511 257.17C511 211.31 473.69 174 427.83 174Z" fill="#FEFEFB"/>
<path d="M87.17 514.33C39.11 514.33 0 475.23 0 427.16C0 379.09 39.1 339.99 87.17 339.99C135.24 339.99 174.34 379.09 174.34 427.16C174.34 475.23 135.24 514.33 87.17 514.33ZM87.17 344C41.31 344 4 381.31 4 427.17C4 473.03 41.31 510.34 87.17 510.34C133.03 510.34 170.34 473.03 170.34 427.17C170.34 381.31 133.03 344 87.17 344Z" fill="#FEFEFB"/>
<path d="M257.5 514.33C209.44 514.33 170.33 475.23 170.33 427.16C170.33 379.09 209.43 339.99 257.5 339.99C305.57 339.99 344.67 379.09 344.67 427.16C344.67 475.23 305.57 514.33 257.5 514.33ZM257.5 344C211.64 344 174.33 381.31 174.33 427.17C174.33 473.03 211.64 510.34 257.5 510.34C303.36 510.34 340.67 473.03 340.67 427.17C340.67 381.31 303.36 344 257.5 344Z" fill="#FEFEFB"/>
</g>
<defs>
<clipPath id="clip0_2001_1462">
<rect width="515" height="514.33" fill="white"/>
</clipPath>
</defs>
</svg>
